<svg width="224" height="84" viewBox="0 0 224 84" fill="none" xmlns="http://www.w3.org/2000/svg">
<path d="M60.5008 78.5496C100.701 86.7294 142.701 85.6831 182.301 75.3157C191.501 72.9378 201.001 70.2747 209.601 66.375C216.301 63.3313 222.201 58.4805 223.401 51.1567C226.001 34.6069 207.901 20.6251 194.201 14.3476C176.301 6.16782 155.401 3.50462 135.701 1.79256C115.701 -0.014604 95.6008 0.270741 75.7008 3.12416C56.4008 5.88246 36.4008 10.9235 19.3008 20.0544C5.10082 27.6636 -6.79918 44.0232 4.70082 58.6707C10.2008 65.7092 18.9008 69.3235 27.6008 71.416C38.6008 74.0792 50.2008 75.601 61.6008 76.2668C85.6008 77.7887 109.801 75.2206 133.001 68.8479C136.101 67.9919 134.801 63.4264 131.701 64.2825C113.401 69.3235 94.6008 71.8916 75.6008 71.9867C57.9008 71.9867 37.9008 70.8453 21.3008 64.4727C13.7008 61.5242 6.00081 55.8173 5.10082 47.4473C4.10082 38.2212 11.3008 30.4219 19.0008 25.8564C33.5008 17.0108 51.7008 12.2551 68.5008 9.21146C103.201 2.7437 141.501 4.26553 175.701 13.016C191.601 17.1059 210.201 25.476 216.901 41.2649C225.101 60.6681 197.701 66.0896 183.601 69.9893C144.101 80.8323 102.001 82.1639 61.8008 73.9841C58.6008 73.3183 57.3008 77.8838 60.5008 78.5496Z" fill="#EB5757"/>
</svg>
