<svg width="70" height="100" viewBox="0 0 70 100" fill="none" xmlns="http://www.w3.org/2000/svg">
<path style="mix-blend-mode:multiply" d="M48.3172 48.688C48.3114 48.719 48.304 48.7496 48.2949 48.7798C48.304 48.7496 48.3114 48.719 48.3172 48.688V48.688Z" fill="url(#paint0_radial_2849_37947)"/>
<path style="mix-blend-mode:multiply" d="M48.2394 48.9106L48.2061 48.9774L48.2394 48.9106Z" fill="url(#paint1_radial_2849_37947)"/>
<path style="mix-blend-mode:multiply" d="M37.5518 68.0266C37.5768 68.0266 37.6046 68.0266 37.6269 68.0266C37.6046 68.0155 37.5768 68.0238 37.5518 68.0266Z" fill="url(#paint2_radial_2849_37947)"/>
<path style="mix-blend-mode:multiply" d="M37.2861 68.079L37.3668 68.0596L37.2861 68.079Z" fill="url(#paint3_radial_2849_37947)"/>
<path style="mix-blend-mode:multiply" d="M37.645 66.3571C37.8463 66.8982 37.9572 67.4687 37.9733 68.0458C37.9551 68.0409 37.9381 68.0324 37.9232 68.0208C37.62 67.84 34.4373 68.9361 33.7918 68.9723C31.4716 69.1114 28.9399 68.7525 26.8672 67.6063C26.3277 67.3122 25.8228 66.9585 25.3621 66.5518C24.708 65.963 24.1643 65.2621 23.7568 64.482C37.9733 71.4372 28.7034 64.6767 35.8673 52.9502C33.956 63.831 35.3665 64.2622 37.645 66.3571Z" fill="url(#paint4_radial_2849_37947)"/>
<path d="M41.5062 98.0247L51.7304 76.6582C49.9387 79.2817 41.6704 79.407 32.4032 76.8224C23.1361 74.2378 16.1558 69.8671 16.0167 66.7095L13.4099 90.1903C12.7255 92.5802 18.4649 96.2636 26.227 98.4281C33.989 100.593 40.8246 100.409 41.5062 98.0247Z" fill="#3B6B6E"/>
<path style="mix-blend-mode:multiply" opacity="0.7" d="M41.5062 98.0247L51.7304 76.6582C49.9387 79.2817 41.6704 79.407 32.4032 76.8224C23.1361 74.2378 16.1558 69.8671 16.0167 66.7095L13.4099 90.1903C12.7255 92.5802 18.4649 96.2636 26.227 98.4281C33.989 100.593 40.8246 100.409 41.5062 98.0247Z" fill="url(#paint5_radial_2849_37947)"/>
<path style="mix-blend-mode:overlay" d="M41.5062 98.0247L51.7304 76.6582C49.9387 79.2817 41.6704 79.407 32.4032 76.8224C23.1361 74.2378 16.1558 69.8671 16.0167 66.7095L13.4099 90.1903C12.7255 92.5802 18.4649 96.2636 26.227 98.4281C33.989 100.593 40.8246 100.409 41.5062 98.0247Z" fill="url(#paint6_radial_2849_37947)"/>
<path d="M32.3981 76.8223C41.6652 79.4068 49.9253 79.2816 51.7253 76.6581C51.8509 76.4787 51.945 76.2793 52.0035 76.0683C52.9132 72.8856 45.6047 68.0642 35.6893 65.3016C25.7739 62.539 16.9881 62.8756 16.0783 66.0583C16.0206 66.2703 15.9962 66.4899 16.006 66.7093C16.1507 69.867 23.1337 74.2405 32.3981 76.8223ZM17.6113 66.4812C18.4042 63.6991 26.4082 63.5016 35.4862 66.0305C44.5642 68.5594 51.2801 72.8633 50.4845 75.6426C49.6888 78.4219 41.6847 78.625 32.6067 76.0961C23.5288 73.5672 16.8156 69.2605 17.6113 66.4812Z" fill="#498487"/>
<path style="mix-blend-mode:overlay" d="M32.3981 76.8223C41.6652 79.4068 49.9253 79.2816 51.7253 76.6581C51.8509 76.4787 51.945 76.2793 52.0035 76.0683C52.9132 72.8856 45.6047 68.0642 35.6893 65.3016C25.7739 62.539 16.9881 62.8756 16.0783 66.0583C16.0206 66.2703 15.9962 66.4899 16.006 66.7093C16.1507 69.867 23.1337 74.2405 32.3981 76.8223ZM17.6113 66.4812C18.4042 63.6991 26.4082 63.5016 35.4862 66.0305C44.5642 68.5594 51.2801 72.8633 50.4845 75.6426C49.6888 78.4219 41.6847 78.625 32.6067 76.0961C23.5288 73.5672 16.8156 69.2605 17.6113 66.4812Z" fill="url(#paint7_radial_2849_37947)"/>
<path d="M50.4837 75.6314C51.2794 72.8493 44.5634 68.5482 35.4854 66.0193C26.4074 63.4904 18.4034 63.6907 17.6105 66.47C16.8176 69.2493 23.5308 73.5532 32.606 76.0849C41.6811 78.6166 49.688 78.4135 50.4837 75.6314Z" fill="#366163"/>
<path style="mix-blend-mode:multiply" opacity="0.7" d="M50.4837 75.6314C51.2794 72.8493 44.5634 68.5482 35.4854 66.0193C26.4074 63.4904 18.4034 63.6907 17.6105 66.47C16.8176 69.2493 23.5308 73.5532 32.606 76.0849C41.6811 78.6166 49.688 78.4135 50.4837 75.6314Z" fill="url(#paint8_radial_2849_37947)"/>
<g style="mix-blend-mode:overlay" opacity="0.3">
<path d="M27.0217 84.7371C23.9447 83.8802 21.8498 81.7881 22.3422 80.0688C22.8347 78.3494 25.7281 77.6483 28.8023 78.5052C31.8765 79.3621 33.9714 81.4514 33.4817 83.1708C32.9921 84.8901 30.0959 85.5912 27.0217 84.7371Z" fill="#1D1D1B"/>
</g>
<path d="M33.2773 85.2856C33.4776 84.5789 33.7057 84.0058 33.4136 83.4077C31.9836 80.4948 25.3928 79.0593 24.5944 81.8469C24.5499 82.0055 24.1965 83.1406 24.1826 83.2964C25.4624 84.9629 32.3536 88.5184 33.2773 85.2856Z" fill="#FFFBCF"/>
<path style="mix-blend-mode:multiply" d="M33.2773 85.2856C33.4776 84.5789 33.7057 84.0058 33.4136 83.4077C31.9836 80.4948 25.3928 79.0593 24.5944 81.8469C24.5499 82.0055 24.1965 83.1406 24.1826 83.2964C25.4624 84.9629 32.3536 88.5184 33.2773 85.2856Z" fill="url(#paint9_radial_2849_37947)"/>
<path d="M28.0817 86.5232C25.6112 85.8361 23.9086 84.2725 24.2508 83.0289C24.593 81.7853 26.8965 81.3402 29.367 82.0274C31.8375 82.7146 33.5569 84.2837 33.2008 85.5245C32.8446 86.7653 30.5605 87.2132 28.0817 86.5232Z" fill="#FFFEF7"/>
<path style="mix-blend-mode:multiply" d="M29.9196 84.3507C29.302 84.1782 28.8569 83.8444 28.9236 83.6051C28.9904 83.3658 29.5496 83.3102 30.1672 83.4827C30.7848 83.6552 31.23 83.989 31.1632 84.2283C31.0964 84.4676 30.5372 84.5343 29.9196 84.3507Z" fill="url(#paint10_radial_2849_37947)"/>
<path style="mix-blend-mode:multiply" d="M26.7614 85.1324C26.1438 84.9572 25.6986 84.6261 25.7654 84.3868C25.8322 84.1476 26.3914 84.0919 27.009 84.2644C27.6266 84.4369 28.0718 84.7736 28.005 85.01C27.9382 85.2465 27.379 85.3049 26.7614 85.1324Z" fill="url(#paint11_radial_2849_37947)"/>
<path style="mix-blend-mode:multiply" d="M26.8285 83.6995C26.2109 83.527 25.7657 83.1931 25.8353 82.9539C25.9048 82.7146 26.4613 82.659 27.0761 82.8287C27.6909 82.9984 28.1417 83.335 28.0721 83.5771C28.0025 83.8191 27.4461 83.8608 26.8285 83.6995Z" fill="url(#paint12_radial_2849_37947)"/>
<path style="mix-blend-mode:multiply" d="M29.4748 85.8891C28.8572 85.7194 28.4092 85.3828 28.4788 85.1435C28.5484 84.9043 29.1048 84.8486 29.7224 85.0239C30.34 85.1992 30.7852 85.5275 30.7184 85.7695C30.6516 86.0116 30.098 86.0589 29.4748 85.8891Z" fill="url(#paint13_radial_2849_37947)"/>
<path d="M39.2952 61.8859C37.1586 61.4269 34.8272 61.4853 32.5598 61.3518C30.8905 61.2544 28.6064 60.4337 27.1458 61.63C25.6852 62.8263 26.492 64.4621 26.7285 66.1564C27.054 68.5101 26.9678 70.7663 25.6407 72.7528C24.4695 74.4999 22.8197 75.6823 22.5804 77.9302C21.768 85.8815 34.0593 84.7408 38.4022 82.529C43.2208 80.078 46.3756 69.175 45.733 64.2229C43.6492 64.106 42.7395 63.0906 40.9422 62.3839C40.4069 62.1758 39.8562 62.0093 39.2952 61.8859Z" fill="#F2C2B3"/>
<path style="mix-blend-mode:multiply" d="M39.2952 61.8859C37.1586 61.4269 34.8272 61.4853 32.5598 61.3518C30.8905 61.2544 28.6064 60.4337 27.1458 61.63C25.6852 62.8263 26.492 64.4621 26.7285 66.1564C27.054 68.5101 26.9678 70.7663 25.6407 72.7528C24.4695 74.4999 22.8197 75.6823 22.5804 77.9302C21.768 85.8815 34.0593 84.7408 38.4022 82.529C43.2208 80.078 46.3756 69.175 45.733 64.2229C43.6492 64.106 42.7395 63.0906 40.9422 62.3839C40.4069 62.1758 39.8562 62.0093 39.2952 61.8859Z" fill="url(#paint14_radial_2849_37947)"/>
<g style="mix-blend-mode:overlay" opacity="0.6">
<path d="M45.3633 69.8539C45.2938 70.2072 45.2103 70.5772 45.1268 70.9417C43.5105 70.5606 41.8412 70.0848 40.1608 70.4882C38.2356 70.9612 35.2003 73.4957 33.737 74.8672C30.7768 77.6493 28.1728 80.4314 26.0306 83.4305C23.8049 82.5792 22.2859 80.8793 22.5919 77.9247C22.82 75.6768 24.4726 74.5 25.6522 72.7473C26.7038 71.1754 26.9765 69.4338 26.8819 67.606C28.9545 68.7522 31.4863 69.1111 33.8065 68.972C34.452 68.9358 37.6347 67.8397 37.9379 68.0205C40.1135 69.2706 42.5816 69.9215 45.0907 69.9068L45.3633 69.8539Z" fill="#1D1D1B"/>
</g>
<path d="M30.5414 84.3989C28.3157 84.3989 25.2777 84.001 23.5528 82.1204C22.5679 81.0437 22.1617 79.6165 22.3314 77.9027C22.5012 76.2334 23.3942 75.1623 24.3346 74.0078C24.721 73.5575 25.0841 73.0876 25.4223 72.6C26.5352 70.9308 26.8551 68.9555 26.4712 66.1678C26.4211 65.8089 26.3404 65.4473 26.2653 65.0967C25.9871 63.8031 25.6894 62.4677 26.9748 61.4216C27.6268 60.9291 28.4318 60.6828 29.2477 60.7261C29.9149 60.7438 30.5799 60.8117 31.2369 60.9291C31.7099 61.0015 32.155 61.0683 32.564 61.0961C33.1733 61.1323 33.7909 61.1517 34.4029 61.1712C36.0527 61.2324 37.7554 61.2936 39.3384 61.633C39.9171 61.7535 40.4847 61.922 41.0354 62.1366C41.5962 62.3667 42.1425 62.6306 42.6713 62.9267C43.6144 63.4414 44.4296 63.8837 45.7483 63.9561H45.9542L45.982 64.1619C46.6553 69.3644 43.2917 80.2981 38.5177 82.7157C36.5869 83.734 33.3791 84.3989 30.5414 84.3989ZM29.2477 61.2324C28.4131 61.2324 27.7816 61.416 27.3003 61.8139C26.2458 62.6735 26.4823 63.7613 26.7438 65.0077C26.8217 65.3638 26.9024 65.7366 26.9553 66.1205C27.2335 68.068 27.3448 70.6192 25.8424 72.8838C25.4973 73.3862 25.1258 73.87 24.7296 74.3333C23.8338 75.4155 22.9908 76.4365 22.835 77.95C22.6764 79.5274 23.0437 80.8211 23.9311 81.7893C25.1803 83.1553 27.5312 83.9037 30.5498 83.9037C33.3068 83.9037 36.4172 83.2638 38.2979 82.304C42.8494 79.9865 46.0683 69.5982 45.5313 64.4485C44.2182 64.3344 43.3585 63.8643 42.4487 63.3746C41.9401 63.0856 41.4132 62.83 40.8713 62.6095C40.3444 62.4052 39.802 62.2433 39.2493 62.1255C37.7136 61.7944 36.0333 61.736 34.4057 61.6775C33.7881 61.6553 33.1677 61.6358 32.5528 61.5996C32.1216 61.5746 31.6626 61.5023 31.1785 61.4299C30.5445 61.3162 29.9028 61.2501 29.2589 61.2324H29.2477Z" fill="#CF6240"/>
<g style="mix-blend-mode:overlay" opacity="0.1">
<path d="M45.0066 71.4287C43.827 76.0804 41.4539 80.9852 38.4131 82.5237C36.5936 83.4473 33.3608 84.1929 30.2949 84.1429C32.1394 81.3385 33.8449 77.9026 35.9732 75.9246C38.669 73.4179 41.4789 71.6541 45.0066 71.4287Z" fill="white"/>
</g>
<path d="M36.2906 52.7305C36.2906 53.2869 35.9289 53.8071 35.6952 54.2968C35.3786 54.9754 35.1361 55.6861 34.9719 56.4167C34.6217 58.0134 34.5821 59.6626 34.855 61.2743C35.101 62.802 35.6062 64.2764 36.349 65.6338C36.6901 66.2641 37.0769 66.8685 37.5064 67.4422C37.537 67.4867 37.8402 67.84 37.8013 67.8734L37.4368 68.1711C35.6611 66.0659 34.5231 63.4976 34.1567 60.7679C33.9648 59.2795 34.0009 57.563 34.4739 56.1302C34.6611 55.4235 34.9145 54.7361 35.2306 54.077C35.4365 53.668 35.7648 52.8167 36.2906 52.7305Z" fill="#CF6240"/>
<path d="M32.5299 77.1006C41.7971 79.6851 50.0571 79.5599 51.8571 76.9364C51.9827 76.7571 52.0768 76.5576 52.1353 76.3466C53.0451 73.1639 45.7365 68.3425 35.8211 65.5799C25.9058 62.8173 17.1199 63.1539 16.2102 66.3367C16.1525 66.5486 16.1281 66.7682 16.1378 66.9877C16.2825 70.1453 23.2656 74.5188 32.5299 77.1006ZM17.7431 66.7595C18.536 63.9774 26.5401 63.7799 35.618 66.3088C44.696 68.8377 51.412 73.1416 50.6163 75.9209C49.8206 78.7003 41.8165 78.9034 32.7386 76.3744C23.6606 73.8455 16.9474 69.5388 17.7431 66.7595Z" fill="#498487"/>
<path style="mix-blend-mode:overlay" d="M32.5299 77.1006C41.7971 79.6851 50.0571 79.5599 51.8571 76.9364C51.9827 76.7571 52.0768 76.5576 52.1353 76.3466C53.0451 73.1639 45.7365 68.3425 35.8211 65.5799C25.9058 62.8173 17.1199 63.1539 16.2102 66.3367C16.1525 66.5486 16.1281 66.7682 16.1378 66.9877C16.2825 70.1453 23.2656 74.5188 32.5299 77.1006ZM17.7431 66.7595C18.536 63.9774 26.5401 63.7799 35.618 66.3088C44.696 68.8377 51.412 73.1416 50.6163 75.9209C49.8206 78.7003 41.8165 78.9034 32.7386 76.3744C23.6606 73.8455 16.9474 69.5388 17.7431 66.7595Z" fill="url(#paint15_radial_2849_37947)"/>
<path d="M32.17 32.9026C35.8118 30.4655 38.9444 26.1756 40.9614 22.506C42.0019 20.6169 42.4999 18.8753 45.1513 18.5109C47.95 18.1214 49.2187 20.3415 51.5723 21.8856C53.0218 22.8426 55.5924 23.3406 56.8166 24.5202C58.4858 26.1283 59.4289 28.6767 61.3236 30.4099C63.7523 32.6356 63.8942 33.1224 60.998 34.5302C58.6555 35.6708 56.5467 36.0019 54.257 34.864C51.7865 33.6399 49.5831 30.8356 48.0112 28.7907C48.2894 29.1468 44.1553 34.8056 44.069 36.0854C43.8937 38.6338 46.7037 40.3837 44.4502 42.8292C42.6195 44.8156 39.7206 44.6987 37.3085 43.9921C36.1957 43.6666 30.3144 40.9846 30.5926 39.78L32.17 32.9026Z" fill="#F2C2B3"/>
<path style="mix-blend-mode:multiply" d="M32.17 32.9026C35.8118 30.4655 38.9444 26.1756 40.9614 22.506C42.0019 20.6169 42.4999 18.8753 45.1513 18.5109C47.95 18.1214 49.2187 20.3415 51.5723 21.8856C53.0218 22.8426 55.5924 23.3406 56.8166 24.5202C58.4858 26.1283 59.4289 28.6767 61.3236 30.4099C63.7523 32.6356 63.8942 33.1224 60.998 34.5302C58.6555 35.6708 56.5467 36.0019 54.257 34.864C51.7865 33.6399 49.5831 30.8356 48.0112 28.7907C48.2894 29.1468 44.1553 34.8056 44.069 36.0854C43.8937 38.6338 46.7037 40.3837 44.4502 42.8292C42.6195 44.8156 39.7206 44.6987 37.3085 43.9921C36.1957 43.6666 30.3144 40.9846 30.5926 39.78L32.17 32.9026Z" fill="url(#paint16_radial_2849_37947)"/>
<path d="M26.2106 34.2991C26.13 34.4911 26.0966 33.9764 25.9324 33.2948C25.2759 30.6879 22.6217 26.2672 21.9596 25.0153C20.1262 21.5293 17.9339 18.2436 15.661 15.0248C13.822 12.4235 12.8343 9.54404 9.36786 9.01544C6.60246 8.59534 3.54772 9.8139 3.20552 12.8603C2.82716 16.2461 6.40492 18.0238 8.34404 20.1577C8.42472 20.2523 8.50818 20.3413 8.58886 20.4359C11.958 24.2891 14.2838 29.9924 15.9559 34.7247C16.2341 35.501 19.6838 45.7474 18.2928 45.6723C21.3529 45.8636 24.4236 45.8021 27.4737 45.4887L27.866 42.765L26.2106 34.2991Z" fill="#F2C2B3"/>
<path style="mix-blend-mode:multiply" d="M26.2106 34.2991C26.13 34.4911 26.0966 33.9764 25.9324 33.2948C25.2759 30.6879 22.6217 26.2672 21.9596 25.0153C20.1262 21.5293 17.9339 18.2436 15.661 15.0248C13.822 12.4235 12.8343 9.54404 9.36786 9.01544C6.60246 8.59534 3.54772 9.8139 3.20552 12.8603C2.82716 16.2461 6.40492 18.0238 8.34404 20.1577C8.42472 20.2523 8.50818 20.3413 8.58886 20.4359C11.958 24.2891 14.2838 29.9924 15.9559 34.7247C16.2341 35.501 19.6838 45.7474 18.2928 45.6723C21.3529 45.8636 24.4236 45.8021 27.4737 45.4887L27.866 42.765L26.2106 34.2991Z" fill="url(#paint17_radial_2849_37947)"/>
<path d="M34.082 13.8283C33.1138 9.06812 31.7923 5.10364 27.647 2.01274C24.1583 -0.58017 18.9891 -0.799955 18.8695 4.57783C18.7833 8.42546 22.9035 11.7306 24.3391 15.0635C26.74 20.6277 28.7487 28.4315 26.2114 34.2989L27.8612 42.7648L27.4801 45.4885C30.4825 45.1604 33.4405 44.5074 36.3021 43.541C37.4149 43.1682 37.7905 43.7219 38.55 42.6035C33.9011 34.3045 35.8681 22.6308 34.082 13.8283Z" fill="#F2C2B3"/>
<path style="mix-blend-mode:multiply" d="M38.5383 42.5927C37.7788 43.7055 37.4255 43.1491 36.2904 43.5302C33.4282 44.491 30.4718 45.1439 27.4712 45.4777L27.8607 42.7568L26.2081 34.2853C28.7509 28.4207 26.7395 20.6308 24.3413 15.0666C22.9002 11.7281 18.7771 8.42857 18.8717 4.58093C18.9357 1.76267 20.3852 0.480126 22.2603 0.274252C23.9518 0.0850694 25.9883 0.786159 27.6464 2.01584C31.7917 5.10675 33.116 9.07123 34.0786 13.8314C35.8647 22.6339 33.9006 34.3076 38.5383 42.5927Z" fill="url(#paint18_radial_2849_37947)"/>
<path style="mix-blend-mode:multiply" d="M27.4795 45.4885L27.869 42.7676L26.2164 34.2961C28.7509 28.4203 26.7395 20.6305 24.3413 15.0663C22.9002 11.7278 18.7771 8.42824 18.8717 4.58061C18.9357 1.76235 20.3852 0.479801 22.2603 0.273926C15.7613 4.97288 27.7911 16.1319 29.0403 14.6852C24.294 20.1408 29.4131 26.1724 30.5927 31.5725C31.2019 34.3545 28.4755 36.6442 29.3324 39.7212C29.7386 41.1846 31.1825 43.0597 32.223 44.6817C30.6593 45.0449 29.0753 45.3143 27.4795 45.4885V45.4885Z" fill="url(#paint19_radial_2849_37947)"/>
<path d="M68.6031 42.0861C67.6293 38.2663 65.1227 28.5958 60.7687 29.8449C60.9467 30.0424 61.1276 30.2344 61.3251 30.4013C63.7539 32.627 63.8958 33.1139 60.9996 34.5216C59.514 35.2477 58.1229 35.6344 56.7235 35.5454C56.1282 38.781 56.7486 42.5479 58.671 44.4759C55.1628 44.4759 50.8255 46.9798 48.0768 49.1193C49.0171 48.3848 47.295 44.9823 47.0029 43.9946C46.8332 43.4187 44.563 38.7087 45.0109 38.4305C43.5364 39.3931 41.3024 39.5433 39.5664 39.4904C39.2158 39.4904 36.584 38.8478 36.801 38.2413C36.0081 40.4502 31.949 41.4156 29.9125 42.0889C26.6432 43.1901 23.1758 43.5781 19.744 43.2268C14.4441 42.637 9.86197 39.2512 6.51234 35.3312C4.33396 32.7772 -0.376126 28.9964 0.319397 34.9751C0.669941 37.9686 3.3797 41.8552 5.30769 44.156C6.06068 45.0512 6.90967 45.861 7.8394 46.5708C12.1489 49.8954 19.5075 51.178 21.3186 56.745C22.3619 59.9611 22.6846 64.1898 25.3638 66.5602C27.5895 68.5494 30.8695 69.1614 33.7935 68.9862C34.439 68.9472 37.6189 67.8539 37.9249 68.0291C40.098 69.2834 42.5659 69.9363 45.0749 69.9209C46.5355 69.6205 48.0657 69.4758 49.3287 68.4242C50.0827 67.8038 52.6895 64.1064 55.0765 60.3561C56.9783 58.8735 58.7471 57.2277 60.3625 55.4374C64.9363 50.1792 70.5116 49.5866 68.6031 42.0861Z" fill="#F2C2B3"/>
<path style="mix-blend-mode:multiply" d="M68.6031 42.0861C67.6293 38.2663 65.1227 28.5958 60.7687 29.8449C60.9467 30.0424 61.1276 30.2344 61.3251 30.4013C63.7539 32.627 63.8958 33.1139 60.9996 34.5216C59.514 35.2477 58.1229 35.6344 56.7235 35.5454C56.1282 38.781 56.7486 42.5479 58.671 44.4759C55.1628 44.4759 50.8255 46.9798 48.0768 49.1193C49.0171 48.3848 47.295 44.9823 47.0029 43.9946C46.8332 43.4187 44.563 38.7087 45.0109 38.4305C43.5364 39.3931 41.3024 39.5433 39.5664 39.4904C39.2158 39.4904 36.584 38.8478 36.801 38.2413C36.0081 40.4502 31.949 41.4156 29.9125 42.0889C26.6432 43.1901 23.1758 43.5781 19.744 43.2268C14.4441 42.637 9.86197 39.2512 6.51234 35.3312C4.33396 32.7772 -0.376126 28.9964 0.319397 34.9751C0.669941 37.9686 3.3797 41.8552 5.30769 44.156C6.06068 45.0512 6.90967 45.861 7.8394 46.5708C12.1489 49.8954 19.5075 51.178 21.3186 56.745C22.3619 59.9611 22.6846 64.1898 25.3638 66.5602C27.5895 68.5494 30.8695 69.1614 33.7935 68.9862C34.439 68.9472 37.6189 67.8539 37.9249 68.0291C40.098 69.2834 42.5659 69.9363 45.0749 69.9209C46.5355 69.6205 48.0657 69.4758 49.3287 68.4242C50.0827 67.8038 52.6895 64.1064 55.0765 60.3561C56.9783 58.8735 58.7471 57.2277 60.3625 55.4374C64.9363 50.1792 70.5116 49.5866 68.6031 42.0861Z" fill="url(#paint20_radial_2849_37947)"/>
<path style="mix-blend-mode:multiply" d="M68.6031 42.0861C67.6293 38.2663 65.1227 28.5958 60.7687 29.8449C60.9467 30.0424 61.1276 30.2344 61.3251 30.4013C63.7539 32.627 63.8958 33.1139 60.9996 34.5216C59.514 35.2477 58.1229 35.6344 56.7235 35.5454C56.1282 38.781 56.7486 42.5479 58.671 44.4759C55.1628 44.4759 50.8255 46.9798 48.0768 49.1193C49.0171 48.3848 47.295 44.9823 47.0029 43.9946C46.8332 43.4187 44.563 38.7087 45.0109 38.4305C43.5364 39.3931 41.3024 39.5433 39.5664 39.4904C39.2158 39.4904 36.584 38.8478 36.801 38.2413C36.0081 40.4502 31.949 41.4156 29.9125 42.0889C26.6432 43.1901 23.1758 43.5781 19.744 43.2268C14.4441 42.637 9.86197 39.2512 6.51234 35.3312C4.33396 32.7772 -0.376126 28.9964 0.319397 34.9751C0.669941 37.9686 3.3797 41.8552 5.30769 44.156C6.06068 45.0512 6.90967 45.861 7.8394 46.5708C12.1489 49.8954 19.5075 51.178 21.3186 56.745C22.3619 59.9611 22.6846 64.1898 25.3638 66.5602C27.5895 68.5494 30.8695 69.1614 33.7935 68.9862C34.439 68.9472 37.6189 67.8539 37.9249 68.0291C40.098 69.2834 42.5659 69.9363 45.0749 69.9209C46.5355 69.6205 48.0657 69.4758 49.3287 68.4242C50.0827 67.8038 52.6895 64.1064 55.0765 60.3561C56.9783 58.8735 58.7471 57.2277 60.3625 55.4374C64.9363 50.1792 70.5116 49.5866 68.6031 42.0861Z" fill="url(#paint21_radial_2849_37947)"/>
<path style="mix-blend-mode:multiply" d="M68.6009 42.0861C67.6272 38.2663 65.1205 28.5958 60.7666 29.8449C60.9446 30.0424 61.1255 30.2344 61.323 30.4013C63.7517 32.627 63.8936 33.1139 60.9975 34.5216C59.5118 35.2477 58.1208 35.6344 56.7214 35.5454C56.126 38.781 56.7464 42.5479 58.6689 44.4759C55.1606 44.4759 50.8234 46.9798 48.0747 49.1193C48.4475 48.841 48.3974 48.1093 48.1887 47.297C43.5871 47.8951 38.8103 48.816 36.5512 52.7165C33.4909 57.243 33.3101 63.7976 36.9824 68.1376C37.4637 68.0236 37.8171 67.954 37.9228 68.0069C40.0959 69.2611 42.5638 69.9141 45.0728 69.8987C46.5334 69.5982 48.0635 69.4536 49.3266 68.4019C50.0805 67.7815 52.6874 64.0841 55.0744 60.3339C56.9762 58.8513 58.7449 57.2055 60.3604 55.4151C64.9341 50.1792 70.5094 49.5866 68.6009 42.0861Z" fill="url(#paint22_radial_2849_37947)"/>
<path style="mix-blend-mode:multiply" d="M48.3213 47.9536C48.3352 48.0677 48.3436 48.1734 48.3463 48.2735C48.3463 48.1734 48.3463 48.0677 48.3213 47.9536Z" fill="url(#paint23_radial_2849_37947)"/>
<path style="mix-blend-mode:multiply" d="M48.2646 47.6445C48.2813 47.7252 48.298 47.8059 48.3119 47.8838C48.298 47.8059 48.2813 47.7252 48.2646 47.6445Z" fill="url(#paint24_radial_2849_37947)"/>
<path style="mix-blend-mode:multiply" d="M48.1885 47.3081C48.2107 47.3999 48.233 47.4889 48.2525 47.5863C48.233 47.4889 48.2107 47.3999 48.1885 47.3081Z" fill="url(#paint25_radial_2849_37947)"/>
<path style="mix-blend-mode:multiply" d="M38.2437 50.6775C38.0351 49.5174 37.9154 48.3906 37.8236 47.4503C37.5188 44.6123 37.4091 41.7567 37.4953 38.9037C37.0391 38.7006 36.708 38.4669 36.7915 38.2388C35.9986 40.4478 31.9395 41.4131 29.903 42.0864C27.0649 43.0363 24.0767 43.4578 21.0866 43.33C19.6482 46.1121 18.9082 49.4868 18.4658 52.7641C19.7484 53.824 20.775 55.0871 21.3091 56.7313C22.3524 59.9474 22.6751 64.1762 25.3543 66.5465C27.58 68.5357 30.86 69.1478 33.784 68.9725C34.2375 68.9447 35.9234 68.4161 37.0029 68.1379H36.9751C33.3027 63.7978 33.4863 57.2432 36.5439 52.7168C36.9948 51.9484 37.5691 51.2594 38.2437 50.6775Z" fill="url(#paint26_radial_2849_37947)"/>
<path style="mix-blend-mode:multiply" d="M19.4352 53.6598C21.4689 50.6496 22.5984 47.0023 23.2105 43.3216C22.0542 43.3798 20.8951 43.3473 19.744 43.2242C14.4441 42.6344 9.86197 39.2486 6.51234 35.3286C4.33396 32.7747 -0.376126 28.9938 0.319397 34.9725C0.669941 37.966 3.3797 41.8526 5.30769 44.1534C6.06068 45.0486 6.90967 45.8584 7.8394 46.5683C11.2141 49.1584 16.45 50.5188 19.4352 53.6598Z" fill="url(#paint27_radial_2849_37947)"/>
<g style="mix-blend-mode:overlay" opacity="0.3">
<path d="M16.3523 45.4274C11.3445 46.9826 -0.292984 37.2787 2.07736 32.2765L2.35557 31.9565C3.71323 32.4879 5.41587 34.0598 6.50089 35.3284C9.4666 38.7977 13.4005 41.858 17.9353 42.9152C18.5306 43.9084 18.322 44.8126 16.3523 45.4274Z" fill="white"/>
</g>
<path d="M19.2537 53.8264C17.5845 52.0597 15.1251 50.8412 12.7548 49.6699C10.9826 48.788 9.13805 47.8783 7.6858 46.7515C6.74024 46.0319 5.87718 45.2099 5.11236 44.3005C4.03569 43.0068 0.485746 38.5249 0.0739967 35C-0.148571 33.0887 0.143552 31.9897 0.964269 31.6392C2.5445 30.9631 5.41562 33.6534 6.70373 35.1669C9.15197 38.0297 13.1637 41.677 18.3885 42.7592L18.2856 43.2405C12.9245 42.1277 8.82646 38.408 6.32258 35.4868C4.60047 33.467 2.19952 31.6503 1.1618 32.0899C0.585911 32.3375 0.380035 33.3224 0.569217 34.9443C0.961492 38.3357 4.44188 42.7203 5.49908 43.9861C6.24243 44.8699 7.08228 45.6677 8.00296 46.3648C9.42739 47.4776 11.1578 48.3123 12.9885 49.2304C15.3978 50.4267 17.8877 51.6591 19.6265 53.4897L19.2537 53.8264Z" fill="#CF6240"/>
<path style="mix-blend-mode:multiply" d="M26.4176 42.9512C26.4202 42.9584 26.4202 42.9662 26.4176 42.9734C24.2154 43.3763 21.9668 43.4606 19.7406 43.2238C19.2704 43.1738 18.8114 43.0875 18.3496 42.9957C17.7097 39.9354 16.1239 35.2448 15.9486 34.7273C14.2794 29.9978 11.9508 24.2889 8.57886 20.4385C8.4954 20.3439 8.42028 20.2521 8.3396 20.1603C6.39214 18.0292 2.81992 16.2431 3.20107 12.8629C3.26485 12.1805 3.50071 11.5255 3.88656 10.9592C4.27241 10.3928 4.79562 9.9336 5.40727 9.62451C4.69505 14.5544 9.62492 18.3825 14.4018 18.8972C12.2874 21.2648 13.5838 24.1693 14.3628 26.7205C15.4979 30.4401 16.1016 31.2803 20.0995 31.3972C17.6568 36.5218 21.5963 41.8773 26.4176 42.9512Z" fill="url(#paint28_radial_2849_37947)"/>
<path style="mix-blend-mode:multiply" d="M38.9 29.8477C37.918 32.0929 36.2014 36.0935 37.2308 38.7671C36.9331 38.5974 36.7495 38.4193 36.8135 38.2357C36.8009 38.2647 36.786 38.2926 36.769 38.3192C36.0258 35.6676 35.5596 32.946 35.3779 30.1983C37.4751 27.9979 39.2832 25.5391 40.7585 22.8813C40.0797 25.3212 39.7041 28.0115 38.9 29.8477Z" fill="url(#paint29_radial_2849_37947)"/>
<g style="mix-blend-mode:overlay" opacity="0.6">
<path d="M45.6811 40.8817C42.5262 41.9139 35.8213 41.619 35.0924 41.7164C30.3851 42.3757 26.6154 45.5668 21.9637 45.1578C18.9563 44.8935 15.4453 43.1853 12.9414 40.8456C14.4952 41.7852 16.1842 42.4805 17.9492 42.9071C18.5399 43.0494 19.1393 43.1525 19.7436 43.2159C23.1753 43.5653 26.642 43.1784 29.9122 42.0808C31.8902 41.4215 35.7546 40.5061 36.7255 38.4335C36.7602 38.4251 36.7965 38.4251 36.8312 38.4335C37.1539 38.9732 39.2572 39.4712 39.5688 39.4768C41.3048 39.5296 43.5416 39.3822 45.0162 38.4224C44.8047 38.567 45.1914 39.6799 45.6811 40.8817Z" fill="#1D1D1B"/>
</g>
<g style="mix-blend-mode:overlay" opacity="0.6">
<path d="M50.8239 47.2469C50.3246 47.8049 49.7772 48.3178 49.188 48.7799C47.1488 50.4241 44.375 52.3715 43.1787 54.0074C43.596 51.0667 48.1865 50.1653 47.6301 45.6611C48.1503 47.0132 48.6845 48.6519 48.0641 49.1332C48.9432 48.4467 49.865 47.8167 50.8239 47.2469V47.2469Z" fill="#1D1D1B"/>
</g>
<path style="mix-blend-mode:multiply" d="M68.6018 42.0886C67.9869 39.6849 66.7767 34.9887 64.8821 32.1259C65.1937 34.5158 67.0855 36.6747 67.6642 39.1368C68.1205 41.101 67.6892 42.3779 67.3276 44.1585C67.233 44.6314 66.9242 47.7029 66.6376 48.4791C64.3146 48.6293 58.2496 55.0504 56.3244 57.0535C54.5356 58.9348 53.1037 61.1256 52.0984 63.519C50.8075 64.7877 49.5333 66.2845 48.006 66.8965C44.9011 68.1401 35.6562 66.788 34.6241 62.9404C32.2064 64.6959 27.8692 65.664 25.5406 63.7027C22.6249 61.2461 21.9238 55.3926 21.3674 54.4161C20.1906 52.2961 19.6787 50.101 21.0892 47.0992C18.6438 48.0645 17.0357 50.1817 14.248 49.0105C12.3924 48.2287 10.2446 45.288 8.40565 44.0834C4.6387 41.6156 0.0426888 36.5717 1.47547 31.7754C0.582415 31.8004 0.037124 32.6518 0.309769 34.9692C0.660313 37.9655 3.37007 41.8493 5.29527 44.1501C6.0465 45.0468 6.89462 45.8576 7.82418 46.5678C12.1392 49.8924 19.509 51.1694 21.3062 56.7447C22.0935 59.1567 22.4719 62.1475 23.7461 64.4928C24.1536 65.2729 24.6972 65.9738 25.3514 66.5627C25.8121 66.9693 26.3169 67.323 26.8565 67.6171C28.9291 68.7633 31.4609 69.1222 33.7811 68.9831C34.4266 68.9469 37.6093 67.8508 37.9125 68.0316C37.9274 68.0432 37.9444 68.0517 37.9626 68.0566C40.1243 69.2932 42.5749 69.9354 45.0653 69.9179L45.3435 69.865C46.7095 69.5868 48.1256 69.4004 49.308 68.4267C49.9534 67.8925 51.9454 65.1188 53.9986 61.9778C54.3463 61.4436 54.6996 60.9011 55.0502 60.3503C56.9509 58.8653 58.7194 57.2187 60.3362 55.4287C64.9322 50.1817 70.5075 49.5863 68.6018 42.0886Z" fill="url(#paint30_radial_2849_37947)"/>
<path style="mix-blend-mode:multiply" d="M65.5224 33.2084C65.5045 33.4204 65.4747 33.6313 65.4334 33.84C64.5988 38.0799 60.3032 39.98 56.578 39.3235C56.4449 38.0665 56.4937 36.7968 56.7227 35.5537C58.1137 35.6455 59.5048 35.2588 60.9988 34.5355C63.8949 33.1194 63.7558 32.6325 61.3243 30.4069C61.1269 30.2287 60.9411 30.0382 60.7679 29.8365C62.3898 29.3747 63.7558 30.4263 64.877 32.1262C65.1033 32.4638 65.3184 32.8245 65.5224 33.2084Z" fill="url(#paint31_radial_2849_37947)"/>
<g style="mix-blend-mode:overlay" opacity="0.6">
<path d="M60.9982 34.5409C60.7386 34.6633 60.4854 34.7746 60.2387 34.8747C60.1771 34.9077 60.1129 34.9356 60.0468 34.9582C59.8075 35.05 59.5682 35.1418 59.3262 35.2142L59.1537 35.2642C58.9645 35.3199 58.7809 35.3644 58.5973 35.4061C58.5222 35.42 58.4443 35.4395 58.3636 35.459C58.1466 35.4979 57.9324 35.5257 57.7154 35.5452C57.6263 35.5452 57.5373 35.5591 57.4511 35.5591C57.2925 35.5591 57.1255 35.5591 56.9614 35.5591C56.8863 35.5591 56.8028 35.5591 56.7277 35.5591C55.8687 35.4937 55.031 35.2592 54.2628 34.8692C51.7923 33.6451 49.5889 30.8435 48.017 28.7986C48.2507 29.1047 45.2349 33.3251 44.3307 35.3199C43.8272 32.0453 46.6092 27.4271 47.9474 24.8008C47.6692 26.6425 51.9648 30.7962 53.4782 32.2763C56.1324 34.8441 59.827 33.8593 62.4254 31.4722C63.7052 32.8382 63.3686 33.378 60.9982 34.5409Z" fill="#1D1D1B"/>
</g>
<g style="mix-blend-mode:overlay" opacity="0.3">
<path d="M27.0523 38.6168C26.5904 39.2567 25.8115 39.5627 24.6374 39.3986C22.1335 39.0425 20.4643 37.0088 20.7425 34.4659C21.1681 30.8937 22.9236 31.0912 19.8745 28.7682C18.6476 27.8306 16.9115 27.149 16.0741 25.7969C14.7638 23.6825 16.1131 22.0967 15.8822 20.0324C15.4537 16.054 8.51796 17.2921 7.9532 13.8284C7.77515 12.7461 8.30095 8.93744 11.684 9.91396C13.4117 11.0852 14.2992 13.1273 15.6373 15.0247C17.9103 18.2463 20.1054 21.5264 21.9416 25.0152C22.7762 26.5982 26.7768 33.214 25.9533 34.8777C26.0396 34.6968 26.1286 34.516 26.2037 34.3212L27.0523 38.6168Z" fill="white"/>
</g>
<g style="mix-blend-mode:overlay" opacity="0.3">
<path d="M36.2468 36.33C35.7126 37.5096 34.75 38.0243 33.0335 37.0506C29.5419 35.0781 32.9639 30.5822 33.3812 27.9559C30.3849 27.0851 29.2442 24.2418 29.3194 21.3318C29.3639 19.7321 30.0177 18.4662 30.1818 16.9555C30.6548 12.6962 24.0417 12.123 22.826 8.03059C21.9329 5.05653 22.6618 0.240733 27.7113 2.06579C31.8038 5.14834 33.1225 9.09335 34.0795 13.8285C35.0811 18.75 34.9142 24.5729 35.3704 30.1983C35.519 32.2602 35.8119 34.3091 36.2468 36.33V36.33Z" fill="white"/>
</g>
<g style="mix-blend-mode:overlay" opacity="0.3">
<path d="M61.555 30.624C57.8687 35.5928 50.3098 28.2231 50.4934 23.883C48.315 23.7133 45.1713 25.9417 43.3156 24.1473C42.3586 23.2209 42.442 21.3235 42.7898 19.5763C43.4376 18.9696 44.2683 18.5949 45.1518 18.5108C47.9478 18.1241 49.2192 20.3442 51.5701 21.891C53.0223 22.8425 55.5958 23.3405 56.8171 24.5201C57.5597 25.3 58.2129 26.1603 58.7646 27.0852C59.3533 28.0559 60.0214 28.9762 60.7621 29.8367C60.9353 30.0384 61.1212 30.2289 61.3185 30.407C61.4048 30.4821 61.4799 30.5489 61.555 30.624Z" fill="white"/>
</g>
<g style="mix-blend-mode:overlay" opacity="0.3">
<path d="M30.5155 56.2638C34.2018 54.5083 39.4989 48.7827 42.3227 45.8003C47.0522 40.8093 37.1647 43.3271 34.7053 44.0727C30.713 45.2856 23.577 45.3496 23.2654 50.3129C22.9872 54.742 26.0892 58.3837 30.5155 56.2638Z" fill="white"/>
</g>
<g style="mix-blend-mode:overlay" opacity="0.3">
<path d="M41.0345 59.7998C41.6494 62.2174 43.8556 62.1924 46.1091 62.223C51.4535 62.2925 53.5651 59.0291 55.5348 54.4693C56.7812 51.5787 59.9305 44.5233 53.9434 47.208C49.8899 49.0247 39.5656 54.0297 41.0345 59.7998Z" fill="white"/>
</g>
<g style="mix-blend-mode:overlay" opacity="0.1">
<path d="M65.1152 36.3412C64.8593 35.999 64.2639 37.454 63.9273 38.6141C63.5267 39.9885 63.5851 40.0052 63.5322 41.6577C63.4349 44.8238 62.0299 47.3916 61.9492 50.4575C64.2138 46.1508 69.5694 41.335 65.4324 35.7124L65.1152 36.3412Z" fill="white"/>
</g>
<path d="M44.3389 38.4639C43.9021 37.4207 43.5766 36.2883 44.1553 35.0781C44.5709 34.2473 45.0306 33.4394 45.5325 32.6577L45.5937 32.5576C45.7856 32.246 45.9804 31.9372 46.1723 31.6311C46.509 31.0747 46.8484 30.5489 47.1739 30.0008L47.274 29.8478C47.7053 29.1996 47.7943 28.9659 47.7887 28.888C47.792 28.9068 47.8007 28.9242 47.8138 28.9381L48.2088 28.6404L48.7235 29.3081C50.3928 31.4392 52.062 33.4451 54.246 34.5801C57.0754 36.0547 60.0411 34.9196 62.0358 33.7066C62.7842 33.2475 63.0207 32.8942 62.8538 32.4797C62.6034 31.862 62.0191 31.3668 61.4766 30.8661C61.2374 30.6602 61.0148 30.4599 60.8089 30.2512C60.0028 29.3698 59.287 28.4098 58.6723 27.3857L58.3607 26.9016C57.7681 25.9863 57.1532 25.0292 56.2964 24.3977C55.5299 23.8905 54.7015 23.4837 53.8314 23.1875C53.6089 23.104 53.3863 23.0206 53.1693 22.9287C52.0581 22.4783 51.0252 21.8549 50.109 21.0814C49.9309 20.934 49.7529 20.781 49.5748 20.6252C48.9505 20.0437 48.2572 19.541 47.5105 19.1284C46.5279 18.6609 45.403 18.5902 44.3695 18.9309C42.8032 19.4205 42.0521 20.8923 41.3287 22.3167C41.134 22.6978 40.9336 23.0929 40.7222 23.4546C39.2882 25.9631 37.5502 28.2851 35.5475 30.3681L35.1914 30.0286C37.1599 27.9728 38.8679 25.6827 40.2771 23.2097C40.483 22.8564 40.6721 22.4864 40.8724 22.0969C41.6431 20.5807 42.4415 19.0143 44.211 18.4607C45.3688 18.0809 46.6285 18.1626 47.7275 18.6888C48.5171 19.121 49.249 19.651 49.9059 20.2663C50.0812 20.4165 50.2564 20.5723 50.4345 20.717C51.3067 21.4579 52.292 22.0543 53.3529 22.4836C53.5671 22.5754 53.7869 22.6589 54.0067 22.7423C54.9183 23.0523 55.7861 23.4787 56.5885 24.011C57.5177 24.687 58.1854 25.7247 58.778 26.6428L59.0868 27.1186C59.6865 28.1119 60.3826 29.0438 61.165 29.9007C61.3542 30.0982 61.5712 30.2874 61.8021 30.4905C62.3975 31.0191 63.0151 31.5616 63.31 32.2877C63.7023 33.2503 62.6757 33.8763 62.2918 34.11C60.1913 35.3925 57.0503 36.586 54.0095 35.0058C51.7365 33.8206 50.0255 31.773 48.3257 29.5974L48.1393 29.3554C48.0054 29.6167 47.8539 29.8686 47.6858 30.1093L47.5995 30.2401C47.274 30.7965 46.9346 31.3334 46.5924 31.876C46.4005 32.182 46.2057 32.4908 46.0165 32.8024L45.9526 32.9025C45.4613 33.6692 45.0108 34.4614 44.6032 35.2757C44.1358 36.2577 44.3417 37.1786 44.7952 38.2636L44.3389 38.4639Z" fill="#CF6240"/>
<path style="mix-blend-mode:multiply" d="M68.6009 42.0861C67.6272 38.2663 65.1205 28.5958 60.7666 29.8449C60.9446 30.0424 61.1255 30.2344 61.323 30.4013C63.7517 32.627 63.8936 33.1139 60.9975 34.5216C59.5118 35.2477 58.1208 35.6344 56.7214 35.5454C56.126 38.781 56.7464 42.5479 58.6689 44.4759C55.1606 44.4759 50.8234 46.9798 48.0747 49.1193C48.4475 48.841 48.3974 48.1093 48.1887 47.297C43.5871 47.8951 38.8103 48.816 36.5512 52.7165C33.4909 57.243 33.3101 63.7976 36.9824 68.1376C37.4637 68.0236 37.8171 67.954 37.9228 68.0069C40.0959 69.2611 42.5638 69.9141 45.0728 69.8987C46.5334 69.5982 48.0635 69.4536 49.3266 68.4019C50.0805 67.7815 52.6874 64.0841 55.0744 60.3339C56.9762 58.8513 58.7449 57.2055 60.3604 55.4151C64.9341 50.1792 70.5094 49.5866 68.6009 42.0861Z" fill="url(#paint32_radial_2849_37947)"/>
<path d="M44.9271 70.1516H44.902C43.4286 70.1422 41.9651 69.9086 40.562 69.4588C39.8258 69.223 39.1103 68.9271 38.4225 68.5741C38.3465 68.5343 38.2731 68.4897 38.2028 68.4406C38.0838 68.352 37.95 68.2851 37.8077 68.2431C37.5887 68.2549 37.372 68.2932 37.1623 68.3571L37.0454 68.385L36.9258 67.9064L37.0371 67.8814C37.2869 67.808 37.5447 67.765 37.8049 67.7534V67.7534C38.0499 67.7789 38.282 67.8756 38.4726 68.0316L38.6534 68.1401C39.3159 68.4784 40.0043 68.7631 40.7122 68.9915C42.0672 69.4244 43.4797 69.6504 44.902 69.6619C45.3808 69.6391 45.8552 69.5598 46.3153 69.4255L46.6909 69.3364C47.3326 69.2042 47.9513 68.9783 48.5271 68.6659C49.1976 68.2876 49.6539 67.7312 50.1797 67.0468C51.7794 64.9686 53.2094 62.8096 54.8619 60.2028L54.9148 60.1472C56.3225 59.0093 57.3714 58.0996 58.3145 57.1954C58.8515 56.6807 59.3606 56.1271 59.853 55.5873C60.2759 55.1227 60.7099 54.6526 61.1662 54.1963C62.1009 53.3007 63.0835 52.4565 64.1096 51.6674C64.6994 51.1972 65.3115 50.7075 65.8929 50.2068C66.8722 49.3527 68.2243 48.0145 68.6027 46.1839C68.9727 44.395 68.4858 42.5671 68.0157 40.8228L67.9739 40.6781C67.5228 38.9237 66.9653 37.1984 66.3047 35.5118C65.2836 32.9578 63.6589 29.6944 61.2496 29.9893C61.4277 30.1646 61.6113 30.3371 61.806 30.504C62.1673 30.8352 62.5118 31.1843 62.8382 31.5501C63.083 31.8422 63.6005 32.4515 63.3501 33.1052C63.1164 33.7062 62.432 34.0651 61.934 34.3349L61.8283 34.3878C60.8313 34.9595 59.7576 35.3857 58.64 35.6536C58.1224 35.7637 57.5945 35.8178 57.0653 35.815H56.9429C56.929 35.8929 56.9179 35.9708 56.9068 36.0487C56.8706 36.2963 56.84 36.5467 56.8177 36.7943C56.7316 37.7505 56.7502 38.7133 56.8734 39.6654C57.1516 41.7019 57.8109 43.2682 58.8598 44.3199L59.2743 44.7372H58.6845C57.0765 44.7372 55.346 45.2213 53.2094 46.2367C51.4468 47.0865 49.7809 48.1237 48.2405 49.3304L47.9317 48.9437C48.2934 48.6655 48.082 47.8503 47.9679 47.4136L48.2016 47.3134L48.4409 47.2522C48.5554 47.6306 48.619 48.0226 48.63 48.4179C49.9988 47.4111 51.4583 46.5337 52.9896 45.7972C54.9565 44.8568 56.6063 44.3616 58.142 44.267C57.2211 43.1542 56.6313 41.6351 56.3809 39.7294C56.2528 38.7422 56.2332 37.744 56.3225 36.7526C56.3448 36.4966 56.3754 36.2351 56.4143 35.9764C56.4366 35.8206 56.4589 35.6703 56.4895 35.5145L56.5284 35.3031H56.751C56.8595 35.3031 56.9652 35.317 57.0737 35.317C57.5649 35.3238 58.0552 35.2724 58.5343 35.164C59.606 34.9073 60.6363 34.5008 61.5946 33.9566L61.7003 33.9009C62.1538 33.6589 62.7186 33.3584 62.8855 32.9244C63.0162 32.5878 62.7436 32.2039 62.457 31.8672C62.1451 31.514 61.8135 31.1787 61.4638 30.8629C61.1717 30.5847 60.8712 30.3065 60.593 30.0032L60.3148 29.7083L60.696 29.5998C64.0873 28.6316 66.0376 33.4947 66.7693 35.3309C67.437 37.035 68.001 38.7779 68.458 40.5501L68.497 40.6948C68.9838 42.5087 69.4846 44.3783 69.0923 46.2812C68.6806 48.2565 67.2561 49.681 66.2184 50.5768C65.6314 51.0831 65.0166 51.5728 64.4212 52.0485C63.4104 52.8312 62.4417 53.667 61.5195 54.5524C61.0743 54.9947 60.6403 55.4649 60.223 55.9212C59.725 56.4637 59.2076 57.034 58.6623 57.5543C57.7136 58.4612 56.6647 59.3738 55.2625 60.5061C53.61 63.1046 52.18 65.2662 50.5747 67.35C50.0183 68.0789 49.5259 68.6687 48.7747 69.0999C48.1569 69.4373 47.492 69.6802 46.8022 69.8205C46.6826 69.8456 46.5602 69.8789 46.435 69.9095C45.9434 70.0482 45.4374 70.1294 44.9271 70.1516V70.1516Z" fill="#CF6240"/>
<path d="M27.8602 42.7652C27.237 41.7136 27.1118 40.3225 26.8586 39.1485C26.5192 37.5571 26.2104 35.9602 25.9656 34.3577L26.4413 34.4078C26.4224 34.4585 26.3891 34.5026 26.3455 34.5346C26.3019 34.5667 26.2499 34.5853 26.1959 34.5883C26.1418 34.5912 26.0881 34.5784 26.0413 34.5513C25.9945 34.5241 25.9565 34.484 25.9322 34.4356C25.8103 34.0887 25.7263 33.7295 25.6818 33.3645C25.4644 32.6345 25.2034 31.9182 24.9 31.2195C23.8568 28.966 22.6438 26.8016 21.4391 24.6232C19.7545 21.6118 17.914 18.6903 15.925 15.8707C15.0765 14.6494 14.3225 13.3668 13.4712 12.1427C12.7006 11.0438 11.7491 10.0283 10.4471 9.55816C8.47737 8.85707 5.83438 9.09911 4.39604 10.7239C3.98691 11.1984 3.69434 11.7619 3.5417 12.3696C3.38906 12.9773 3.38056 13.6122 3.51689 14.2237C3.7951 15.5146 4.74935 16.5523 5.70082 17.4315C6.74133 18.3885 7.87364 19.251 8.80008 20.3276C9.15897 20.7589 9.50117 21.2123 9.85172 21.6519C11.1621 23.2989 12.1748 25.2408 13.0928 27.1159C14.107 29.2152 15.0088 31.3669 15.7943 33.5621C16.8975 36.64 17.8337 39.7754 18.5986 42.9544C18.4567 42.985 18.134 43.1408 18.0923 42.9711C18.0116 42.6484 17.9309 42.3201 17.8502 41.989C17.6499 41.1738 17.444 40.3587 17.2048 39.5463C16.3267 36.4833 15.2847 33.4697 14.0833 30.5184C12.9511 27.6868 11.5234 24.9825 9.82388 22.4504C8.73165 20.9322 7.45196 19.5581 6.0152 18.3607C4.06774 16.6553 2.18148 14.4435 3.23311 11.7115C4.2124 9.1631 7.2588 8.34516 9.75712 8.84872C12.0969 9.32168 13.4823 11.1523 14.6731 13.0552C15.9083 15.0277 17.2827 16.9112 18.568 18.8531C20.0703 21.1372 21.4002 23.5104 22.7411 25.8946C24.2323 28.5598 25.7319 31.2195 26.4052 34.2103C26.2772 34.1185 26.1269 34.0322 26.0101 34.2103C26.2688 34.2353 26.4636 34.1713 26.5248 34.4328C26.6611 35.0171 26.7891 35.6069 26.9087 36.1911C27.0812 37.0257 27.2453 37.8437 27.39 38.67C27.6181 39.9664 28.0855 41.4743 27.888 42.7736C27.479 42.1086 27.977 42.0113 27.8602 42.7652Z" fill="#CF6240"/>
<path d="M27.0806 40.0496C26.8617 38.9256 26.641 37.7989 26.4184 36.6694C26.2932 36.0211 26.1653 35.3701 26.0401 34.7219C26.015 34.5995 25.99 34.4715 25.9677 34.3519C25.9596 34.3005 25.9644 34.2479 25.9816 34.1989C26.1458 33.8122 26.2932 33.4199 26.4184 33.0193C27.3532 30.073 27.2725 26.882 26.7634 23.869C26.2382 20.8155 25.3228 17.8421 24.0397 15.0219C22.8184 12.3288 20.512 10.2645 19.3102 7.56034C18.4756 5.68799 18.2725 3.20359 19.5884 1.47034C21.2994 -0.805408 24.6518 -0.0542443 26.7718 1.14762C28.4483 2.13846 29.8931 3.47701 31.0089 5.07315C32.5502 7.20423 33.3987 9.69698 34.0024 12.2287C34.5109 14.4555 34.8604 16.7156 35.0485 18.992C35.5131 23.9997 35.5159 29.027 36.2281 34.0152C36.3255 34.7136 36.4228 35.4063 36.5786 36.0935C36.7483 36.8502 37.0405 37.6793 36.8568 38.4527C36.3004 37.8295 36.2142 36.8641 36.0222 36.0796C35.8302 35.295 35.7273 34.4715 35.6021 33.6619C35.2123 30.8256 34.9681 27.9711 34.8704 25.1098C34.5922 19.7515 34.4114 14.3292 32.6086 9.2129C32.0102 7.41815 31.0565 5.76233 29.8042 4.34424C28.0292 2.43573 25.7479 0.552255 22.977 0.499396C22.006 0.499396 21.0295 0.716395 20.3089 1.41748C19.53 2.16865 19.2685 3.22585 19.1766 4.25522C18.9513 6.81474 20.6595 9.07936 22.0951 11.0435C22.6515 11.8114 23.2274 12.5792 23.7337 13.386C24.2726 14.2797 24.7298 15.2201 25.0997 16.196C25.8775 18.1374 26.4999 20.1375 26.9609 22.1775C27.8484 26.167 28.1127 30.5682 26.4629 34.402C26.4659 34.3544 26.4715 34.307 26.4796 34.2601C26.6883 35.3256 26.8942 36.3856 27.1028 37.4511L27.4868 39.4236C27.5201 39.5906 27.5535 39.7547 27.5841 39.9188C27.5841 40.0301 27.1835 40.0301 27.0806 40.0496Z" fill="#CF6240"/>
<path d="M44.473 70.1519C44.3283 70.1519 44.1781 70.1519 44.0251 70.1352C43.3204 70.0875 42.6202 69.988 41.9302 69.8375C40.4766 69.5291 39.0812 68.9919 37.796 68.2462C37.6606 68.2461 37.5261 68.2687 37.3981 68.3129L37.2729 68.3463C36.8835 68.4325 36.494 68.5438 36.1073 68.6495C35.9097 68.7052 35.7094 68.7636 35.5119 68.8276C34.9747 69.0123 34.4214 69.1465 33.8593 69.2282C32.5807 69.337 31.293 69.2592 30.0367 68.9973C27.2212 68.4409 24.99 67.0304 23.7575 64.9967C22.7337 63.3107 22.2636 61.3799 21.8101 59.5132C21.7044 59.0875 21.6014 58.6618 21.4901 58.239C21.2676 57.2208 20.9023 56.2393 20.4051 55.3233C19.9042 54.4998 19.2739 53.7624 18.5383 53.1394C16.8691 51.6816 14.8187 50.6884 12.8462 49.7286C11.1241 48.8939 9.34075 48.0203 7.78277 46.8407C5.43747 45.0658 3.72092 42.6342 2.63312 40.9594C1.38396 39.0258 0.0875055 36.7084 0.00682484 34.1405C-0.00986771 33.6119 -0.0460335 32.5102 0.599412 31.8981C0.991687 31.5253 1.57314 31.4474 2.26867 31.6839C3.70979 32.1569 4.94781 33.3114 6.069 34.491C6.40007 34.8388 6.72002 35.1949 7.03718 35.5538C7.44058 36.0073 7.85233 36.4747 8.28912 36.9087C9.22268 37.8432 10.2252 38.7063 11.2882 39.4904C13.3879 41.0812 15.8057 42.2009 18.377 42.7733L18.274 43.2546C15.6334 42.6662 13.1497 41.5183 10.9905 39.8883C9.90589 39.0879 8.88292 38.2072 7.93022 37.2536C7.48786 36.8057 7.06777 36.3356 6.6588 35.8765C6.34442 35.5232 6.03283 35.1726 5.70454 34.8304C4.62509 33.6981 3.44549 32.5881 2.1073 32.1485C1.74563 32.0289 1.24764 31.951 0.930481 32.2514C0.504821 32.6548 0.468652 33.4283 0.493691 34.1266C0.571589 36.5748 1.82354 38.82 3.03931 40.6951C4.10763 42.3393 5.78801 44.7236 8.07211 46.4512C9.59391 47.6002 11.3522 48.4571 13.0521 49.2862C15.0552 50.2599 17.1223 51.267 18.8527 52.7694C19.6278 53.4266 20.292 54.2044 20.8197 55.0729C21.3408 56.0279 21.7248 57.0516 21.9603 58.1138C22.0688 58.5422 22.1745 58.9679 22.2803 59.4019C22.7254 61.2297 23.19 63.1243 24.1749 64.7435C25.335 66.6604 27.4466 67.9958 30.1202 68.516C31.3286 68.7703 32.568 68.8443 33.7981 68.7358C34.3262 68.6582 34.8459 68.5315 35.3505 68.3574L35.9598 68.1738C36.3576 68.0625 36.7527 67.954 37.1533 67.8678L37.2563 67.8427C37.5057 67.7371 37.7858 67.7292 38.0408 67.8205C39.2788 68.5414 40.6236 69.0608 42.0248 69.359C42.6917 69.4987 43.3675 69.5917 44.0473 69.6372C44.7298 69.6744 45.4142 69.6173 46.081 69.4675C47.1772 69.2533 48.418 68.9584 49.2499 68.146C49.7367 67.643 50.1797 67.0995 50.5741 66.5213L50.7772 66.243C51.4811 65.2804 52.2239 64.2149 53.1086 62.8878C53.5241 62.2665 53.9349 61.6415 54.3411 61.0127C54.3884 60.9376 54.4357 60.8541 54.483 60.7762C54.6228 60.4983 54.8112 60.2477 55.0394 60.0362L56.0159 59.235C57.1703 58.2763 58.2709 57.2546 59.3127 56.1747C59.5909 55.8964 59.8524 55.5932 60.1251 55.3039C60.7009 54.6751 61.2963 54.0269 61.9473 53.4343C62.7541 52.7054 63.6166 52.021 64.3844 51.4173L64.5959 51.2476C65.8923 50.2238 67.2333 49.1666 68.0151 47.7366C68.8163 46.2621 68.9192 44.3981 68.3211 42.0694C67.9817 40.6617 67.5421 38.9925 66.9857 37.3399C66.3597 35.487 65.6197 33.5423 64.4345 31.912C63.7251 30.9299 62.6206 29.8561 61.2657 29.9924C61.441 30.1704 61.6218 30.3401 61.8026 30.5071C62.164 30.8383 62.5084 31.1874 62.8348 31.5531C63.0796 31.8453 63.5971 32.4545 63.3467 33.1083C63.113 33.7093 62.4286 34.0681 61.9306 34.338L61.8249 34.3909C60.8286 34.9613 59.7559 35.3866 58.6394 35.6539C58.1218 35.764 57.5939 35.8181 57.0648 35.8153H56.9423C56.9284 35.8932 56.9173 35.9711 56.9062 36.049C56.87 36.2966 56.8394 36.547 56.8171 36.7946C56.731 37.7508 56.7496 38.7136 56.8728 39.6657C57.151 41.7022 57.8103 43.2685 58.8592 44.3202L59.2737 44.7375H58.6839C57.0759 44.7375 55.3454 45.2216 53.2088 46.237C51.4462 47.0868 49.7803 48.124 48.24 49.3307V49.3307L47.9311 48.944C48.4013 48.5768 48.0007 47.4111 47.8115 46.8491L47.7587 46.6933C47.5889 46.1869 47.3886 45.6778 47.2022 45.1854C47.052 44.8042 46.9018 44.4175 46.7627 44.0308C46.5568 43.4549 46.298 42.879 46.0449 42.3254C45.8919 41.9776 45.7361 41.6354 45.5914 41.2877C45.4467 40.9399 45.3494 40.6561 45.2353 40.3306C45.0299 39.6193 44.7165 38.9437 44.3061 38.3275L44.7039 38.0326C45.1477 38.6893 45.4866 39.4111 45.7083 40.1721C45.8168 40.4864 45.928 40.798 46.0532 41.1013C46.1784 41.4045 46.3481 41.7857 46.5011 42.1223C46.7571 42.6787 47.0214 43.2741 47.2328 43.8667C47.3692 44.2506 47.511 44.6262 47.6668 45.0101C47.8616 45.5053 48.0619 46.02 48.2233 46.5375L48.2761 46.6905C48.4875 47.2353 48.6051 47.8119 48.6239 48.3959C49.9869 47.3933 51.4409 46.5205 52.9667 45.7891C54.9337 44.8488 56.5834 44.3535 58.1192 44.2589C57.1983 43.1461 56.6085 41.6271 56.3581 39.7214C56.23 38.7342 56.2104 37.736 56.2997 36.7445C56.3219 36.4886 56.3525 36.2271 56.3915 35.9683C56.4137 35.8125 56.436 35.6623 56.4666 35.5065L56.5056 35.295H56.7281C56.8366 35.295 56.9423 35.309 57.0508 35.309C57.542 35.3158 58.0323 35.2644 58.5114 35.1559C59.5832 34.8992 60.6134 34.4928 61.5717 33.9485L61.6775 33.8929C62.1309 33.6508 62.6957 33.3504 62.8626 32.9164C62.9934 32.5797 62.7207 32.1958 62.4342 31.8592C62.1223 31.506 61.7907 31.1707 61.441 30.8548C61.1489 30.5766 60.8484 30.2984 60.5702 29.9952L60.292 29.7003L60.6731 29.5918C62.5037 29.0687 63.9337 30.4041 64.8101 31.6143C66.0314 33.3031 66.7909 35.2839 67.428 37.1785C67.9845 38.8478 68.4379 40.517 68.7996 41.947C69.4256 44.4147 69.3115 46.3845 68.4491 47.9675C67.6144 49.4893 66.2234 50.5799 64.8991 51.6315L64.6905 51.8012C63.9309 52.3966 63.0741 53.081 62.2784 53.8015C61.6441 54.3746 61.0571 55.0145 60.4867 55.6349C60.2085 55.9298 59.9303 56.2247 59.6688 56.5113C58.6148 57.6007 57.5002 58.6299 56.3303 59.5938C56.002 59.872 55.6765 60.1502 55.3454 60.4062C55.1627 60.5814 55.0112 60.7865 54.8975 61.0127C54.8474 61.0962 54.7946 61.1852 54.7417 61.2659C54.3383 61.8946 53.9238 62.5234 53.5064 63.1494C52.619 64.4792 51.8734 65.5503 51.1639 66.5213L50.9636 66.7995C50.5487 67.4017 50.0833 67.9676 49.5726 68.491C48.6406 69.3924 47.3163 69.7123 46.1478 69.9404C45.5978 70.0655 45.0368 70.1363 44.473 70.1519Z" fill="#CF6240"/>
<path d="M41.5062 98.0852L51.7304 76.7188C49.9387 79.3423 41.6704 79.4675 32.4032 76.8829C23.1361 74.2984 16.1558 69.9277 16.0167 66.77L13.4099 90.2509C12.7255 92.6407 18.4649 96.3242 26.227 98.4886C33.989 100.653 40.8246 100.469 41.5062 98.0852Z" fill="#3B6B6E"/>
<path style="mix-blend-mode:multiply" opacity="0.7" d="M41.5062 98.0852L51.7304 76.7188C49.9387 79.3423 41.6704 79.4675 32.4032 76.8829C23.1361 74.2984 16.1558 69.9277 16.0167 66.77L13.4099 90.2509C12.7255 92.6407 18.4649 96.3242 26.227 98.4886C33.989 100.653 40.8246 100.469 41.5062 98.0852Z" fill="url(#paint33_radial_2849_37947)"/>
<path style="mix-blend-mode:overlay" d="M41.5062 98.0852L51.7304 76.7188C49.9387 79.3423 41.6704 79.4675 32.4032 76.8829C23.1361 74.2984 16.1558 69.9277 16.0167 66.77L13.4099 90.2509C12.7255 92.6407 18.4649 96.3242 26.227 98.4886C33.989 100.653 40.8246 100.469 41.5062 98.0852Z" fill="url(#paint34_radial_2849_37947)"/>
<g style="mix-blend-mode:overlay" opacity="0.3">
<path d="M27.2864 85.887C24.2094 85.0301 22.1145 82.938 22.6069 81.2187C23.0993 79.4993 25.9927 78.7982 29.0669 79.6551C32.1411 80.512 34.236 82.6014 33.7464 84.3207C33.2567 86.04 30.3606 86.7411 27.2864 85.887Z" fill="#1D1D1B"/>
</g>
<path d="M33.5429 86.435C33.7432 85.7283 33.9713 85.1552 33.6792 84.5571C32.2492 81.6442 25.6585 80.2087 24.86 82.9963C24.8155 83.1549 24.4622 84.29 24.4482 84.4458C25.728 86.1123 32.6192 89.6678 33.5429 86.435Z" fill="#FFFBCF"/>
<path style="mix-blend-mode:multiply" d="M33.5429 86.435C33.7432 85.7283 33.9713 85.1552 33.6792 84.5571C32.2492 81.6442 25.6585 80.2087 24.86 82.9963C24.8155 83.1549 24.4622 84.29 24.4482 84.4458C25.728 86.1123 32.6192 89.6678 33.5429 86.435Z" fill="url(#paint35_radial_2849_37947)"/>
<path d="M28.3464 87.6731C25.8759 86.986 24.1732 85.4224 24.5154 84.1788C24.8576 82.9352 27.1612 82.4901 29.6317 83.1773C32.1022 83.8645 33.8215 85.4336 33.4654 86.6744C33.1093 87.9152 30.8252 88.3631 28.3464 87.6731Z" fill="#FFFEF7"/>
<g style="mix-blend-mode:multiply">
<path d="M30.1842 85.5006C29.5666 85.3281 29.1215 84.9943 29.1883 84.755C29.255 84.5157 29.8142 84.4601 30.4319 84.6326C31.0495 84.8051 31.4946 85.1389 31.4278 85.3782C31.3611 85.6175 30.8019 85.6842 30.1842 85.5006Z" fill="#EEB786"/>
</g>
<g style="mix-blend-mode:multiply">
<path d="M27.0261 86.2819C26.4084 86.1066 25.9633 85.7755 26.0301 85.5362C26.0968 85.297 26.656 85.2414 27.2737 85.4138C27.8913 85.5863 28.3364 85.923 28.2696 86.1594C28.2029 86.3959 27.6437 86.4544 27.0261 86.2819Z" fill="#EEB786"/>
</g>
<g style="mix-blend-mode:multiply">
<path d="M27.0931 84.8494C26.4755 84.6769 26.0304 84.343 26.0999 84.1038C26.1695 83.8645 26.7259 83.8089 27.3407 83.9786C27.9556 84.1483 28.4063 84.4849 28.3367 84.727C28.2672 84.969 27.7108 85.0107 27.0931 84.8494Z" fill="#EEB786"/>
</g>
<g style="mix-blend-mode:multiply">
<path d="M29.7394 87.039C29.1218 86.8693 28.6739 86.5327 28.7434 86.2934C28.813 86.0542 29.3694 85.9985 29.9871 86.1738C30.6047 86.3491 31.0498 86.6774 30.983 86.9194C30.9163 87.1615 30.3626 87.2088 29.7394 87.039Z" fill="#EEB786"/>
</g>
<defs>
<radialGradient id="paint0_radial_2849_37947" cx="0" cy="0" r="1" gradientUnits="userSpaceOnUse" gradientTransform="translate(66.4581 96.2119) scale(0.0102408 0.0422353)">
<stop offset="0.49" stop-color="white"/>
<stop offset="0.84" stop-color="#FFCFA2"/>
<stop offset="0.92" stop-color="#FFE6CF"/>
<stop offset="1" stop-color="white"/>
</radialGradient>
<radialGradient id="paint1_radial_2849_37947" cx="0" cy="0" r="1" gradientUnits="userSpaceOnUse" gradientTransform="translate(75.4345 83.5255) scale(0.0110175 0.0220337)">
<stop offset="0.49" stop-color="white"/>
<stop offset="0.84" stop-color="#FFCFA2"/>
<stop offset="0.92" stop-color="#FFE6CF"/>
<stop offset="1" stop-color="white"/>
</radialGradient>
<radialGradient id="paint2_radial_2849_37947" cx="0" cy="0" r="1" gradientUnits="userSpaceOnUse" gradientTransform="translate(95.9329 71.3274) scale(0.0127676 0.000955887)">
<stop offset="0.49" stop-color="white"/>
<stop offset="0.84" stop-color="#FFCFA2"/>
<stop offset="0.92" stop-color="#FFE6CF"/>
<stop offset="1" stop-color="white"/>
</radialGradient>
<radialGradient id="paint3_radial_2849_37947" cx="0" cy="0" r="1" gradientUnits="userSpaceOnUse" gradientTransform="translate(99.9238 79.5162) scale(0.0153286 0.00370079)">
<stop offset="0.49" stop-color="white"/>
<stop offset="0.84" stop-color="#FFCFA2"/>
<stop offset="0.92" stop-color="#FFE6CF"/>
<stop offset="1" stop-color="white"/>
</radialGradient>
<radialGradient id="paint4_radial_2849_37947" cx="0" cy="0" r="1" gradientUnits="userSpaceOnUse" gradientTransform="translate(9462.36 8471.26) scale(1983.63 2239.52)">
<stop offset="0.61" stop-color="white"/>
<stop offset="0.84" stop-color="#FFCFA2"/>
<stop offset="0.92" stop-color="#FFE6CF"/>
<stop offset="1" stop-color="white"/>
</radialGradient>
<radialGradient id="paint5_radial_2849_37947" cx="0" cy="0" r="1" gradientUnits="userSpaceOnUse" gradientTransform="translate(62.6279 95.8969) rotate(105.866) scale(60.6024 61.1926)">
<stop offset="0.44" stop-color="white"/>
<stop offset="0.48" stop-color="#F8FBFC"/>
<stop offset="0.53" stop-color="#E5F1F5"/>
<stop offset="0.6" stop-color="#C5DFE9"/>
<stop offset="0.67" stop-color="#99C7D7"/>
<stop offset="0.75" stop-color="#61A8C2"/>
<stop offset="0.76" stop-color="#61A8C2"/>
<stop offset="0.86" stop-color="#B6D7E3"/>
<stop offset="0.92" stop-color="#EBF4F7"/>
<stop offset="0.95" stop-color="white"/>
</radialGradient>
<radialGradient id="paint6_radial_2849_37947" cx="0" cy="0" r="1" gradientUnits="userSpaceOnUse" gradientTransform="translate(56.8604 113.338) rotate(105.866) scale(44.6714 45.1065)">
<stop stop-color="white"/>
<stop offset="0.14" stop-color="#F8F8F8"/>
<stop offset="0.34" stop-color="#E5E5E5"/>
<stop offset="0.58" stop-color="#C6C6C6"/>
<stop offset="0.85" stop-color="#9C9C9C"/>
<stop offset="1" stop-color="#808080"/>
</radialGradient>
<radialGradient id="paint7_radial_2849_37947" cx="0" cy="0" r="1" gradientUnits="userSpaceOnUse" gradientTransform="translate(-12238 3266.39) scale(5864.89 2481.32)">
<stop stop-color="white"/>
<stop offset="0.14" stop-color="#F8F8F8"/>
<stop offset="0.34" stop-color="#E5E5E5"/>
<stop offset="0.58" stop-color="#C6C6C6"/>
<stop offset="0.85" stop-color="#9C9C9C"/>
<stop offset="1" stop-color="#808080"/>
</radialGradient>
<radialGradient id="paint8_radial_2849_37947" cx="0" cy="0" r="1" gradientUnits="userSpaceOnUse" gradientTransform="translate(-14502.8 4476.8) scale(3901.35 1609.19)">
<stop offset="0.44" stop-color="white"/>
<stop offset="0.48" stop-color="#F8FBFC"/>
<stop offset="0.53" stop-color="#E5F1F5"/>
<stop offset="0.6" stop-color="#C5DFE9"/>
<stop offset="0.67" stop-color="#99C7D7"/>
<stop offset="0.75" stop-color="#61A8C2"/>
<stop offset="0.76" stop-color="#61A8C2"/>
<stop offset="0.86" stop-color="#B6D7E3"/>
<stop offset="0.92" stop-color="#EBF4F7"/>
<stop offset="0.95" stop-color="white"/>
</radialGradient>
<radialGradient id="paint9_radial_2849_37947" cx="0" cy="0" r="1" gradientUnits="userSpaceOnUse" gradientTransform="translate(33.3669 83.2631) rotate(105.866) scale(9.05354 9.14171)">
<stop offset="0.42" stop-color="white"/>
<stop offset="0.79" stop-color="#C78907"/>
<stop offset="0.83" stop-color="#D19F35"/>
<stop offset="0.93" stop-color="#EBD5A7"/>
<stop offset="1" stop-color="white"/>
</radialGradient>
<radialGradient id="paint10_radial_2849_37947" cx="0" cy="0" r="1" gradientUnits="userSpaceOnUse" gradientTransform="translate(-712.019 441.136) scale(29.1743 13.903)">
<stop offset="0.42" stop-color="white"/>
<stop offset="0.79" stop-color="#C78907"/>
<stop offset="0.83" stop-color="#D19F35"/>
<stop offset="0.93" stop-color="#EBD5A7"/>
<stop offset="1" stop-color="white"/>
</radialGradient>
<radialGradient id="paint11_radial_2849_37947" cx="0" cy="0" r="1" gradientUnits="userSpaceOnUse" gradientTransform="translate(-702.089 450.873) scale(29.1968 13.8409)">
<stop offset="0.42" stop-color="white"/>
<stop offset="0.79" stop-color="#C78907"/>
<stop offset="0.83" stop-color="#D19F35"/>
<stop offset="0.93" stop-color="#EBD5A7"/>
<stop offset="1" stop-color="white"/>
</radialGradient>
<radialGradient id="paint12_radial_2849_37947" cx="0" cy="0" r="1" gradientUnits="userSpaceOnUse" gradientTransform="translate(-712.969 449.811) scale(29.1737 13.8067)">
<stop offset="0.42" stop-color="white"/>
<stop offset="0.79" stop-color="#C78907"/>
<stop offset="0.83" stop-color="#D19F35"/>
<stop offset="0.93" stop-color="#EBD5A7"/>
<stop offset="1" stop-color="white"/>
</radialGradient>
<radialGradient id="paint13_radial_2849_37947" cx="0" cy="0" r="1" gradientUnits="userSpaceOnUse" gradientTransform="translate(-699.444 441.024) scale(29.113 13.8072)">
<stop offset="0.42" stop-color="white"/>
<stop offset="0.79" stop-color="#C78907"/>
<stop offset="0.83" stop-color="#D19F35"/>
<stop offset="0.93" stop-color="#EBD5A7"/>
<stop offset="1" stop-color="white"/>
</radialGradient>
<radialGradient id="paint14_radial_2849_37947" cx="0" cy="0" r="1" gradientUnits="userSpaceOnUse" gradientTransform="translate(38.5079 38.4058) scale(36.3369 35.9735)">
<stop offset="0.61" stop-color="white"/>
<stop offset="0.84" stop-color="#FFCFA2"/>
<stop offset="0.92" stop-color="#FFE6CF"/>
<stop offset="1" stop-color="white"/>
</radialGradient>
<radialGradient id="paint15_radial_2849_37947" cx="0" cy="0" r="1" gradientUnits="userSpaceOnUse" gradientTransform="translate(-12237.8 3266.66) scale(5864.89 2481.32)">
<stop stop-color="white"/>
<stop offset="0.14" stop-color="#F8F8F8"/>
<stop offset="0.34" stop-color="#E5E5E5"/>
<stop offset="0.58" stop-color="#C6C6C6"/>
<stop offset="0.85" stop-color="#9C9C9C"/>
<stop offset="1" stop-color="#808080"/>
</radialGradient>
<radialGradient id="paint16_radial_2849_37947" cx="0" cy="0" r="1" gradientUnits="userSpaceOnUse" gradientTransform="translate(19.2889 23.7729) scale(25.8067 25.5486)">
<stop offset="0.44" stop-color="white"/>
<stop offset="0.66" stop-color="#FFCFA2"/>
<stop offset="0.83" stop-color="#FFE6CF"/>
<stop offset="1" stop-color="white"/>
</radialGradient>
<radialGradient id="paint17_radial_2849_37947" cx="0" cy="0" r="1" gradientUnits="userSpaceOnUse" gradientTransform="translate(-13.6595 45.9363) scale(38.4457 38.0613)">
<stop offset="0.61" stop-color="white"/>
<stop offset="0.77" stop-color="#FFCFA2"/>
<stop offset="0.89" stop-color="#FFE6CF"/>
<stop offset="1" stop-color="white"/>
</radialGradient>
<radialGradient id="paint18_radial_2849_37947" cx="0" cy="0" r="1" gradientUnits="userSpaceOnUse" gradientTransform="translate(12506.6 20523.4) scale(2465.02 5669.18)">
<stop offset="0.61" stop-color="white"/>
<stop offset="0.84" stop-color="#FFCFA2"/>
<stop offset="0.92" stop-color="#FFE6CF"/>
<stop offset="1" stop-color="white"/>
</radialGradient>
<radialGradient id="paint19_radial_2849_37947" cx="0" cy="0" r="1" gradientUnits="userSpaceOnUse" gradientTransform="translate(11494.3 16638.3) scale(2746.82 9301.09)">
<stop offset="0.61" stop-color="white"/>
<stop offset="0.84" stop-color="#FFCFA2"/>
<stop offset="0.92" stop-color="#FFE6CF"/>
<stop offset="1" stop-color="white"/>
</radialGradient>
<radialGradient id="paint20_radial_2849_37947" cx="0" cy="0" r="1" gradientUnits="userSpaceOnUse" gradientTransform="translate(34.8452 24.7146) scale(69.1684 68.4767)">
<stop offset="0.49" stop-color="white"/>
<stop offset="0.84" stop-color="#FFCFA2"/>
<stop offset="0.92" stop-color="#FFE6CF"/>
<stop offset="1" stop-color="white"/>
</radialGradient>
<radialGradient id="paint21_radial_2849_37947" cx="0" cy="0" r="1" gradientUnits="userSpaceOnUse" gradientTransform="translate(28.5827 5.79279) scale(43.434 42.9997)">
<stop offset="0.61" stop-color="white"/>
<stop offset="0.76" stop-color="#FFCFA2"/>
<stop offset="0.88" stop-color="#FFE6CF"/>
<stop offset="1" stop-color="white"/>
</radialGradient>
<radialGradient id="paint22_radial_2849_37947" cx="0" cy="0" r="1" gradientUnits="userSpaceOnUse" gradientTransform="translate(28212.1 20630.5) scale(2956.76 3418.01)">
<stop offset="0.49" stop-color="white"/>
<stop offset="0.84" stop-color="#FFCFA2"/>
<stop offset="0.92" stop-color="#FFE6CF"/>
<stop offset="1" stop-color="white"/>
</radialGradient>
<radialGradient id="paint23_radial_2849_37947" cx="0" cy="0" r="1" gradientUnits="userSpaceOnUse" gradientTransform="translate(68.7586 212.661) scale(0.0398252 0.50869)">
<stop offset="0.49" stop-color="white"/>
<stop offset="0.84" stop-color="#FFCFA2"/>
<stop offset="0.92" stop-color="#FFE6CF"/>
<stop offset="1" stop-color="white"/>
</radialGradient>
<radialGradient id="paint24_radial_2849_37947" cx="0" cy="0" r="1" gradientUnits="userSpaceOnUse" gradientTransform="translate(86.8476 170.566) scale(0.0567535 0.287128)">
<stop offset="0.49" stop-color="white"/>
<stop offset="0.84" stop-color="#FFCFA2"/>
<stop offset="0.92" stop-color="#FFE6CF"/>
<stop offset="1" stop-color="white"/>
</radialGradient>
<radialGradient id="paint25_radial_2849_37947" cx="0" cy="0" r="1" gradientUnits="userSpaceOnUse" gradientTransform="translate(100.368 189.888) scale(0.0863731 0.375583)">
<stop offset="0.49" stop-color="white"/>
<stop offset="0.84" stop-color="#FFCFA2"/>
<stop offset="0.92" stop-color="#FFE6CF"/>
<stop offset="1" stop-color="white"/>
</radialGradient>
<radialGradient id="paint26_radial_2849_37947" cx="0" cy="0" r="1" gradientUnits="userSpaceOnUse" gradientTransform="translate(14632 14976.1) scale(2350.41 3655.79)">
<stop offset="0.49" stop-color="white"/>
<stop offset="0.84" stop-color="#FFCFA2"/>
<stop offset="0.92" stop-color="#FFE6CF"/>
<stop offset="1" stop-color="white"/>
</radialGradient>
<radialGradient id="paint27_radial_2849_37947" cx="0" cy="0" r="1" gradientUnits="userSpaceOnUse" gradientTransform="translate(16913.2 10358.1) scale(2661.35 2536.23)">
<stop offset="0.49" stop-color="white"/>
<stop offset="0.84" stop-color="#FFCFA2"/>
<stop offset="0.92" stop-color="#FFE6CF"/>
<stop offset="1" stop-color="white"/>
</radialGradient>
<radialGradient id="paint28_radial_2849_37947" cx="0" cy="0" r="1" gradientUnits="userSpaceOnUse" gradientTransform="translate(18338.3 12632.2) scale(3769.22 5469.05)">
<stop offset="0.61" stop-color="white"/>
<stop offset="0.84" stop-color="#FFCFA2"/>
<stop offset="0.92" stop-color="#FFE6CF"/>
<stop offset="1" stop-color="white"/>
</radialGradient>
<radialGradient id="paint29_radial_2849_37947" cx="0" cy="0" r="1" gradientUnits="userSpaceOnUse" gradientTransform="translate(4741.16 7160.98) scale(768.289 2268.33)">
<stop offset="0.61" stop-color="white"/>
<stop offset="0.84" stop-color="#FFCFA2"/>
<stop offset="0.92" stop-color="#FFE6CF"/>
<stop offset="1" stop-color="white"/>
</radialGradient>
<radialGradient id="paint30_radial_2849_37947" cx="0" cy="0" r="1" gradientUnits="userSpaceOnUse" gradientTransform="translate(54083.6 16381.7) scale(11747.4 6517.84)">
<stop offset="0.61" stop-color="white"/>
<stop offset="0.84" stop-color="#FFCFA2"/>
<stop offset="0.92" stop-color="#FFE6CF"/>
<stop offset="1" stop-color="white"/>
</radialGradient>
<radialGradient id="paint31_radial_2849_37947" cx="0" cy="0" r="1" gradientUnits="userSpaceOnUse" gradientTransform="translate(6965.85 4802.67) scale(934.129 1007.19)">
<stop offset="0.61" stop-color="white"/>
<stop offset="0.84" stop-color="#FFCFA2"/>
<stop offset="0.92" stop-color="#FFE6CF"/>
<stop offset="1" stop-color="white"/>
</radialGradient>
<radialGradient id="paint32_radial_2849_37947" cx="0" cy="0" r="1" gradientUnits="userSpaceOnUse" gradientTransform="translate(27513 14944.9) scale(4466.07 5162.76)">
<stop offset="0.49" stop-color="white"/>
<stop offset="0.84" stop-color="#FFCFA2"/>
<stop offset="0.92" stop-color="#FFE6CF"/>
<stop offset="1" stop-color="white"/>
</radialGradient>
<radialGradient id="paint33_radial_2849_37947" cx="0" cy="0" r="1" gradientUnits="userSpaceOnUse" gradientTransform="translate(62.6279 95.9574) rotate(105.866) scale(60.6024 61.1926)">
<stop offset="0.44" stop-color="white"/>
<stop offset="0.48" stop-color="#F8FBFC"/>
<stop offset="0.53" stop-color="#E5F1F5"/>
<stop offset="0.6" stop-color="#C5DFE9"/>
<stop offset="0.67" stop-color="#99C7D7"/>
<stop offset="0.75" stop-color="#61A8C2"/>
<stop offset="0.76" stop-color="#61A8C2"/>
<stop offset="0.86" stop-color="#B6D7E3"/>
<stop offset="0.92" stop-color="#EBF4F7"/>
<stop offset="0.95" stop-color="white"/>
</radialGradient>
<radialGradient id="paint34_radial_2849_37947" cx="0" cy="0" r="1" gradientUnits="userSpaceOnUse" gradientTransform="translate(56.8604 113.399) rotate(105.866) scale(44.6714 45.1065)">
<stop stop-color="white"/>
<stop offset="0.14" stop-color="#F8F8F8"/>
<stop offset="0.34" stop-color="#E5E5E5"/>
<stop offset="0.58" stop-color="#C6C6C6"/>
<stop offset="0.85" stop-color="#9C9C9C"/>
<stop offset="1" stop-color="#808080"/>
</radialGradient>
<radialGradient id="paint35_radial_2849_37947" cx="0" cy="0" r="1" gradientUnits="userSpaceOnUse" gradientTransform="translate(33.6326 84.4125) rotate(105.866) scale(9.05352 9.14171)">
<stop offset="0.42" stop-color="white"/>
<stop offset="0.79" stop-color="#C78907"/>
<stop offset="0.83" stop-color="#D19F35"/>
<stop offset="0.93" stop-color="#EBD5A7"/>
<stop offset="1" stop-color="white"/>
</radialGradient>
</defs>
</svg>
