<svg width="17" height="20" viewBox="0 0 17 20" fill="none" xmlns="http://www.w3.org/2000/svg">
<path d="M16.1081 9.08398C16.4561 9.08398 16.7438 9.34263 16.7893 9.6782L16.7956 9.77148V16.1889C16.7956 17.7776 15.5522 19.0758 13.9855 19.1634L13.8164 19.1681H3.73307C2.14446 19.1681 0.846264 17.9247 0.758622 16.358L0.753906 16.1889V9.77148C0.753906 9.39179 1.06171 9.08398 1.44141 9.08398C1.78946 9.08398 2.07711 9.34263 2.12263 9.6782L2.12891 9.77148V16.1889C2.12891 17.0306 2.77709 17.7209 3.60151 17.7878L3.73307 17.7931H13.8164C14.6581 17.7931 15.3483 17.1449 15.4153 16.3205L15.4206 16.1889V9.77148C15.4206 9.39179 15.7284 9.08398 16.1081 9.08398ZM3.70135 5.6156L8.28124 1.03537C8.52517 0.791416 8.90686 0.769083 9.17601 0.968478L9.25313 1.03495L13.8409 5.61518C14.1096 5.88344 14.11 6.31874 13.8417 6.58745C13.5978 6.83173 13.2159 6.85423 12.9466 6.65475L12.8694 6.58825L9.45674 3.18157L9.45755 13.901C9.45755 14.2491 9.19891 14.5367 8.86334 14.5822L8.77005 14.5885C8.422 14.5885 8.13435 14.3299 8.08883 13.9943L8.08255 13.901L8.08174 3.17882L4.67366 6.58783C4.42959 6.83192 4.04765 6.85412 3.7785 6.65443L3.70139 6.58787C3.4573 6.3438 3.4351 5.96186 3.63479 5.69271L3.70135 5.6156L8.28124 1.03537L3.70135 5.6156Z" fill="#CACACA"/>
</svg>
