<svg id="Layer_1" enable-background="new 0 0 256 256" height="512" viewBox="0 0 256 256" width="512" xmlns="http://www.w3.org/2000/svg"><g id="Layer_23"><g><path d="m45.8 69.3h164.4l2.5-13.1c.4-2-.6-4.1-2.4-5l-15.5-8.1c-1.2-.6-2-1.7-2.4-3l-4.4-16.9c-.5-2-2.3-3.4-4.4-3.5l-17.5-.6c-1.3 0-2.5-.6-3.4-1.6l-11.4-13.4c-1.3-1.6-3.6-2.1-5.4-1.2l-16 7.1c-1.2.5-2.6.5-3.8 0l-16-7.1c-1.9-.8-4.1-.3-5.4 1.2l-11.4 13.4c-.9 1-2.1 1.6-3.4 1.6l-17.5.6c-2.1.1-3.8 1.5-4.4 3.5l-4.5 16.9c-.3 1.3-1.2 2.3-2.4 3l-15.5 8.1c-1.8 1-2.8 3-2.4 5z" fill="#edf4fc"/><path d="m200 69.3 2.2-11.1-12-6.3c-3.7-1.9-6.4-5.3-7.4-9.3l-3.4-13.1-13.5-.5c-4.1-.1-8-2-10.7-5.1l-8.8-10.3-12.4 5.5c-3.8 1.7-8.1 1.7-11.9 0l-12.4-5.5-8.8 10.4c-2.7 3.1-6.6 5-10.7 5.1l-13.5.5-3.4 13.1c-1.1 4-3.7 7.4-7.4 9.3l-12 6.3 2.1 11z" fill="#edb311"/><path d="m79.4 69.3h97.1c-13.6-26.8-46.5-37.5-73.3-23.9-10.2 5.3-18.5 13.6-23.8 23.9z" fill="#f5c84c"/><path d="m33.7 69.3h188.7c1.8 0 3.2 1.5 3.2 3.2v42.7c0 1.8-1.5 3.2-3.2 3.2h-188.7c-1.8 0-3.2-1.5-3.2-3.2v-42.7c-.1-1.8 1.4-3.2 3.2-3.2z" fill="#fc657e"/><path d="m210.2 118.5h-164.4l-2.5 13.1c-.4 2 .6 4.1 2.4 5l15.5 8.1c1.2.6 2 1.7 2.4 3l4.5 16.9c.5 2 2.3 3.4 4.4 3.5l17.5.6c1.3 0 2.5.6 3.4 1.6l11.4 13.3c1.3 1.6 3.6 2.1 5.4 1.2l16-7.1c1.2-.5 2.6-.5 3.8 0l16 7.1c1.9.8 4.1.3 5.4-1.2l11.4-13.3c.9-1 2.1-1.6 3.4-1.6l17.5-.6c2.1-.1 3.8-1.5 4.4-3.5l4.5-16.9c.3-1.3 1.2-2.3 2.4-3l15.5-8.1c1.8-1 2.8-3 2.4-5z" fill="#edf4fc"/><path d="m56 118.5-2.2 11.1 12 6.3c3.7 1.9 6.4 5.3 7.4 9.3l3.4 13.1 13.5.5c4.1.1 8 2 10.7 5.1l8.8 10.3 12.4-5.5c3.8-1.7 8.1-1.7 11.9 0l12.4 5.5 8.8-10.3c2.7-3.1 6.6-5 10.7-5.1l13.5-.5 3.4-13.1c1.1-4 3.7-7.4 7.4-9.3l12-6.3-2.2-11.1z" fill="#edb311"/><path d="m215.8 14.8c-4-.7-7.2-3.8-8-7.8 0-.1-.1-.2-.2-.1-.1 0-.1.1-.1.1-.8 4-4 7.1-8 7.8-.1 0-.2.1-.1.2 0 .1.1.1.1.1 4 .7 7.2 3.8 8 7.8 0 .1.1.2.2.1.1 0 .1-.1.1-.1.8-4 4-7.1 8-7.8.1 0 .2-.1.1-.2.1 0 0-.1-.1-.1z" fill="#f5c84c"/><path d="m53.2 198h-2.2v-2.2c0-1.7-1.3-3-3-3s-3 1.3-3 3v2.2h-2.2c-1.7 0-3 1.3-3 3s1.3 3 3 3h2.2v2.2c0 1.7 1.3 3 3 3s3-1.3 3-3v-2.2h2.2c1.7 0 3-1.3 3-3s-1.3-3-3-3z" fill="#70d6f9"/><circle cx="54.8" cy="177.2" fill="#87d147" r="3.2"/><circle cx="219.8" cy="36.2" fill="#fc657e" r="3.2"/><circle cx="198.8" cy="193.2" fill="#f5c84c" r="3.2"/><path d="m173.8 168.4-7.7.3c-1.3 0-2.5.6-3.4 1.6l-11.4 13.3c-1.3 1.6-3.6 2.1-5.4 1.2l-16-7.1c-1.2-.5-2.6-.5-3.8 0l-3.8 1.7 19.5 72.9c.2.8 1.1 1.3 1.9 1.1.4-.1.7-.4.9-.7l15.9-27.6c.4-.7 1.4-1 2.1-.6l27.6 15.9c.7.4 1.7.2 2.1-.6.2-.4.3-.8.2-1.2z" fill="#5290db"/><path d="m110.1 184.9c-1.9.8-4.1.3-5.4-1.2l-11.4-13.3c-.9-1-2.1-1.6-3.4-1.6l-7.7-.3-18.8 70.3c-.2.8.3 1.7 1.1 1.9.4.1.8.1 1.2-.2l27.6-15.9c.7-.4 1.7-.2 2.1.6l15.9 27.6c.4.7 1.4 1 2.1.6.4-.2.6-.5.7-.9l13.9-51.8-5.6-21.1z" fill="#29589f"/><path d="m61.5 81.4h-12.8c-.5 0-.9.4-.9.9v23.2c0 .5.4.9.9.9h12.8c.5 0 .9-.4.9-.9v-2.4c0-.5-.4-.9-.9-.9h-8.9v-6.3h7.9c.5 0 .9-.4.9-.9v-2.3c0-.5-.4-.9-.9-.9h-7.9v-6.1h8.9c.5 0 .9-.4.9-.9v-2.4c0-.5-.4-1-.9-1z"/><path d="m75.6 93.9 6.8-11.1c.3-.4.1-1-.3-1.2-.1-.1-.3-.1-.5-.1h-3.5c-.3 0-.6.2-.8.4l-4.6 7.7-4.9-7.8c-.2-.3-.4-.4-.8-.4h-3.6c-.5 0-.9.4-.9.9 0 .2 0 .3.1.5l6.9 10.9-6.5 11.4c-.3.4-.1 1 .3 1.2.1.1.3.1.5.1h3.5c.3 0 .6-.2.8-.4l4.6-7.9 5 7.9c.2.3.4.4.8.4h3.6c.5 0 .9-.4.9-.9 0-.2 0-.3-.1-.5z"/><path d="m91.5 86.7c1.1-.7 2.3-1 3.6-1 1.5-.1 3 .4 4.3 1.2 1.2.8 2 1.9 2.5 3.3.1.3.5.6.8.6h3.2c.5 0 .9-.4.9-.9 0-.1 0-.2 0-.3-.7-2.5-2.1-4.6-4.1-6.2-2.2-1.6-4.8-2.4-7.5-2.3-2.2 0-4.3.5-6.2 1.6-1.8 1.1-3.3 2.7-4.2 4.5-1 2-1.5 4.3-1.5 6.6s.5 4.5 1.5 6.5c1 1.9 2.4 3.4 4.2 4.5 1.9 1.1 4 1.7 6.2 1.6 2.7.1 5.3-.7 7.5-2.3 2-1.5 3.5-3.7 4.1-6.2.1-.5-.1-1-.6-1.1-.1 0-.2 0-.3 0h-3.2c-.4 0-.7.2-.8.6-.5 1.3-1.4 2.5-2.5 3.3-1.3.8-2.8 1.3-4.3 1.2-2.6.1-5-1.4-6.1-3.8-.7-1.4-1-2.9-.9-4.4 0-1.5.3-3 .9-4.4.6-.9 1.4-1.9 2.5-2.6z"/><path d="m121.2 102.3h-7.3v-20c0-.5-.4-.9-.9-.9h-3c-.5 0-.9.4-.9.9v23.2c0 .5.4.9.9.9h11.2c.5 0 .9-.4.9-.9v-2.3c0-.5-.4-.9-.9-.9z"/><path d="m141.3 81.4h-3c-.5 0-.9.4-.9.9v13.9c.1 1.6-.3 3.2-1.2 4.4-.9.9-2.2 1.4-3.4 1.3-1.3.1-2.6-.4-3.5-1.3-1-1.3-1.4-2.9-1.3-4.4v-13.9c0-.5-.4-.9-.9-.9h-3c-.5 0-.9.4-.9.9v13.9c0 3.4.9 6 2.6 7.7 3.9 3.5 9.9 3.5 13.8 0 1.7-1.8 2.6-4.4 2.6-7.7v-13.9c0-.4-.4-.9-.9-.9z"/><path d="m157.8 93.2c-1.2-.6-2.4-1-3.7-1.4-1-.3-1.9-.6-2.8-1-.6-.2-1.1-.6-1.4-1.1-.4-.5-.5-1-.5-1.6-.1-.7.2-1.5.8-2 .7-.5 1.5-.8 2.3-.7.9-.1 1.8.2 2.5.8.6.5 1 1.2 1.1 1.9.1.4.4.7.9.7h3.2c.5 0 .9-.4.9-.9v-.1c-.2-1.9-1.2-3.6-2.7-4.8-1.7-1.3-3.8-2-6-1.9-1.4 0-2.9.3-4.2.8-1.2.5-2.2 1.4-2.9 2.5s-1 2.4-1 3.7c-.1 1.4.3 2.8 1.1 3.9.7.9 1.6 1.7 2.6 2.2 1.2.5 2.4 1 3.7 1.4 1 .3 1.9.6 2.8 1.1.6.3 1.1.7 1.5 1.2s.6 1.1.5 1.7c0 .8-.3 1.5-.8 2.1-.7.6-1.5.9-2.4.8-.7 0-1.5-.1-2.1-.5-.5-.3-1-.7-1.3-1.2s-.5-1-.5-1.5-.4-.8-.9-.8h-3.2c-.5 0-.9.4-.9.9v.1c.1 1.4.6 2.7 1.4 3.8s1.9 2 3.2 2.6c1.4.6 2.9.9 4.5.9 1.5 0 3-.3 4.4-1 1.1-.6 2.1-1.5 2.8-2.6.6-1.1.9-2.3.9-3.5.1-1.4-.3-2.9-1.1-4.1-.8-1.1-1.7-1.9-2.7-2.4z"/><path d="m164.7 81.4h3c.5 0 .9.4.9.9v23.2c0 .5-.4.9-.9.9h-3c-.5 0-.9-.4-.9-.9v-23.2c0-.4.4-.9.9-.9z"/><path d="m191.5 81.4h-3.3c-.4 0-.7.2-.8.6l-6.4 17.6-6.2-17.6c-.1-.4-.5-.6-.8-.6h-3.3c-.5 0-.9.4-.9.9 0 .1 0 .2.1.3l8.5 23.2c.1.4.5.6.8.6h3.8c.4 0 .7-.2.8-.6l8.5-23.2c.2-.5-.1-1-.5-1.1-.1 0-.2-.1-.3-.1z"/><path d="m207.3 85.7c.5 0 .9-.4.9-.9v-2.4c0-.5-.4-.9-.9-.9h-12.8c-.5 0-.9.4-.9.9v23.2c0 .5.4.9.9.9h12.8c.5 0 .9-.4.9-.9v-2.4c0-.5-.4-.9-.9-.9h-8.9v-6.3h7.9c.5 0 .9-.4.9-.9v-2.3c0-.5-.4-.9-.9-.9h-7.9v-6.1h8.9z"/><path d="m79.4 118.5h97.1c-13.6 26.8-46.5 37.5-73.3 23.9-10.2-5.2-18.5-13.6-23.8-23.9z" fill="#f5c84c"/><path d="m228.1 115.3v-42.8c0-3.2-2.6-5.7-5.7-5.7h-9.1l2-10.1c.6-3.1-.9-6.2-3.7-7.7l-15.5-8.1c-.5-.3-.9-.8-1.1-1.4l-4.5-16.9c-.8-3.1-3.5-5.2-6.7-5.3l-17.5-.6c-.6 0-1.2-.3-1.6-.8l-11.4-13.4c-2.1-2.4-5.5-3.2-8.4-1.9l-16 7.1c-.6.2-1.2.2-1.8 0l-16-7.1c-2.9-1.3-6.3-.5-8.4 1.9l-11.3 13.3c-.4.5-1 .7-1.6.8l-17.5.6c-3.2.1-5.9 2.3-6.7 5.3l-4.5 16.9c-.2.6-.6 1.1-1.1 1.4l-15.5 8.1c-2.8 1.5-4.3 4.6-3.7 7.7l2 10.1h-9.1c-3.2 0-5.7 2.6-5.7 5.7v42.7c0 3.2 2.6 5.7 5.7 5.7h9.1l-2 10.1c-.6 3.1.9 6.2 3.7 7.7l15.5 8.1c.5.3.9.8 1.1 1.4l4.5 16.9c.8 3.1 3.5 5.2 6.7 5.3l6.7.2-18 67.3c-.6 2.2.7 4.4 2.9 4.9 1 .3 2.1.1 3.1-.4l26.8-15.5 15.5 26.8c1.1 1.9 3.6 2.6 5.5 1.5.9-.5 1.6-1.4 1.9-2.5l11.5-42.8 11.5 42.8c.6 2.2 2.8 3.4 4.9 2.9 1-.3 1.9-1 2.5-1.9l15.5-26.8 26.8 15.5c1.9 1.1 4.4.4 5.5-1.5.5-.9.7-2 .4-3.1l-18-67.3 6.7-.2c3.2-.1 5.9-2.3 6.7-5.3l4.5-16.9c.2-.6.6-1.1 1.1-1.4l15.5-8.1c2.8-1.5 4.3-4.6 3.7-7.7l-2-10.1h9.1c2.9.3 5.5-2.3 5.5-5.4zm-171.5-55.8 10.4-5.3c4.3-2.2 7.4-6.2 8.7-10.9l3-11.3 11.7-.4c4.8-.2 9.4-2.4 12.5-6l7.6-8.9 10.7 4.7c4.4 2 9.5 2 13.9 0l10.7-4.7 7.6 8.9c3.1 3.7 7.7 5.9 12.5 6l11.7.4 3 11.3c1.2 4.7 4.4 8.6 8.7 10.9l10.3 5.4-1.4 7.2h-19.9c-15-27.7-49.6-37.9-77.3-22.9-9.7 5.3-17.6 13.2-22.9 22.9h-20zm27.1 7.3c15-24.5 47-32.1 71.5-17.1 7 4.3 12.8 10.1 17.1 17.1zm-36.9-13.4 15.5-8.1c1.8-.9 3.1-2.6 3.6-4.5l4.5-16.9c.2-.9 1.1-1.6 2-1.6l17.6-.7c2-.1 3.9-1 5.2-2.5l11.4-13.3c.6-.7 1.7-1 2.5-.6l16 7.1c1.8.8 4 .8 5.8 0l16-7.1c.9-.4 1.9-.2 2.5.6l11.4 13.3c1.3 1.5 3.2 2.4 5.2 2.5l17.5.6c1 0 1.8.7 2 1.6l4.5 16.9c.5 2 1.8 3.6 3.6 4.5l15.5 8.1c.8.4 1.3 1.4 1.1 2.3l-2.1 11.1h-5.1l1.6-8.1c.2-1.1-.3-2.2-1.3-2.7l-12-6.3c-3-1.6-5.3-4.4-6.1-7.7l-3.4-13.1c-.3-1.1-1.2-1.8-2.3-1.9l-13.5-.5c-3.4-.1-6.6-1.7-8.9-4.3l-8.9-10.1c-.7-.8-1.9-1.1-2.9-.7l-12.4 5.5c-3.1 1.4-6.7 1.4-9.9 0l-12.4-5.5c-1-.4-2.2-.2-2.9.7l-8.7 10.3c-2.2 2.6-5.4 4.2-8.9 4.3l-13.5.5c-1.1 0-2.1.8-2.3 1.9l-3.5 13c-.9 3.3-3.1 6.1-6.1 7.7l-12 6.3c-1 .5-1.5 1.6-1.3 2.7l1.6 8.1h-5.1l-2.2-11.1c-.2-.9.3-1.9 1.1-2.3zm-13.9 61.9v-42.8c0-.4.3-.7.7-.7h188.7c.4 0 .7.3.7.7v42.7c0 .4-.3.7-.7.7h-188.6c-.4.1-.8-.2-.8-.6zm166.5 13-10.3 5.4c-4.3 2.2-7.4 6.2-8.7 10.9l-3 11.3-11.7.4c-4.8.2-9.4 2.3-12.5 6l-7.6 8.9-10.7-4.7c-4.4-2-9.5-2-13.9 0l-10.7 4.7-7.6-8.9c-3.1-3.7-7.7-5.9-12.5-6l-11.7-.4-3-11.3c-1.2-4.7-4.4-8.6-8.7-10.9l-10.3-5.4 1.4-7.2h19.9c15 27.7 49.6 37.9 77.3 22.9 9.7-5.3 17.6-13.2 22.9-22.9h19.9zm-27.1-7.3c-15 24.5-47 32.1-71.5 17.1-7-4.3-12.8-10.1-17.1-17.1zm-60 128.5-14.8-25.6c-1.1-1.9-3.6-2.6-5.5-1.5l-25.6 14.8 17.7-66.2 5.7.2c.6 0 1.2.3 1.6.8l11.4 13.3c2.1 2.4 5.5 3.2 8.4 1.9l9.6-4.2 4.7 17.6zm77.3-12.3-25.6-14.8c-1.9-1.1-4.4-.5-5.5 1.5l-14.8 25.6-13.3-49.6-3-11.2-2.1-7.8 1.8-.8c.6-.2 1.2-.2 1.8 0l16 7.1c2.9 1.3 6.3.5 8.4-1.9l11.4-13.3c.4-.5 1-.7 1.6-.8l5.7-.2zm19.6-102.8-15.5 8.1c-1.8.9-3.1 2.6-3.6 4.5l-4.5 16.9c-.2.9-1.1 1.6-2 1.6l-17.5.6c-2 .1-3.9 1-5.2 2.5l-11.5 13.4c-.6.7-1.7 1-2.5.6l-16-7.1c-1.8-.8-4-.8-5.8 0l-3.8 1.7-12.3 5.4c-.9.4-1.9.2-2.5-.6l-11.4-13.3c-1.3-1.5-3.2-2.4-5.2-2.5l-7.7-.3-9.8-.3c-1 0-1.8-.7-2-1.6l-4.4-16.9c-.5-2-1.8-3.6-3.6-4.5l-15.5-8.1c-.8-.4-1.3-1.4-1.1-2.3l2.2-11.1h5l-1.6 8.1c-.2 1.1.3 2.2 1.3 2.7l12 6.3c3 1.6 5.3 4.4 6.1 7.7l3.4 13.1c.3 1.1 1.2 1.8 2.3 1.9l13.5.5c3.4.1 6.6 1.7 8.9 4.3l8.8 10.3c.7.8 1.9 1.1 2.9.7l12.4-5.5c3.1-1.4 6.7-1.4 9.9 0l12.4 5.5c1 .4 2.2.2 2.9-.7l8.8-10.3c2.2-2.6 5.4-4.2 8.9-4.3l13.5-.5c1.1 0 2.1-.8 2.3-1.9l3.4-13.1c.9-3.3 3.1-6.1 6.1-7.7l12-6.3c1-.5 1.5-1.6 1.3-2.7l-1.5-8.2h5.1l2.1 11.1c.3.9-.2 1.9-1 2.3z"/><path d="m123.5 136h10c1.4 0 2.5-1.1 2.5-2.5s-1.1-2.5-2.5-2.5h-10c-1.4 0-2.5 1.1-2.5 2.5s1.1 2.5 2.5 2.5z"/></g></g></svg>