<svg width="15" height="32" viewBox="0 0 15 32" fill="none" xmlns="http://www.w3.org/2000/svg">
<path fill-rule="evenodd" clip-rule="evenodd" d="M3.29569 23.9533C3.29569 21.4505 3.28155 18.9477 3.30983 16.4449C3.30983 16.0207 3.19671 15.8934 2.77251 15.9076C1.9948 15.9359 1.2171 15.9076 0.425257 15.9217C0.114176 15.9359 -0.0130848 15.8369 0.00105526 15.5117C0.0151953 13.9562 0.0151953 12.3867 0.00105526 10.8313C0.00105526 10.5343 0.0858957 10.4354 0.396977 10.4354C1.18882 10.4495 1.9948 10.4071 2.78665 10.4495C3.25327 10.4778 3.33811 10.3081 3.33811 9.88391C3.30983 8.69614 3.30983 7.50837 3.33811 6.32061C3.36639 4.86418 3.76231 3.50674 4.62486 2.33311C5.6995 0.820124 7.25491 0.141401 9.0507 0.0565603C10.8889 -0.0282801 12.7413 0.0141401 14.5936 0C14.8481 0 14.933 0.0848404 14.933 0.339362C14.9188 1.92305 14.9188 3.4926 14.933 5.07628C14.933 5.35909 14.8481 5.44392 14.5653 5.44392C13.6745 5.42978 12.7837 5.44392 11.907 5.44392C10.7192 5.44392 10.0122 6.05195 9.94152 7.22557C9.88496 8.15882 9.92738 9.1062 9.8991 10.0536C9.88496 10.3929 10.0971 10.3647 10.3092 10.3647C11.6525 10.3647 13.0099 10.3788 14.3532 10.3505C14.7491 10.3505 14.8764 10.4354 14.834 10.8454C14.6643 12.415 14.5229 13.9845 14.3815 15.5682C14.3532 15.9217 14.1835 15.9924 13.8725 15.9924C12.812 15.9783 11.7373 15.9783 10.6768 15.9924C9.91324 15.9924 9.98394 15.8793 9.98394 16.657C9.98394 21.5636 9.9698 26.4561 9.99808 31.3627C9.99808 31.8858 9.87082 32.0131 9.36178 31.999C7.53771 31.9707 5.6995 31.9707 3.87543 31.999C3.36639 32.0131 3.28155 31.8293 3.28155 31.3768C3.29569 28.8882 3.29569 26.4136 3.29569 23.9533Z" />
</svg>
