<svg width="24" height="24" viewBox="0 0 24 24" fill="none" xmlns="http://www.w3.org/2000/svg">
<path fill-rule="evenodd" clip-rule="evenodd" d="M9.64167 16.0228C9.64167 14.6827 9.63663 13.3433 9.64599 12.004C9.64743 11.7785 9.58697 11.7073 9.37247 11.7164C8.97515 11.7331 8.5771 11.7149 8.17978 11.724C8.01855 11.7285 7.95952 11.6816 7.96096 11.5023C7.96888 10.6661 7.96816 9.82998 7.96168 8.99383C7.96024 8.83342 8.00631 8.78045 8.16106 8.78347C8.56775 8.79331 8.97515 8.77137 9.38111 8.79255C9.61648 8.80466 9.66471 8.71688 9.66039 8.4876C9.64599 7.85122 9.64599 7.21409 9.65967 6.5777C9.6755 5.80058 9.87417 5.07491 10.3147 4.44307C10.8711 3.644 11.6628 3.27851 12.577 3.23538C13.5156 3.19149 14.4563 3.21571 15.3964 3.20511C15.5274 3.2036 15.5663 3.25278 15.5663 3.38672C15.5619 4.23195 15.5612 5.07793 15.567 5.92316C15.5684 6.07375 15.5216 6.1199 15.3813 6.11688C14.9293 6.10931 14.4772 6.11309 14.0259 6.11461C13.4242 6.11688 13.0643 6.44226 13.0268 7.06804C12.9966 7.56973 13.0189 8.07445 13.0074 8.57841C13.0031 8.75775 13.1046 8.74564 13.2176 8.74564C13.9043 8.74488 14.5917 8.75245 15.2783 8.74034C15.4799 8.73656 15.5461 8.78574 15.5231 9.00821C15.4367 9.84814 15.3626 10.6896 15.2942 11.5318C15.2783 11.7217 15.1963 11.758 15.0336 11.755C14.4916 11.7459 13.9496 11.749 13.4069 11.7527C13.0175 11.755 13.0556 11.693 13.0556 12.1107C13.0535 14.7326 13.0506 17.3553 13.0614 19.9773C13.0628 20.2542 12.9952 20.3231 12.7346 20.3178C11.8039 20.2996 10.8725 20.2989 9.94183 20.3185C9.67982 20.3238 9.63663 20.2308 9.63879 19.9848C9.64671 18.6636 9.64167 17.3432 9.64167 16.0228Z" fill="white"/>
</svg>
