<svg width="30" height="30" viewBox="0 0 30 30" fill="none" xmlns="http://www.w3.org/2000/svg">
<path d="M29.9844 15.0391C29.9844 17.226 30 19.4129 29.9844 21.5998C29.9531 26.3017 26.3144 29.9727 21.6294 29.9883C17.2098 30.0039 12.7902 30.0039 8.35502 29.9883C3.66996 29.9727 0.0156169 26.3017 0 21.5998C0 17.1947 0 12.8053 0.0156169 8.40016C0.0312337 3.69826 3.66996 0.0273366 8.37064 0.0117157C12.7902 -0.00390523 17.2098 -0.00390523 21.645 0.0117157C26.33 0.0273366 29.9688 3.69826 30 8.40016C30 10.6183 29.9844 12.8209 29.9844 15.0391ZM15.0078 23.3181C19.6304 23.3181 23.316 19.6004 23.3004 14.9766C23.2847 10.384 19.6148 6.7131 15.0078 6.69747C10.4008 6.66623 6.68402 10.3684 6.68402 14.9922C6.68402 19.6316 10.3852 23.3181 15.0078 23.3181ZM26.658 5.04166C26.6736 4.16688 25.9396 3.38584 25.0651 3.33897C24.1593 3.29211 23.3472 4.05754 23.3316 4.97917C23.316 5.85394 24.05 6.63499 24.9245 6.68185C25.8303 6.7131 26.6424 5.94767 26.658 5.04166Z" />
<path d="M14.9896 20.0069C12.2254 20.0069 9.99219 17.7575 9.99219 14.977C10.0078 12.2121 12.2722 9.9783 15.0364 10.0095C17.7694 10.0252 19.987 12.2589 19.987 14.9926C20.0026 17.7575 17.7538 20.0069 14.9896 20.0069Z" />
</svg>
