<svg width="34" height="28" viewBox="0 0 34 28" fill="none" xmlns="http://www.w3.org/2000/svg">
<path d="M31.1162 0.247193C31.1162 0.247193 34.2453 -0.96481 33.9846 1.97863C33.8976 3.19063 33.2023 7.43264 32.5069 12.0209C31.4638 18.5138 30.3339 25.6127 30.3339 25.6127C30.3339 25.6127 30.16 27.6038 28.6824 27.9501C27.2047 28.2964 24.7709 26.7381 24.3363 26.3918C23.9886 26.1321 17.8172 22.2364 15.5573 20.3318C14.9488 19.8124 14.2534 18.7735 15.6442 17.5615C18.7733 14.7047 22.511 11.1552 24.7709 8.90436C25.814 7.8655 26.857 5.44149 22.511 8.38493C16.3395 12.6269 10.2551 16.6092 10.2551 16.6092C10.2551 16.6092 8.86431 17.475 6.25667 16.6958C3.64904 15.9167 0.606792 14.8778 0.606792 14.8778C0.606792 14.8778 -1.47932 13.5792 2.08445 12.1941C2.08445 12.1941 17.1218 6.0475 22.3371 3.8832C24.3363 3.01749 31.1162 0.247193 31.1162 0.247193Z" />
</svg>
