<svg width="24" height="24" viewBox="0 0 24 24" fill="none" xmlns="http://www.w3.org/2000/svg">
<path d="M2.4645 10.9856L13.9611 6.33106C15.096 5.84622 18.9446 4.29468 18.9446 4.29468C18.9446 4.29468 20.7209 3.61593 20.5729 5.2644C20.5236 5.9432 20.1289 8.31896 19.7341 10.8887L18.5006 18.5008C18.5006 18.5008 18.4019 19.616 17.5631 19.8099C16.7243 20.0038 15.3427 19.1311 15.096 18.9372C14.8986 18.7917 11.3954 16.6099 10.1125 15.5432C9.76709 15.2523 9.37234 14.6705 10.1618 13.9917C11.9381 12.3917 14.0598 10.4038 15.3427 9.14322C15.9348 8.5614 16.5269 7.20381 14.0598 8.85229L7.10264 13.4584C7.10264 13.4584 6.31317 13.9432 4.83294 13.5069C3.35265 13.0705 1.62569 12.4887 1.62569 12.4887C1.62569 12.4887 0.441518 11.7614 2.4645 10.9856Z" fill="white"/>
</svg>
