<svg width="28" height="32" viewBox="0 0 28 32" fill="none" xmlns="http://www.w3.org/2000/svg">
<path d="M27.3779 12.9467C27.1155 12.9716 26.8531 12.985 26.5907 12.987C23.7098 12.987 21.0224 11.535 19.4421 9.12343V22.277C19.4421 27.6461 15.0901 32 9.71914 32C4.34814 32 0 27.648 0 22.277C0 16.906 4.35197 12.5541 9.72297 12.5541C9.92601 12.5541 10.1252 12.5732 10.3244 12.5847V17.3753C10.1252 17.3523 9.92793 17.314 9.72297 17.314C6.98192 17.314 4.76188 19.536 4.76188 22.2751C4.76188 25.0162 6.98384 27.2362 9.72297 27.2362C12.464 27.2362 14.8852 25.0775 14.8852 22.3364L14.9312 0H19.5149C19.9478 4.11062 23.2616 7.32096 27.3837 7.62169V12.9467"/>
</svg>
