<svg width="34" height="28" viewBox="0 0 34 28" fill="none" xmlns="http://www.w3.org/2000/svg">
<path d="M33.6 3.31459C32.3637 3.87678 31.0352 4.25675 29.6407 4.42764C31.064 3.55277 32.157 2.16751 32.6717 0.516955C31.3398 1.32692 29.8645 1.9152 28.2943 2.23228C27.0368 0.858483 25.2453 0 23.2626 0C19.4555 0 16.369 3.16487 16.369 7.06849C16.369 7.6225 16.4301 8.16201 16.5476 8.67935C10.8184 8.38457 5.739 5.57043 2.33906 1.2939C1.74569 2.33789 1.40575 3.55214 1.40575 4.84755C1.40575 7.29988 2.62284 9.46348 4.4725 10.731C3.34242 10.6944 2.27957 10.3764 1.35007 9.84697C1.34958 9.87646 1.34958 9.90608 1.34958 9.93582C1.34958 13.3607 3.72575 16.2177 6.87928 16.8669C6.30078 17.0285 5.69181 17.1148 5.06304 17.1148C4.61888 17.1148 4.187 17.0706 3.76619 16.9881C4.64334 19.7964 7.18911 21.84 10.2056 21.8971C7.84639 23.7929 4.87402 24.923 1.64442 24.923C1.08805 24.923 0.539291 24.8896 0 24.8243C3.05066 26.8299 6.67416 28 10.5671 28C23.2465 28 30.1801 17.229 30.1801 7.88816C30.1801 7.58167 30.1735 7.27681 30.1602 6.97372C31.507 5.97712 32.6758 4.73212 33.6 3.31459Z" />
</svg>
