<svg width="32" height="23" viewBox="0 0 32 23" fill="none" xmlns="http://www.w3.org/2000/svg">
<path d="M31.6812 4.85625C31.6812 4.85625 31.3688 2.65 30.4062 1.68125C29.1875 0.40625 27.825 0.4 27.2 0.325C22.725 -1.78814e-07 16.0063 0 16.0063 0H15.9937C15.9937 0 9.275 -1.78814e-07 4.8 0.325C4.175 0.4 2.8125 0.40625 1.59375 1.68125C0.63125 2.65 0.325 4.85625 0.325 4.85625C0.325 4.85625 0 7.45 0 10.0375V12.4625C0 15.05 0.31875 17.6437 0.31875 17.6437C0.31875 17.6437 0.63125 19.85 1.5875 20.8188C2.80625 22.0938 4.40625 22.05 5.11875 22.1875C7.68125 22.4312 16 22.5063 16 22.5063C16 22.5063 22.725 22.4937 27.2 22.175C27.825 22.1 29.1875 22.0938 30.4062 20.8188C31.3688 19.85 31.6812 17.6437 31.6812 17.6437C31.6812 17.6437 32 15.0562 32 12.4625V10.0375C32 7.45 31.6812 4.85625 31.6812 4.85625ZM12.6938 15.4062V6.4125L21.3375 10.925L12.6938 15.4062Z" />
</svg>
