<svg width="59" height="59" viewBox="0 0 59 59" fill="none" xmlns="http://www.w3.org/2000/svg">
<g clip-path="url(#clip0)">
<path d="M54.1792 0H37.7655L14.0566 34.6511H30.4703L54.1792 0Z" fill="#BF392C"/>
<path d="M4.9375 0H21.3512L45.0598 34.6511H28.6462L4.9375 0Z" fill="#E2574C"/>
<path d="M30.4695 18.2373C41.5943 18.2373 50.5307 27.1737 50.5307 38.2986C50.5307 49.4234 41.5943 58.3598 30.4695 58.3598C19.3446 58.3598 10.4082 49.4234 10.4082 38.2986C10.4082 27.1737 19.3446 18.2373 30.4695 18.2373Z" fill="#ED9D5D"/>
<path d="M30.4709 23.7085C22.4465 23.7085 15.8809 30.2739 15.8809 38.2985C15.8809 46.3232 22.4463 52.8886 30.4709 52.8886C38.4955 52.8886 45.061 46.3232 45.061 38.2985C45.061 30.2739 38.4953 23.7085 30.4709 23.7085ZM30.4709 49.241C24.4525 49.241 19.5285 44.3168 19.5285 38.2985C19.5285 32.2803 24.4527 27.3561 30.4709 27.3561C36.4891 27.3561 41.4134 32.2803 41.4134 38.2985C41.4134 44.3168 36.4891 49.241 30.4709 49.241Z" fill="#D58D54"/>
</g>
<defs>
<clipPath id="clip0">
<rect width="58.36" height="58.36" fill="white" transform="translate(0.378906)"/>
</clipPath>
</defs>
</svg>
