<svg width="59" height="59" viewBox="0 0 59 59" fill="none" xmlns="http://www.w3.org/2000/svg">
<g clip-path="url(#clip0)">
<path d="M54.2182 0H37.8046L14.0957 34.6511H30.5094L54.2182 0Z" fill="#2670B4"/>
<path d="M4.97656 0H21.3902L45.0989 34.6511H28.6852L4.97656 0Z" fill="#00618A"/>
<path d="M30.5085 18.2373C41.6334 18.2373 50.5698 27.1737 50.5698 38.2986C50.5698 49.4234 41.6334 58.3598 30.5085 58.3598C19.3837 58.3598 10.4473 49.4234 10.4473 38.2986C10.4473 27.1737 19.3837 18.2373 30.5085 18.2373Z" fill="#F0BA15"/>
<path d="M30.51 23.7085C22.4855 23.7085 15.9199 30.2739 15.9199 38.2985C15.9199 46.3232 22.4853 52.8886 30.51 52.8886C38.5346 52.8886 45.1 46.3232 45.1 38.2985C45.1 30.2739 38.5344 23.7085 30.51 23.7085ZM30.51 49.241C24.4916 49.241 19.5675 44.3168 19.5675 38.2985C19.5675 32.2803 24.4917 27.3561 30.51 27.3561C36.5282 27.3561 41.4524 32.2803 41.4524 38.2985C41.4524 44.3168 36.5282 49.241 30.51 49.241Z" fill="#FFE597"/>
</g>
<defs>
<clipPath id="clip0">
<rect width="58.36" height="58.36" fill="white" transform="translate(0.417969)"/>
</clipPath>
</defs>
</svg>
