<svg width="60" height="59" viewBox="0 0 60 59" fill="none" xmlns="http://www.w3.org/2000/svg">
<path d="M59.7729 29.7876C59.7729 29.1126 59.4412 28.5193 58.9363 28.1471L58.947 28.1288L51.8358 24.0233L55.929 16.9334L55.9153 16.925C56.0446 16.6328 56.1032 16.3143 56.0864 15.9952C56.0696 15.6761 55.9778 15.3655 55.8185 15.0885C55.658 14.8118 55.4345 14.5768 55.1661 14.4027C54.8978 14.2286 54.5921 14.1202 54.274 14.0863V14.0665H46.0615V5.87763H46.0447C46.0106 5.55993 45.902 5.25476 45.7279 4.98683C45.5538 4.7189 45.319 4.49576 45.0426 4.3355C44.7652 4.1757 44.4539 4.08376 44.1342 4.06719C43.8145 4.05062 43.4954 4.10989 43.203 4.24016L43.1931 4.22262L35.9621 8.39752L31.9581 1.46172L31.9436 1.47011C31.7551 1.21212 31.5085 1.00215 31.2237 0.85719C30.939 0.712233 30.6241 0.63637 30.3046 0.635742C29.6296 0.635742 29.0355 0.967507 28.664 1.4724L28.6457 1.46172L24.5753 8.51192L17.5663 4.46515L17.5579 4.47964C17.2657 4.35035 16.9472 4.29174 16.6281 4.30857C16.309 4.3254 15.9984 4.41719 15.7214 4.5765C15.4445 4.73686 15.2093 4.9603 15.0351 5.22867C14.8608 5.49703 14.7523 5.80274 14.7185 6.12093H14.6979V14.2618H6.60433V14.2778C6.28663 14.312 5.98146 14.4205 5.71353 14.5946C5.4456 14.7687 5.22246 15.0035 5.0622 15.2799C4.90281 15.5572 4.81105 15.8681 4.79436 16.1875C4.77766 16.5068 4.8365 16.8256 4.9661 17.118L4.94856 17.1287L8.94957 24.0591L1.78497 28.1959L1.79335 28.2104C1.53536 28.3989 1.32539 28.6455 1.18043 28.9302C1.03548 29.215 0.959612 29.5299 0.958984 29.8494C0.958984 30.5244 1.29075 31.1185 1.79564 31.4899L1.78497 31.5082L8.89618 35.6137L4.80288 42.7036L4.81661 42.7112C4.68732 43.0034 4.62871 43.322 4.64554 43.641C4.66237 43.9601 4.75416 44.2708 4.91347 44.5477C5.07397 44.8245 5.29746 45.0594 5.56581 45.2335C5.83416 45.4077 6.1398 45.5161 6.4579 45.5499V45.5705H14.6697V53.7586H14.6864C14.7566 54.3809 15.1051 54.9636 15.6886 55.3007C15.9661 55.4604 16.2773 55.5522 16.597 55.5688C16.9166 55.5853 17.2357 55.5262 17.5282 55.3961L17.5381 55.4136L24.769 51.2387L28.7731 58.1745L28.7876 58.1661C28.9761 58.4241 29.2227 58.6341 29.5075 58.779C29.7922 58.924 30.1071 58.9999 30.4266 59.0005C31.1016 59.0005 31.6957 58.6687 32.0671 58.1646L32.0847 58.1745L36.1551 51.1243L43.1649 55.1711L43.1732 55.1566C43.4654 55.2859 43.784 55.3445 44.1031 55.3277C44.4222 55.3108 44.7328 55.219 45.0098 55.0597C45.2867 54.8994 45.5218 54.6759 45.6961 54.4076C45.8704 54.1392 45.9788 53.8335 46.0127 53.5153H46.0333V45.3752H54.1276V45.3592C54.4453 45.325 54.7505 45.2165 55.0184 45.0424C55.2863 44.8683 55.5095 44.6335 55.6697 44.3571C55.8291 44.0797 55.9208 43.7686 55.9375 43.4491C55.9542 43.1297 55.8954 42.8107 55.7658 42.5182L55.7834 42.5083L51.7824 35.5779L58.947 31.4411L58.9386 31.4266C59.1967 31.2382 59.4067 30.9916 59.5517 30.7068C59.6966 30.4221 59.7724 30.1071 59.7729 29.7876ZM25.5721 38.4783L18.0628 35.1607L21.3767 40.8998L19.5035 41.9813L14.4226 33.1823L16.3483 32.0695L23.6166 35.2438L20.4248 29.7159L22.2987 28.6344L27.3782 37.4335L25.5721 38.4783ZM29.1201 36.4298L24.0399 27.63L30.2672 24.0355L31.219 25.6844L26.8649 28.1974L27.9311 30.0446L32.1922 27.585L33.144 29.2324L28.8829 31.6935L30.0407 33.6986L34.3948 31.1856L35.3466 32.8345L29.1201 36.4298ZM43.5393 28.1051L38.5072 22.954L40.465 29.8791L38.4736 31.0292L30.8735 23.6854L32.9709 22.4743L38.1861 27.9412L36.1902 20.6156L37.6545 19.7706L42.9879 25.1696L40.86 17.9196L42.9574 16.7084L45.5314 26.9558L43.5393 28.1051Z" fill="#F2C94C"/>
</svg>
