<svg width="59" height="59" viewBox="0 0 59 59" fill="none" xmlns="http://www.w3.org/2000/svg">
<g clip-path="url(#clip0)">
<path d="M58.2677 23.169C58.1005 22.6547 57.6952 22.2526 57.1793 22.0902L40.7268 16.9056L30.7118 2.86036C30.3978 2.42014 29.8904 2.15869 29.3496 2.15869C28.8088 2.15869 28.3014 2.42014 27.9874 2.86036L17.9723 16.9056L1.51991 22.0903C1.00403 22.2529 0.598705 22.6548 0.431502 23.1691C0.264412 23.6833 0.35617 24.2467 0.677889 24.6814L10.9408 38.5464L10.7876 55.796C10.7828 56.3367 11.0396 56.8465 11.4772 57.1643C11.9148 57.4823 12.4791 57.5691 12.9918 57.3973L29.3496 51.9211L45.7075 57.3972C45.881 57.4553 46.0602 57.4838 46.2386 57.4838C46.5875 57.4838 46.9325 57.3746 47.2221 57.1642C47.6596 56.8463 47.9165 56.3366 47.9118 55.7959L47.7585 38.5463L58.0214 24.6813C58.343 24.2467 58.4348 23.6833 58.2677 23.169Z" fill="#BF0637"/>
<path d="M29.1857 2.16846C28.7076 2.21558 28.2694 2.46491 27.9875 2.86038L17.9724 16.9057L1.51991 22.0902C1.00403 22.2528 0.598705 22.6547 0.431502 23.169C0.264412 23.6832 0.35617 24.2466 0.677889 24.6813L10.9408 38.5464L10.7876 55.7959C10.7828 56.3366 11.0396 56.8464 11.4772 57.1642C11.9148 57.4822 12.4791 57.569 12.9918 57.3973L29.1856 51.9761V2.16846H29.1857Z" fill="#E30133"/>
<path d="M29.3508 38.1866C28.4267 38.1866 27.6777 37.4375 27.6777 36.5136V27.5905C27.6777 26.6665 28.4269 25.9175 29.3508 25.9175C30.2748 25.9175 31.0238 26.6666 31.0238 27.5905V36.5136C31.0238 37.4376 30.2748 38.1866 29.3508 38.1866Z" fill="#FF8800"/>
<path d="M29.1869 25.9253C28.3399 26.0079 27.6777 26.7214 27.6777 27.5901V36.5131C27.6777 37.3818 28.3399 38.0954 29.1868 38.1779L29.1869 25.9253Z" fill="#FFA500"/>
<path d="M34.927 38.1866C34.0029 38.1866 33.2539 37.4375 33.2539 36.5136V27.5905C33.2539 26.6665 34.003 25.9175 34.927 25.9175H39.3885C41.5411 25.9175 43.2924 27.6687 43.2924 29.8214C43.2924 31.9741 41.5412 33.7253 39.3885 33.7253H36.6V36.5137C36.6 37.4376 35.8509 38.1866 34.927 38.1866ZM36.6 30.3789H39.3884C39.696 30.3789 39.9461 30.1288 39.9461 29.8213C39.9461 29.5137 39.6959 29.2636 39.3884 29.2636H36.6V30.3789Z" fill="#FF8800"/>
<path d="M20.4259 38.1866C19.7285 38.1866 19.1041 37.754 18.8593 37.101L15.5132 28.178C15.1888 27.3127 15.6271 26.3485 16.4923 26.0239C17.3577 25.6996 18.3219 26.1378 18.6464 27.003L20.426 31.7486L22.2057 27.003C22.5301 26.1378 23.4944 25.6996 24.3597 26.0239C25.2248 26.3484 25.6632 27.3127 25.3388 28.178L21.9927 37.101C21.7477 37.754 21.1234 38.1866 20.4259 38.1866Z" fill="#FFA500"/>
</g>
<defs>
<clipPath id="clip0">
<rect width="58" height="58" fill="white" transform="translate(0.349609 0.821289)"/>
</clipPath>
</defs>
</svg>
