<svg width="59" height="59" viewBox="0 0 59 59" fill="none" xmlns="http://www.w3.org/2000/svg">
<g clip-path="url(#clip0)">
<path d="M54.1987 0H37.785L14.0762 34.6511H30.4898L54.1987 0Z" fill="#4DB426"/>
<path d="M4.95703 0H21.3707L45.0794 34.6511H28.6657L4.95703 0Z" fill="#268A00"/>
<path d="M30.489 18.2373C41.6138 18.2373 50.5503 27.1737 50.5503 38.2986C50.5503 49.4234 41.6138 58.3598 30.489 58.3598C19.3642 58.3598 10.4277 49.4234 10.4277 38.2986C10.4277 27.1737 19.3642 18.2373 30.489 18.2373Z" fill="#D9D9D9"/>
<path d="M30.4904 23.7085C22.466 23.7085 15.9004 30.2739 15.9004 38.2985C15.9004 46.3232 22.4658 52.8886 30.4904 52.8886C38.5151 52.8886 45.0805 46.3232 45.0805 38.2985C45.0805 30.2739 38.5149 23.7085 30.4904 23.7085ZM30.4904 49.241C24.472 49.241 19.548 44.3168 19.548 38.2985C19.548 32.2803 24.4722 27.3561 30.4904 27.3561C36.5087 27.3561 41.4329 32.2803 41.4329 38.2985C41.4329 44.3168 36.5087 49.241 30.4904 49.241Z" fill="#BCBCBC"/>
</g>
<defs>
<clipPath id="clip0">
<rect width="58.36" height="58.36" fill="white" transform="translate(0.398438)"/>
</clipPath>
</defs>
</svg>
