<svg width="60" height="60" viewBox="0 0 60 60" fill="none" xmlns="http://www.w3.org/2000/svg">
<g clip-path="url(#clip0)">
<path d="M54.4702 0.674805H38.0565L14.3477 35.3259H30.7613L54.4702 0.674805Z" fill="#BF392C"/>
<path d="M5.22852 0.674805H21.6422L45.3508 35.3259H28.9372L5.22852 0.674805Z" fill="#E2574C"/>
<path d="M30.7605 18.9121C41.8853 18.9121 50.8218 27.8485 50.8218 38.9734C50.8218 50.0982 41.8853 59.0346 30.7605 59.0346C19.6356 59.0346 10.6992 50.0982 10.6992 38.9734C10.6992 27.8485 19.6356 18.9121 30.7605 18.9121Z" fill="#ED9D5D"/>
<path d="M30.7619 24.3833C22.7375 24.3833 16.1719 30.9487 16.1719 38.9733C16.1719 46.998 22.7373 53.5634 30.7619 53.5634C38.7866 53.5634 45.352 46.998 45.352 38.9733C45.352 30.9487 38.7864 24.3833 30.7619 24.3833ZM30.7619 49.9158C24.7435 49.9158 19.8195 44.9916 19.8195 38.9733C19.8195 32.9551 24.7437 28.0309 30.7619 28.0309C36.7802 28.0309 41.7044 32.9551 41.7044 38.9733C41.7044 44.9916 36.7802 49.9158 30.7619 49.9158Z" fill="#D58D54"/>
<path d="M54.4702 0.674805H38.0565L14.3477 35.3259H30.7613L54.4702 0.674805Z" fill="#BF392C"/>
<path d="M5.22852 0.674805H21.6422L45.3508 35.3259H28.9372L5.22852 0.674805Z" fill="#E2574C"/>
<path d="M30.7605 18.9121C41.8853 18.9121 50.8218 27.8485 50.8218 38.9734C50.8218 50.0982 41.8853 59.0346 30.7605 59.0346C19.6356 59.0346 10.6992 50.0982 10.6992 38.9734C10.6992 27.8485 19.6356 18.9121 30.7605 18.9121Z" fill="#9E9E9E"/>
<path d="M30.7619 24.3833C22.7375 24.3833 16.1719 30.9487 16.1719 38.9733C16.1719 46.998 22.7373 53.5634 30.7619 53.5634C38.7866 53.5634 45.352 46.998 45.352 38.9733C45.352 30.9487 38.7864 24.3833 30.7619 24.3833ZM30.7619 49.9158C24.7435 49.9158 19.8195 44.9916 19.8195 38.9733C19.8195 32.9551 24.7437 28.0309 30.7619 28.0309C36.7802 28.0309 41.7044 32.9551 41.7044 38.9733C41.7044 44.9916 36.7802 49.9158 30.7619 49.9158Z" fill="#D6D6D6"/>
</g>
<defs>
<clipPath id="clip0">
<rect width="58.36" height="58.36" fill="white" transform="translate(0.669922 0.674805)"/>
</clipPath>
</defs>
</svg>
