<svg width="20" height="19" viewBox="0 0 20 19" fill="none" xmlns="http://www.w3.org/2000/svg">
<path d="M19.2963 7.26021C19.2067 6.98208 19.0418 6.73418 18.82 6.54396C18.5982 6.35373 18.3281 6.22859 18.0395 6.1824L13.5118 5.44658L11.4129 1.36791C11.2792 1.10825 11.0766 0.890441 10.8272 0.738374C10.5779 0.586307 10.2915 0.505859 9.99944 0.505859C9.70739 0.505859 9.42098 0.586307 9.17164 0.738374C8.92229 0.890441 8.71966 1.10825 8.58596 1.36791L6.48706 5.44658L1.95944 6.1824C1.67119 6.22932 1.40142 6.35472 1.17975 6.54487C0.958081 6.73501 0.793068 6.98254 0.702817 7.26029C0.612567 7.53804 0.600567 7.83529 0.668134 8.11941C0.735701 8.40354 0.880224 8.66356 1.08585 8.87095L4.31632 12.1275L3.6171 16.6609C3.57223 16.9497 3.60786 17.2452 3.72008 17.515C3.8323 17.7848 4.01675 18.0184 4.25316 18.1902C4.48956 18.3619 4.76875 18.4652 5.06003 18.4885C5.3513 18.5119 5.64338 18.4545 5.90413 18.3226L9.99944 16.2565L14.0949 18.3226C14.3556 18.4542 14.6476 18.5114 14.9388 18.4879C15.23 18.4645 15.509 18.3612 15.7454 18.1895C15.9817 18.0178 16.1661 17.7843 16.2784 17.5146C16.3907 17.245 16.4265 16.9496 16.3819 16.6609L15.6827 12.1275L18.9132 8.87095C19.1194 8.66397 19.2644 8.40394 19.332 8.11965C19.3996 7.83536 19.3873 7.53791 19.2963 7.26021ZM18.0256 7.99068L14.351 11.6949L15.1465 16.8516C15.1563 16.9133 15.1489 16.9766 15.125 17.0344C15.1011 17.0922 15.0617 17.1423 15.0111 17.179C14.9605 17.2158 14.9007 17.2378 14.8384 17.2427C14.776 17.2475 14.7135 17.235 14.6578 17.2066L9.99944 14.8565L5.341 17.2067C5.28532 17.2351 5.22284 17.2476 5.16049 17.2427C5.09814 17.2379 5.03835 17.2158 4.98776 17.1791C4.93716 17.1423 4.89773 17.0923 4.87384 17.0345C4.84994 16.9767 4.84251 16.9134 4.85237 16.8517L5.64788 11.6949L1.97331 7.99064C1.92943 7.94631 1.89859 7.89075 1.88419 7.83006C1.86978 7.76937 1.87235 7.70588 1.89163 7.64656C1.9109 7.58723 1.94613 7.53436 1.99346 7.49372C2.04079 7.45309 2.09839 7.42626 2.15995 7.41619L7.30999 6.57924L9.69745 1.9399C9.726 1.8844 9.76928 1.83785 9.82256 1.80535C9.87583 1.77284 9.93703 1.75565 9.99944 1.75565C10.0618 1.75565 10.123 1.77284 10.1763 1.80535C10.2296 1.83785 10.2729 1.8844 10.3014 1.9399L12.6889 6.57924L17.8389 7.41619C17.9005 7.42626 17.9581 7.45309 18.0054 7.49372C18.0527 7.53436 18.088 7.58723 18.1073 7.64656C18.1265 7.70588 18.1291 7.76937 18.1147 7.83006C18.1003 7.89075 18.0695 7.94631 18.0256 7.99064L18.0256 7.99068Z" fill="#995F35"/>
</svg>
