<svg width="20" height="21" viewBox="0 0 20 21" fill="none" xmlns="http://www.w3.org/2000/svg">
<path d="M19.2963 8.26021C19.2067 7.98208 19.0418 7.73418 18.82 7.54396C18.5982 7.35373 18.3281 7.22859 18.0395 7.1824L13.5118 6.44658L11.4129 2.36791C11.2792 2.10825 11.0766 1.89044 10.8272 1.73837C10.5779 1.58631 10.2915 1.50586 9.99944 1.50586C9.70739 1.50586 9.42098 1.58631 9.17164 1.73837C8.92229 1.89044 8.71966 2.10825 8.58596 2.36791L6.48706 6.44658L1.95944 7.1824C1.67119 7.22932 1.40142 7.35472 1.17975 7.54487C0.958081 7.73501 0.793068 7.98254 0.702817 8.26029C0.612567 8.53804 0.600567 8.83529 0.668134 9.11941C0.735701 9.40354 0.880224 9.66356 1.08585 9.87095L4.31632 13.1275L3.6171 17.6609C3.57223 17.9497 3.60786 18.2452 3.72008 18.515C3.8323 18.7848 4.01675 19.0184 4.25316 19.1902C4.48956 19.3619 4.76875 19.4652 5.06003 19.4885C5.3513 19.5119 5.64338 19.4545 5.90413 19.3226L9.99944 17.2565L14.0949 19.3226C14.3556 19.4542 14.6476 19.5114 14.9388 19.4879C15.23 19.4645 15.509 19.3612 15.7454 19.1895C15.9817 19.0178 16.1661 18.7843 16.2784 18.5146C16.3907 18.245 16.4265 17.9496 16.3819 17.6609L15.6827 13.1275L18.9132 9.87095C19.1194 9.66397 19.2644 9.40394 19.332 9.11965C19.3996 8.83536 19.3873 8.53791 19.2963 8.26021ZM18.0256 8.99068L14.351 12.6949L15.1465 17.8516C15.1563 17.9133 15.1489 17.9766 15.125 18.0344C15.1011 18.0922 15.0617 18.1423 15.0111 18.179C14.9605 18.2158 14.9007 18.2378 14.8384 18.2427C14.776 18.2475 14.7135 18.235 14.6578 18.2066L9.99944 15.8565L5.341 18.2067C5.28532 18.2351 5.22284 18.2476 5.16049 18.2427C5.09814 18.2379 5.03835 18.2158 4.98776 18.1791C4.93716 18.1423 4.89773 18.0923 4.87384 18.0345C4.84994 17.9767 4.84251 17.9134 4.85237 17.8517L5.64788 12.6949L1.97331 8.99064C1.92943 8.94631 1.89859 8.89075 1.88419 8.83006C1.86978 8.76937 1.87235 8.70588 1.89163 8.64656C1.9109 8.58723 1.94613 8.53436 1.99346 8.49372C2.04079 8.45309 2.09839 8.42626 2.15995 8.41619L7.30999 7.57924L9.69745 2.9399C9.726 2.8844 9.76928 2.83785 9.82256 2.80535C9.87583 2.77284 9.93703 2.75565 9.99944 2.75565C10.0618 2.75565 10.123 2.77284 10.1763 2.80535C10.2296 2.83785 10.2729 2.8844 10.3014 2.9399L12.6889 7.57924L17.8389 8.41619C17.9005 8.42626 17.9581 8.45309 18.0054 8.49372C18.0527 8.53436 18.088 8.58723 18.1073 8.64656C18.1265 8.70588 18.1291 8.76937 18.1147 8.83006C18.1003 8.89075 18.0695 8.94631 18.0256 8.99064L18.0256 8.99068Z" fill="#8D9698"/>
</svg>
