<svg width="20" height="18" viewBox="0 0 20 18" fill="none" xmlns="http://www.w3.org/2000/svg">
<path d="M19.2963 6.76021C19.2067 6.48208 19.0418 6.23418 18.82 6.04396C18.5982 5.85373 18.3281 5.72859 18.0395 5.6824L13.5118 4.94658L11.4129 0.867907C11.2792 0.608252 11.0766 0.390441 10.8272 0.238374C10.5779 0.0863066 10.2915 0.00585937 9.99944 0.00585938C9.70739 0.00585937 9.42098 0.0863066 9.17164 0.238374C8.92229 0.390441 8.71966 0.608252 8.58596 0.867907L6.48706 4.94658L1.95944 5.6824C1.67119 5.72932 1.40142 5.85472 1.17975 6.04487C0.958081 6.23501 0.793068 6.48254 0.702817 6.76029C0.612567 7.03804 0.600567 7.33529 0.668134 7.61941C0.735701 7.90354 0.880224 8.16356 1.08585 8.37095L4.31632 11.6275L3.6171 16.1609C3.57223 16.4497 3.60786 16.7452 3.72008 17.015C3.8323 17.2848 4.01675 17.5184 4.25316 17.6902C4.48956 17.8619 4.76875 17.9652 5.06003 17.9885C5.3513 18.0119 5.64338 17.9545 5.90413 17.8226L9.99944 15.7565L14.0949 17.8226C14.3556 17.9542 14.6476 18.0114 14.9388 17.9879C15.23 17.9645 15.509 17.8612 15.7454 17.6895C15.9817 17.5178 16.1661 17.2843 16.2784 17.0146C16.3907 16.745 16.4265 16.4496 16.3819 16.1609L15.6827 11.6275L18.9132 8.37095C19.1194 8.16397 19.2644 7.90394 19.332 7.61965C19.3996 7.33536 19.3873 7.03791 19.2963 6.76021ZM18.0256 7.49068L14.351 11.1949L15.1465 16.3516C15.1563 16.4133 15.1489 16.4766 15.125 16.5344C15.1011 16.5922 15.0617 16.6423 15.0111 16.679C14.9605 16.7158 14.9007 16.7378 14.8384 16.7427C14.776 16.7475 14.7135 16.735 14.6578 16.7066L9.99944 14.3565L5.341 16.7067C5.28532 16.7351 5.22284 16.7476 5.16049 16.7427C5.09814 16.7379 5.03835 16.7158 4.98776 16.6791C4.93716 16.6423 4.89773 16.5923 4.87384 16.5345C4.84994 16.4767 4.84251 16.4134 4.85237 16.3517L5.64788 11.1949L1.97331 7.49064C1.92943 7.44631 1.89859 7.39075 1.88419 7.33006C1.86978 7.26937 1.87235 7.20588 1.89163 7.14656C1.9109 7.08723 1.94613 7.03436 1.99346 6.99372C2.04079 6.95309 2.09839 6.92626 2.15995 6.91619L7.30999 6.07924L9.69745 1.4399C9.726 1.3844 9.76928 1.33785 9.82256 1.30535C9.87583 1.27284 9.93703 1.25565 9.99944 1.25565C10.0618 1.25565 10.123 1.27284 10.1763 1.30535C10.2296 1.33785 10.2729 1.3844 10.3014 1.4399L12.6889 6.07924L17.8389 6.91619C17.9005 6.92626 17.9581 6.95309 18.0054 6.99372C18.0527 7.03436 18.088 7.08723 18.1073 7.14656C18.1265 7.20588 18.1291 7.26937 18.1147 7.33006C18.1003 7.39075 18.0695 7.44631 18.0256 7.49064L18.0256 7.49068Z" fill="#F0BA15"/>
</svg>
