<svg width="18" height="18" viewBox="0 0 18 18" fill="none" xmlns="http://www.w3.org/2000/svg">
<path d="M17.3667 6.98419C17.286 6.73388 17.1376 6.51077 16.938 6.33956C16.7384 6.16836 16.4953 6.05573 16.2356 6.01416L12.1606 5.35192L10.2716 1.68112C10.1513 1.44743 9.96893 1.2514 9.74452 1.11454C9.52011 0.977676 9.26234 0.905273 8.9995 0.905273C8.73665 0.905273 8.47888 0.977676 8.25447 1.11454C8.03006 1.2514 7.84769 1.44743 7.72737 1.68112L5.83835 5.35192L1.7635 6.01416C1.50407 6.05638 1.26128 6.16925 1.06178 6.34038C0.862273 6.51151 0.713761 6.73428 0.632536 6.98426C0.55131 7.23424 0.54051 7.50176 0.60132 7.75747C0.662131 8.01318 0.792202 8.24721 0.977261 8.43386L3.88468 11.3648L3.25539 15.4448C3.21501 15.7047 3.24708 15.9707 3.34807 16.2135C3.44907 16.4563 3.61508 16.6666 3.82784 16.8212C4.0406 16.9757 4.29188 17.0687 4.55402 17.0897C4.81617 17.1107 5.07904 17.059 5.31371 16.9403L8.9995 15.0809L12.6854 16.9403C12.9201 17.0588 13.1829 17.1103 13.4449 17.0891C13.707 17.068 13.9581 16.9751 14.1708 16.8206C14.3835 16.666 14.5495 16.4559 14.6506 16.2132C14.7516 15.9705 14.7839 15.7046 14.7437 15.4448L14.1144 11.3648L17.0218 8.43386C17.2075 8.24757 17.338 8.01354 17.3988 7.75768C17.4597 7.50183 17.4486 7.23412 17.3667 6.98419ZM16.2231 7.64161L12.9159 10.9754L13.6318 15.6164C13.6407 15.672 13.634 15.729 13.6125 15.781C13.591 15.833 13.5555 15.878 13.51 15.9111C13.4644 15.9442 13.4106 15.964 13.3545 15.9684C13.2984 15.9728 13.2422 15.9615 13.1921 15.9359L8.9995 13.8209L4.8069 15.936C4.75678 15.9616 4.70055 15.9729 4.64444 15.9685C4.58833 15.9641 4.53452 15.9443 4.48898 15.9112C4.44345 15.8781 4.40796 15.8331 4.38645 15.781C4.36495 15.729 4.35826 15.6721 4.36713 15.6165L5.08309 10.9754L1.77598 7.64158C1.73648 7.60168 1.70873 7.55168 1.69577 7.49705C1.6828 7.44243 1.68512 7.38529 1.70247 7.3319C1.71981 7.27851 1.75152 7.23092 1.79412 7.19435C1.83671 7.15778 1.88855 7.13364 1.94395 7.12457L6.57899 6.37131L8.7277 2.19591C8.7534 2.14596 8.79235 2.10406 8.8403 2.07481C8.88825 2.04556 8.94333 2.03008 8.9995 2.03008C9.05566 2.03008 9.11074 2.04556 9.15869 2.07481C9.20664 2.10406 9.24559 2.14596 9.27129 2.19591L11.42 6.37131L16.055 7.12457C16.1104 7.13364 16.1623 7.15778 16.2049 7.19435C16.2475 7.23092 16.2792 7.27851 16.2965 7.3319C16.3139 7.38529 16.3162 7.44243 16.3032 7.49705C16.2903 7.55168 16.2625 7.60171 16.2231 7.64161Z" fill="#BF0637"/>
<path d="M16.2231 7.64161L12.9159 10.9754L13.6318 15.6164C13.6407 15.672 13.634 15.729 13.6125 15.781C13.591 15.833 13.5555 15.878 13.51 15.9111C13.4644 15.9442 13.4106 15.964 13.3545 15.9684C13.2984 15.9728 13.2422 15.9615 13.1921 15.9359L8.9995 13.8209L4.8069 15.936C4.75678 15.9616 4.70055 15.9729 4.64444 15.9685C4.58833 15.9641 4.53452 15.9443 4.48898 15.9112C4.44345 15.8781 4.40796 15.8331 4.38645 15.781C4.36495 15.729 4.35826 15.6721 4.36713 15.6165L5.08309 10.9754L1.77598 7.64158C1.73648 7.60168 1.70873 7.55168 1.69577 7.49705C1.6828 7.44243 1.68512 7.38529 1.70247 7.3319C1.71981 7.27851 1.75152 7.23092 1.79412 7.19435C1.83671 7.15778 1.88855 7.13364 1.94395 7.12457L6.57899 6.37131L8.7277 2.19591C8.7534 2.14596 8.79235 2.10406 8.8403 2.07481C8.88825 2.04556 8.94333 2.03008 8.9995 2.03008C9.05566 2.03008 9.11074 2.04556 9.15869 2.07481C9.20664 2.10406 9.24559 2.14596 9.27129 2.19591L11.42 6.37131L16.055 7.12457C16.1104 7.13364 16.1623 7.15778 16.2049 7.19435C16.2475 7.23092 16.2792 7.27851 16.2965 7.3319C16.3139 7.38529 16.3162 7.44243 16.3032 7.49705C16.2903 7.55168 16.2625 7.60171 16.2231 7.64161Z" fill="#BF0637"/>
</svg>
