<svg width="40" height="36" viewBox="0 0 40 36" xmlns="http://www.w3.org/2000/svg">
<g clip-path="url(#clip0_2901:98624)">
<path d="M37.6666 9.58804V8.58804H36.6666H27.2559H26.2559V8.95938H13.7446V8.58804H12.7446H3.33325H2.33325V9.58804V19.208V19.476L2.46726 19.7081L6.93326 27.4421L7.06725 27.6741L7.2993 27.8081L15.0426 32.2781L15.2747 32.412H15.5426H24.4606H24.7285L24.9605 32.2781L32.6979 27.8114L32.9299 27.6775L33.0639 27.4455L37.5325 19.7082L37.6666 19.4761V19.208V9.58804ZM14.7705 24.1214L14.1199 25.2481L13.9073 25.1253L14.5579 23.9987L14.7705 24.1214ZM20.1226 25.49V26.7914H19.8779V25.49H20.1226ZM25.2293 24.1214L25.4419 23.9987L26.0925 25.1253L25.8799 25.2481L25.2293 24.1214ZM29.1807 20.2601L29.3032 20.0481L30.4298 20.6986L30.3074 20.9107L29.1807 20.2601ZM22.5073 14.3834V15.2194H17.4919V14.3834H22.5073ZM9.57002 20.6986L10.6967 20.0481L10.8192 20.2601L9.69248 20.9107L9.57002 20.6986Z" stroke-width="2"/>
</g>
<defs>
<clipPath id="clip0_2901:98624">
<rect width="40" height="35" transform="translate(0 0.5)"/>
</clipPath>
</defs>
</svg>
