<svg width="33" height="33" viewBox="0 0 33 33" xmlns="http://www.w3.org/2000/svg">
<g clip-path="url(#clip0_2901:98631)">
<path d="M4.03531 16.7223L4.02644 16.2314H3.53539H1.98657H1.47839L1.48664 16.7395C1.51764 18.6497 1.90622 20.4749 2.59074 22.1507L2.78267 22.6206L3.24962 22.4216L4.67449 21.8145L5.12668 21.6218L4.94174 21.1664C4.38278 19.7899 4.06368 18.2917 4.03531 16.7223Z" />
<path d="M28.9512 16.2645L28.9601 16.7555H29.4511H31H31.5081L31.4999 16.2474C31.4689 14.3372 31.0803 12.512 30.3958 10.8361L30.2039 10.3663L29.7369 10.5652L28.3121 11.1724L27.8599 11.3651L28.0448 11.8205C28.6038 13.197 28.9229 14.6949 28.9512 16.2645Z" />
<path d="M10.4237 29.6758L10.2199 30.1405L10.6876 30.3374C12.4037 31.0598 14.2811 31.4682 16.247 31.4999L16.7551 31.5082V31V29.4512V28.9602L16.2642 28.9513C14.6477 28.922 13.1065 28.5863 11.6971 27.9962L11.2435 27.8063L11.0461 28.2566L10.4237 29.6758Z" />
<path d="M7.52625 7.84997L7.86705 7.49653L7.51987 7.14935L6.42523 6.05471L6.06587 5.69535L5.71241 6.06051C4.50095 7.31208 3.50549 8.77278 2.7848 10.3838L2.57696 10.8484L3.04518 11.0479L4.46981 11.6551L4.92073 11.8472L5.12182 11.4002C5.71603 10.0794 6.53294 8.88012 7.52625 7.84997Z" />
<path d="M7.85015 25.4602L7.49672 25.1194L7.14954 25.4665L6.05489 26.5612L5.69554 26.9205L6.06069 27.274C7.2746 28.449 8.6851 29.4209 10.2387 30.1359L10.7011 30.3487L10.9056 29.8826L11.5278 28.4646L11.7247 28.0157L11.2798 27.8099C10.0064 27.2208 8.84902 26.4233 7.85015 25.4602Z" />
<path d="M5.12182 21.5866L4.92073 21.1396L4.46981 21.3318L3.04518 21.9389L2.57696 22.1385L2.7848 22.6031C3.50549 24.2141 4.50095 25.6748 5.71241 26.9263L6.06587 27.2915L6.42523 26.9321L7.51987 25.8375L7.86701 25.4904L7.52629 25.1369C6.53315 24.1067 5.71602 22.9074 5.12182 21.5866Z" />
<path d="M4.94174 11.8205L5.12668 11.3651L4.67449 11.1724L3.24962 10.5652L2.78267 10.3663L2.59074 10.8361C1.90622 12.512 1.51764 14.3369 1.48664 16.2474L1.47839 16.7555H1.98657H3.53539H4.02644L4.03531 16.2645C4.06368 14.6949 4.38278 13.197 4.94174 11.8205Z" />
<path d="M25.1365 7.52641L25.4899 7.86722L25.8371 7.52004L26.9317 6.42539L27.2911 6.06608L26.926 5.71262C25.7123 4.53753 24.3015 3.56571 22.7479 2.8507L22.2855 2.63789L22.081 3.10401L21.4589 4.52198L21.2619 4.97084L21.7068 5.17666C22.9802 5.7658 24.1379 6.56347 25.1365 7.52641Z" />
<path d="M27.8646 11.4002L28.0657 11.8472L28.5166 11.6551L29.9412 11.0479L30.4094 10.8484L30.2016 10.3838C29.4809 8.77281 28.4855 7.31185 27.2739 6.06048L26.9205 5.69539L26.5612 6.05471L25.4665 7.14935L25.1193 7.49653L25.4601 7.84997C26.4534 8.88012 27.2703 10.0794 27.8646 11.4002Z" />
<path d="M22.5628 3.31097L22.7668 2.84607L22.2989 2.64919C20.5826 1.92711 18.7052 1.51868 16.7396 1.4867L16.2314 1.47843V1.98663V3.53545V4.02647L16.7224 4.03537C18.3387 4.06467 19.8798 4.40032 21.2893 4.99022L21.7427 5.17997L21.9402 4.72989L22.5628 3.31097Z" />
<path d="M16.2647 4.03537L16.7556 4.02647V3.53545V1.98663V1.47843L16.2475 1.4867C14.2816 1.51868 12.4042 1.92711 10.6882 2.6492L10.2202 2.8461L10.4242 3.31097L11.0468 4.72989L11.2443 5.18L11.6978 4.99021C13.107 4.40032 14.6481 4.06467 16.2647 4.03537Z" />
<path d="M11.2798 5.17666L11.7247 4.97084L11.5278 4.52198L10.9056 3.10401L10.7011 2.63792L10.2387 2.85068C8.68487 3.56571 7.27436 4.53755 6.06066 5.71262L5.69558 6.06608L6.05489 6.4254L7.14954 7.52004L7.49667 7.86718L7.85011 7.52645C8.84903 6.56346 10.0065 5.76578 11.2798 5.17666Z" />
<path d="M16.4932 5.81903C10.6071 5.81903 5.81885 10.607 5.81885 16.4934C5.81885 22.3796 10.6071 27.1678 16.4932 27.1678C22.3794 27.1678 27.1676 22.3796 27.1676 16.4934C27.1674 10.607 22.3794 5.81903 16.4932 5.81903ZM16.4932 25.4186C11.5722 25.4186 7.56804 21.4145 7.56804 16.4934C7.56804 11.5726 11.5722 7.56822 16.4932 7.56822C21.4143 7.56822 25.4184 11.5723 25.4184 16.4934C25.4184 21.4143 21.4141 25.4186 16.4932 25.4186Z" />
<path d="M11.5393 13.3815C11.5395 13.3817 11.5397 13.382 11.5399 13.3823C11.5487 13.3945 11.5917 13.4542 11.7257 13.5119C11.872 13.5749 12.1516 13.646 12.6498 13.6173L12.9475 13.6001L12.9434 13.58L13.1197 13.5902L13.296 13.58L13.2919 13.6001L13.5896 13.6173C14.0877 13.646 14.3673 13.5749 14.5136 13.5119C14.6478 13.4541 14.6908 13.3944 14.6995 13.3823C14.6997 13.382 14.6999 13.3817 14.7001 13.3815L11.5393 13.3815ZM11.5393 13.3815C11.4946 13.3199 11.4499 13.2025 11.4645 12.9893C11.4791 12.7757 11.5522 12.4979 11.7044 12.1647C11.9662 11.5914 12.4372 10.9081 13.1197 10.1931C13.8022 10.9081 14.2732 11.5914 14.535 12.1647C14.6872 12.4979 14.7603 12.7757 14.7749 12.9893C14.7895 13.2025 14.7448 13.3199 14.7001 13.3815L11.5393 13.3815ZM17.8707 13.1862L17.8707 13.1863C18.1366 13.7431 18.5379 14.1771 18.9124 14.4833C19.0987 14.6357 19.274 14.7528 19.415 14.8348C19.456 14.8586 19.4934 14.8791 19.5267 14.8963C19.5599 14.8791 19.5973 14.8587 19.6383 14.8348C19.7792 14.7529 19.9545 14.6357 20.1409 14.4833C20.5154 14.177 20.9168 13.7431 21.1828 13.1862C21.3548 12.8258 21.5001 12.3213 21.5284 11.8468C21.5579 11.3526 21.4555 11.0157 21.2841 10.8471C21.1362 10.7022 20.9002 10.64 20.6903 10.687C20.6912 10.6868 20.6909 10.687 20.6893 10.6877C20.6806 10.6918 20.6331 10.7139 20.5488 10.7929C20.4586 10.8775 20.3633 10.9921 20.2724 11.1172C20.183 11.2402 20.106 11.362 20.0511 11.454C20.0238 11.4996 20.0025 11.5369 19.9883 11.5623L19.9727 11.5907L19.9692 11.5971L19.9688 11.5978L19.9687 11.5979L19.9687 11.5981L19.9686 11.5982L19.9686 11.5982L19.527 12.4319L17.8707 13.1862ZM17.8707 13.1862C17.6985 12.8258 17.5532 12.3214 17.525 11.8469C17.4956 11.3527 17.5981 11.0157 17.7698 10.8472L17.7698 10.8471C17.9174 10.7023 18.1534 10.6399 18.3637 10.687M17.8707 13.1862L19.0853 11.5982L19.0852 11.5981L19.0852 11.598L19.0851 11.5978L19.0847 11.5971L19.0813 11.5907L19.0656 11.5623C19.0514 11.5369 19.0301 11.4996 19.0028 11.454C18.9479 11.362 18.871 11.2402 18.7815 11.1172C18.6906 10.9921 18.5953 10.8775 18.5051 10.7929C18.4208 10.7139 18.3733 10.6918 18.3646 10.6877C18.363 10.687 18.3627 10.6868 18.3637 10.687M18.3637 10.687L18.4732 10.1992L18.3638 10.6871C18.3638 10.6871 18.3637 10.687 18.3637 10.687ZM13.1197 14.4246C13.1613 14.5795 13.2203 14.7542 13.305 14.9397H13.1197H12.9344C13.0191 14.7542 13.0781 14.5795 13.1197 14.4246ZM12.7549 21.1414C12.4567 20.752 12.1246 20.4671 11.8167 20.26C12.1246 20.053 12.4566 19.7682 12.7548 19.3789L12.7549 19.3788C12.8771 19.2192 12.9809 19.0587 13.069 18.9008C13.1572 19.0587 13.2609 19.2192 13.3832 19.3788C13.6814 19.7682 14.0134 20.0531 14.3213 20.2601C14.0134 20.4671 13.6814 20.752 13.3832 21.1414C13.261 21.301 13.1572 21.4615 13.069 21.6194C12.9809 21.4614 12.8771 21.301 12.7549 21.1414ZM19.5232 22.0087C19.5678 22.1872 19.6351 22.3953 19.7388 22.6179H19.5232H19.3075C19.4109 22.3955 19.4784 22.1876 19.5232 22.0087ZM19.5236 20.9645L19.2597 20.8146L19.3181 21.081L18.8111 21.3685C18.6859 21.4396 18.5415 21.4802 18.3859 21.4802C17.9081 21.4802 17.5208 21.0929 17.5208 20.6151C17.5208 20.1474 17.8932 19.7662 18.3592 19.7518L19.1982 19.726L18.7759 19.0005C18.7011 18.8719 18.6585 18.7249 18.6585 18.5673C18.6585 18.0895 19.0458 17.7022 19.5236 17.7022C20.0014 17.7022 20.3888 18.0895 20.3888 18.5673C20.3888 18.7246 20.3461 18.8718 20.2711 19.0009L19.8497 19.7263L20.6882 19.7518C21.1539 19.766 21.5263 20.1471 21.5265 20.6148C21.5254 21.0932 21.1376 21.4802 20.6604 21.4802C20.5047 21.4802 20.3602 21.4395 20.2354 21.3686L19.728 21.0805L19.7861 20.8156L19.5236 20.9645ZM16.4933 7.04407C11.2826 7.04407 7.04395 11.2827 7.04395 16.4934C7.04395 21.7042 11.2826 25.9428 16.4933 25.9428C21.704 25.9428 25.9427 21.7042 25.9427 16.4934C25.9427 11.2827 21.704 7.04407 16.4933 7.04407Z" />
<path d="M29.4816 16.4934C29.4816 9.33136 23.6556 3.50534 16.4935 3.50534C9.33139 3.50534 3.50537 9.33136 3.50537 16.4934C3.50537 23.6555 9.33139 29.4816 16.4935 29.4816C23.6556 29.4816 29.4816 23.6555 29.4816 16.4934ZM16.4935 26.6434C10.897 26.6434 6.34326 22.0897 6.34326 16.4932C6.34326 10.8969 10.897 6.34299 16.4935 6.34299C22.09 6.34299 26.6437 10.8969 26.6437 16.4932C26.6435 22.0897 22.0898 26.6434 16.4935 26.6434Z" />
<path d="M21.7068 27.8099L21.2619 28.0157L21.4589 28.4646L22.081 29.8826L22.2855 30.3487L22.7479 30.1359C24.3018 29.4209 25.7123 28.449 26.926 27.274L27.2911 26.9205L26.9317 26.5612L25.8371 25.4665L25.4899 25.1193L25.1364 25.4602C24.1379 26.4233 22.9803 27.2208 21.7068 27.8099Z" />
<path d="M16.7224 28.9513L16.2314 28.9602V29.4512V31V31.5082L16.7396 31.4999C18.7055 31.4679 20.5828 31.0595 22.2989 30.3374L22.7668 30.1405L22.5628 29.6757L21.9402 28.2567L21.7427 27.8067L21.2893 27.9964C19.8798 28.5863 18.3387 28.922 16.7224 28.9513Z" />
<path d="M28.0448 21.1664L27.8599 21.6218L28.3121 21.8145L29.7369 22.4216L30.2039 22.6206L30.3958 22.1507C31.0801 20.4749 31.4689 18.6497 31.4999 16.7395L31.5081 16.2314H31H29.4511H28.9601L28.9512 16.7223C28.9229 18.2917 28.6038 19.7899 28.0448 21.1664Z" />
<path d="M25.4602 25.1367L25.1193 25.4902L25.4665 25.8374L26.5612 26.932L26.9205 27.2914L27.274 26.9262C28.4854 25.6747 29.4809 24.214 30.2016 22.603L30.4094 22.1384L29.9412 21.9388L28.5166 21.3317L28.0656 21.1395L27.8645 21.5866C27.2703 22.9076 26.4535 24.1069 25.4602 25.1367Z" />
</g>
<defs>
<clipPath id="clip0_2901:98631">
<rect width="32" height="32" transform="translate(0.5 0.5)"/>
</clipPath>
</defs>
</svg>
