<svg width="31" height="30" viewBox="0 0 31 30" xmlns="http://www.w3.org/2000/svg">
<g clip-path="url(#clip0_3532_31719)">
<path d="M15.87 18.053L15.8681 18.0534C15.8675 18.0536 15.8658 18.054 15.8632 18.0547C15.8442 18.0595 15.7756 18.077 15.7242 18.086C15.5965 18.1089 15.471 18.1199 15.3501 18.1231C15.3479 18.1234 15.3455 18.1236 15.3431 18.1239C15.3292 18.1253 15.3088 18.1269 15.2843 18.1269C15.2593 18.1269 15.2384 18.1253 15.2237 18.1238C15.2196 18.1234 15.2157 18.123 15.2121 18.1225C15.0785 18.1199 14.9345 18.1092 14.7856 18.0805M15.87 18.053L14.8804 17.5895M15.87 18.053C15.95 18.0338 16.032 18.0107 16.1151 17.982M15.87 18.053L16.1151 17.982M14.7856 18.0805L14.8804 17.5895M14.7856 18.0805C14.7858 18.0805 14.7861 18.0806 14.7863 18.0806L14.8804 17.5895M14.7856 18.0805C14.6194 18.0486 14.466 17.9971 14.3297 17.9433L14.3291 17.9431C14.0221 17.8216 13.727 17.6408 13.4714 17.3871C12.4744 16.3979 12.475 14.7926 13.4712 13.8036M14.8804 17.5895C14.755 17.5655 14.6328 17.5254 14.513 17.4781C14.2623 17.379 14.0263 17.2333 13.8235 17.0322C13.0237 16.2386 13.0241 14.9519 13.8235 14.1583M13.4712 13.8036L13.8235 14.1583M13.4712 13.8036C13.4712 13.8035 13.4712 13.8035 13.4713 13.8035L13.8235 14.1583M13.4712 13.8036C13.964 13.3141 14.6096 13.0677 15.254 13.0636C15.2601 13.0636 15.2662 13.0636 15.2724 13.0636M13.8235 14.1583C14.223 13.7615 14.7475 13.5632 15.272 13.5636M15.272 13.5636L15.216 13.0672L15.2266 13.066C15.229 13.0657 15.2319 13.0655 15.2352 13.0652C15.2384 13.0649 15.2419 13.0647 15.2457 13.0644C15.2529 13.064 15.2618 13.0636 15.272 13.0636M15.272 13.5636V13.0636M15.272 13.5636L15.2724 13.0636M15.2724 13.0636H15.2723H15.2723H15.2723H15.2723H15.2723H15.2723H15.2723H15.2723H15.2722H15.2722H15.2722H15.2722H15.2722H15.2722H15.2722H15.2722H15.2722H15.2722H15.2721H15.2721H15.2721H15.2721H15.2721H15.2721H15.2721H15.2721H15.2721H15.2721H15.2721H15.272H15.272H15.272H15.272H15.272H15.272H15.272H15.272V13.0636M15.2724 13.0636C15.2722 13.0636 15.2721 13.0636 15.272 13.0636M16.1151 17.982C16.2139 17.9483 16.3032 17.9088 16.3833 17.8705C16.4395 17.8438 16.5101 17.8094 16.5828 17.7661L16.1151 17.982ZM0.669331 17.5913L0.669208 17.5903C0.65727 17.4879 0.651154 17.3805 0.651154 17.2723V4.30513C0.651154 4.19747 0.657246 4.08962 0.668971 3.98579C0.853035 2.38347 2.39107 1.09326 4.35209 1.09326H16.5022C18.4629 1.09326 20.0007 2.38303 20.1848 3.98441C20.197 4.09484 20.2036 4.20243 20.2036 4.30474V8.4988V8.75702V17.2727C20.2036 17.3796 20.1969 17.4867 20.1849 17.5922C20.0012 19.1943 18.4629 20.4845 16.5018 20.4845H10.0368H9.77692H4.35209C2.39094 20.4845 0.852834 19.1938 0.669331 17.5913ZM3.78252 7.77521L3.78269 7.77539C4.28038 8.26868 4.93316 8.51504 5.58273 8.51504C6.23263 8.51504 6.88565 8.26872 7.38312 7.77464C8.37962 6.78615 8.38033 5.18066 7.38369 4.19184C6.88603 3.69709 6.23325 3.45127 5.58313 3.45127C4.93303 3.45127 4.28069 3.69771 3.78269 4.19131L3.78252 4.19149C2.78606 5.18015 2.78554 6.78603 3.78252 7.77521Z" />
<path d="M25.4167 21.4854C24.7663 21.485 24.1135 21.7321 23.616 22.2257C22.6197 23.2142 22.619 24.8201 23.616 25.809C23.9886 26.1787 24.4492 26.4112 24.9321 26.5033L24.9322 26.5033C25.7311 26.6558 26.5948 26.4279 27.2179 25.8087C28.2135 24.8202 28.2149 23.214 27.217 22.2254C26.7198 21.7318 26.0667 21.485 25.4167 21.4854ZM25.4167 21.4854C25.4165 21.4854 25.4164 21.4854 25.4163 21.4854L25.4167 21.9854L25.417 21.4854C25.4169 21.4854 25.4168 21.4854 25.4167 21.4854ZM10.8156 26.0132L10.8155 26.0121C10.8034 25.9087 10.797 25.8017 10.797 25.6945V22.0009H14.1874C14.0973 22.069 14.0108 22.1439 13.9285 22.2256C12.9312 23.2145 12.9325 24.8204 13.9283 25.8089L13.9284 25.809C14.5519 26.4276 15.4151 26.6564 16.2143 26.5033L16.2143 26.5033C16.6966 26.4108 17.1572 26.1789 17.53 25.809L17.5301 25.8089C18.5261 24.8202 18.5262 23.2139 17.5287 22.2255C17.4287 22.1262 17.3224 22.037 17.2112 21.9577C19.5375 21.672 21.4399 19.9987 21.6953 17.7656C21.7143 17.6045 21.7237 17.4383 21.7237 17.2726V9.51514H26.6481C28.6092 9.51514 30.1471 10.8058 30.3304 12.408C30.3427 12.5158 30.3491 12.6236 30.3494 12.728C30.3494 12.7282 30.3494 12.7284 30.3494 12.7286L30.3494 25.1945H30.3486V25.6945C30.3486 25.8021 30.3422 25.9092 30.3302 26.0131L30.33 26.0142C30.1472 27.616 28.6101 28.9064 26.6481 28.9064H14.4984C12.5372 28.9064 10.9991 27.616 10.8156 26.0132ZM25.4167 11.8731C24.7666 11.8731 24.1141 12.1196 23.6164 12.6134C22.6195 13.6025 22.62 15.208 23.6164 16.1967C24.114 16.6907 24.7673 16.9369 25.4171 16.9369C26.0669 16.9369 26.7198 16.6907 27.2169 16.1975C28.2142 15.2079 28.2132 13.6028 27.2174 12.6139C26.7204 12.1193 26.0667 11.8731 25.4167 11.8731Z" />
</g>
<defs>
<clipPath id="clip0_3532_31719">
<rect width="31" height="29" transform="translate(0 0.5)"/>
</clipPath>
</defs>
</svg>
