<svg width="37" height="38" viewBox="0 0 37 38" xmlns="http://www.w3.org/2000/svg">
<path d="M31.444 17.2995L31.1155 17.628L31.4191 17.9797C32.4409 19.1635 33.0463 20.6497 33.1426 22.2105L33.1716 22.6797H33.6417H35.8322H36.3568L36.3316 22.1558C36.2182 19.7911 35.2959 17.5372 33.7192 15.7713L33.3668 15.3766L32.9927 15.7507L31.444 17.2995Z"/>
<path d="M21.6797 9.16602H22.1797V8.66602V5.48633V4.98633H21.6797H2.60156H2.10156V5.48633V8.66602V9.16602H2.60156H4.19141H21.6797Z"/>
<path d="M24.3477 9.82227V9.32227H23.8477H4.76953H4.26953V9.82227V13.002V13.502H4.76953H20.6834H20.8205L20.9384 13.432C21.8542 12.8889 22.8622 12.5425 23.9439 12.3302L24.3477 12.251V11.8396V9.82227Z"/>
<path d="M16.6961 18.8766L17.2684 17.4941H15.7721H2.60156H1.60156V18.4941V21.6738V22.6738H2.60156H14.9951H15.9118L15.9913 21.7606C16.0777 20.7689 16.3153 19.7963 16.6961 18.8766Z" stroke-width="2"/>
<path d="M19.2928 14.5459L20.3824 13.6582H18.977H2.60156H2.10156V14.1582V17.3379V17.8379H2.60156H16.3284H16.6244L16.7668 17.5784C17.4055 16.4143 18.2633 15.3845 19.2928 14.5459Z"/>
<path d="M15.6178 22.1558L15.5926 22.6797H16.1172H18.3077H18.7778L18.8068 22.2105C18.9036 20.6395 19.5161 19.1443 20.5493 17.9569L20.8556 17.605L20.5257 17.2752L18.9776 15.727L18.6046 15.354L18.2521 15.7463C16.6622 17.5157 15.7317 19.7797 15.6178 22.1558Z"/>
<path d="M26.397 12.2984L25.877 12.2776V12.798V14.9866V15.4614L26.3511 15.4859C27.9374 15.568 29.4512 16.1759 30.6535 17.2139L31.0053 17.5175L31.3338 17.1889L32.8826 15.6402L33.2567 15.266L32.862 14.9136C31.0753 13.3188 28.79 12.3943 26.397 12.2984Z"/>
<path d="M25.2696 15.5107L25.7208 15.4664V15.0131V12.8177V12.2782L25.1828 12.3192C22.9328 12.4905 20.8007 13.394 19.1125 14.8915L18.7155 15.2437L19.0907 15.619L20.6397 17.1683L20.9669 17.4955L21.3184 17.1946C22.4318 16.2416 23.8111 15.6538 25.2696 15.5107Z"/>
<path d="M2.60156 26.666H2.10156V27.166V30.3457V30.8457H2.60156H18.0657H19.2313L18.428 30.0011C17.5769 29.1063 16.8787 28.0778 16.3612 26.9565L16.2272 26.666H15.9073H2.60156Z"/>
<path d="M25.9752 15.6323H25.9747C24.585 15.6323 23.2266 16.0443 22.0712 16.8164C20.9157 17.5884 20.0151 18.6857 19.4833 19.9696C18.9515 21.2534 18.8124 22.6661 19.0835 24.0291C19.3546 25.392 20.0237 26.6439 21.0064 27.6266C21.989 28.6092 23.2409 29.2784 24.6038 29.5495C25.9668 29.8206 27.3795 29.6814 28.6633 29.1497C29.9472 28.6179 31.0445 27.7173 31.8166 26.5619C32.5886 25.4064 33.0007 24.048 33.0007 22.6584V22.6578C32.9986 20.7952 32.2577 19.0095 30.9406 17.6924C29.6236 16.3753 27.8378 15.6344 25.9752 15.6323ZM29.0484 22.8714L29.0484 22.8715L26.026 27.3165C26.0188 27.327 26.0092 27.3356 25.9979 27.3416C25.9866 27.3476 25.9741 27.3507 25.9614 27.3507C25.9486 27.3507 25.9361 27.3476 25.9248 27.3416C25.9136 27.3356 25.9039 27.327 25.8968 27.3165L22.8744 22.8715L22.8744 22.8714C22.8655 22.8585 22.8608 22.8432 22.8608 22.8275C22.8608 22.8118 22.8655 22.7965 22.8744 22.7835L22.8744 22.7834L25.8968 18.3385C25.8968 18.3385 25.8968 18.3385 25.8968 18.3384C25.904 18.3279 25.9136 18.3193 25.9248 18.3134C25.9361 18.3074 25.9486 18.3043 25.9614 18.3043C25.9741 18.3043 25.9866 18.3074 25.9979 18.3134L26.2286 17.8775L25.9979 18.3134C26.0091 18.3193 26.0188 18.3279 26.0259 18.3385C26.0259 18.3385 26.0259 18.3385 26.026 18.3385L29.0484 22.7834L29.0484 22.7835C29.0572 22.7965 29.062 22.8118 29.062 22.8275C29.062 22.8432 29.0572 22.8585 29.0484 22.8714Z"/>
<path d="M15.451 22.8224L15.4435 22.3301H14.9511H1.15625H0.65625V22.8301V26.0098V26.5098H1.15625H15.466H16.1481L15.9428 25.8593C15.6326 24.8762 15.4669 23.8532 15.451 22.8224Z"/>
<path d="M31.4387 27.3143L31.1379 27.6658L31.465 27.993L33.0143 29.5423L33.3897 29.9177L33.7419 29.5205C35.2574 27.8117 36.1638 25.6487 36.3194 23.37L36.3559 22.8359H35.8206H33.6267H33.1687L33.1286 23.2921C32.9981 24.7762 32.4073 26.1824 31.4387 27.3143Z"/>
<path d="M26.3511 29.8308L25.877 29.8554V30.3302V32.5187V33.0392L26.397 33.0183C28.8014 32.9219 31.0967 31.9891 32.8866 30.381L33.279 30.0284L32.906 29.6555L31.3577 28.1072L31.0278 27.7773L30.6759 28.0836C29.4702 29.1331 27.9475 29.7483 26.3511 29.8308Z"/>
<path d="M16.1292 22.8359H15.5939L15.6303 23.37C15.7866 25.6601 16.7013 27.833 18.2299 29.5455L18.5823 29.9402L18.9565 29.5661L20.5052 28.0173L20.8337 27.6888L20.5302 27.3371C19.5501 26.2015 18.952 24.7864 18.8206 23.2921L18.7805 22.8359H18.3226H16.1292Z"/>
<path d="M25.7209 30.3037V29.8504L25.2698 29.8061C23.8012 29.6619 22.4132 29.067 21.2961 28.1028L20.9444 27.7992L20.6158 28.1277L19.0671 29.6765L18.693 30.0506L19.0876 30.403C20.7794 31.9136 22.9214 32.8255 25.1829 32.9978L25.7209 33.0388V32.4993V30.3037Z"/>
<path d="M22.811 22.2653L22.4287 22.8276L22.811 23.3899L25.1343 26.8067L25.9612 28.0229L26.7882 26.8067L29.1114 23.3899L29.4937 22.8276L29.1114 22.2653L26.7881 18.8485L25.9612 17.6323L25.1343 18.8485L22.811 22.2653Z" stroke-width="2"/>
</svg>
