<svg width="37" height="33" viewBox="0 0 37 33" xmlns="http://www.w3.org/2000/svg">
<g clip-path="url(#clip0_2901:98614)">
<path d="M21.0859 2.36965L20.956 1.88876L20.4746 2.0168L2.87147 6.69917L2.38645 6.82819L2.51729 7.31272L8.81393 30.6304L8.94379 31.1112L9.42517 30.9832L18.9957 28.4374L20.1794 28.752L28.5749 30.9832L29.0562 31.1111L29.1861 30.6304L35.4827 7.31272L35.6136 6.82814L35.1285 6.69916L21.7336 3.13764L21.2592 3.01149L21.0859 2.36965ZM25.0728 17.1328L25.0725 17.133L24.394 14.6204L24.5523 14.5811C24.8933 14.4964 25.1556 14.4552 25.4634 14.5371C25.8367 14.6365 26.033 14.8275 26.1324 15.0467C26.239 15.2816 26.2629 15.6147 26.1541 16.0264C26.1186 16.1482 26.0213 16.3104 25.828 16.5112C25.6367 16.7099 25.3796 16.9177 25.0728 17.1328ZM26.0525 26.5604L26.1611 26.5315L26.6679 26.9022C26.685 26.9147 26.701 26.9248 26.7149 26.9329L26.8299 27.022L27.0216 27.0076C27.1241 26.9999 27.2149 26.9819 27.2874 26.9655C27.3297 26.9559 27.3572 26.9492 27.3807 26.9434C27.4082 26.9367 27.4303 26.9313 27.4643 26.9242C27.5495 26.9065 27.5909 26.9068 27.6361 26.9189L27.6361 26.9189C27.6804 26.9306 27.7 26.944 27.7061 26.9487C27.7111 26.9526 27.7119 26.9544 27.7128 26.9562L27.7128 26.9563C27.7155 26.9619 27.7326 27.0069 27.7071 27.1096C27.7039 27.1142 27.6825 27.151 27.6065 27.2187C27.5142 27.3008 27.383 27.3922 27.2185 27.4927C27.0575 27.5909 26.8823 27.6874 26.7027 27.7862L26.6964 27.7897C26.6766 27.8006 26.6567 27.8116 26.6367 27.8226C26.6312 27.8128 26.6256 27.8031 26.6201 27.7933C26.5507 27.6714 26.4816 27.55 26.4222 27.4416C26.2596 27.1448 26.1416 26.8982 26.0965 26.7271L26.0525 26.5604ZM19.3131 5.83132C19.3007 5.83619 19.2892 5.84014 19.2786 5.84334L19.217 5.6149L18.888 5.83477L18.5036 5.80885L18.5632 6.02979C18.5531 6.03211 18.542 6.03426 18.5298 6.03611C18.47 6.04521 18.4033 6.04412 18.3423 6.03274C18.2939 6.0237 18.2605 6.01041 18.2411 6.00011C18.2227 5.88341 18.2603 5.73257 18.3999 5.50084C18.4738 5.37809 18.5613 5.25663 18.6596 5.12009L18.6628 5.11564L18.6645 5.11326C18.6722 5.10261 18.6799 5.09181 18.6878 5.08087C18.7022 5.0873 18.7164 5.09363 18.7303 5.09986L18.7438 5.10587C18.8958 5.17359 19.0314 5.23405 19.1567 5.3023C19.3971 5.43325 19.5063 5.5447 19.5494 5.65275C19.5373 5.67188 19.5145 5.70051 19.4765 5.73297C19.4284 5.77409 19.3703 5.80894 19.3131 5.83132ZM31.6541 8.45346L31.8035 8.56425L31.989 8.55043C32.0912 8.54283 32.1823 8.52491 32.2551 8.50872C32.296 8.49961 32.3238 8.49295 32.3479 8.48719C32.3771 8.48021 32.4007 8.47456 32.4353 8.46749C32.5253 8.44911 32.5694 8.44968 32.6143 8.46165C32.6586 8.47343 32.6782 8.48675 32.6843 8.49153C32.6893 8.49543 32.6902 8.4972 32.691 8.49901L32.6911 8.49914C32.6937 8.50468 32.7108 8.54971 32.6854 8.6525C32.6821 8.65706 32.6607 8.69391 32.5848 8.76152C32.4925 8.84369 32.3613 8.93506 32.1967 9.0355C32.0358 9.13372 31.8606 9.23015 31.6812 9.32894L31.6747 9.33252C31.6546 9.34359 31.6343 9.35473 31.614 9.36592C31.6094 9.35786 31.6048 9.3498 31.6002 9.34175L31.5819 9.31001C31.4794 9.13143 31.3778 8.95363 31.2889 8.78309C31.199 8.61066 31.1304 8.46118 31.0893 8.34035C31.0637 8.26522 31.0562 8.22198 31.0535 8.20341C31.072 8.15794 31.094 8.13164 31.1101 8.11906C31.119 8.11212 31.1312 8.10502 31.1517 8.09989C31.1685 8.09566 31.1968 8.09139 31.2398 8.09387C31.2706 8.10634 31.3001 8.12683 31.3438 8.16749C31.3675 8.1895 31.3858 8.20803 31.4101 8.23272C31.4246 8.24739 31.4412 8.26423 31.4624 8.28526C31.5109 8.33341 31.5753 8.39502 31.6541 8.45346ZM5.68907 9.03588C5.70386 9.03022 5.71743 9.02581 5.72971 9.02239L5.78893 9.24193L6.10321 9.03202L6.50259 9.05927L6.44014 8.82791C6.4509 8.82537 6.46286 8.82302 6.47605 8.82101C6.53595 8.81191 6.60263 8.813 6.66363 8.82438C6.71206 8.83342 6.7454 8.84669 6.76486 8.857C6.78319 8.97366 6.74559 9.12448 6.60603 9.35622C6.53211 9.47896 6.44467 9.60041 6.34637 9.73694L6.34313 9.74144L6.34146 9.74376C6.33378 9.75443 6.32599 9.76525 6.31811 9.77621C6.30373 9.76978 6.28954 9.76345 6.27557 9.75723L6.2622 9.75127C6.11022 9.68354 5.97451 9.62306 5.84921 9.5548C5.60993 9.42444 5.5006 9.31341 5.45716 9.20579C5.46909 9.18793 5.49073 9.16172 5.5262 9.1319C5.5737 9.09196 5.63163 9.05785 5.68907 9.03588ZM15.7391 17.5355L15.3985 17.5152L15.3689 17.4056L15.2182 17.5044L15.0456 17.4941L15.0739 17.599L14.7917 17.7841C14.4797 17.9887 13.9414 18.0801 13.4316 17.9939C12.898 17.9038 12.638 17.6717 12.5849 17.4749C12.423 16.8748 12.6404 16.2522 13.0796 15.552C13.2888 15.2185 13.5313 14.8932 13.7783 14.562L13.8037 14.528C13.9543 14.3259 14.1082 14.119 14.2497 13.9124C14.4762 14.0212 14.7137 14.1242 14.946 14.2246L14.9826 14.2404C15.3636 14.4051 15.7379 14.5668 16.0872 14.7523C16.8193 15.1411 17.3214 15.5734 17.4836 16.1746C17.5368 16.3716 17.4298 16.7004 17.0167 17.0424C16.6218 17.3694 16.1125 17.5577 15.7391 17.5355ZM23.9599 24.4885C23.9512 24.5005 23.9422 24.5128 23.9332 24.5252C23.9195 24.519 23.9058 24.5129 23.8924 24.5069L23.8921 24.5067L23.8831 24.5027C23.7306 24.4342 23.5948 24.3734 23.4698 24.3046C23.2327 24.1743 23.124 24.063 23.0808 23.9534C23.0929 23.9342 23.1156 23.9056 23.1536 23.8731C23.2017 23.832 23.2599 23.7971 23.317 23.7747C23.3295 23.7698 23.341 23.7659 23.3516 23.7627L23.4132 23.991L23.7422 23.7713L24.1266 23.7972L24.067 23.5763C24.0771 23.574 24.0882 23.5718 24.1003 23.57C24.1602 23.5609 24.2269 23.562 24.2879 23.5734C24.3362 23.5824 24.3696 23.5956 24.389 23.6059C24.4066 23.7204 24.3688 23.87 24.2267 24.1024C24.1529 24.2232 24.0661 24.3425 23.9687 24.4764L23.9599 24.4885ZM11.4803 27.3474C11.4666 27.3527 11.4539 27.3569 11.4423 27.3602L11.3805 27.131L11.0516 27.3507L10.667 27.3247L10.7268 27.5464C10.7153 27.5492 10.7025 27.5519 10.6883 27.5541C10.6261 27.564 10.557 27.5636 10.4942 27.5527C10.4467 27.5445 10.4136 27.5323 10.3935 27.5225C10.3774 27.4086 10.416 27.2597 10.5564 27.0301C10.6303 26.9092 10.7171 26.7899 10.8145 26.656L10.8232 26.644C10.8321 26.6318 10.8411 26.6194 10.8502 26.6068C10.865 26.6134 10.8795 26.6199 10.8938 26.6263L10.9071 26.6322C11.0591 26.6999 11.1949 26.7604 11.3202 26.8287C11.5595 26.959 11.6688 27.0701 11.7122 27.1776C11.7003 27.1955 11.6787 27.2216 11.6433 27.2514C11.5958 27.2913 11.5378 27.3254 11.4803 27.3474Z" />
</g>
<defs>
<clipPath id="clip0_2901:98614">
<rect width="36" height="32" transform="translate(0.5 0.5)"/>
</clipPath>
</defs>
</svg>
