<svg width="33" height="33" viewBox="0 0 33 33" xmlns="http://www.w3.org/2000/svg">
<g clip-path="url(#clip0_2901:98621)">
<path d="M10.0727 6.47618L10.4656 6.221L10.2365 5.81237L8.97719 3.56599L8.71763 3.10298L8.27095 3.38972C6.25078 4.68654 4.54256 6.44729 3.28576 8.52573L3.02522 8.9566L3.45791 9.21412L5.63792 10.5115L6.06237 10.7641L6.32014 10.3428C7.27511 8.78187 8.55899 7.45939 10.0727 6.47618Z" />
<path d="M4.46041 17.4833L4.44173 17.0027H3.96078H1.44141H0.924864L0.941671 17.519C1.02133 19.9658 1.64666 22.3676 2.76702 24.5252L3.01116 24.9954L3.46644 24.7245L5.64679 23.4271L6.05001 23.1872L5.83616 22.7696C5.00349 21.1434 4.53239 19.3351 4.46041 17.4833Z" />
<path d="M8.97424 30.4379L8.72799 30.8772L9.16912 31.1203C11.2624 32.2736 13.5975 32.9179 15.9807 33L16.4979 33.0178V32.5003V29.9044V29.4244L16.0183 29.4048C14.2227 29.3314 12.4754 28.8499 10.9083 27.9971L10.4746 27.7611L10.2331 28.1918L8.97424 30.4379Z" />
<path d="M6.32028 23.6323L6.06249 23.211L5.63806 23.4636L3.45839 24.7609L3.0253 25.0186L3.2865 25.4497C4.54325 27.5236 6.25148 29.284 8.2706 30.5841L8.71749 30.8719L8.97742 30.4083L10.2363 28.1628L10.4655 27.7541L10.0725 27.499C8.56035 26.5171 7.27625 25.1947 6.32028 23.6323Z" />
<path d="M16.0185 4.56493L16.4979 4.54517V4.06535V1.46988V0.952279L15.9806 0.970178C13.6015 1.0525 11.2664 1.69876 9.16906 2.85471L8.72802 3.09778L8.97424 3.53707L10.2332 5.7832L10.4747 6.21412L10.9085 5.97782C12.4791 5.1223 14.2271 4.63874 16.0185 4.56493Z" />
<path d="M26.6806 10.342L26.9379 10.7641L27.3629 10.5116L29.5471 9.21406L29.9804 8.95669L29.7196 8.52547C28.4628 6.44711 26.7543 4.68633 24.7344 3.38977L24.2878 3.10305L24.0282 3.56605L22.7689 5.81236L22.5398 6.22104L22.9328 6.4762C24.447 7.45951 25.7293 8.78157 26.6806 10.342Z" />
<path d="M24.237 18.2628C24.9432 18.2628 25.4904 17.6773 25.4904 16.9866C25.4904 16.296 24.9432 15.7104 24.237 15.7104C23.5308 15.7104 22.9836 16.296 22.9836 16.9866C22.9836 17.6773 23.5308 18.2628 24.237 18.2628Z" />
<path d="M28.5401 16.4872L28.5588 16.9678H29.0397H31.5591H32.0756L32.0589 16.4516C31.9795 14.0035 31.356 11.6034 30.2385 9.4501L29.9946 8.98013L29.5393 9.25054L27.3543 10.5484L26.9505 10.7883L27.1646 11.2063C27.997 12.8315 28.4681 14.6381 28.5401 16.4872Z" />
<path d="M24.031 3.53707L24.2772 3.09776L23.8361 2.85469C21.7384 1.6987 19.4016 1.05249 17.0197 0.970177L16.5024 0.952301V1.46988V4.06535V4.54515L16.9818 4.56492C18.7715 4.63874 20.5208 5.12209 22.0969 5.97854L22.5305 6.21415L22.7718 5.78367L24.031 3.53707Z" />
<path d="M5.83611 11.2057L6.04992 10.7881L5.64673 10.5481L3.46644 9.2508L3.01116 8.97989L2.76702 9.45006C1.64697 11.6071 1.02134 14.0071 0.941672 16.4513L0.924844 16.9676H1.44141H3.96081H4.44171L4.46043 16.487C4.53244 14.6388 5.00325 12.8325 5.83611 11.2057Z" />
<path d="M27.1643 22.7692L26.9503 23.1872L27.354 23.427L29.5392 24.725L29.9945 24.9954L30.2384 24.5254C31.3559 22.3718 31.9796 19.9697 32.0588 17.5188L32.0754 17.0027H31.559H29.0396H28.5587L28.54 17.4833C28.4681 19.3345 27.9972 21.1423 27.1643 22.7692Z"/>
<path d="M16.4992 4.58319H16.4991L16.4207 4.58318L16.4198 4.58346C9.79077 4.62817 4.44873 10.1981 4.44873 16.9847C4.44873 23.7667 9.78619 29.3862 16.5002 29.3862C23.2405 29.3862 28.5517 23.7423 28.5517 16.9847C28.5517 10.1766 23.1785 4.58381 16.5013 4.58319C16.5006 4.58319 16.5 4.58319 16.4993 4.58319C16.4992 4.58319 16.4992 4.58319 16.4992 4.58319ZM16.8904 18.8318L16.5025 18.921V19.3191V23.2279V23.5969L16.8551 23.7057C17.3723 23.8652 17.7603 24.3586 17.7603 24.9553C17.7603 25.6918 17.1815 26.2664 16.5024 26.2664C15.8234 26.2664 15.2446 25.6918 15.2446 24.9553C15.2446 24.3598 15.631 23.8674 16.1467 23.7067L16.498 23.5972V23.2293V19.3189V18.921L16.1103 18.8317C15.3812 18.6636 14.8796 18.0955 14.7283 17.3966L14.643 17.0024H14.2396H10.4443H10.0691L9.96426 17.3626C9.80359 17.9144 9.3205 18.2976 8.768 18.2976C8.08895 18.2976 7.51017 17.723 7.51017 16.9865C7.51017 16.2499 8.08895 15.6754 8.768 15.6754C9.31975 15.6754 9.80224 16.0574 9.96358 16.6081L10.0689 16.9675H10.4434H14.2398H14.6429L14.7284 16.5736C14.8764 15.8924 15.3673 15.3132 16.1067 15.1486L16.498 15.0614V14.6605V10.7434V10.3754L16.1467 10.266C15.631 10.1053 15.2446 9.61282 15.2446 9.01741C15.2446 8.28084 15.8234 7.7063 16.5024 7.7063C17.1815 7.7063 17.7603 8.28084 17.7603 9.01741C17.7603 9.61411 17.3723 10.1074 16.8551 10.267L16.5025 10.3758V10.7448V14.6582V15.0611L16.8961 15.1468C17.5781 15.2953 18.1241 15.8456 18.278 16.5712L18.362 16.9675H18.7671H22.5617H22.9362L23.0415 16.6081C23.2029 16.0574 23.6854 15.6754 24.2371 15.6754C24.9162 15.6754 25.4949 16.2499 25.4949 16.9865C25.4949 17.723 24.9162 18.2976 24.2371 18.2976C23.6846 18.2976 23.2015 17.9144 23.0408 17.3626L22.936 17.0024H22.5608H18.7667H18.3619L18.2777 17.3984C18.1281 18.1019 17.6067 18.6671 16.8904 18.8318Z" />
<path d="M15.5798 18.5893L15.5798 18.5893L15.582 18.5907C16.1416 18.9298 16.8549 18.9231 17.4054 18.5954C17.939 18.2925 18.3224 17.6884 18.3224 16.9849C18.3224 15.9571 17.5007 15.1274 16.5 15.1273H16.5C15.5311 15.1273 14.6824 15.9502 14.6824 16.9849C14.6824 17.6624 15.0507 18.2649 15.5798 18.5893Z" />
<path d="M22.9318 27.4984L22.54 27.7538L22.7687 28.1617L24.0281 30.4081L24.2881 30.8717L24.735 30.5839C26.7541 29.2838 28.462 27.524 29.719 25.4498L29.9805 25.0184L29.5468 24.7608L27.3623 23.4631L26.938 23.211L26.6804 23.632C25.7277 25.1891 24.4452 26.5117 22.9318 27.4984Z" />
<path d="M16.9818 29.4046L16.5024 29.4243V29.9042V32.5001V33.0175L17.0196 32.9998C19.4056 32.918 21.7422 32.2735 23.8361 31.1201L24.2773 30.8771L24.031 30.4377L22.7713 28.1903L22.5305 27.7606L22.0973 27.995C20.5187 28.849 18.7694 29.3309 16.9818 29.4046Z" />
<path d="M10.0206 16.9827L10.0205 16.9725C10.0132 16.2895 9.46953 15.7102 8.76801 15.7102C8.06248 15.7102 7.51465 16.2964 7.51465 16.9864C7.51465 17.6763 8.06248 18.2626 8.76801 18.2626C9.4705 18.2626 10.0151 17.6816 10.0207 16.9969L10.0208 16.9969L10.0207 16.9879C10.0207 16.9862 10.0207 16.9844 10.0206 16.9827ZM9.99869 17.1252C9.99862 17.1254 9.99884 17.1247 9.99912 17.1238L9.99886 17.1246L9.99873 17.1251L9.99869 17.1252Z" />
<path d="M16.4972 10.2934L16.4972 10.2933L16.4972 10.2934ZM16.4972 10.2934L16.5081 10.2933M16.4972 10.2934L16.5081 10.2933M16.5081 10.2933C17.2105 10.29 17.7557 9.70601 17.7557 9.01749C17.7557 8.32751 17.2079 7.7413 16.5024 7.7413C15.7968 7.7413 15.249 8.32751 15.249 9.01749C15.249 9.70272 15.7889 10.2836 16.4857 10.2929L16.5081 10.2933ZM16.3501 10.2688C16.35 10.2688 16.3501 10.2688 16.3504 10.2689L16.3503 10.2689L16.3501 10.2688Z" />
<path d="M16.5024 26.2316C17.2086 26.2316 17.7557 25.6461 17.7557 24.9554C17.7557 24.2648 17.2086 23.6792 16.5024 23.6792C15.7962 23.6792 15.249 24.2648 15.249 24.9554C15.249 25.6461 15.7962 26.2316 16.5024 26.2316Z" />
</g>
<defs>
<clipPath id="clip0_2901:98621">
<rect width="32" height="32" transform="translate(0.5 0.5)"/>
</clipPath>
</defs>
</svg>
