<svg width="37" height="38" viewBox="0 0 37 38" xmlns="http://www.w3.org/2000/svg">
<path d="M8.52538 13.4518L8.52537 13.4518L8.527 13.4557C8.66502 13.7821 8.92541 14.0866 9.3064 14.2409C9.70197 14.4011 10.1498 14.3631 10.52 14.1259C14.4128 11.6741 18.9534 11.6741 22.8462 14.1259C23.2072 14.3572 23.6487 14.404 24.0472 14.2489C24.4341 14.0982 24.6993 13.7925 24.8391 13.4617L24.8404 13.4587C25.0028 13.0709 25.2268 12.5332 25.4572 11.9802C25.7058 11.3832 25.9619 10.7685 26.1558 10.3057L26.1579 10.3007C26.2966 9.96459 26.3109 9.60361 26.2324 9.2843C26.1551 8.96946 25.9647 8.61269 25.6031 8.37786L25.6031 8.37783L25.5956 8.37308C19.9966 4.80712 13.3695 4.80712 7.7705 8.37308L7.77048 8.37305L7.76308 8.37786C7.06526 8.83101 6.96292 9.71344 7.21584 10.3136L8.13735 9.92523L7.21451 10.3104C7.36215 10.6641 7.47089 10.925 7.58385 11.196C7.7926 11.6968 8.01576 12.2322 8.52538 13.4518Z" stroke-width="2"/>
<path d="M23.3412 26.9943L23.3411 26.9943L24.2903 29.2778C24.4362 29.6208 24.4481 29.9878 24.3688 30.3064C24.2908 30.6201 24.097 30.9847 23.7227 31.2177C19.2963 33.99 14.0684 33.9899 9.64217 31.2173C9.26825 30.9843 9.07465 30.6199 8.99665 30.3064C8.91738 29.9878 8.92931 29.6209 9.07517 29.2778L10.0243 26.9943L10.0267 26.9887L10.0267 26.9887C10.167 26.6568 10.4312 26.3546 10.8123 26.2032C11.2049 26.0473 11.6442 26.0862 12.0082 26.3113L23.3412 26.9943ZM23.3412 26.9943L23.3388 26.9887M23.3412 26.9943L23.3388 26.9887M23.3388 26.9887C23.1985 26.6568 22.9343 26.3546 22.5532 26.2032M23.3388 26.9887L22.5532 26.2032M22.5532 26.2032C22.1606 26.0473 21.7212 26.0862 21.3572 26.3113L22.5532 26.2032ZM21.3566 26.3117C18.3952 28.142 14.9699 28.1419 12.0085 26.3115L21.3566 26.3117Z" stroke-width="2"/>
<path d="M11.8991 26.0808L11.3719 26.9306C13.0037 27.943 14.8413 28.4802 16.683 28.4802C18.5242 28.4802 20.3614 27.9433 21.9929 26.9314C22.0271 26.9102 22.0543 26.9067 22.0631 26.9067C22.0711 26.9067 22.1006 26.9082 22.1501 26.9459C22.2018 26.9853 22.2719 27.0636 22.3273 27.1969L22.3278 27.1982L22.8909 28.5495L23.3004 29.5324L24.2557 29.062C27.6579 27.3866 30.0464 24.6009 30.7747 21.3573H31.6451C32.677 21.3573 33.1183 20.397 33.1183 19.7567V11.2982C34.0847 10.6634 34.642 9.45846 34.642 8.23157C34.642 6.51355 33.5077 4.70312 31.6499 4.70312C29.7921 4.70312 28.6578 6.51355 28.6578 8.23157C28.6578 9.45465 29.2092 10.6604 30.172 11.2966V15.3567C29.3702 13.552 28.0183 11.9478 26.2288 10.6773L25.2086 9.95302L24.727 11.1078L23.8348 13.2468C23.8345 13.2475 23.8342 13.2481 23.8339 13.2488C23.776 13.3846 23.7056 13.4616 23.6557 13.4994C23.6082 13.5353 23.5792 13.5377 23.5679 13.5377C23.5556 13.5377 23.5453 13.536 23.5365 13.5334C23.5279 13.5308 23.5183 13.5267 23.5072 13.5193L23.497 13.5125L23.4867 13.506C21.4043 12.1909 19.0485 11.4897 16.683 11.4897C14.3171 11.4897 11.9613 12.1912 9.86992 13.512L9.86805 13.5132C9.83328 13.5352 9.80889 13.5377 9.80293 13.5377C9.79591 13.5377 9.76789 13.5367 9.71882 13.4992C9.66712 13.4597 9.59523 13.3799 9.5366 13.2421C9.53641 13.2416 9.53622 13.2412 9.53603 13.2407L8.63839 11.1L8.15473 9.94657L7.13601 10.6722C4.13462 12.8102 2.35815 15.887 2.35815 19.2762C2.35815 23.3888 4.99979 27.0341 9.10972 29.0616L10.0667 29.5337L10.4758 28.5482L11.0328 27.2061C11.033 27.2056 11.0332 27.2052 11.0333 27.2047C11.0916 27.0662 11.1638 26.986 11.2161 26.9461C11.2661 26.9079 11.2954 26.9067 11.3029 26.9067C11.3118 26.9067 11.339 26.9102 11.3732 26.9314L11.8991 26.0808ZM11.8991 26.0808C11.7146 25.9667 11.5064 25.9067 11.3029 25.9067C10.8061 25.9067 10.3471 26.255 10.1105 26.8195L23.2508 26.8135C23.019 26.255 22.56 25.9067 22.0631 25.9067C21.8597 25.9067 21.6515 25.9667 21.4669 26.0808C19.9859 26.9997 18.3297 27.4802 16.683 27.4802C15.0364 27.4802 13.3802 26.9997 11.8991 26.0808ZM21.9322 20.7056V20.5946V19.7056V19.5946V17.0331H24.101V22.8226H21.9322V20.7056ZM17.765 20.5946V20.7056V22.8226H15.601V20.7056V20.5946V19.7056V19.5946V17.0331H17.765V19.5946V19.7056V20.5946ZM11.4338 20.5946V20.7056V22.8226H9.26508V17.0331H11.4338V19.5946V19.7056V20.5946ZM11.4338 16.8079V16.8079C11.4338 16.8071 11.4338 16.807 11.4338 16.8079ZM9.26524 16.8046C9.26527 16.8046 9.26525 16.8051 9.26511 16.8061L9.26524 16.8046ZM9.2653 23.0457C9.26527 23.0457 9.26517 23.0451 9.26512 23.0438L9.2653 23.0457ZM11.4338 23.0419C11.4338 23.0431 11.4337 23.043 11.4338 23.0417V23.0419ZM17.7649 23.0441C17.7649 23.0441 17.7649 23.0436 17.765 23.0425L17.7649 23.0441ZM21.9323 16.8073C21.9323 16.8072 21.9323 16.8075 21.9322 16.8079V16.8079C21.9322 16.8075 21.9322 16.8073 21.9323 16.8073ZM24.1008 16.8046C24.1008 16.8045 24.1009 16.805 24.101 16.8061L24.1008 16.8046ZM24.1008 23.0457C24.1007 23.0457 24.1008 23.0451 24.101 23.0438L24.1008 23.0457ZM21.9322 23.0419V23.0417C21.9323 23.043 21.9322 23.0431 21.9322 23.0419Z" stroke-width="2"/>
</svg>
