<svg width="652" height="413" viewBox="0 0 652 413" fill="none" xmlns="http://www.w3.org/2000/svg">
<g opacity="0.2">
<path d="M651.503 368.911H0.824219V369.236H651.503V368.911Z" fill="#D9DFE1"/>
<path d="M580.268 383.816H514.027V384.142H580.268V383.816Z" fill="#D9DFE1"/>
<path d="M130.532 379.959H69.0977V380.285H130.532V379.959Z" fill="#D9DFE1"/>
<path d="M518.769 377.773H493.793V378.098H518.769V377.773Z" fill="#D9DFE1"/>
<path d="M431.857 386.401H413.531V386.726H431.857V386.401Z" fill="#D9DFE1"/>
<path d="M401.946 386.401H355.82V386.726H401.946V386.401Z" fill="#D9DFE1"/>
<path d="M329.042 380.906H254.883V381.232H329.042V380.906Z" fill="#D9DFE1"/>
<path d="M500.239 21.1037L498.905 21.0204C499.226 15.8228 497.479 10.9127 493.985 7.19607C490.497 3.48721 485.72 1.44538 480.53 1.44538H456.992V0.108887H480.53C486.091 0.108887 491.215 2.30037 494.957 6.27992C498.707 10.2686 500.584 15.5326 500.239 21.1037Z" fill="#A3A8A3"/>
<path d="M498.337 30.2758L497.586 42.6411L498.919 42.722L499.669 30.3567L498.337 30.2758Z" fill="#A3A8A3"/>
<path d="M459.881 339.466H303.138C294.321 339.466 287.553 332.253 288.097 323.436L306.772 20.816C307.315 11.9993 314.974 4.78589 323.792 4.78589H480.535C489.352 4.78589 496.12 11.9993 495.576 20.816L476.902 323.436C476.356 332.253 468.698 339.466 459.881 339.466Z" fill="#A3A8A3"/>
<path opacity="0.2" d="M366.196 73.715H331.997C326.939 73.715 323.057 69.5766 323.369 64.5196L325.125 36.0667C325.437 31.0096 329.83 26.8713 334.887 26.8713H369.086C374.144 26.8713 378.026 31.0096 377.714 36.0667L375.958 64.5196C375.647 69.5779 371.254 73.715 366.196 73.715Z" fill="#131313"/>
<path opacity="0.2" d="M376.132 312.809C378.97 312.809 381.414 310.507 381.59 307.669L385.209 249.017C385.385 246.177 383.225 243.876 380.386 243.876H293.008L288.754 312.809H376.132Z" fill="#131313"/>
<path d="M284.717 217.37H257.987C256.018 217.37 254.323 218.967 254.201 220.936L252.339 251.105C252.218 253.074 253.716 254.671 255.685 254.671H282.415C284.383 254.671 286.079 253.074 286.2 251.105L288.062 220.936C288.183 218.966 286.686 217.37 284.717 217.37Z" fill="#A3A8A3"/>
<path opacity="0.4" d="M284.717 217.37H257.987C256.018 217.37 254.323 218.967 254.201 220.936L252.339 251.105C252.218 253.074 253.716 254.671 255.685 254.671H282.415C284.383 254.671 286.079 253.074 286.2 251.105L288.062 220.936C288.183 218.966 286.686 217.37 284.717 217.37Z" fill="#D9DFE1"/>
<path d="M480.206 11.4631C482.684 11.4631 484.951 12.4222 486.59 14.166C488.233 15.9138 489.053 18.2458 488.901 20.7327L482.028 132.1C481.897 134.233 480.055 135.968 477.925 135.968H310.05C309.057 135.968 308.15 135.585 307.498 134.893C306.844 134.197 306.517 133.264 306.578 132.265L313.451 20.898C313.772 15.6964 318.264 11.4644 323.465 11.4644H480.206V11.4631ZM480.206 10.1279H323.463C317.56 10.1279 312.481 14.913 312.117 20.8147L305.244 132.182C305.07 135.01 307.221 137.303 310.049 137.303H477.924C480.752 137.303 483.187 135.01 483.361 132.182L490.233 20.8147C490.598 14.913 486.108 10.1279 480.206 10.1279Z" fill="#D9DFE1"/>
<path d="M396.232 150.395H310.87C307.145 150.395 303.937 153.415 303.708 157.141L300.185 214.23C299.955 217.956 302.789 220.976 306.516 220.976H391.877C395.603 220.976 398.811 217.956 399.04 214.23L402.563 157.141C402.792 153.415 399.957 150.395 396.232 150.395Z" fill="#D9DFE1"/>
<path d="M370.634 233.205H285.273C281.547 233.205 278.339 236.226 278.11 239.952L274.587 297.041C274.357 300.767 277.191 303.787 280.918 303.787H366.28C370.005 303.787 373.213 300.767 373.442 297.041L376.965 239.952C377.194 236.226 374.36 233.205 370.634 233.205Z" fill="#D9DFE1"/>
<path opacity="0.2" d="M438.722 192.698C435.49 192.698 432.707 195.319 432.508 198.55L429.453 248.076C429.254 251.309 431.712 253.929 434.944 253.929H481.191L484.97 192.698H438.722Z" fill="#131313"/>
<path d="M502.553 181.863H427.553C424.279 181.863 421.461 184.516 421.26 187.79L418.164 237.949C417.962 241.223 420.452 243.876 423.726 243.876H498.726C502 243.876 504.817 241.223 505.019 237.949L508.115 187.79C508.318 184.516 505.827 181.863 502.553 181.863Z" fill="#A3A8A3"/>
<path opacity="0.7" d="M502.553 181.863H427.553C424.279 181.863 421.461 184.516 421.26 187.79L418.164 237.949C417.962 241.223 420.452 243.876 423.726 243.876H498.726C502 243.876 504.817 241.223 505.019 237.949L508.115 187.79C508.318 184.516 505.827 181.863 502.553 181.863Z" fill="#D9DFE1"/>
<path d="M558.579 100.818H514.138C510.864 100.818 508.046 103.472 507.844 106.746L504.75 156.904C504.548 160.178 507.038 162.832 510.312 162.832H554.753C558.027 162.832 560.845 160.178 561.046 156.904L564.142 106.746C564.343 103.472 561.853 100.818 558.579 100.818Z" fill="#A3A8A3"/>
<path opacity="0.7" d="M558.579 100.818H514.138C510.864 100.818 508.046 103.472 507.844 106.746L504.75 156.904C504.548 160.178 507.038 162.832 510.312 162.832H554.753C558.027 162.832 560.845 160.178 561.046 156.904L564.142 106.746C564.343 103.472 561.853 100.818 558.579 100.818Z" fill="#D9DFE1"/>
<path d="M518.172 255.593H499.678C498.316 255.593 497.143 256.697 497.059 258.06L495.77 278.934C495.686 280.296 496.723 281.401 498.086 281.401H516.579C517.942 281.401 519.114 280.296 519.199 278.934L520.487 258.06C520.57 256.697 519.535 255.593 518.172 255.593Z" fill="#A3A8A3"/>
<path opacity="0.4" d="M518.172 255.593H499.678C498.316 255.593 497.143 256.697 497.059 258.06L495.77 278.934C495.686 280.296 496.723 281.401 498.086 281.401H516.579C517.942 281.401 519.114 280.296 519.199 278.934L520.487 258.06C520.57 256.697 519.535 255.593 518.172 255.593Z" fill="#D9DFE1"/>
<path d="M426.93 164.5C446.655 145.374 448.068 114.835 430.086 96.2893C412.104 77.7438 381.535 78.2148 361.81 97.3413C342.084 116.468 340.671 147.007 358.654 165.552C376.636 184.098 407.204 183.627 426.93 164.5Z" fill="#A3A8A3"/>
<path d="M423.969 161.447C441.902 144.059 443.187 116.296 426.84 99.4368C410.492 82.5775 382.703 83.0061 364.77 100.394C346.838 117.782 345.553 145.545 361.9 162.404C378.248 179.263 406.037 178.835 423.969 161.447Z" fill="#D9DFE1"/>
<path d="M405.995 130.387C412.602 123.981 413.076 113.753 407.054 107.541C401.031 101.33 390.793 101.488 384.186 107.895C377.579 114.301 377.105 124.53 383.128 130.741C389.15 136.952 399.389 136.794 405.995 130.387Z" fill="#A3A8A3"/>
<path d="M393.694 141.926C381.101 141.926 369.819 146.836 363.625 154.096C369.367 163.549 379.75 169.763 391.976 169.763C404.203 169.763 415.353 163.549 422.262 154.096C416.974 146.836 406.287 141.926 393.694 141.926Z" fill="#A3A8A3"/>
<path d="M359.934 67.4515H325.735C320.678 67.4515 316.795 63.3132 317.107 58.2562L318.863 29.8033C319.175 24.7462 323.569 20.6079 328.626 20.6079H362.824C367.882 20.6079 371.764 24.7462 371.452 29.8033L369.697 58.2562C369.386 63.3145 364.992 67.4515 359.934 67.4515Z" fill="#D9DFE1"/>
<path d="M470.822 45.9466H389.201C387.052 45.9466 385.402 44.1884 385.535 42.0399L385.842 37.07C385.975 34.9215 387.841 33.1633 389.989 33.1633H471.61C473.759 33.1633 475.409 34.9215 475.276 37.07L474.969 42.0399C474.837 44.1884 472.97 45.9466 470.822 45.9466Z" fill="#D9DFE1"/>
<path d="M469.494 67.4229H387.873C385.724 67.4229 384.074 65.6647 384.207 63.5162L384.514 58.5463C384.647 56.3978 386.513 54.6396 388.661 54.6396H470.282C472.431 54.6396 474.081 56.3978 473.948 58.5463L473.641 63.5162C473.508 65.6647 471.642 67.4229 469.494 67.4229Z" fill="#D9DFE1"/>
<path d="M496.534 201.499H431.14C429.713 201.499 428.627 200.342 428.716 198.915L428.831 197.06C428.919 195.633 430.147 194.476 431.574 194.476H496.967C498.395 194.476 499.48 195.633 499.391 197.06L499.277 198.915C499.19 200.342 497.961 201.499 496.534 201.499Z" fill="#D9DFE1"/>
<path d="M495.62 216.381H430.226C428.799 216.381 427.713 215.224 427.802 213.797L427.916 211.942C428.005 210.515 429.233 209.358 430.66 209.358H496.053C497.48 209.358 498.566 210.515 498.477 211.942L498.363 213.797C498.274 215.224 497.046 216.381 495.62 216.381Z" fill="#D9DFE1"/>
<path d="M494.698 231.264H429.304C427.877 231.264 426.792 230.107 426.88 228.679L426.995 226.825C427.083 225.397 428.312 224.24 429.738 224.24H495.131C496.559 224.24 497.644 225.397 497.555 226.825L497.441 228.679C497.354 230.107 496.125 231.264 494.698 231.264Z" fill="#D9DFE1"/>
<path d="M456.934 325.772C459.498 323.285 459.682 319.315 457.344 316.904C455.006 314.493 451.032 314.554 448.467 317.041C445.903 319.527 445.719 323.497 448.057 325.908C450.395 328.32 454.369 328.258 456.934 325.772Z" fill="#D9DFE1"/>
<path d="M460.363 299.191C460.15 302.654 457.168 305.462 453.705 305.462C450.243 305.462 447.607 302.654 447.821 299.191C448.034 295.728 451.016 292.919 454.478 292.919C457.943 292.919 460.577 295.726 460.363 299.191Z" fill="#D9DFE1"/>
<path d="M461.738 276.967C461.525 280.43 458.543 283.239 455.08 283.239C451.618 283.239 448.982 280.43 449.196 276.967C449.409 273.504 452.391 270.696 455.853 270.696C459.316 270.696 461.952 273.504 461.738 276.967Z" fill="#D9DFE1"/>
<path d="M438 325.772C440.564 323.285 440.748 319.315 438.41 316.904C436.072 314.493 432.098 314.554 429.534 317.04C426.969 319.527 426.786 323.497 429.124 325.908C431.462 328.319 435.436 328.258 438 325.772Z" fill="#D9DFE1"/>
<path d="M441.43 299.191C441.216 302.654 438.235 305.462 434.772 305.462C431.309 305.462 428.674 302.654 428.887 299.191C429.101 295.728 432.082 292.919 435.545 292.919C439.009 292.919 441.643 295.726 441.43 299.191Z" fill="#D9DFE1"/>
<path d="M442.805 276.967C442.591 280.43 439.61 283.239 436.147 283.239C432.684 283.239 430.049 280.43 430.262 276.967C430.476 273.504 433.457 270.696 436.92 270.696C440.383 270.696 443.018 273.504 442.805 276.967Z" fill="#D9DFE1"/>
<path d="M179.354 133.951L186.706 139.673L176.996 144.785C176.996 144.785 172.45 139.899 174.76 135.745L179.354 133.951Z" fill="#DABAB9"/>
<path d="M187.026 149.614L182.565 150.961C181.145 151.39 179.629 150.697 179.025 149.342L176.992 144.785L186.703 139.673L188.939 145.784C189.522 147.373 188.646 149.125 187.026 149.614Z" fill="#DABAB9"/>
<path d="M210.224 81.5099L206.3 83.9461C204.962 84.7829 203.63 85.6444 202.314 86.5254C199.679 88.2809 197.051 90.0495 194.502 91.8883C189.42 95.562 184.489 99.4387 180.321 103.623L179.536 104.406L179.34 104.601C179.255 104.687 179.335 104.6 179.32 104.605C179.335 104.56 179.34 104.549 179.336 104.531C179.32 104.462 179.19 104.63 179.06 104.928C178.775 105.536 178.515 106.673 178.4 107.925C178.179 110.472 178.286 113.508 178.616 116.548C179.221 122.667 180.495 129.121 181.749 135.385L174.323 138.198C172.644 135.075 171.267 131.996 169.973 128.769C168.689 125.556 167.57 122.255 166.631 118.806C165.75 115.335 164.958 111.766 164.832 107.678C164.787 105.621 164.844 103.426 165.502 100.852C165.854 99.5676 166.35 98.1803 167.245 96.7241C167.471 96.361 167.703 96.0032 167.984 95.6401L168.358 95.1625L168.578 94.8983L169.461 93.839C170.627 92.3945 171.862 91.0866 173.091 89.7514C174.356 88.4852 175.614 87.1943 176.921 86.0061C179.495 83.5479 182.205 81.3395 184.938 79.1649C187.68 77.0086 190.495 74.9889 193.372 73.0642C194.814 72.1064 196.268 71.1707 197.741 70.2532C199.228 69.311 200.657 68.4795 202.332 67.5542L210.224 81.5099Z" fill="#A3A8A3"/>
<path d="M181.141 133.835C179.252 134.812 175.082 136.02 173.248 136.561C172.8 136.694 172.52 137.135 172.583 137.597C172.753 138.869 173.008 139.783 173.71 139.865C174.552 139.963 182.201 137.255 182.745 136.266C183.051 135.712 182.732 134.872 182.394 134.242C182.15 133.792 181.596 133.599 181.141 133.835Z" fill="#131313"/>
<path d="M217.903 128.243L202.331 89.874C201.183 87.0475 197.905 85.5444 195.008 86.5178L150.618 101.421C147.721 102.394 146.301 105.473 147.449 108.3L163.021 146.669C164.169 149.496 167.447 150.999 170.344 150.025L214.734 135.122C217.631 134.15 219.051 131.07 217.903 128.243Z" fill="#A3A8A3"/>
<path opacity="0.7" d="M217.903 128.243L202.331 89.874C201.183 87.0475 197.905 85.5444 195.008 86.5178L150.618 101.421C147.721 102.394 146.301 105.473 147.449 108.3L163.021 146.669C164.169 149.496 167.447 150.999 170.344 150.025L214.734 135.122C217.631 134.15 219.051 131.07 217.903 128.243Z" fill="#D9DFE1"/>
<path d="M251.567 40.1788C251.377 40.9479 251.631 41.6702 252.133 41.7951C252.635 41.9187 253.196 41.3969 253.386 40.6278C253.576 39.86 253.323 39.1364 252.82 39.0115C252.318 38.8879 251.757 39.411 251.567 40.1788Z" fill="#131313"/>
<path d="M251.554 41.6536C251.554 41.6536 252.207 46.518 253.603 49.1325C251.931 50.0655 249.762 48.9151 249.762 48.9151L251.554 41.6536Z" fill="white"/>
<path d="M249.893 35.248C249.984 35.2701 250.083 35.2662 250.178 35.2272C252.102 34.4542 253.515 35.4198 253.53 35.4289C253.74 35.576 254.03 35.5252 254.177 35.3144C254.324 35.1036 254.273 34.8147 254.063 34.6663C253.989 34.6143 252.217 33.404 249.831 34.3631C249.593 34.4594 249.477 34.7301 249.573 34.9682C249.63 35.1153 249.753 35.2142 249.893 35.248Z" fill="#131313"/>
<path d="M224.574 42.9185C224.22 50.2256 222.432 63.3342 216.406 66.7814C216.406 66.7814 216.566 74.3228 229.519 77.5189C243.761 81.0339 238.07 72.1287 238.07 72.1287C230.755 68.3535 232.379 62.6366 235.07 57.5548L224.574 42.9185Z" fill="#DABAB9"/>
<path d="M213.941 68.7475C213.473 66.2568 212.981 63.4185 215.504 63.1895C218.28 62.9383 232.504 65.4929 236.922 68.3415C241.34 71.1902 238.851 75.3923 238.851 75.3923L213.941 68.7475Z" fill="#131313"/>
<path d="M146.408 384.605C147.175 385.256 148.017 385.77 148.625 385.637C148.88 385.581 149.211 385.39 149.332 384.791C149.395 384.476 149.326 384.18 149.126 383.906C148.252 382.72 144.984 382.384 144.846 382.371C144.755 382.362 144.666 382.407 144.621 382.487C144.575 382.566 144.58 382.665 144.634 382.739C144.94 383.155 145.636 383.951 146.408 384.605ZM148.553 383.974C148.632 384.04 148.698 384.109 148.753 384.182C148.874 384.346 148.914 384.515 148.877 384.699C148.79 385.126 148.592 385.17 148.526 385.184C147.849 385.331 146.315 384.043 145.357 382.906C146.339 383.054 147.874 383.396 148.553 383.974Z" fill="#A3A8A3"/>
<path d="M144.672 382.778C144.701 382.803 144.736 382.82 144.775 382.829C145.906 383.066 148.794 382.697 149.344 381.728C149.443 381.552 149.554 381.196 149.174 380.784C148.928 380.518 148.609 380.378 148.226 380.372C146.755 380.345 144.743 382.353 144.658 382.437C144.598 382.498 144.575 382.585 144.6 382.667C144.614 382.712 144.639 382.749 144.672 382.778ZM148.756 381.026C148.782 381.049 148.808 381.073 148.833 381.099C149.04 381.323 148.97 381.446 148.94 381.499C148.614 382.071 146.61 382.501 145.344 382.431C145.967 381.874 147.274 380.818 148.217 380.836C148.435 380.84 148.612 380.903 148.756 381.026Z" fill="#A3A8A3"/>
<path d="M219.919 403.432C221.178 403.432 222.376 403.259 222.725 402.693C222.847 402.495 222.926 402.158 222.602 401.676C222.419 401.407 222.153 401.223 221.808 401.132C220.13 400.689 216.902 402.642 216.765 402.725C216.686 402.773 216.65 402.868 216.676 402.965C216.702 403.06 216.783 403.137 216.879 403.155C217.518 403.281 218.746 403.432 219.919 403.432ZM221.278 401.528C221.442 401.528 221.594 401.545 221.734 401.581C221.953 401.64 222.114 401.747 222.223 401.907C222.418 402.196 222.372 402.339 222.322 402.421C221.931 403.055 219.451 403.069 217.6 402.811C218.459 402.345 220.13 401.528 221.278 401.528Z" fill="#A3A8A3"/>
<path d="M216.926 403.161C216.958 403.161 216.99 403.155 217.019 403.14C218.149 402.609 220.275 400.487 219.981 399.377C219.912 399.116 219.694 398.792 219.048 398.727C218.569 398.679 218.149 398.813 217.8 399.126C216.658 400.151 216.667 402.794 216.668 402.906C216.669 402.988 216.714 403.069 216.785 403.117C216.829 403.145 216.878 403.161 216.926 403.161ZM218.909 399.183C218.955 399.183 219.001 399.185 219.05 399.189C219.473 399.232 219.515 399.396 219.53 399.451C219.707 400.117 218.284 401.784 217.151 402.51C217.198 401.739 217.384 400.156 218.133 399.483C218.36 399.282 218.614 399.183 218.909 399.183Z" fill="#A3A8A3"/>
<path d="M206.238 402.928H216.052L217.029 380.201H207.216L206.238 402.928Z" fill="#DABAB9"/>
<path d="M134.766 379.912L144.26 382.393L154.777 361.651L145.282 359.17L134.766 379.912Z" fill="#DABAB9"/>
<path d="M144.999 381.261L136.592 374.127C136.287 373.868 135.842 373.855 135.521 374.097L128.399 379.494C127.66 380.053 127.648 381.167 128.365 381.754C131.343 384.194 132.915 385.233 136.612 388.369C138.887 390.299 143.737 395.82 146.675 398.707C149.549 401.531 152.852 399.066 151.908 397.62C147.673 391.141 146.261 385.976 145.823 382.75C145.745 382.17 145.447 381.641 144.999 381.261Z" fill="#131313"/>
<path d="M215.744 401.792H205.027C204.626 401.792 204.307 402.071 204.261 402.462L203.225 411.185C203.118 412.09 203.892 412.946 204.818 412.931C208.677 412.865 214.239 412.638 219.099 412.638C224.78 412.638 225.739 412.947 232.402 412.947C236.431 412.947 237.128 408.874 235.403 408.506C227.552 406.827 225.245 406.646 218.188 402.556C217.42 402.112 216.591 401.792 215.744 401.792Z" fill="#131313"/>
<path d="M252.407 84.8286C251.658 94.7333 247.937 115.776 233.756 158.511L182.172 148.797C183.153 141.898 192.428 112.834 194.541 80.0683C195.129 70.9549 203.32 64.1813 212.37 65.4085C212.454 65.4202 212.54 65.4319 212.625 65.4436C219.276 66.3676 228.858 67.9539 234.553 69.5741C238.142 70.5957 242.323 72.2757 245.711 73.7528C250.07 75.6528 252.767 80.0852 252.407 84.8286Z" fill="#A3A8A3"/>
<path opacity="0.2" d="M242.612 90.8303C242.265 96.4014 244.35 108.223 246.167 117.214C247.836 110.775 249.092 105.325 250.013 100.715L242.612 90.8303Z" fill="#131313"/>
<path d="M252.221 81.8042C253.457 84.8793 254.795 88.2212 256.181 91.3952C257.591 94.5913 258.98 97.7914 260.482 100.915C263.442 107.153 266.633 113.314 270.29 118.6C271.201 119.903 272.133 121.181 273.096 122.287L273.274 122.503C273.257 122.485 273.236 122.47 273.214 122.459C273.162 122.436 273.153 122.423 273.118 122.423C273.092 122.42 273.082 122.459 273.158 122.515C273.278 122.629 273.635 122.813 274.095 122.979C275.035 123.316 276.413 123.55 277.877 123.653C279.351 123.76 280.946 123.806 282.579 123.747C289.135 123.539 296.242 122.429 303.101 121.316L305.658 128.834C302.188 130.541 298.772 131.925 295.173 133.164C291.592 134.4 287.909 135.446 284.001 136.174C282.045 136.528 280.028 136.831 277.889 136.945C275.744 137.048 273.489 137.039 270.906 136.559C269.611 136.308 268.231 135.943 266.74 135.233C266.003 134.893 265.23 134.441 264.473 133.909C264.09 133.622 263.713 133.342 263.343 132.998L262.796 132.484L262.517 132.199C260.991 130.683 259.67 129.128 258.388 127.56C253.384 121.255 249.612 114.669 246.14 107.98C244.45 104.618 242.818 101.25 241.356 97.8148C239.875 94.3545 238.465 91.01 237.168 87.3154L252.221 81.8042Z" fill="#A3A8A3"/>
<path opacity="0.2" d="M345.175 114.328L326.656 110.636C325.289 110.364 323.891 111.237 323.535 112.587L318.068 133.266C317.711 134.616 318.53 135.932 319.896 136.204L338.416 139.896C339.782 140.167 341.18 139.294 341.537 137.945L347.004 117.265C347.36 115.915 346.542 114.601 345.175 114.328Z" fill="#131313"/>
<path d="M338.731 104.829L320.297 100.731C318.938 100.429 317.522 101.271 317.135 102.613L311.215 123.168C310.829 124.509 311.619 125.842 312.979 126.144L331.412 130.242C332.772 130.544 334.188 129.702 334.575 128.36L340.495 107.805C340.881 106.463 340.092 105.131 338.731 104.829Z" fill="#D9DFE1"/>
<path d="M301.418 122.777L307.249 114.22L316.497 122.684C316.497 122.684 311.69 129.236 304.554 128.843L301.418 122.777Z" fill="#DABAB9"/>
<path d="M299.53 122.407C300.554 124.269 301.865 128.41 302.451 130.229C302.595 130.673 303.044 130.942 303.504 130.868C304.77 130.666 305.68 130.388 305.744 129.685C305.821 128.84 302.924 121.261 301.922 120.742C301.36 120.451 300.528 120.79 299.907 121.144C299.461 121.398 299.283 121.956 299.53 122.407Z" fill="#131313"/>
<path d="M318.577 112.912L319.725 115.136C320.659 116.946 320.275 119.157 318.785 120.547L316.494 122.685L307.246 114.221L312.111 111.152C314.366 109.729 317.355 110.542 318.577 112.912Z" fill="#DABAB9"/>
<path opacity="0.2" d="M217.037 380.208L216.489 392.986H206.672L207.22 380.208H217.037Z" fill="#131313"/>
<path opacity="0.2" d="M145.281 359.175L154.779 361.656L148.952 373.139L139.855 369.866L145.281 359.175Z" fill="#131313"/>
<path d="M226.334 32.2238C224.584 41.8057 223.073 47.3234 226.644 53.3448C232.016 62.401 244.733 60.9551 249.309 52.089C253.43 44.1091 255.599 29.7812 247.287 23.7455C239.1 17.7983 228.084 22.6419 226.334 32.2238Z" fill="#DABAB9"/>
<path d="M242.751 41.6092C247.639 43.5001 250.563 36.4845 249.302 33.9533C250.917 32.976 257.359 31.4807 256.61 26.5343C255.862 21.5878 250.99 20.1615 247.428 13.6482C246.22 14.2807 246.546 18.2524 246.546 18.2524C246.546 18.2524 243.612 13.0769 236.022 13.1342C228.431 13.1915 225.557 10.0864 225.557 10.0864C225.557 10.0864 226.13 15.0329 228.947 16.2405C224.692 17.4482 224.692 24.119 218.652 24.8672C220.033 27.4556 223.398 27.3971 223.398 27.3971C223.398 27.3971 219.917 30.4123 220.607 34.1954C221.297 37.9784 225.323 47.0658 220.492 50.2281C230.961 54.0241 244.821 49.8064 242.751 41.6092Z" fill="#131313"/>
<path d="M240.48 40.0502C239.877 42.5293 240.304 45.1671 241.203 47.0827C242.555 49.9639 245.12 49.2169 246.327 46.5843C247.412 44.2145 248.016 39.8589 245.897 37.8483C243.81 35.8676 241.169 37.2158 240.48 40.0502Z" fill="#DABAB9"/>
<path d="M215.456 155.065C215.456 155.065 202.123 228.295 196.009 256.393C189.314 287.162 155.242 369.485 155.242 369.485L138.145 363.971C138.145 363.971 159.535 285.573 169.182 254.669C171.196 221.684 175.297 169.5 182.169 148.795L215.456 155.065Z" fill="#A3A8A3"/>
<path opacity="0.5" d="M215.456 155.065C215.456 155.065 202.123 228.295 196.009 256.393C189.314 287.162 155.242 369.485 155.242 369.485L138.145 363.971C138.145 363.971 159.535 285.573 169.182 254.669C171.196 221.684 175.297 169.5 182.169 148.795L215.456 155.065Z" fill="#131313"/>
<path d="M158.876 365.866C158.949 365.889 154.954 371.84 154.954 371.84L135.746 365.514L138.025 359.779L158.876 365.866Z" fill="#A3A8A3"/>
<path opacity="0.3" d="M209.402 180.668C196.912 182.672 197.82 219.756 199.289 240.463C202.923 222.361 207.411 198.544 210.724 180.668C210.096 180.642 209.615 180.629 209.402 180.668Z" fill="#131313"/>
<path d="M233.756 158.511C233.756 158.511 236.533 226.672 235.466 256.6C234.356 287.729 220.184 389.654 220.184 389.654H203.559C203.559 389.654 203.201 291.678 207.035 259.141C206.228 225.812 199.848 152.125 199.848 152.125L233.756 158.511Z" fill="#A3A8A3"/>
<path opacity="0.5" d="M233.756 158.511C233.756 158.511 236.533 226.672 235.466 256.6C234.356 287.729 220.184 389.654 220.184 389.654H203.559C203.559 389.654 203.201 291.678 207.035 259.141C206.228 225.812 199.848 152.125 199.848 152.125L233.756 158.511Z" fill="#131313"/>
<path d="M223.38 383.032C223.457 383.032 222.442 389.934 222.442 389.934H202.218L201.672 383.775L223.38 383.032Z" fill="#A3A8A3"/>
<path d="M182.169 146.92C180.468 146.842 180.351 150.928 180.908 152.124C181.465 153.32 188.923 154.05 208.813 158.51C228.703 162.968 233.619 163.21 234.232 162.932C234.844 162.653 236.125 157.144 234.9 156.976C233.675 156.809 213.253 153.524 204.595 151.52C195.936 149.518 184.596 147.032 182.169 146.92Z" fill="#131313"/>
</g>
</svg>
