<svg width="60" height="60" viewBox="0 0 60 60" fill="none" xmlns="http://www.w3.org/2000/svg">
<path d="M22.6073 47.5074H37.3986C36.802 51.0528 33.7179 53.7538 30.0029 53.7538C26.288 53.7538 23.2039 51.0528 22.6073 47.5074ZM30.0029 5.00977C40.3583 5.00977 48.7529 13.4044 48.7529 23.7598V33.756L52.2988 41.6563C52.436 41.9621 52.507 42.2935 52.507 42.6288C52.507 43.9404 51.4437 45.0038 50.132 45.0038H9.8834C9.54894 45.0038 9.21825 44.9331 8.91298 44.7965C7.7158 44.2605 7.17976 42.8555 7.7157 41.6583L11.2529 33.757L11.2532 23.7275L11.2643 23.1027C11.6119 13.0259 19.8926 5.00977 30.0029 5.00977Z" />
</svg>
