<svg width="8" height="13" viewBox="0 0 8 13" fill="none" xmlns="http://www.w3.org/2000/svg">
<path fill-rule="evenodd" clip-rule="evenodd" d="M1.55887 1.09394L1.0242 1.63296C0.848428 1.81984 0.760498 2.03795 0.760498 2.28704C0.760498 2.54115 0.848428 2.75679 1.0242 2.93414L4.48863 6.42783L1.02429 9.92152C0.848515 10.0989 0.760586 10.3145 0.760586 10.5685C0.760586 10.8177 0.848515 11.0358 1.02429 11.2227L1.55895 11.7547C1.73945 11.9368 1.95573 12.0278 2.20762 12.0278C2.46424 12.0278 2.67807 11.9367 2.84912 11.7547L7.48962 7.07485C7.67021 6.90226 7.7605 6.68671 7.7605 6.42783C7.7605 6.17381 7.67021 5.95578 7.48962 5.77376L2.84912 1.09394C2.67326 0.916595 2.45942 0.827832 2.20762 0.827832C1.96046 0.827832 1.74426 0.916595 1.55887 1.09394Z" fill="white"/>
</svg>
