<svg width="12" height="8" viewBox="0 0 12 8" fill="none" xmlns="http://www.w3.org/2000/svg">
<path fill-rule="evenodd" clip-rule="evenodd" d="M0.930859 1.37332L1.46988 0.838654C1.65675 0.662881 1.87487 0.574952 2.12395 0.574952C2.37806 0.574952 2.59371 0.662881 2.77106 0.838653L6.26475 4.30309L9.75844 0.838741C9.93579 0.662969 10.1514 0.575039 10.4055 0.575039C10.6546 0.575039 10.8727 0.662969 11.0596 0.838741L11.5916 1.37341C11.7737 1.5539 11.8647 1.77018 11.8647 2.02207C11.8647 2.27869 11.7736 2.49252 11.5916 2.66357L6.91176 7.30407C6.73918 7.48466 6.52362 7.57495 6.26475 7.57495C6.01072 7.57495 5.7927 7.48466 5.61067 7.30408L0.930859 2.66357C0.75351 2.48771 0.664746 2.27388 0.664746 2.02208C0.664746 1.77491 0.75351 1.55872 0.930859 1.37332Z" fill="#8B9695"/>
</svg>
