<svg width="12" height="8" viewBox="0 0 12 8" fill="none" xmlns="http://www.w3.org/2000/svg">
<path fill-rule="evenodd" clip-rule="evenodd" d="M0.905956 1.04495L1.44497 0.510284C1.63185 0.334512 1.84997 0.246582 2.09905 0.246582C2.35316 0.246582 2.5688 0.334512 2.74615 0.510284L6.23984 3.97472L9.73354 0.510372C9.91088 0.334599 10.1265 0.24667 10.3806 0.24667C10.6297 0.24667 10.8478 0.334599 11.0347 0.510371L11.5667 1.04504C11.7488 1.22553 11.8398 1.44182 11.8398 1.69371C11.8398 1.95032 11.7487 2.16415 11.5667 2.3352L6.88686 6.97571C6.71428 7.15629 6.49872 7.24658 6.23984 7.24658C5.98582 7.24658 5.76779 7.15629 5.58577 6.97571L0.905956 2.3352C0.728607 2.15934 0.639844 1.94551 0.639844 1.69371C0.639844 1.44654 0.728607 1.23035 0.905956 1.04495Z" fill="#EAE7D6"/>
</svg>
