<svg width="19" height="19" viewBox="0 0 19 19" fill="none" xmlns="http://www.w3.org/2000/svg">
<path d="M9.62701 0.760742C4.66415 0.760742 0.627014 4.80171 0.627014 9.76074C0.627014 14.7231 4.67445 18.7607 9.62701 18.7607C14.5877 18.7607 18.627 14.7163 18.627 9.76074C18.627 4.82041 14.6047 0.760742 9.62701 0.760742ZM3.25146 10.7307L1.99167 11.458C1.87007 10.9108 1.80095 10.3441 1.80095 9.76074C1.80095 9.17743 1.87007 8.61071 1.99167 8.06347L3.25146 8.79078C3.20333 9.10807 3.1705 9.43024 3.1705 9.76074C3.1705 10.0912 3.20333 10.4135 3.25146 10.7307ZM7.27917 17.2259C6.1746 16.8777 5.18052 16.2852 4.34679 15.5202L5.59814 14.7978C6.10225 15.2018 6.66837 15.5292 7.27917 15.7689V17.2259ZM7.27917 3.75264C6.66833 3.99223 6.10221 4.31975 5.59814 4.72377L4.34679 4.00127C5.18056 3.23623 6.1746 2.64378 7.27917 2.29556V3.75264ZM10.8009 9.17377C11.1252 9.17377 11.3879 9.4365 11.3879 9.76074V12.1086C11.3879 12.4328 11.1252 12.6956 10.8009 12.6956H10.2139V13.2825C10.2139 13.6068 9.95123 13.8695 9.62698 13.8695C9.30273 13.8695 9.04001 13.6068 9.04001 13.2825V12.6956H8.45304C8.1288 12.6956 7.86607 12.4328 7.86607 12.1086C7.86607 11.7843 8.1288 11.5216 8.45304 11.5216H10.2139V10.3477H8.45304C8.1288 10.3477 7.86607 10.085 7.86607 9.76074V7.4129C7.86607 7.08866 8.1288 6.82593 8.45304 6.82593H9.04001V6.23896C9.04001 5.91472 9.30273 5.652 9.62698 5.652C9.95123 5.652 10.2139 5.91472 10.2139 6.23896V6.82593H10.8009C11.1252 6.82593 11.3879 7.08866 11.3879 7.4129C11.3879 7.73715 11.1252 7.99987 10.8009 7.99987H9.04005V9.17377H10.8009ZM11.9749 17.2259V15.7688C12.5857 15.5293 13.1518 15.2017 13.6559 14.7977L14.9072 15.5202C14.0735 16.2852 13.0794 16.8777 11.9749 17.2259ZM13.6559 4.72377C13.1518 4.31979 12.5857 3.99227 11.9749 3.75268V2.29559C13.0794 2.64378 14.0735 3.23623 14.9072 4.00123L13.6559 4.72377ZM16.0026 10.7307C16.0507 10.4134 16.0835 10.0912 16.0835 9.76074C16.0835 9.43024 16.0507 9.10803 16.0026 8.79078L17.2624 8.06347C17.384 8.61071 17.4531 9.17743 17.4531 9.76074C17.4531 10.3441 17.384 10.9108 17.2624 11.458L16.0026 10.7307Z" />
</svg>
