<svg width="19" height="19" viewBox="0 0 19 19" fill="none" xmlns="http://www.w3.org/2000/svg">
<path d="M2 11.4172H8.9375V18.5422H3.3125C2.5925 18.5422 2 17.9497 2 17.2297V11.4172Z"/>
<path d="M17 11.4172V17.2297C17 17.9497 16.4075 18.5422 15.6875 18.5422H10.0625V11.4172H17Z" />
<path d="M0.5 7.10474V8.97974C0.5 9.69974 1.0925 10.2922 1.8125 10.2922H2H8.9375V9.16724V5.79224H1.8125C1.0925 5.79224 0.5 6.38474 0.5 7.10474Z"/>
<path d="M17.1875 5.79224H10.0625V9.16724V10.2922H17H17.1875C17.9075 10.2922 18.5 9.69974 18.5 8.97974V7.10474C18.5 6.38474 17.9075 5.79224 17.1875 5.79224Z"/>
<path d="M9.49998 6.57529C9.33648 6.57529 9.18048 6.50405 9.07473 6.38029C8.96748 6.25655 8.92023 6.0923 8.94348 5.93029C9.22098 4.05529 10.6857 0.508545 14.2467 0.508545C16.2792 0.509295 17 1.6073 17 2.5478C17 4.21955 14.6727 6.57529 9.49998 6.57529ZM14.2467 1.63429C11.5602 1.63429 10.5402 4.18804 10.202 5.43379C12.3215 5.33479 13.658 4.79854 14.4275 4.34179C15.4947 3.70805 15.875 2.99929 15.875 2.54704C15.875 1.87355 15.0342 1.63429 14.2467 1.63429Z"/>
<path d="M9.50073 6.57528C4.32798 6.57528 2.00073 4.21953 2.00073 2.54778C2.00073 1.60728 2.72223 0.509277 4.75473 0.509277C8.31498 0.509277 9.77973 4.05603 10.0572 5.93103C10.0805 6.09303 10.0332 6.25728 9.92598 6.38103C9.82023 6.50403 9.66423 6.57528 9.50073 6.57528ZM4.75473 1.63428C3.96723 1.63428 3.12573 1.87428 3.12573 2.54778C3.12573 3.50553 4.80048 5.25078 8.79798 5.43453C8.46048 4.18803 7.44048 1.63428 4.75473 1.63428Z"/>
</svg>
