<svg width="290" height="288" viewBox="0 0 290 288" fill="none" xmlns="http://www.w3.org/2000/svg">
<g clip-path="url(#clip0_92_1111)">
<path d="M282.146 102.328H278.886C278.293 102.328 277.552 102.476 276.96 102.624C276.811 102.624 276.811 102.624 276.663 102.624C276.515 102.624 276.515 102.624 276.367 102.624C276.219 102.624 276.219 102.624 276.071 102.624C275.922 102.624 275.922 102.624 275.774 102.624C275.626 102.624 275.626 102.624 275.478 102.624C275.33 102.624 275.33 102.624 275.181 102.624C275.033 102.624 275.033 102.624 274.885 102.624C274.737 102.624 274.737 102.624 274.589 102.624C274.44 102.624 274.44 102.624 274.292 102.624C274.144 102.624 274.144 102.624 273.996 102.624C273.848 102.624 273.848 102.624 273.7 102.624C273.551 102.624 273.551 102.624 273.403 102.624C273.255 102.624 273.255 102.624 273.107 102.624C272.959 102.624 272.959 102.624 272.81 102.624C272.662 102.624 272.662 102.624 272.514 102.624C272.366 102.624 272.366 102.624 272.218 102.624C272.069 102.624 272.069 102.624 271.921 102.624C271.773 102.624 271.773 102.624 271.625 102.624C271.477 102.624 271.477 102.624 271.329 102.624C271.18 102.624 271.18 102.624 271.032 102.624C270.884 102.624 270.884 102.624 270.736 102.624C270.588 102.624 270.588 102.624 270.439 102.624C270.291 102.624 270.291 102.624 270.143 102.624C269.995 102.624 269.995 102.624 269.847 102.624C269.699 102.624 269.698 102.624 269.55 102.624C269.402 102.624 269.402 102.624 269.254 102.624C269.106 102.624 269.106 102.624 268.958 102.624C268.809 102.624 268.809 102.624 268.661 102.624C268.513 102.624 268.513 102.624 268.365 102.624C268.217 102.624 268.217 102.624 268.068 102.624C267.92 102.624 267.92 102.624 267.772 102.624C267.624 102.624 267.624 102.624 267.476 102.624C267.328 102.624 267.328 102.624 267.179 102.624C267.031 102.624 267.031 102.624 266.883 102.624C266.735 102.624 266.735 102.624 266.587 102.624C266.438 102.624 266.438 102.624 266.29 102.624C266.142 102.624 266.142 102.624 265.994 102.624C265.846 102.624 265.846 102.624 265.697 102.624C265.549 102.624 265.549 102.624 265.401 102.624C265.253 102.624 265.253 102.624 265.105 102.624C264.364 102.772 263.623 103.069 262.882 103.514C251.027 45.6766 197.384 0 133.219 0C59.719 0 0 59.7652 0 133.322C0 206.88 59.719 266.645 133.219 266.645C139.591 266.645 144.778 261.454 144.778 255.077V254.929V254.781V254.632V254.484V254.336V254.187V254.039V253.891V253.743V253.594V253.446V253.298V253.149V253.001V252.853V252.704V252.556V252.408V252.26V252.111V251.963V251.815V251.666V251.518V251.37V251.221V251.073V250.925V250.777V250.628V250.48V250.332V250.183V250.035V249.887V249.738V249.59V249.442V249.294V249.145V248.997V248.849V248.7V248.552V248.404V248.255V248.107V247.959V247.811V247.662V247.514V247.366V247.217V247.069V246.921V246.772V246.624V246.476V246.328V246.179V246.031V245.883V245.734V245.586V245.438V245.289V245.141V244.993V244.845V244.696V244.548V244.4V244.251V244.103V243.955V243.806V243.658V243.51V243.362V243.213V243.065V242.917C144.778 237.133 140.036 232.387 134.257 232.387C78.6868 232.387 33.49 187.156 33.49 131.543C33.49 75.93 78.6868 30.6983 134.257 30.6983C179.009 30.6983 217.092 60.0618 230.133 100.696C229.836 100.696 229.688 100.696 229.392 100.696H226.132C225.095 100.696 224.057 100.845 223.168 101.289H223.02H222.872H222.724H222.575H222.427H222.279H222.131H221.983H221.834H221.686H221.538H221.39H221.242H221.093H220.945H220.797H220.649H220.501H220.353H220.204H220.056H219.908H219.76H219.612H219.463H219.315H219.167H219.019H218.871H218.723H218.574H218.426H218.278H218.13H217.982H217.833H217.685H217.537H217.389H217.241C213.684 102.772 211.906 107.073 213.981 110.632L239.617 155.123C240.506 156.754 242.136 157.792 243.766 158.237C243.914 158.237 243.914 158.237 244.062 158.237C244.211 158.237 244.211 158.237 244.359 158.237C244.507 158.237 244.507 158.237 244.655 158.237C244.803 158.237 244.803 158.237 244.951 158.237C245.1 158.237 245.1 158.237 245.248 158.237C245.396 158.237 245.396 158.237 245.544 158.237C245.692 158.237 245.692 158.237 245.841 158.237C245.989 158.237 245.989 158.237 246.137 158.237C246.285 158.237 246.285 158.237 246.433 158.237C246.581 158.237 246.581 158.237 246.73 158.237C246.878 158.237 246.878 158.237 247.026 158.237C247.174 158.237 247.174 158.237 247.322 158.237C247.471 158.237 247.471 158.237 247.619 158.237C247.767 158.237 247.767 158.237 247.915 158.237C248.063 158.237 248.063 158.237 248.212 158.237C248.36 158.237 248.36 158.237 248.508 158.237C248.656 158.237 248.656 158.237 248.804 158.237C248.952 158.237 248.952 158.237 249.101 158.237C249.249 158.237 249.249 158.237 249.397 158.237C249.545 158.237 249.545 158.237 249.693 158.237C249.842 158.237 249.842 158.237 249.99 158.237C250.138 158.237 250.138 158.237 250.286 158.237C250.434 158.237 250.434 158.237 250.583 158.237C250.731 158.237 250.731 158.237 250.879 158.237C251.027 158.237 251.027 158.237 251.175 158.237C251.323 158.237 251.323 158.237 251.472 158.237C251.62 158.237 251.62 158.237 251.768 158.237C251.916 158.237 251.916 158.237 252.064 158.237C252.213 158.237 252.213 158.237 252.361 158.237C252.509 158.237 252.509 158.237 252.657 158.237C252.805 158.237 252.805 158.237 252.953 158.237C253.102 158.237 253.102 158.237 253.25 158.237C253.398 158.237 253.398 158.237 253.546 158.237C253.694 158.237 253.694 158.237 253.843 158.237C253.991 158.237 253.991 158.237 254.139 158.237C254.287 158.237 254.287 158.237 254.435 158.237C254.584 158.237 254.584 158.237 254.732 158.237C254.88 158.237 254.88 158.237 255.028 158.237C255.176 158.237 255.176 158.237 255.324 158.237C255.473 158.237 255.473 158.237 255.621 158.237C258.585 159.127 262.141 157.94 263.771 154.974L291.778 106.332C291.185 108.408 287.629 102.328 282.146 102.328Z" fill="#3C4A53"/>
<path d="M282.146 102.328H278.886C276.367 102.328 273.996 103.662 272.662 105.887L265.698 118.047C257.992 51.757 201.533 0 133.219 0C59.719 0 0 59.7652 0 133.322C0 206.88 59.719 266.645 133.219 266.645C139.591 266.645 144.778 261.454 144.778 255.077C144.778 248.7 139.591 243.51 133.219 243.51C72.463 243.51 22.9688 193.977 22.9688 133.174C22.9688 72.3708 72.463 22.8383 133.219 22.8383C188.789 22.8383 234.727 64.0659 242.284 117.602L235.468 105.887C234.134 103.662 231.763 102.328 229.244 102.328H225.984C220.501 102.328 216.944 108.408 219.76 113.153L247.767 161.796C250.583 166.542 257.399 166.542 260.215 161.796L288.222 113.153C291.185 108.408 287.629 102.328 282.146 102.328Z" fill="#9BBD4F"/>
<path d="M190.864 288C210.997 288 227.317 271.666 227.317 251.518C227.317 231.37 210.997 215.036 190.864 215.036C170.731 215.036 154.41 231.37 154.41 251.518C154.41 271.666 170.731 288 190.864 288Z" fill="#F0C929"/>
<path d="M190.864 280.288C206.741 280.288 219.612 267.407 219.612 251.518C219.612 235.629 206.741 222.748 190.864 222.748C174.987 222.748 162.116 235.629 162.116 251.518C162.116 267.407 174.987 280.288 190.864 280.288Z" fill="#C94B31"/>
<path d="M190.864 277.619C205.268 277.619 216.944 265.933 216.944 251.518C216.944 237.103 205.268 225.417 190.864 225.417C176.46 225.417 164.783 237.103 164.783 251.518C164.783 265.933 176.46 277.619 190.864 277.619Z" fill="#D6813A"/>
<path d="M187.752 232.684V229.866H193.827V232.684C199.014 233.574 201.681 236.836 201.681 242.027V243.213H194.717V241.73C194.717 238.912 193.383 237.874 191.012 237.874C188.641 237.874 187.307 238.912 187.307 241.73C187.307 249.59 201.681 250.035 201.681 261.009C201.681 266.2 198.866 269.611 193.679 270.501V273.318H187.604V270.501C182.269 269.611 179.602 266.2 179.602 261.009V258.34H186.566V261.306C186.566 264.124 188.048 265.013 190.419 265.013C192.79 265.013 194.272 263.975 194.272 261.306C194.272 253.446 179.898 253.001 179.898 242.027C180.046 236.985 182.713 233.722 187.752 232.684Z" fill="#F0C929"/>
<path d="M216.796 227.79C215.611 226.455 214.129 225.269 212.647 224.231C211.017 223.044 209.683 222.451 208.053 221.71C206.571 221.116 204.497 220.227 203.015 221.265C202.719 221.413 202.422 222.006 202.57 222.303C203.163 223.786 204.793 224.527 206.127 225.417C207.461 226.307 208.794 227.197 209.98 228.087C209.832 227.938 210.276 228.383 210.276 228.383C210.424 228.531 210.572 228.68 210.721 228.828C211.017 229.125 211.313 229.273 211.61 229.57C212.203 230.163 212.795 230.608 213.24 231.201C213.833 231.794 214.277 232.387 214.722 232.98C214.87 233.129 214.87 233.129 214.722 232.98C214.87 233.129 215.018 233.277 215.166 233.425C215.314 233.574 215.463 233.722 215.611 233.87C216.204 234.315 216.796 234.76 217.685 234.612C218.575 234.612 219.315 234.019 219.612 233.129C220.205 231.201 217.982 229.125 216.796 227.79Z" fill="#FBE559"/>
<path d="M224.205 239.357C224.057 238.764 223.761 238.319 223.613 237.726C223.316 237.281 223.02 236.836 222.724 236.391C222.427 236.095 221.983 235.798 221.538 235.65C220.649 235.353 219.612 235.798 219.167 236.54C218.574 237.726 219.019 238.764 219.463 239.951C219.315 239.802 219.315 239.506 219.167 239.357C219.315 239.654 219.463 240.099 219.612 240.395C219.908 241.137 220.056 241.73 220.649 242.323C221.242 242.768 221.834 243.065 222.575 242.917C223.168 242.768 223.909 242.472 224.205 241.878C224.354 241.434 224.502 241.285 224.502 240.84C224.502 240.692 224.502 240.544 224.502 240.247C224.354 239.951 224.354 239.654 224.205 239.357Z" fill="#FBE559"/>
<path d="M268.661 196.202C258.585 185.969 246.137 181.075 236.357 182.262L233.689 179.592L226.132 187.007C216.796 196.202 220.649 215.333 234.875 229.57C248.953 243.955 268.069 248.107 277.256 238.912L284.814 231.497L282.146 228.828C283.48 219.04 278.738 206.435 268.661 196.202Z" fill="#D6813A"/>
<path d="M284.964 231.463C294.286 222.26 290.38 203.171 276.241 188.827C262.102 174.484 243.083 170.317 233.761 179.52C224.439 188.724 228.344 207.812 242.483 222.156C256.622 236.5 275.642 240.667 284.964 231.463Z" fill="#F0C929"/>
<path d="M279.552 225.973C286.893 218.726 283.805 203.68 272.654 192.369C261.504 181.057 246.513 177.762 239.172 185.01C231.831 192.258 234.919 207.303 246.07 218.615C257.22 229.926 272.211 233.221 279.552 225.973Z" fill="#C94B31"/>
<path d="M277.678 224.071C284.378 217.456 281.609 203.774 271.494 193.512C261.378 183.25 247.745 180.293 241.045 186.908C234.345 193.523 237.114 207.205 247.23 217.467C257.346 227.729 270.978 230.686 277.678 224.071Z" fill="#D6813A"/>
<path d="M244.655 193.384L242.58 191.308L245.396 188.49L247.47 190.566C250.582 188.787 253.99 189.973 257.695 193.681L258.584 194.571L255.324 197.685L254.139 196.498C252.212 194.571 250.879 194.422 249.841 195.46C248.804 196.498 248.804 197.833 250.73 199.909C256.213 205.545 263.178 199.168 270.884 207.028C274.588 210.735 275.626 214.443 273.847 217.409L275.774 219.337L272.958 222.154L271.032 220.227C267.92 222.006 264.363 220.82 260.659 217.112L258.881 215.184L262.141 211.922L264.215 214.146C266.142 216.074 267.475 216.074 268.661 215.036C269.698 213.998 269.698 212.515 267.772 210.587C262.289 204.952 255.324 211.329 247.618 203.469C244.062 200.058 242.876 196.498 244.655 193.384Z" fill="#F0C929"/>
<path d="M254.583 176.626C253.101 176.181 251.619 176.033 250.138 175.885C248.508 175.736 247.47 175.885 246.285 176.181C245.247 176.478 243.617 176.774 243.617 178.109C243.617 178.406 243.766 178.851 244.21 179.147C245.544 180.037 246.878 179.74 248.063 179.74C249.249 179.74 250.582 179.74 251.768 179.889C251.619 179.889 252.064 179.889 252.064 179.889C252.212 179.889 252.36 179.889 252.509 179.889C252.805 179.889 253.101 180.037 253.398 180.037C253.99 180.185 254.731 180.334 255.324 180.482C255.917 180.63 256.658 180.779 257.251 181.075C257.399 181.075 257.399 181.075 257.251 181.075C257.399 181.075 257.547 181.223 257.843 181.223C257.991 181.223 258.14 181.372 258.288 181.372C258.881 181.52 259.473 181.372 259.77 181.075C260.214 180.63 260.066 179.889 259.622 179.147C258.584 177.516 256.065 177.071 254.583 176.626Z" fill="#FBE559"/>
<path d="M266.142 181.52C265.697 181.224 265.252 180.927 264.808 180.779C264.363 180.482 263.919 180.334 263.474 180.334C263.03 180.185 262.733 180.185 262.437 180.334C261.844 180.482 261.696 181.224 261.992 181.965C262.437 183.003 263.474 183.596 264.512 184.19C264.363 184.041 264.215 184.041 264.067 183.893C264.363 184.041 264.66 184.338 264.956 184.486C265.549 184.931 266.142 185.228 266.734 185.376C267.327 185.524 267.772 185.376 268.068 184.931C268.364 184.634 268.364 184.041 268.068 183.448C267.92 183.151 267.772 182.855 267.475 182.558C267.327 182.41 267.179 182.262 267.031 182.113C266.734 181.817 266.438 181.668 266.142 181.52Z" fill="#FBE559"/>
<path d="M227.021 191.456C225.984 192.494 224.946 193.532 223.761 194.571C223.316 195.015 222.872 195.46 222.279 196.054C222.131 196.202 222.131 196.498 222.279 196.647C222.427 196.795 222.723 196.795 222.872 196.647C223.316 196.202 223.909 195.757 224.353 195.164C225.391 194.126 226.428 193.088 227.614 192.049C228.058 191.605 227.465 191.011 227.021 191.456Z" fill="#F0C929"/>
<path d="M227.021 196.647C225.984 197.685 224.946 198.723 223.761 199.761C223.316 200.206 222.872 200.651 222.279 201.244C222.131 201.392 222.131 201.689 222.279 201.837C222.427 201.986 222.723 201.986 222.872 201.837C223.316 201.392 223.909 200.947 224.353 200.354C225.391 199.316 226.428 198.278 227.614 197.24C228.058 196.795 227.465 196.202 227.021 196.647Z" fill="#F0C929"/>
<path d="M231.17 210.29C230.133 211.329 229.095 212.367 227.91 213.405C227.465 213.85 227.021 214.295 226.428 214.888C226.28 215.036 226.28 215.333 226.428 215.481C226.576 215.629 226.873 215.629 227.021 215.481C227.465 215.036 228.058 214.591 228.503 213.998C229.54 212.96 230.577 211.922 231.763 210.884C232.207 210.587 231.615 209.846 231.17 210.29Z" fill="#F0C929"/>
<path d="M233.541 213.998C232.503 215.036 231.466 216.074 230.281 217.112C229.836 217.557 229.392 218.002 228.799 218.595C228.651 218.744 228.651 219.04 228.799 219.188C228.947 219.337 229.243 219.337 229.392 219.188C229.836 218.744 230.429 218.299 230.873 217.705C231.911 216.667 232.948 215.629 234.133 214.591C234.43 214.146 233.837 213.553 233.541 213.998Z" fill="#F0C929"/>
<path d="M253.25 232.832C252.213 233.87 251.175 234.908 249.99 235.946C249.545 236.391 249.101 236.836 248.508 237.429C248.36 237.578 248.36 237.874 248.508 238.023C248.656 238.171 248.952 238.171 249.101 238.023C249.545 237.578 250.138 237.133 250.582 236.54C251.62 235.502 252.657 234.463 253.843 233.425C254.287 232.98 253.546 232.387 253.25 232.832Z" fill="#F0C929"/>
<path d="M236.801 218.447C235.764 219.485 234.726 220.523 233.541 221.561C233.096 222.006 232.652 222.451 232.059 223.044C231.911 223.193 231.911 223.489 232.059 223.637C232.207 223.786 232.504 223.786 232.652 223.637C233.096 223.193 233.689 222.748 234.134 222.154C235.171 221.116 236.208 220.078 237.394 219.04C237.838 218.595 237.097 218.002 236.801 218.447Z" fill="#F0C929"/>
<path d="M248.359 229.57C247.322 230.608 246.285 231.646 245.099 232.684C244.655 233.129 244.21 233.574 243.617 234.167C243.469 234.315 243.469 234.612 243.617 234.76C243.766 234.908 244.062 234.908 244.21 234.76C244.655 234.315 245.247 233.87 245.692 233.277C246.729 232.239 247.767 231.201 248.952 230.163C249.397 229.866 248.656 229.273 248.359 229.57Z" fill="#F0C929"/>
<path d="M258.732 235.353C257.695 236.391 256.658 237.429 255.472 238.468C255.028 238.912 254.583 239.357 253.99 239.951C253.842 240.099 253.842 240.395 253.99 240.544C254.139 240.692 254.435 240.692 254.583 240.544C255.028 240.099 255.62 239.654 256.065 239.061C257.102 238.023 258.14 236.985 259.325 235.946C259.621 235.65 259.029 234.908 258.732 235.353Z" fill="#F0C929"/>
<path d="M271.032 237.429C269.995 238.468 268.958 239.506 267.772 240.544C267.328 240.989 266.883 241.434 266.29 242.027C266.142 242.175 266.142 242.472 266.29 242.62C266.438 242.768 266.735 242.768 266.883 242.62C267.328 242.175 267.92 241.73 268.365 241.137C269.402 240.099 270.439 239.061 271.625 238.023C272.069 237.726 271.477 237.133 271.032 237.429Z" fill="#F0C929"/>
</g>
<defs>
<clipPath id="clip0_92_1111">
<rect width="290" height="288" fill="white"/>
</clipPath>
</defs>
</svg>
