<svg width="16" height="16" viewBox="0 0 16 16" fill="none" xmlns="http://www.w3.org/2000/svg">
<path fill-rule="evenodd" clip-rule="evenodd" d="M7.74609 15.1572C11.8882 15.1572 15.2461 11.7994 15.2461 7.65723C15.2461 3.51509 11.8882 0.157227 7.74609 0.157227C3.60396 0.157227 0.246094 3.51509 0.246094 7.65723C0.246094 11.7994 3.60396 15.1572 7.74609 15.1572ZM4.12116 7.87656L6.01506 9.77047L11.3721 4.41343C11.4216 4.3633 11.4806 4.3235 11.5456 4.29633C11.6107 4.26917 11.6804 4.25518 11.7509 4.25518C11.8214 4.25518 11.8911 4.26917 11.9561 4.29633C12.0212 4.3235 12.0801 4.3633 12.1297 4.41343C12.1798 4.46295 12.2196 4.52193 12.2468 4.58695C12.2739 4.65197 12.2879 4.72174 12.2879 4.79221C12.2879 4.86267 12.2739 4.93244 12.2468 4.99746C12.2196 5.06248 12.1798 5.12146 12.1297 5.17099L6.39384 10.9014C6.18281 11.1124 5.84191 11.1124 5.63087 10.9014L3.3636 8.63413C3.31347 8.5846 3.27367 8.52562 3.2465 8.4606C3.21934 8.39558 3.20535 8.32581 3.20535 8.25535C3.20535 8.18488 3.21934 8.11511 3.2465 8.05009C3.27367 7.98507 3.31347 7.92609 3.3636 7.87656C3.41312 7.82644 3.4721 7.78664 3.53712 7.75947C3.60214 7.73231 3.67191 7.71832 3.74238 7.71832C3.81284 7.71832 3.88261 7.73231 3.94763 7.75947C4.01265 7.78664 4.07163 7.82644 4.12116 7.87656Z" fill="#268A00"/>
</svg>
