<svg width="16" height="16" viewBox="0 0 16 16" fill="none" xmlns="http://www.w3.org/2000/svg">
<path opacity="0.5" fill-rule="evenodd" clip-rule="evenodd" d="M7.74609 15.657C11.8882 15.657 15.2461 12.2991 15.2461 8.15698C15.2461 4.01485 11.8882 0.656982 7.74609 0.656982C3.60396 0.656982 0.246094 4.01485 0.246094 8.15698C0.246094 12.2991 3.60396 15.657 7.74609 15.657ZM4.12116 8.37632L6.01506 10.2702L11.3721 4.91318C11.4216 4.86305 11.4806 4.82325 11.5456 4.79609C11.6107 4.76893 11.6804 4.75494 11.7509 4.75494C11.8214 4.75494 11.8911 4.76893 11.9561 4.79609C12.0212 4.82325 12.0801 4.86305 12.1297 4.91318C12.1798 4.96271 12.2196 5.02169 12.2468 5.08671C12.2739 5.15173 12.2879 5.2215 12.2879 5.29196C12.2879 5.36243 12.2739 5.4322 12.2468 5.49722C12.2196 5.56224 12.1798 5.62122 12.1297 5.67074L6.39384 11.4012C6.18281 11.6122 5.84191 11.6122 5.63087 11.4012L3.3636 9.13388C3.31347 9.08436 3.27367 9.02538 3.2465 8.96035C3.21934 8.89533 3.20535 8.82557 3.20535 8.7551C3.20535 8.68464 3.21934 8.61487 3.2465 8.54985C3.27367 8.48483 3.31347 8.42585 3.3636 8.37632C3.41312 8.32619 3.4721 8.28639 3.53712 8.25923C3.60214 8.23206 3.67191 8.21808 3.74238 8.21808C3.81284 8.21808 3.88261 8.23206 3.94763 8.25923C4.01265 8.28639 4.07163 8.32619 4.12116 8.37632Z" fill="#268A00"/>
</svg>
