<svg width="13" height="17" viewBox="0 0 13 17" fill="none" xmlns="http://www.w3.org/2000/svg">
<path fill-rule="evenodd" clip-rule="evenodd" d="M0.67334 3.82694C0.67334 1.97106 3.39759 0.46875 6.75811 0.46875C9.96037 0.46875 12.586 1.83352 12.8251 3.56841C12.8369 3.65373 12.8429 3.73995 12.8429 3.82694C12.8429 5.68282 10.1186 7.18591 6.75811 7.18591C3.39759 7.18591 0.67334 5.68282 0.67334 3.82694ZM6.75811 8.18355C10.1186 8.18355 12.8413 6.68047 12.8429 4.82458V4.84951V6.16334C12.8429 8.01923 10.1186 9.52153 6.75811 9.52153C3.39759 9.52153 0.67334 8.01923 0.67334 6.16334V4.84951V4.82458C0.674885 6.66601 3.35533 8.16011 6.67969 8.18328C6.70579 8.18346 6.73193 8.18355 6.75811 8.18355ZM7.9434 10.4563C10.7365 10.152 12.8429 8.79288 12.8429 7.16099V8.49975C12.8429 10.3556 10.1186 11.8579 6.75811 11.8579C3.39759 11.8579 0.67334 10.3556 0.67334 8.49975V7.16099C0.67334 8.79288 2.77968 10.152 5.57283 10.4563C5.57048 10.4531 5.56813 10.4499 5.56577 10.4467C5.95205 10.4896 6.34924 10.52 6.75811 10.52C7.16698 10.52 7.56417 10.4896 7.95046 10.4467C7.9481 10.4499 7.94574 10.4531 7.9434 10.4563ZM7.34356 12.841C10.4293 12.6785 12.8414 11.2442 12.8429 9.49739V10.8361C12.8429 12.692 10.1186 14.1943 6.75811 14.1943C3.39759 14.1943 0.67334 12.692 0.67334 10.8361V9.49739C0.674806 11.2442 3.08697 12.6785 6.17266 12.841C6.1731 12.8378 6.17355 12.8346 6.17401 12.8314C6.20507 12.8332 6.23631 12.8351 6.26769 12.8369C6.42915 12.8465 6.59445 12.8564 6.75811 12.8564C6.92178 12.8564 7.08708 12.8465 7.24853 12.8369C7.27992 12.8351 7.31116 12.8332 7.34221 12.8314C7.34267 12.8346 7.34312 12.8378 7.34356 12.841ZM7.34356 15.1774C10.4293 15.0149 12.8414 13.5806 12.8429 11.8338V13.1726C12.8429 15.0284 10.1186 16.5307 6.75811 16.5307C3.39759 16.5307 0.67334 15.0284 0.67334 13.1726V11.8338C0.674806 13.5806 3.08697 15.0149 6.17266 15.1774C6.1731 15.1742 6.17355 15.171 6.17401 15.1678C6.20507 15.1696 6.23631 15.1715 6.26769 15.1733C6.42915 15.1829 6.59445 15.1928 6.75811 15.1928C6.92178 15.1928 7.08708 15.1829 7.24853 15.1733C7.27992 15.1715 7.31116 15.1696 7.34221 15.1678C7.34267 15.171 7.34312 15.1742 7.34356 15.1774Z" fill="#F2C94C"/>
</svg>
