<svg width="37" height="27" viewBox="0 0 37 27" fill="none" xmlns="http://www.w3.org/2000/svg">
<path d="M23.1178 12.547L21.824 13.3994L23.1336 14.2273L33.954 21.0677L35.4883 22.0377V20.2225V6.25269V4.39626L33.9381 5.41765L23.1178 12.547Z"  stroke="#F1F3F3" stroke-width="2"/>
<path d="M2.94472 5.41765L1.39453 4.39626V6.25269V20.2225V22.0377L2.92889 21.0677L13.7492 14.2273L15.0588 13.3994L13.7651 12.547L2.94472 5.41765Z"  stroke="#F1F3F3" stroke-width="2"/>
<path d="M1.46907 3.73698L1.36953 4.37271L1.90686 4.72673L17.8947 15.2602L18.4448 15.6227L18.995 15.2602L34.9828 4.72673L35.5201 4.37271L35.4206 3.73698C35.2001 2.32896 34.0193 1.18457 32.4868 1.18457H4.40285C2.87037 1.18457 1.68953 2.32896 1.46907 3.73698Z"  stroke="#F1F3F3" stroke-width="2"/>
<path d="M21.8199 13.4036L22.3654 13.7486L34.9591 21.7124L35.5174 22.0655L35.4117 22.7176C35.1852 24.1152 34.0093 25.2507 32.4828 25.2507H4.39884C2.87238 25.2507 1.69647 24.1152 1.46992 22.7176L1.36422 22.0656L1.92247 21.7125L14.5161 13.7467L15.062 13.4014L15.6012 13.7569L18.437 15.6268C18.4371 15.6269 18.4372 15.627 18.4374 15.627C18.438 15.6274 18.4384 15.6276 18.4386 15.6278C18.439 15.6278 18.4397 15.6279 18.4408 15.6279C18.4429 15.6279 18.4436 15.6276 18.4432 15.6277M21.8199 13.4036L18.4432 15.6277M21.8199 13.4036L21.2809 13.7587M21.8199 13.4036L21.2809 13.7587M18.4432 15.6277C18.4432 15.6277 18.4431 15.6278 18.4431 15.6278C18.4424 15.628 18.4426 15.6281 18.4444 15.627C18.4445 15.6269 18.4446 15.6269 18.4447 15.6268M18.4432 15.6277L18.4424 15.6283L18.9925 16.4634M18.4447 15.6268L18.9925 16.4634M18.4447 15.6268L21.2809 13.7587M18.4447 15.6268L21.2809 13.7587M18.9925 16.4634L21.831 14.5938L34.4246 22.5576C34.2702 23.5105 33.4798 24.2507 32.4828 24.2507H4.39884C3.40186 24.2507 2.61149 23.5105 2.45703 22.5576L15.0507 14.5918L17.8892 16.4634C18.0577 16.5737 18.2482 16.6279 18.4408 16.6279C18.6334 16.6279 18.824 16.5737 18.9925 16.4634Z"  stroke="#F1F3F3" stroke-width="2"/>
</svg>
