<svg width="17" height="19" viewBox="0 0 17 19" fill="none" xmlns="http://www.w3.org/2000/svg">
<path d="M12.0653 16.25V17.6562C12.0653 18.1222 11.6815 18.5 11.2081 18.5H1.49386C1.02047 18.5 0.636719 18.1222 0.636719 17.6562V4.71875C0.636719 4.25275 1.02047 3.875 1.49386 3.875H4.06529V14.2812C4.06529 15.3668 4.96247 16.25 6.06529 16.25H12.0653ZM12.0653 4.15625V0.5H6.06529C5.5919 0.5 5.20815 0.877754 5.20815 1.34375V14.2812C5.20815 14.7472 5.5919 15.125 6.06529 15.125H15.7796C16.253 15.125 16.6367 14.7472 16.6367 14.2812V5H12.9224C12.451 5 12.0653 4.62031 12.0653 4.15625ZM16.3857 3.06539L14.0306 0.747113C13.8699 0.58889 13.6519 0.500001 13.4245 0.5L13.2081 0.5V3.875H16.6367V3.66199C16.6367 3.43822 16.5464 3.22362 16.3857 3.06539Z" fill="#B7C5C1"/>
</svg>
