<svg width="30" height="22" viewBox="0 0 30 22" xmlns="http://www.w3.org/2000/svg">
<path d="M28.8196 7.25328C28.8242 7.33582 28.8182 7.41982 28.7974 7.50326L26.947 14.9051C26.8536 15.278 26.5194 15.5402 26.1352 15.5423L15.0324 15.5983C15.031 15.5983 15.0296 15.5983 15.0281 15.5983H3.92523C3.53899 15.5983 3.20243 15.3352 3.10912 14.9604L1.25865 7.53051C1.23735 7.44483 1.23118 7.35848 1.23656 7.2738C0.52071 7.04827 0 6.3784 0 5.58898C0 4.61496 0.792336 3.82263 1.76636 3.82263C2.74037 3.82263 3.53271 4.61496 3.53271 5.58898C3.53271 6.1375 3.28138 6.62827 2.88785 6.9525L5.20464 9.28678C5.79017 9.87679 6.60269 10.215 7.43394 10.215C8.41682 10.215 9.35394 9.74827 9.94407 8.96625L13.7516 3.92132C13.4317 3.60169 13.2336 3.16005 13.2336 2.67309C13.2336 1.69907 14.026 0.906738 15 0.906738C15.974 0.906738 16.7664 1.69907 16.7664 2.67309C16.7664 3.14547 16.5788 3.57421 16.2757 3.89149C16.2767 3.89283 16.2779 3.89395 16.279 3.89541L20.0588 8.95425C20.6487 9.74379 21.5892 10.2151 22.5749 10.2151C23.4138 10.2151 24.2027 9.88846 24.7958 9.29519L27.1272 6.96382C26.7253 6.63971 26.4673 6.14423 26.4673 5.58898C26.4673 4.61496 27.2596 3.82263 28.2336 3.82263C29.2077 3.82263 30 4.61496 30 5.58898C30 6.35732 29.506 7.01081 28.8196 7.25328ZM26.7664 18.2338C26.7664 17.7693 26.3898 17.3927 25.9253 17.3927H4.16826C3.70374 17.3927 3.32714 17.7693 3.32714 18.2338V20.2525C3.32714 20.7171 3.70374 21.0937 4.16826 21.0937H25.9253C26.3898 21.0937 26.7664 20.7171 26.7664 20.2525V18.2338Z" />
</svg>
