<svg width="30" height="30" viewBox="0 0 30 30" fill="none" xmlns="http://www.w3.org/2000/svg">
<path d="M15.1307 9.14375C12.1074 9.14375 9.64419 11.6068 9.64419 14.63C9.64419 17.6532 12.1074 20.1163 15.1307 20.1163C18.154 20.1163 20.6172 17.6532 20.6172 14.63C20.6172 11.6068 18.154 9.14375 15.1307 9.14375ZM29.2128 13.7442L23.8005 11.0411L25.7151 5.30338C25.9723 4.52616 25.235 3.78894 24.4635 4.05182L18.7255 5.9663L16.0166 0.548625C15.6508 -0.182875 14.6106 -0.182875 14.2449 0.548625L11.5416 5.96058L5.79792 4.04611C5.02066 3.78894 4.28341 4.52616 4.54631 5.29766L6.46087 11.0354L1.04865 13.7442C0.317116 14.1099 0.317116 15.1501 1.04865 15.5158L6.46087 18.2189L4.54631 23.9623C4.28913 24.7396 5.02638 25.4768 5.79792 25.2139L11.5359 23.2994L14.2392 28.7114C14.6049 29.4429 15.6451 29.4429 16.0108 28.7114L18.7141 23.2994L24.4521 25.2139C25.2293 25.4711 25.9666 24.7338 25.7037 23.9623L23.7891 18.2246L29.2013 15.5215C29.9443 15.1501 29.9443 14.1099 29.2128 13.7442ZM20.3029 19.8019C17.451 22.6536 12.8104 22.6536 9.95853 19.8019C7.10668 16.9502 7.10668 12.3098 9.95853 9.45807C12.8104 6.60636 17.451 6.60636 20.3029 9.45807C23.1547 12.3098 23.1547 16.9502 20.3029 19.8019Z" fill="#268A00"/>
</svg>
