<svg width="44" height="43" viewBox="0 0 44 43" fill="none" xmlns="http://www.w3.org/2000/svg">
<path d="M21.9062 13.6655C17.4982 13.6655 13.9067 17.2569 13.9067 21.665C13.9067 26.0731 17.4982 29.6645 21.9062 29.6645C26.3143 29.6645 29.9057 26.0731 29.9057 21.665C29.9057 17.2569 26.3143 13.6655 21.9062 13.6655ZM42.4383 20.3734L34.5471 16.432L37.3386 8.06586C37.7136 6.93259 36.6386 5.85766 35.5137 6.24097L27.1476 9.03246L23.1978 1.13296C22.6645 0.0663579 21.1479 0.0663579 20.6146 1.13296L16.6732 9.02413L8.29874 6.23264C7.16547 5.85766 6.09054 6.93259 6.47385 8.05752L9.26534 16.4237L1.37417 20.3734C0.307569 20.9067 0.307569 22.4233 1.37417 22.9566L9.26534 26.898L6.47385 35.2725C6.09888 36.4057 7.17381 37.4807 8.29874 37.0974L16.6649 34.3059L20.6063 42.1971C21.1396 43.2637 22.6562 43.2637 23.1895 42.1971L27.1309 34.3059L35.497 37.0974C36.6303 37.4723 37.7052 36.3974 37.3219 35.2725L34.5304 26.9063L42.4216 22.9649C43.5049 22.4233 43.5049 20.9067 42.4383 20.3734ZM29.4474 29.2062C25.2893 33.3643 18.5231 33.3643 14.365 29.2062C10.207 25.0481 10.207 18.2819 14.365 14.1238C18.5231 9.96574 25.2893 9.96574 29.4474 14.1238C33.6055 18.2819 33.6055 25.0481 29.4474 29.2062Z" fill="white"/>
</svg>
