<svg width="15" height="16" viewBox="0 0 15 16" fill="none" xmlns="http://www.w3.org/2000/svg">
<path d="M7.50035 5.25755C5.98922 5.25755 4.75803 6.48873 4.75803 7.99987C4.75803 9.511 5.98922 10.7422 7.50035 10.7422C9.01149 10.7422 10.2427 9.511 10.2427 7.99987C10.2427 6.48873 9.01149 5.25755 7.50035 5.25755ZM14.539 7.5571L11.8338 6.20593L12.7907 3.33792C12.9193 2.94943 12.5508 2.58093 12.1652 2.71233L9.29715 3.66929L7.94313 0.961244C7.7603 0.595601 7.24041 0.595601 7.05758 0.961244L5.70642 3.66643L2.83555 2.70947C2.44706 2.58093 2.07856 2.94943 2.20996 3.33507L3.16692 6.20308L0.461732 7.5571C0.0960893 7.73992 0.0960893 8.25982 0.461732 8.44264L3.16692 9.7938L2.20996 12.6647C2.08142 13.0532 2.44991 13.4217 2.83555 13.2903L5.70356 12.3333L7.05473 15.0385C7.23755 15.4041 7.75745 15.4041 7.94027 15.0385L9.29143 12.3333L12.1594 13.2903C12.5479 13.4188 12.9164 13.0503 12.785 12.6647L11.8281 9.79666L14.5333 8.44549C14.9046 8.25982 14.9046 7.73992 14.539 7.5571ZM10.0856 10.5851C8.66013 12.0105 6.34058 12.0105 4.91515 10.5851C3.48971 9.15964 3.48971 6.84009 4.91515 5.41466C6.34058 3.98922 8.66013 3.98922 10.0856 5.41466C11.511 6.84009 11.511 9.15964 10.0856 10.5851Z" fill="#268A00"/>
</svg>
