<svg width="31" height="31" viewBox="0 0 31 31" fill="none" xmlns="http://www.w3.org/2000/svg">
<path d="M27.0357 25.0677C28.5755 23.2165 29.6465 21.0221 30.158 18.67C30.6695 16.3178 30.6065 13.8772 29.9743 11.5545C29.3421 9.23189 28.1593 7.09553 26.5261 5.3262C24.8928 3.55687 22.8571 2.20662 20.5911 1.38966C18.3251 0.572712 15.8955 0.313094 13.5078 0.632775C11.1202 0.952455 8.8447 1.84203 6.87389 3.22624C4.90309 4.61045 3.29494 6.44858 2.18548 8.58514C1.07602 10.7217 0.497896 13.0938 0.500006 15.5008C0.500815 18.9999 1.7349 22.387 3.98571 25.0677L3.96427 25.0859C4.03932 25.1759 4.1251 25.253 4.20229 25.3419C4.29879 25.4523 4.40279 25.5562 4.50251 25.6633C4.80272 25.989 5.11151 26.3018 5.43532 26.5954C5.53396 26.6853 5.63582 26.7689 5.73553 26.8546C6.07863 27.1503 6.43139 27.431 6.797 27.6924C6.84418 27.7245 6.88707 27.7663 6.93424 27.7995V27.7867C9.44543 29.5524 12.4411 30.5 15.5118 30.5C18.5825 30.5 21.5782 29.5524 24.0894 27.7867V27.7995C24.1365 27.7663 24.1783 27.7245 24.2266 27.6924C24.5911 27.4299 24.945 27.1503 25.2881 26.8546C25.3878 26.7689 25.4896 26.6843 25.5883 26.5954C25.9121 26.3007 26.2209 25.989 26.5211 25.6633C26.6208 25.5562 26.7237 25.4523 26.8213 25.3419C26.8974 25.253 26.9843 25.1759 27.0593 25.0848L27.0357 25.0677ZM15.5107 6.93031C16.465 6.93031 17.3978 7.21305 18.1913 7.74278C18.9847 8.27251 19.6031 9.02543 19.9683 9.90634C20.3335 10.7872 20.4291 11.7566 20.2429 12.6917C20.0567 13.6269 19.5972 14.4859 18.9224 15.1601C18.2477 15.8343 17.3879 16.2935 16.452 16.4795C15.5161 16.6655 14.546 16.5701 13.6643 16.2052C12.7827 15.8403 12.0292 15.2224 11.499 14.4296C10.9688 13.6368 10.6859 12.7047 10.6859 11.7512C10.6859 10.4726 11.1942 9.24642 12.099 8.34232C13.0039 7.43822 14.2311 6.93031 15.5107 6.93031ZM6.94068 25.0677C6.95928 23.661 7.5314 22.3182 8.53327 21.3298C9.53514 20.3414 10.8862 19.7868 12.2941 19.7861H18.7273C20.1353 19.7868 21.4863 20.3414 22.4882 21.3298C23.4901 22.3182 24.0622 23.661 24.0808 25.0677C21.7293 27.1849 18.6761 28.3567 15.5107 28.3567C12.3453 28.3567 9.29217 27.1849 6.94068 25.0677Z" fill="#268A00"/>
</svg>
