<svg width="9" height="13" viewBox="0 0 9 13" fill="none" xmlns="http://www.w3.org/2000/svg">
<path opacity="0.5" d="M4.13813 12.9698C4.04479 12.9698 3.96546 12.9372 3.90013 12.8718C3.84413 12.8158 3.81613 12.7412 3.81613 12.6478V11.6678C3.16279 11.6118 2.59813 11.4625 2.12213 11.2198C1.64613 10.9678 1.28213 10.6598 1.03013 10.2958C0.787458 9.92249 0.656792 9.52582 0.638125 9.10582C0.638125 9.03116 0.666125 8.96582 0.722125 8.90982C0.787458 8.84449 0.862125 8.81182 0.946125 8.81182H1.67413C1.84213 8.81182 1.95879 8.90516 2.02413 9.09182C2.11746 9.48382 2.36013 9.81982 2.75213 10.0998C3.14413 10.3798 3.69946 10.5198 4.41813 10.5198C5.19279 10.5198 5.77613 10.3845 6.16813 10.1138C6.56013 9.83382 6.75613 9.44649 6.75613 8.95182C6.75613 8.63449 6.65813 8.37782 6.46213 8.18182C6.27546 7.98582 5.99546 7.81316 5.62213 7.66382C5.24879 7.51449 4.68879 7.32782 3.94213 7.10382C3.21413 6.89849 2.63546 6.67916 2.20613 6.44582C1.77679 6.21249 1.45479 5.92316 1.24013 5.57782C1.02546 5.23249 0.918125 4.79849 0.918125 4.27582C0.918125 3.58516 1.17479 3.00182 1.68813 2.52582C2.20146 2.04049 2.91079 1.75116 3.81613 1.65782V0.691824C3.81613 0.59849 3.84413 0.523823 3.90013 0.467824C3.96546 0.402491 4.04479 0.369824 4.13813 0.369824H4.67013C4.76346 0.369824 4.83813 0.402491 4.89413 0.467824C4.95946 0.523823 4.99213 0.59849 4.99213 0.691824V1.67182C5.58946 1.74649 6.09813 1.91449 6.51813 2.17582C6.94746 2.43716 7.26946 2.74516 7.48413 3.09982C7.70813 3.45449 7.82946 3.80916 7.84813 4.16382C7.84813 4.23849 7.82013 4.30382 7.76413 4.35982C7.71746 4.41582 7.64746 4.44382 7.55413 4.44382H6.81213C6.61613 4.44382 6.49479 4.35516 6.44813 4.17782C6.39213 3.78582 6.17279 3.46382 5.79013 3.21182C5.40746 2.95049 4.92679 2.81982 4.34813 2.81982C3.71346 2.81982 3.21413 2.94116 2.85013 3.18382C2.48613 3.42649 2.30413 3.78582 2.30413 4.26182C2.30413 4.57916 2.38813 4.84049 2.55613 5.04582C2.73346 5.25116 2.99946 5.43316 3.35413 5.59182C3.70879 5.74116 4.22679 5.91382 4.90813 6.10982C5.70146 6.32449 6.32679 6.54849 6.78413 6.78182C7.24146 7.00582 7.58213 7.29049 7.80613 7.63582C8.03013 7.97182 8.14213 8.40116 8.14213 8.92382C8.14213 9.71716 7.86213 10.3565 7.30213 10.8418C6.74213 11.3178 5.97213 11.5978 4.99213 11.6818V12.6478C4.99213 12.7412 4.95946 12.8158 4.89413 12.8718C4.83813 12.9372 4.76346 12.9698 4.67013 12.9698H4.13813Z" fill="#268A00"/>
</svg>
