<svg width="30" height="30" viewBox="0 0 30 30" fill="none" xmlns="http://www.w3.org/2000/svg">
<path d="M15 0C23.2843 0 30 6.71573 30 15C30 23.2843 23.2843 30 15 30C6.71573 30 0 23.2843 0 15C0 6.71573 6.71573 0 15 0ZM19.8295 10.4545L13.125 17.159L10.1705 14.2045C9.73115 13.7652 9.01884 13.7652 8.5795 14.2045C8.14017 14.6438 8.14017 15.3562 8.5795 15.7955L12.3295 19.5455C12.7688 19.9848 13.4812 19.9848 13.9205 19.5455L21.4205 12.0455C21.8598 11.6062 21.8598 10.8938 21.4205 10.4545C20.9812 10.0152 20.2688 10.0152 19.8295 10.4545Z" />
</svg>
