<svg xmlns="http://www.w3.org/2000/svg" width="52.6" height="52.6" viewBox="0 0 52.6 52.6"><defs><style>.a{fill:#888;}.b{fill:#fff;}</style></defs><g transform="translate(-73.6 -23.4)"><circle class="a" cx="26.3" cy="26.3" r="26.3" transform="translate(73.6 23.4)"/><path class="b" d="M84,40.1h2.7V58.2H82.8V44.1l-3.1.8-.8-3.2L84,40.1Z"/><path class="b" d="M86.8,58.3H82.7v-14l-3.1.7-.9-3.4L83.9,40h2.8V58.3Zm-3.9-.2h3.7V40.2H84l-5.1,1.5.8,3.1,3.2-.8ZM104,53.2a5.091,5.091,0,0,1-.5,2.2,5.8,5.8,0,0,1-1.4,1.7,4.965,4.965,0,0,1-2.2,1,11.8,11.8,0,0,1-2.8.4,8.627,8.627,0,0,1-2.8-.4,9.041,9.041,0,0,1-2.2-1,5.212,5.212,0,0,1-1.4-1.6,3.845,3.845,0,0,1-.5-2.1,4.526,4.526,0,0,1,.7-2.7A5.611,5.611,0,0,1,93.1,49a4.363,4.363,0,0,1-1.7-1.6,4.5,4.5,0,0,1-.6-2.4,4.058,4.058,0,0,1,.4-1.9,4.836,4.836,0,0,1,1.3-1.6,6.256,6.256,0,0,1,2-1,7.1,7.1,0,0,1,2.6-.4,7.457,7.457,0,0,1,2.6.4,9.332,9.332,0,0,1,2,1,4.013,4.013,0,0,1,1.3,1.6,4.333,4.333,0,0,1,.4,1.9,4.265,4.265,0,0,1-.6,2.4,6.562,6.562,0,0,1-1.7,1.6,6.038,6.038,0,0,1,2.1,1.7,3.152,3.152,0,0,1,.8,2.5Zm-3.8-.3a1.7,1.7,0,0,0-.9-1.6,4.333,4.333,0,0,0-4.4,0,1.8,1.8,0,0,0-.9,1.6,2.088,2.088,0,0,0,.8,1.6,3.715,3.715,0,0,0,2.3.6,3.921,3.921,0,0,0,2.3-.6,1.716,1.716,0,0,0,.8-1.6Zm-.5-7.5a1.8,1.8,0,0,0-.7-1.5,3.308,3.308,0,0,0-3.8,0,2.127,2.127,0,0,0-.7,1.5,1.99,1.99,0,0,0,.7,1.6A3.308,3.308,0,0,0,99,47,2.175,2.175,0,0,0,99.7,45.4Z"/><path class="b" d="M97.1,58.6a8.627,8.627,0,0,1-2.8-.4,5.078,5.078,0,0,1-2.2-1.1,6.122,6.122,0,0,1-1.5-1.7,4.193,4.193,0,0,1-.5-2.2,5.38,5.38,0,0,1,.7-2.7,5.844,5.844,0,0,1,2.1-1.6,5.725,5.725,0,0,1-1.6-1.5,4.265,4.265,0,0,1-.6-2.4,4.552,4.552,0,0,1,.5-2,4.013,4.013,0,0,1,1.3-1.6,9.456,9.456,0,0,1,2-1.1,8.65,8.65,0,0,1,5.2,0,5.474,5.474,0,0,1,2,1.1A4.836,4.836,0,0,1,103,43a4.552,4.552,0,0,1,.5,2,4.265,4.265,0,0,1-.6,2.4,4.629,4.629,0,0,1-1.6,1.5,6.694,6.694,0,0,1,2,1.6,4.237,4.237,0,0,1,.8,2.6,5.932,5.932,0,0,1-.5,2.3,6.122,6.122,0,0,1-1.5,1.7,7.56,7.56,0,0,1-2.2,1.1,12.606,12.606,0,0,1-2.8.4Zm0-18.5a7.457,7.457,0,0,0-2.6.4,9.332,9.332,0,0,0-2,1A6.1,6.1,0,0,0,91.2,43a3.807,3.807,0,0,0-.4,1.9,3.921,3.921,0,0,0,.6,2.3A5.725,5.725,0,0,0,93,48.7l.1.1V49A5.084,5.084,0,0,0,91,50.6a4.209,4.209,0,0,0-.7,2.6,4.648,4.648,0,0,0,.5,2.1,4.281,4.281,0,0,0,1.4,1.6,6.393,6.393,0,0,0,2.2,1,11.722,11.722,0,0,0,2.7.4,7.664,7.664,0,0,0,2.7-.4,7.393,7.393,0,0,0,2.2-1,4.281,4.281,0,0,0,1.4-1.6,5.091,5.091,0,0,0,.5-2.2,3.9,3.9,0,0,0-.7-2.5,7.414,7.414,0,0,0-2.1-1.7l-.1-.1.1-.1a4.629,4.629,0,0,0,1.6-1.5,4.143,4.143,0,0,0,.6-2.3,4.058,4.058,0,0,0-.4-1.9,3.738,3.738,0,0,0-1.3-1.5,5.364,5.364,0,0,0-2-1,6.566,6.566,0,0,0-2.5-.4Zm0,15.2a3.174,3.174,0,0,1-2.3-.7,2.056,2.056,0,0,1,0-3.4,4.708,4.708,0,0,1,4.6,0,1.965,1.965,0,0,1,.9,1.7,2.091,2.091,0,0,1-.9,1.7A3.174,3.174,0,0,1,97.1,55.3Zm0-4.5a3.8,3.8,0,0,0-2.2.6,1.716,1.716,0,0,0-.8,1.6,1.9,1.9,0,0,0,.8,1.5,4.333,4.333,0,0,0,4.4,0,1.9,1.9,0,0,0,.8-1.5,1.943,1.943,0,0,0-.8-1.6A3.593,3.593,0,0,0,97.1,50.8Zm0-3.1a2.707,2.707,0,0,1-1.9-.6,2.06,2.06,0,0,1-.7-1.7,1.8,1.8,0,0,1,.7-1.5,2.986,2.986,0,0,1,2-.6,2.578,2.578,0,0,1,2,.7,2.084,2.084,0,0,1,.7,1.5,1.865,1.865,0,0,1-.7,1.6A3.7,3.7,0,0,1,97.1,47.7Zm0-4.3a2.445,2.445,0,0,0-1.8.6,1.974,1.974,0,0,0-.6,1.4,1.8,1.8,0,0,0,.7,1.5,2.61,2.61,0,0,0,1.8.6,2.445,2.445,0,0,0,1.8-.6,2.127,2.127,0,0,0,.7-1.5,1.974,1.974,0,0,0-.6-1.4A3.379,3.379,0,0,0,97.1,43.4Zm14.5-.6h3.6v4.6h4.6V51h-4.6v4.6h-3.6V51H107V47.4h4.6V42.8Z"/><path class="b" d="M115.3,55.7h-3.8V51h-4.6V47.3h4.6V42.7h3.8v4.6h4.6V51h-4.6Zm-3.7-.2h3.5V50.9h4.6V47.5h-4.6V42.9h-3.5v4.6H107v3.4h4.6v4.6Z"/></g></svg>