<svg width="16" height="15" viewBox="0 0 16 15" fill="none" xmlns="http://www.w3.org/2000/svg">
<path d="M2.66233 3.14793L0.49462 0.980913L1.47553 0L15.2007 13.7259L14.2198 14.7061L11.9252 12.4115C10.706 13.1848 9.29146 13.5944 7.84766 13.5921C4.10979 13.5921 0.999981 10.9023 0.347656 7.35304C0.645763 5.73832 1.45795 4.26326 2.66303 3.14793H2.66233ZM9.75888 10.2452L8.744 9.23029C8.35582 9.41601 7.9196 9.47676 7.49545 9.40414C7.07131 9.33152 6.68013 9.12912 6.37585 8.82484C6.07157 8.52056 5.86917 8.12939 5.79655 7.70524C5.72394 7.2811 5.78468 6.84487 5.9704 6.4567L4.95552 5.44181C4.51443 6.10834 4.31725 6.90683 4.39736 7.70207C4.47747 8.4973 4.82995 9.24042 5.39511 9.80558C5.96027 10.3707 6.70339 10.7232 7.49862 10.8033C8.29386 10.8834 9.09235 10.6863 9.75888 10.2452ZM5.05673 1.64086C5.92118 1.30118 6.86328 1.11401 7.84766 1.11401C11.5855 1.11401 14.6953 3.80373 15.3477 7.35304C15.1352 8.50774 14.6578 9.59741 13.9529 10.5363L11.277 7.86048C11.3565 7.32504 11.3095 6.77843 11.1397 6.26443C10.97 5.75044 10.6822 5.28335 10.2994 4.90059C9.91665 4.51783 9.44956 4.23004 8.93556 4.06027C8.42157 3.8905 7.87496 3.84347 7.33952 3.92296L5.05673 1.64156V1.64086Z" fill="#DD6F0C"/>
</svg>
