<svg width="20" height="20" viewBox="0 0 20 20" fill="none" xmlns="http://www.w3.org/2000/svg">
<path d="M18.1477 1.85005C18.3696 2.07194 18.3897 2.41916 18.2082 2.66384L18.1477 2.73393L14.7855 6.09607C16.3872 7.22063 17.5843 8.90026 18.0817 10.8873C18.1655 11.2222 17.962 11.5616 17.6271 11.6454C17.2923 11.7292 16.9529 11.5257 16.8691 11.1909C16.4278 9.42822 15.3381 7.94989 13.8856 6.99576L12.3776 8.50387C12.9672 9.10515 13.3307 9.92887 13.3307 10.8375C13.3307 12.6785 11.8383 14.1708 9.9974 14.1708C9.08876 14.1708 8.26503 13.8073 7.66375 13.2177L2.731 18.1506C2.48693 18.3947 2.0912 18.3947 1.84712 18.1506C1.62523 17.9287 1.60506 17.5815 1.78661 17.3368L1.84712 17.2667L6.94174 12.1716L6.94073 12.1703L12.7318 6.38184L12.7307 6.38033L13.6751 5.43823L17.2638 1.85005C17.5079 1.60597 17.9036 1.60597 18.1477 1.85005ZM9.9974 4.58366C10.8309 4.58366 11.6398 4.70705 12.4048 4.93782L11.374 5.96798C10.9275 5.87976 10.4671 5.83366 9.9974 5.83366C6.72817 5.83366 3.90581 8.06721 3.12478 11.1946C3.04114 11.5295 2.70186 11.7332 2.36697 11.6496C2.03207 11.5659 1.82839 11.2266 1.91202 10.8917C2.83127 7.21092 6.15113 4.58366 9.9974 4.58366ZM9.83516 7.50806L6.6674 10.6753C6.75219 8.96122 8.1247 7.59003 9.83516 7.50806Z"/>
</svg>
