<svg width="16" height="13" viewBox="0 0 16 13" fill="none" xmlns="http://www.w3.org/2000/svg">
<path d="M1.43175 8.83766C0.378448 7.26478 0.378212 5.14725 1.43151 3.57437C2.78845 1.54806 5.15531 0.206055 7.84766 0.206055C10.54 0.206055 12.9066 1.5481 14.2636 3.57445C15.3169 5.14733 15.3171 7.26486 14.2638 8.83774C12.9069 10.864 10.54 12.2061 7.84766 12.2061C5.15527 12.2061 2.78874 10.864 1.43175 8.83766ZM7.84766 9.53939C8.76693 9.53939 9.64855 9.1882 10.2986 8.56308C10.9486 7.93796 11.3138 7.09011 11.3138 6.20605C11.3138 5.322 10.9486 4.47415 10.2986 3.84903C9.64855 3.22391 8.76693 2.87272 7.84766 2.87272C6.92838 2.87272 6.04676 3.22391 5.39674 3.84903C4.74671 4.47415 4.38153 5.322 4.38153 6.20605C4.38153 7.09011 4.74671 7.93796 5.39674 8.56308C6.04676 9.1882 6.92838 9.53939 7.84766 9.53939ZM7.84766 8.20605C7.29609 8.20605 6.76712 7.99534 6.3771 7.62027C5.98709 7.2452 5.76798 6.73649 5.76798 6.20605C5.76798 5.67562 5.98709 5.16691 6.3771 4.79184C6.76712 4.41677 7.29609 4.20605 7.84766 4.20605C8.39922 4.20605 8.92819 4.41677 9.31821 4.79184C9.70822 5.16691 9.92733 5.67562 9.92733 6.20605C9.92733 6.73649 9.70822 7.2452 9.31821 7.62027C8.92819 7.99534 8.39922 8.20605 7.84766 8.20605Z" fill="#61696B"/>
</svg>
