<svg width="15" height="14" viewBox="0 0 15 14" fill="none" xmlns="http://www.w3.org/2000/svg">
<path d="M13.9612 1.85942C13.3577 0.620884 11.6193 -0.392462 9.59708 0.197531C8.63078 0.476646 7.78771 1.07522 7.20559 1.89545C6.62347 1.07522 5.78039 0.476646 4.81409 0.197531C2.7874 -0.383454 1.05345 0.620884 0.449949 1.85942C-0.396758 3.59337 -0.0454645 5.54349 1.49482 7.65576C2.70183 9.30864 4.42677 10.984 6.93086 12.9297C7.01 12.9914 7.10748 13.0249 7.20784 13.0249C7.3082 13.0249 7.40569 12.9914 7.48482 12.9297C9.98441 10.9885 11.7139 9.32665 12.9209 7.65576C14.4566 5.54349 14.8079 3.59337 13.9612 1.85942Z"/>
</svg>
