<svg width="23" height="31" viewBox="0 0 23 31" fill="none" xmlns="http://www.w3.org/2000/svg">
<path opacity="0.5" d="M13.6055 8.06445V0.0957031H1.88672C1.10742 0.0957031 0.480469 0.722656 0.480469 1.50195V28.6895C0.480469 29.4688 1.10742 30.0957 1.88672 30.0957H21.5742C22.3535 30.0957 22.9805 29.4688 22.9805 28.6895V9.4707H15.0117C14.2383 9.4707 13.6055 8.83789 13.6055 8.06445ZM17.4246 20.7213H13.6055V25.4088C13.6055 25.9268 13.1859 26.3463 12.668 26.3463H10.793C10.275 26.3463 9.85547 25.9268 9.85547 25.4088V20.7213H6.03633C5.19961 20.7213 4.78184 19.7082 5.37598 19.1182L11.0256 13.5107C11.4152 13.1234 12.0445 13.1234 12.4342 13.5107L18.0838 19.1182C18.6785 19.7082 18.2613 20.7213 17.4246 20.7213ZM22.5703 6.24805L16.834 0.505859C16.5703 0.242188 16.2129 0.0957031 15.8379 0.0957031H15.4805V7.5957H22.9805V7.23828C22.9805 6.86914 22.834 6.51172 22.5703 6.24805Z" fill="#B7C5C1"/>
</svg>
