<svg width="19" height="17" viewBox="0 0 19 17" fill="none" xmlns="http://www.w3.org/2000/svg">
<path d="M8.82288 2.72302L7.18688 1.0009C6.99233 0.796024 6.73003 0.679625 6.44835 0.673157C6.16608 0.666441 5.89939 0.770857 5.69569 0.966505L0.763717 5.70295C0.559986 5.8986 0.444216 6.16229 0.437783 6.44549C0.431349 6.7287 0.534955 6.99744 0.729545 7.20221L3.91794 10.5585V4.84387C3.91794 3.67443 4.86421 2.72302 6.02732 2.72302H8.82288Z" />
<path d="M17.642 2.84503L11.0309 1.15949C10.7578 1.08975 10.4741 1.13129 10.232 1.27621C9.98995 1.42114 9.81852 1.65217 9.7493 1.92667L9.54852 2.7228H12.8477C14.0108 2.7228 14.957 3.67421 14.957 4.84365V15.3951C15.0687 15.3712 15.1769 15.329 15.2779 15.2685C15.52 15.1236 15.6914 14.8926 15.7607 14.618L18.405 4.13359C18.548 3.56679 18.2057 2.98876 17.642 2.84503Z" />
<path d="M12.8477 3.7832H6.02735C5.44579 3.7832 4.97266 4.25891 4.97266 4.84363V15.6599C4.97266 16.2446 5.44579 16.7204 6.02735 16.7204H12.8477C13.4292 16.7204 13.9024 16.2446 13.9024 15.6599V4.84363C13.9024 4.25891 13.4292 3.7832 12.8477 3.7832ZM7.46876 5.76269C7.75999 5.76269 7.9961 6.00009 7.9961 6.2929C7.9961 6.58572 7.75999 6.82311 7.46876 6.82311C7.17752 6.82311 6.94141 6.58572 6.94141 6.2929C6.94141 6.00009 7.17752 5.76269 7.46876 5.76269ZM9.43751 12.7614C9.31176 12.7614 9.18604 12.7164 9.08591 12.6264L7.5134 11.2121C7.50985 11.2089 7.50641 11.2057 7.50293 11.2024C7.10837 10.8278 6.91859 10.2613 6.9952 9.68703C7.06804 9.14081 7.37745 8.67203 7.82292 8.43301C8.03931 8.31718 8.26786 8.25854 8.50267 8.25854C8.85887 8.25854 9.18445 8.39498 9.43751 8.62357C9.69057 8.39498 10.0161 8.25854 10.3724 8.25854C10.6072 8.25854 10.8357 8.31714 11.0517 8.4328C11.4976 8.67203 11.8069 9.14077 11.8798 9.687C11.9564 10.2613 11.7666 10.8278 11.3721 11.2024C11.3686 11.2057 11.3652 11.2089 11.3616 11.2121L9.78911 12.6264C9.68902 12.7164 9.56326 12.7614 9.43751 12.7614ZM11.4063 14.7408C11.115 14.7408 10.8789 14.5035 10.8789 14.2106C10.8789 13.9178 11.115 13.6804 11.4063 13.6804C11.6975 13.6804 11.9336 13.9178 11.9336 14.2106C11.9336 14.5034 11.6975 14.7408 11.4063 14.7408Z" />
</svg>
