<svg width="28" height="35" viewBox="0 0 28 35" fill="none" xmlns="http://www.w3.org/2000/svg">
<path d="M14.1735 26.1624C14.1735 26.1624 14.1735 26.1623 14.1735 26.1623M14.1735 26.1624L14.1732 26.1621L14.1735 26.1623M14.1735 26.1624L14.1735 26.1623M14.1735 26.1624L14.1735 26.1623M18.5703 29.46H9.92188L14.2461 26.2168L18.5703 29.46ZM24.9141 29.4638V24.9258C24.9141 21.9729 23.6881 19.2014 21.6005 17.2177C23.688 15.2337 24.9141 12.4627 24.9141 9.50918V4.97175C25.8953 4.90933 26.6719 4.09368 26.6719 3.09668C26.6719 2.059 25.8306 1.21777 24.793 1.21777H3.69922C2.66154 1.21777 1.82031 2.059 1.82031 3.09668C1.82031 4.09368 2.59688 4.90933 3.57812 4.97175V9.50918C3.57812 12.4627 4.80417 15.2337 6.89166 17.2177C4.80411 19.2014 3.57812 21.9729 3.57812 24.9258V29.4638C2.59708 29.5263 1.82031 30.3421 1.82031 31.3389C1.82031 32.3763 2.66178 33.2178 3.69922 33.2178H24.793C25.8304 33.2178 26.6719 32.3763 26.6719 31.3389C26.6719 30.3421 25.8951 29.5263 24.9141 29.4638Z" stroke="#F1F3F3" stroke-width="2"/>
</svg>
