<svg width="19" height="19" viewBox="0 0 19 19" fill="none" xmlns="http://www.w3.org/2000/svg">
<path d="M14.5898 2.1883C14.0239 1.13007 13.3461 0.59375 12.5749 0.59375C11.6872 0.59375 10.7652 1.31911 9.83372 2.7507C9.71456 2.93395 9.60294 3.11717 9.50003 3.29403C9.39712 3.11717 9.28549 2.93395 9.16607 2.7507C8.23513 1.31911 7.3129 0.59375 6.42519 0.59375C5.65404 0.59375 4.97589 1.13007 4.41026 2.1883C3.98731 2.98034 4.1398 3.54917 4.34216 3.88665C4.70684 4.49488 5.52212 4.90484 6.83455 5.13908C7.84228 5.3194 8.90864 5.34608 9.45453 5.34608H9.45483C9.47019 5.34608 9.48526 5.34608 9.50007 5.34608C9.51513 5.34608 9.5302 5.34608 9.5456 5.34608C10.0915 5.34608 11.1579 5.3194 12.1656 5.13908C13.4778 4.90484 14.293 4.49488 14.6583 3.88665C14.86 3.54917 15.0131 2.98034 14.5898 2.1883Z" fill="#DA4453"/>
<path d="M17.8125 8.24168C17.8125 7.80449 17.4577 7.4502 17.0205 7.4502H1.97931C1.54211 7.4502 1.18756 7.80449 1.18756 8.24168V17.6147C1.18756 18.0519 1.54211 18.4061 1.97931 18.4061H17.0205C17.4577 18.4061 17.8126 18.0519 17.8126 17.6147V8.24168H17.8125Z" fill="#8CC153"/>
<path d="M19 8.90683C19 9.34403 18.6451 9.69832 18.2079 9.69832H0.791783C0.354588 9.69828 0 9.34399 0 8.9068V4.94833C0 4.51113 0.354588 4.15625 0.791783 4.15625H18.208C18.6452 4.15625 19 4.5111 19 4.94833V8.90683H19Z" fill="#A0D468"/>
<path d="M11.4791 4.15625H7.52014V9.69754H11.4791V4.15625Z" fill="#ED5564"/>
<path d="M1.18756 10.481L17.8125 11.9926V9.72314H1.18756V10.481Z" fill="#79A83D"/>
<path d="M11.4791 9.69775H7.52014V18.4064H11.4791V9.69775Z" fill="#DA4453"/>
<path d="M7.51991 11.0567L11.4788 11.4168V9.72314H7.51991V11.0567Z" fill="#C63046"/>
</svg>
