<svg width="19" height="19" viewBox="0 0 19 19" fill="none" xmlns="http://www.w3.org/2000/svg">
<path d="M18.3937 9.55233L10.2937 0.545799C9.95259 0.165723 9.29739 0.165723 8.95629 0.545799L0.856285 9.55233C0.739696 9.68166 0.663168 9.8421 0.636005 10.0141C0.608843 10.1862 0.632217 10.3624 0.703285 10.5214C0.847285 10.8466 1.16949 11.0555 1.52499 11.0555H3.32499V17.3601C3.32499 17.599 3.41981 17.828 3.58859 17.9969C3.75737 18.1659 3.98629 18.2607 4.22499 18.2607H6.92499C7.16368 18.2607 7.3926 18.1659 7.56138 17.9969C7.73016 17.828 7.82499 17.599 7.82499 17.3601V13.7575H11.425V17.3601C11.425 17.599 11.5198 17.828 11.6886 17.9969C11.8574 18.1659 12.0863 18.2607 12.325 18.2607H15.025C15.2637 18.2607 15.4926 18.1659 15.6614 17.9969C15.8302 17.828 15.925 17.599 15.925 17.3601V11.0555H17.725C17.8993 11.0563 18.07 11.0062 18.2164 10.9115C18.3628 10.8169 18.4785 10.6816 18.5494 10.5222C18.6203 10.3629 18.6433 10.1863 18.6156 10.0141C18.588 9.8419 18.5109 9.68145 18.3937 9.55233Z"/>
</svg>
