<svg width="35" height="35" viewBox="0 0 35 35" fill="none" xmlns="http://www.w3.org/2000/svg">
<path d="M15.5624 18.7663L14.5961 22.1797C14.511 22.539 14.4488 22.859 14.4094 23.1435M15.5624 18.7663L17.9931 25.3552M15.5624 18.7663C15.6475 18.4387 15.7212 18.1276 15.7796 17.8381L15.5624 18.7663ZM14.4094 23.1435C14.3713 23.4279 14.3523 23.7073 14.3523 23.9803C14.3523 24.6825 14.6101 25.2603 15.1281 25.7162C15.6462 26.1721 16.3739 26.4006 17.3085 26.4006C17.9167 26.4006 18.4513 26.3206 18.911 26.1606C19.2422 26.0457 19.6527 25.894 20.144 25.7047C19.955 25.7359 19.7663 25.7536 19.5789 25.7536C19.3147 25.7536 19.0248 25.7354 18.7413 25.6717C18.7411 25.6717 18.741 25.6717 18.7408 25.6716C18.4775 25.6125 18.2197 25.5142 17.9931 25.3552M14.4094 23.1435L15.4006 23.2762C15.4005 23.2769 15.4004 23.2777 15.4003 23.2784M14.4094 23.1435L15.4 23.2806C15.4001 23.2798 15.4002 23.2791 15.4003 23.2784M17.9931 25.3552C17.961 25.3327 17.9295 25.3089 17.8987 25.2839C17.3336 24.8265 17.2253 24.1196 17.2253 23.5829C17.2253 23.3141 17.2684 22.978 17.3335 22.6125L17.3341 22.609C17.4014 22.2391 17.478 21.893 17.5684 21.579C17.5687 21.5781 17.5689 21.5772 17.5692 21.5763L18.529 18.1783L18.5311 18.1707L18.5334 18.1632C18.6062 17.9201 18.6596 17.6448 18.6885 17.3292L18.6885 17.3289C18.7232 16.9518 18.7364 16.7333 18.7364 16.6368C18.7364 16.1872 18.5918 15.8825 18.3173 15.6365C18.0536 15.4034 17.6059 15.2165 16.8335 15.2165C16.6188 15.2165 16.39 15.2372 16.1466 15.2817C16.1937 15.317 16.2393 15.3552 16.2832 15.3967L16.2883 15.4015L16.2883 15.4015C16.7691 15.8619 16.8659 16.5179 16.8659 17.0343C16.8659 17.3537 16.8294 17.6878 16.7602 18.0342L16.7598 18.0359C16.6968 18.3481 16.6186 18.6777 16.5303 19.0177L16.5276 19.0283L16.5246 19.0387L15.5643 22.4308C15.4872 22.7585 15.4335 23.0388 15.4003 23.2784M17.9931 25.3552C17.7878 25.3846 17.5602 25.4006 17.3085 25.4006C16.5304 25.4006 16.0683 25.2114 15.7887 24.9654C15.4913 24.7037 15.3523 24.4017 15.3523 23.9803C15.3523 23.7545 15.368 23.5202 15.4003 23.2784M19.9023 9.34525L19.9045 9.34725C20.1599 9.58677 20.2615 9.83424 20.2615 10.1365C20.2615 10.4413 20.1601 10.6844 19.9078 10.9189C19.6508 11.1576 19.3568 11.2762 18.9694 11.2762C18.5831 11.2762 18.284 11.1573 18.0226 10.9169C17.7686 10.6811 17.6672 10.4367 17.6672 10.1365C17.6672 9.83908 17.7689 9.5906 18.027 9.34818C18.288 9.10521 18.5853 8.98666 18.9694 8.98666C19.3555 8.98666 19.6481 9.10546 19.9023 9.34525ZM17.6361 1.21777C8.80063 1.21777 1.63672 8.38168 1.63672 17.2171C1.63672 26.0525 8.80052 33.2178 17.6361 33.2178C26.4715 33.2178 33.6367 26.0526 33.6367 17.2171C33.6367 8.38157 26.4714 1.21777 17.6361 1.21777Z" fill="#F1F3F3" stroke-width="2"/>
</svg>
