<svg width="19" height="17" viewBox="0 0 19 17" fill="#fff" xmlns="http://www.w3.org/2000/svg">
<path opacity="0.4" d="M17.5614 2.77075C16.8078 1.25056 14.637 0.00676489 12.112 0.730929C10.9054 1.07352 9.8527 1.80821 9.12583 2.81497C8.39896 1.80821 7.34623 1.07352 6.13965 0.730929C3.60898 0.0178208 1.44386 1.25056 0.690286 2.77075C-0.366969 4.89902 0.0716795 7.29263 1.99498 9.88525C3.50213 11.914 5.65601 13.9704 8.78278 16.3585C8.8816 16.4343 9.00332 16.4754 9.12864 16.4754C9.25395 16.4754 9.37568 16.4343 9.4745 16.3585C12.5956 13.9759 14.7551 11.9361 16.2623 9.88525C18.18 7.29263 18.6186 4.89902 17.5614 2.77075Z" fill="white"/>
</svg>
