<svg width="19" height="14" viewBox="0 0 19 14" fill="none" xmlns="http://www.w3.org/2000/svg">
<path d="M12.8977 0.760742C13.1147 0.760742 13.3228 0.846345 13.4763 0.998718C13.6297 1.15109 13.7159 1.35775 13.7159 1.57324V4.98574L17.9811 2.02012C18.0424 1.97742 18.1144 1.95227 18.1891 1.9474C18.2638 1.94253 18.3385 1.95812 18.4049 1.99249C18.4713 2.02685 18.527 2.07866 18.5658 2.14228C18.6046 2.20589 18.6251 2.27887 18.625 2.35324V12.1682C18.6251 12.2426 18.6046 12.3156 18.5658 12.3792C18.527 12.4428 18.4713 12.4946 18.4049 12.529C18.3385 12.5634 18.2638 12.579 18.1891 12.5741C18.1144 12.5692 18.0424 12.5441 17.9811 12.5014L13.7159 9.53574V12.9482C13.7159 13.1637 13.6297 13.3704 13.4763 13.5228C13.3228 13.6751 13.1147 13.7607 12.8977 13.7607H1.44318C1.22619 13.7607 1.01808 13.6751 0.86464 13.5228C0.711201 13.3704 0.625 13.1637 0.625 12.9482V1.57324C0.625 1.35775 0.711201 1.15109 0.86464 0.998718C1.01808 0.846345 1.22619 0.760742 1.44318 0.760742H12.8977ZM5.86136 4.68431C5.78592 4.68429 5.71278 4.71016 5.65434 4.75754C5.59589 4.80492 5.55573 4.8709 5.54064 4.9443L5.53409 5.00849V9.51137C5.53408 9.564 5.54695 9.61584 5.57158 9.66245C5.59621 9.70905 5.63187 9.74901 5.67549 9.77891C5.71911 9.8088 5.76939 9.82772 5.82201 9.83405C5.87462 9.84038 5.928 9.83393 5.97755 9.81524L6.03727 9.78599L9.60045 7.53374C9.64203 7.50733 9.67705 7.47192 9.7029 7.43016C9.72874 7.38841 9.74474 7.34139 9.7497 7.29262C9.75466 7.24386 9.74844 7.19461 9.73153 7.14857C9.71461 7.10252 9.68742 7.06088 9.652 7.02674L9.60045 6.98612L6.03727 4.73387C5.98448 4.70137 5.92347 4.68446 5.86136 4.68512V4.68431Z"/>
</svg>
