<svg width="38" height="38" viewBox="0 0 38 38" fill="none" xmlns="http://www.w3.org/2000/svg">
<path d="M18.9974 6.89433V7.91688L21.7607 7.9169C22.3612 7.9169 22.8577 8.36264 22.9372 8.9415L22.9482 9.10243L22.9589 15.8336H20.5839L20.5752 10.2919L18.9974 10.2919L18.9983 17.4247L20.5839 17.4232L20.5855 17.4169H22.9621L22.9605 17.4232H30.7806L28.0534 14.6939C27.6319 14.2723 27.5937 13.6126 27.9387 13.1477L28.0537 13.0146C28.4753 12.5931 29.1351 12.5548 29.5999 12.8999L29.7331 13.0149L34.4777 17.7611C34.8988 18.1824 34.9374 18.8414 34.5932 19.3062L34.4785 19.4394L29.7339 24.1949C29.2707 24.6591 28.5188 24.66 28.0545 24.1968C27.6324 23.7757 27.5934 23.116 27.9378 22.6507L28.0526 22.5174L30.7647 19.7982L18.9983 19.7997L18.9974 26.9185L20.6028 26.9192L20.5918 21.3752H22.9684L22.9797 28.1047C22.9807 28.7066 22.5338 29.2045 21.9535 29.2833L21.7922 29.2942L18.9974 29.2935V30.4794C18.9974 31.2179 18.3306 31.7772 17.6034 31.6488L4.14502 29.2718C3.57764 29.1715 3.16406 28.6785 3.16406 28.1024V9.1044C3.16406 8.52283 3.58525 8.02683 4.15913 7.93259L17.6175 5.72252C18.3404 5.6038 18.9974 6.16167 18.9974 6.89433ZM13.4591 18.2086C12.5828 18.2086 11.8724 18.919 11.8724 19.7953C11.8724 20.6716 12.5828 21.382 13.4591 21.382C14.3355 21.382 15.0459 20.6716 15.0459 19.7953C15.0459 18.919 14.3355 18.2086 13.4591 18.2086Z" />
</svg>
