<svg width="700" height="178" viewBox="0 0 700 178" fill="none" xmlns="http://www.w3.org/2000/svg">
<path fill-rule="evenodd" clip-rule="evenodd" d="M106.549 136.568C105.416 136.568 104.509 136.19 103.83 135.434C103.263 134.679 103.093 133.761 103.32 132.681L120.312 56.2248C120.539 55.1449 121.105 54.227 122.011 53.4711C123.031 52.7152 124.107 52.3372 125.24 52.3372H139.343C140.589 52.3372 141.496 52.7152 142.062 53.4711C142.628 54.227 142.798 55.1449 142.572 56.2248L125.58 132.681C125.353 133.761 124.787 134.679 123.88 135.434C122.974 136.19 121.898 136.568 120.652 136.568H106.549ZM127.619 38.4067C126.486 38.4067 125.58 38.0287 124.9 37.2728C124.334 36.5169 124.164 35.599 124.39 34.5191L127.109 22.8563C127.336 21.7765 127.902 20.8585 128.808 20.1026C129.714 19.3467 130.791 18.9688 132.037 18.9688H147.499C148.632 18.9688 149.539 19.3467 150.218 20.1026C150.898 20.8585 151.124 21.7765 150.898 22.8563L148.179 34.5191C147.953 35.599 147.33 36.5169 146.31 37.2728C145.404 38.0287 144.384 38.4067 143.251 38.4067H127.619ZM3.49552 136.568C2.24943 136.568 1.28654 136.19 0.60686 135.434C0.0404573 134.679 -0.129464 133.761 0.0970977 132.681L23.7161 27.2299C23.9427 26.042 24.5091 25.0701 25.4153 24.3142C26.3216 23.5583 27.3977 23.1803 28.6438 23.1803H76.5615C84.9442 23.1803 91.8544 24.5302 97.2918 27.2299C102.843 29.8216 106.751 33.4392 109.016 38.0827C111.282 42.7262 111.735 48.1257 110.376 54.281C109.356 58.6006 107.714 62.3262 105.448 65.4579C103.296 68.4815 100.917 70.9653 98.3114 72.9091C95.7059 74.7449 93.2137 76.1487 90.8348 77.1206C94.7997 79.2804 97.9715 82.574 100.35 87.0016C102.843 91.4291 103.409 96.7746 102.05 103.038C100.577 109.517 97.9715 115.295 94.2332 120.37C90.495 125.446 85.454 129.441 79.1103 132.357C72.7666 135.165 64.9502 136.568 55.6612 136.568H3.49552ZM26.6048 119.398H54.9815C60.8721 119.398 65.8565 117.832 69.9346 114.701C74.0127 111.461 76.5615 107.573 77.581 103.038C78.6005 98.2864 78.0341 94.3448 75.8818 91.2131C73.7295 88.0815 69.2549 86.5156 62.4581 86.5156H34.0813L26.6048 119.398ZM37.8195 69.6694H63.9873C69.7647 69.6694 74.5791 68.3195 78.4306 65.6198C82.2822 62.8121 84.7743 59.1945 85.9071 54.767C86.9267 50.2315 86.3603 46.6678 84.2079 44.0761C82.0556 41.4844 78.0341 40.1885 72.1435 40.1885H44.4464L37.8195 69.6694ZM136.739 135.434C137.418 136.19 138.325 136.568 139.457 136.568H154.41C155.543 136.568 156.563 136.19 157.469 135.434C158.375 134.679 158.942 133.761 159.168 132.681L169.024 88.1355C170.496 81.8721 173.442 76.9586 177.86 73.395C182.391 69.8314 187.885 68.0496 194.342 68.0496C200.912 68.0496 205.047 69.7774 206.746 73.233C208.559 76.5807 208.729 81.5481 207.256 88.1355L197.4 132.681C197.174 133.761 197.344 134.679 197.91 135.434C198.59 136.19 199.496 136.568 200.629 136.568H215.582C216.828 136.568 217.904 136.19 218.81 135.434C219.717 134.679 220.283 133.761 220.51 132.681L230.705 87.1636C232.404 79.6044 232.461 73.125 230.875 67.7256C229.402 62.3262 226.344 58.1686 221.699 55.2529C217.055 52.2292 210.881 50.7174 203.178 50.7174C196.947 50.7174 191.34 51.9053 186.356 54.281C181.485 56.5488 177.236 59.4105 173.612 62.8661L175.141 56.2248C175.367 55.1449 175.197 54.227 174.631 53.4711C174.065 52.7152 173.215 52.3372 172.082 52.3372H158.149C157.016 52.3372 155.94 52.7152 154.92 53.4711C154.014 54.227 153.448 55.1449 153.221 56.2248L136.229 132.681C136.002 133.761 136.172 134.679 136.739 135.434ZM261.974 172.205C254.158 172.205 247.758 171.179 242.773 169.127C237.902 167.075 234.107 164.591 231.389 161.676C228.67 158.76 226.914 155.844 226.121 152.929C225.215 150.121 224.932 147.907 225.271 146.287C225.498 145.207 226.008 144.236 226.801 143.372C227.594 142.616 228.557 142.238 229.689 142.238H244.982C246.115 142.238 246.965 142.454 247.531 142.886C248.097 143.426 248.437 144.344 248.551 145.639C248.777 147.043 249.23 148.555 249.91 150.175C250.703 151.795 252.119 153.145 254.158 154.224C256.197 155.412 259.256 156.006 263.334 156.006C267.185 156.006 270.754 155.412 274.039 154.224C277.437 153.037 280.326 151.039 282.705 148.231C285.197 145.423 287.009 141.536 288.142 136.568L290.521 125.554C287.123 128.685 283.328 131.223 279.136 133.167C274.945 135.111 269.791 136.082 263.674 136.082C257.443 136.082 252.232 135.165 248.041 133.329C243.849 131.385 240.564 128.739 238.185 125.392C235.92 121.936 234.447 117.886 233.767 113.243C233.201 108.599 233.371 103.47 234.277 97.8544C234.504 96.2346 234.73 94.7767 234.957 93.4809C235.297 92.185 235.693 90.7272 236.146 89.1074C237.732 83.7079 239.715 78.6865 242.094 74.0429C244.586 69.3994 247.588 65.3499 251.099 61.8942C254.611 58.3306 258.746 55.5769 263.504 53.6331C268.261 51.6893 273.756 50.7174 279.986 50.7174C286.443 50.7174 291.767 51.9053 295.959 54.281C300.263 56.5488 303.435 59.4105 305.474 62.8661L306.833 56.3868C307.06 55.1989 307.626 54.227 308.533 53.4711C309.552 52.7152 310.685 52.3372 311.931 52.3372H325.525C326.771 52.3372 327.677 52.7152 328.243 53.4711C328.923 54.227 329.15 55.1989 328.923 56.3868L311.591 134.463C310.345 140.294 308.476 145.531 305.984 150.175C303.605 154.818 300.433 158.76 296.468 162C292.617 165.347 287.859 167.885 282.195 169.613C276.531 171.341 269.791 172.205 261.974 172.205ZM271.15 118.912C275.795 118.912 279.816 117.94 283.214 115.997C286.613 114.053 289.445 111.515 291.71 108.383C293.976 105.252 295.562 102.066 296.468 98.8263C296.808 97.4225 297.205 95.6407 297.658 93.4809C298.111 91.3211 298.451 89.5933 298.677 88.2974C299.244 84.9498 299.187 81.7641 298.507 78.7404C297.941 75.6088 296.468 73.071 294.089 71.1272C291.824 69.0755 288.369 68.0496 283.724 68.0496C279.306 68.0496 275.455 69.0755 272.17 71.1272C268.884 73.071 266.166 75.6628 264.013 78.9024C261.974 82.1421 260.388 85.7057 259.256 89.5933L258.236 93.4809C257.896 94.7767 257.613 96.1266 257.386 97.5305C256.82 101.31 256.707 104.874 257.047 108.221C257.386 111.461 258.633 114.053 260.785 115.997C263.051 117.94 266.506 118.912 271.15 118.912ZM664.213 136.569C656.51 136.569 650.506 135.435 646.202 133.168C641.897 130.9 639.122 127.552 637.876 123.125C636.63 118.589 636.743 112.974 638.215 106.278L646.542 69.5083H633.118C631.985 69.5083 631.079 69.1303 630.399 68.3744C629.833 67.6185 629.663 66.6466 629.889 65.4587L631.928 56.2257C632.155 55.1458 632.721 54.2279 633.628 53.472C634.647 52.716 635.78 52.3381 637.026 52.3381H650.28L656.397 25.4489C656.623 24.369 657.19 23.4511 658.096 22.6952C659.002 21.9393 660.022 21.5613 661.155 21.5613H674.918C676.164 21.5613 677.071 21.9393 677.637 22.6952C678.317 23.4511 678.543 24.369 678.317 25.4489L672.2 52.3381H693.44C694.572 52.3381 695.422 52.716 695.988 53.472C696.668 54.2279 696.895 55.1458 696.668 56.2257L694.629 65.4587C694.403 66.6466 693.779 67.6185 692.76 68.3744C691.854 69.1303 690.834 69.5083 689.701 69.5083H668.461L660.645 104.659C659.965 107.574 659.569 110.112 659.456 112.272C659.456 114.324 660.079 115.943 661.325 117.131C662.571 118.211 664.78 118.751 667.952 118.751H680.186C681.432 118.751 682.338 119.129 682.905 119.885C683.471 120.641 683.641 121.559 683.414 122.639L681.205 132.682C680.979 133.762 680.412 134.679 679.506 135.435C678.6 136.191 677.524 136.569 676.278 136.569H664.213ZM436.555 135.435C437.235 136.191 438.198 136.569 439.444 136.569H491.61C500.899 136.569 508.715 135.165 515.059 132.358C521.402 129.442 526.443 125.446 530.182 120.371C533.92 115.295 536.525 109.518 537.998 103.039C539.357 96.7754 538.791 91.43 536.299 87.0024C533.92 82.5749 530.748 79.2812 526.783 77.1215C529.162 76.1496 531.654 74.7457 534.26 72.9099C536.865 70.9661 539.244 68.4824 541.396 65.4587C543.662 62.327 545.305 58.6014 546.324 54.2819C547.684 48.1265 547.23 42.7271 544.965 38.0836C542.699 33.44 538.791 29.8224 533.24 27.2307C527.803 24.531 520.893 23.1811 512.51 23.1811H464.592C463.346 23.1811 462.27 23.5591 461.364 24.315C460.458 25.0709 459.891 26.0428 459.665 27.2307L436.046 132.682C435.819 133.762 435.989 134.679 436.555 135.435ZM490.93 119.399H462.553L470.03 86.5165H498.407C505.203 86.5165 509.678 88.0823 511.83 91.214C513.983 94.3457 514.549 98.2872 513.529 103.039C512.51 107.574 509.961 111.462 505.883 114.702C501.805 117.833 496.821 119.399 490.93 119.399ZM499.936 69.6702H473.768L480.395 40.1893H508.092C513.983 40.1893 518.004 41.4852 520.156 44.0769C522.309 46.6687 522.875 50.2323 521.856 54.7678C520.723 59.1954 518.231 62.813 514.379 65.6207C510.528 68.3204 505.713 69.6702 499.936 69.6702ZM557.62 133.492C563.171 136.623 570.081 138.189 578.35 138.189C584.694 138.189 590.471 137.433 595.682 135.921C601.006 134.301 605.594 132.304 609.446 129.928C613.297 127.552 616.356 125.122 618.621 122.639C620.887 120.155 622.303 118.049 622.869 116.321C623.096 115.349 622.926 114.54 622.36 113.892C621.793 113.244 621 112.92 619.981 112.92H605.198C603.952 112.92 602.989 113.082 602.309 113.406C601.629 113.622 600.61 114.378 599.25 115.673C598.458 116.429 597.268 117.401 595.682 118.589C594.21 119.777 592.284 120.857 589.905 121.829C587.526 122.693 584.751 123.125 581.579 123.125C577.727 123.125 574.612 122.153 572.233 120.209C569.967 118.265 568.495 115.727 567.815 112.596C567.135 109.356 567.079 105.846 567.645 102.067C567.758 101.851 567.815 101.581 567.815 101.257L567.985 100.771H624.399C625.645 100.771 626.721 100.393 627.627 99.6371C628.647 98.8812 629.27 97.9633 629.496 96.8834L630.346 93.4818C632.045 85.0586 631.989 77.6614 630.176 71.2901C628.477 64.8108 624.965 59.7893 619.641 56.2257C614.317 52.554 607.067 50.7182 597.891 50.7182C589.622 50.7182 582.032 52.3381 575.122 55.5777C568.325 58.7094 562.548 63.2449 557.79 69.1843C553.032 75.0157 549.52 82.035 547.255 90.2421C546.915 91.214 546.575 92.5638 546.235 94.2917L545.386 98.3412C543.913 106.764 544.196 113.946 546.235 119.885C548.388 125.824 552.182 130.36 557.62 133.492ZM608.596 87.1644H571.044L571.214 86.6785C572.233 82.4669 573.819 78.7953 575.971 75.6636C578.124 72.424 580.786 69.9402 583.958 68.2124C587.129 66.3766 590.698 65.4587 594.663 65.4587C598.627 65.4587 601.799 66.3766 604.178 68.2124C606.67 69.9402 608.313 72.424 609.106 75.6636C610.012 78.7953 609.899 82.4669 608.766 86.6785L608.596 87.1644ZM383.41 43.1252C383.336 42.4581 383.262 41.7909 383.187 41.1184C383.035 41.1184 382.9 41.1016 382.732 41.0343C379.71 41.0848 376.722 41.3538 373.767 41.9254C362.035 44.1953 352.041 49.6092 344.191 58.6045C334.315 69.9368 330.568 83.1186 333.049 97.9314C334.535 106.859 338.553 114.678 344.664 121.353C354.472 132.063 366.829 137.426 381.263 138.233C385.686 138.486 390.075 138.099 394.414 137.174C406.298 134.635 416.292 128.851 423.956 119.436C432.228 109.297 435.723 97.6287 434.389 84.5982C433.916 79.8904 432.684 75.3676 430.726 71.0465C425.492 59.4788 416.967 51.1393 405.437 45.7925C404.974 45.5684 404.493 45.3627 404.007 45.1549C403.837 45.0822 403.667 45.0092 403.496 44.9351C402.618 46.4483 401.757 47.9279 400.879 49.4243C400.955 49.4578 401.014 49.4872 401.065 49.5124L401.065 49.5125C401.115 49.5378 401.158 49.5588 401.2 49.5756C408.695 52.6861 415.093 57.293 420.057 63.699C428.075 74.0561 431.013 85.6743 428.312 98.5366C426.691 106.204 423.129 112.912 417.71 118.595C409.269 127.439 398.87 132.164 386.682 133.072C382.191 133.408 377.735 133.055 373.328 132.08C362.862 129.759 354.067 124.648 347.314 116.309C339.498 106.658 336.392 95.6111 338.249 83.3204C339.464 75.3171 342.773 68.2218 348.124 62.1017C354.269 55.0736 361.917 50.4331 370.898 47.9111C374.932 46.7845 379.068 46.2633 383.255 46.1793C383.383 46.1793 383.511 46.1673 383.659 46.1535L383.744 46.1456C383.633 45.1267 383.522 44.126 383.41 43.1252ZM366.893 124.939C367.262 124.221 367.627 123.515 367.988 122.816L367.988 122.816C368.618 121.598 369.236 120.401 369.847 119.205C370.591 117.765 371.335 116.321 372.079 114.876C372.821 113.437 373.562 111.998 374.304 110.563C375.09 109.032 375.88 107.504 376.67 105.975C377.728 103.928 378.788 101.879 379.841 99.8191C379.976 99.5669 380.111 99.4828 380.398 99.5501C381.04 99.7014 381.681 99.8191 382.339 99.92C382.593 99.9536 382.694 100.054 382.711 100.307C382.768 101.384 382.842 102.461 382.915 103.533L382.915 103.533V103.534V103.535V103.535C382.936 103.845 382.957 104.155 382.977 104.464C382.987 104.601 382.996 104.737 383.004 104.874L383.015 105.031C383.082 106.091 383.146 107.155 383.209 108.219V108.219V108.22V108.22V108.22L383.21 108.241C383.273 109.297 383.336 110.352 383.403 111.404C383.462 112.428 383.525 113.453 383.589 114.478C383.652 115.504 383.715 116.531 383.774 117.557L383.797 117.906L383.797 117.907V117.908L383.797 117.909C383.924 119.891 384.051 121.861 384.163 123.846C384.247 125.14 384.315 126.435 384.382 127.746C384.382 127.83 384.247 127.999 384.146 128.015C383.909 128.066 383.673 128.066 383.437 128.049C382.706 128.011 381.974 127.985 381.242 127.96C379.37 127.893 377.499 127.827 375.654 127.561C374.187 127.349 372.747 126.895 371.307 126.441L371.307 126.441L371.307 126.441L371.306 126.441L371.306 126.441L371.306 126.441L371.306 126.441L371.305 126.441C370.808 126.284 370.311 126.128 369.813 125.981C369.094 125.783 368.392 125.513 367.675 125.236C367.417 125.137 367.157 125.036 366.893 124.939ZM354.296 100.7C351.52 101.587 348.74 102.476 345.959 103.366C347.275 107.788 352.796 115.825 355.632 117.473C359.146 113.766 362.661 110.055 366.17 106.35L366.188 106.33L366.207 106.311C369.276 103.07 372.342 99.833 375.4 96.6071C374.893 95.8505 374.404 95.1443 373.897 94.4213C367.398 96.5123 360.856 98.6032 354.296 100.7ZM423.798 88.8531C424.405 92.4176 422.768 100.74 420.54 105.465C420.16 105.288 419.78 105.116 419.4 104.944C419.02 104.771 418.64 104.599 418.261 104.422C414.248 102.554 410.239 100.686 406.23 98.8185L406.144 98.7782C402.171 96.927 398.198 95.0758 394.221 93.2246C393.884 93.0565 393.766 92.9052 393.884 92.5352C394.036 91.9804 394.154 91.4256 394.238 90.8539C394.289 90.5681 394.407 90.4504 394.694 90.4336C396.315 90.3495 397.918 90.2654 399.539 90.1646C400.712 90.0973 401.881 90.0342 403.05 89.9712C404.219 89.9081 405.388 89.8451 406.562 89.7778C407.701 89.719 408.836 89.656 409.971 89.5929C411.107 89.5298 412.242 89.4668 413.382 89.4079L414.987 89.3158L416.896 89.206C418.064 89.1388 419.232 89.0716 420.405 89.0044C421.536 88.9708 422.667 88.9203 423.798 88.8531ZM373.031 86.8471C373.061 86.6895 373.093 86.5296 373.124 86.3668C364.312 82.2643 355.415 78.1282 346.502 73.992C344.459 79.3555 342.737 84.7527 343.21 90.587C343.254 90.587 343.294 90.5917 343.332 90.5961C343.366 90.6001 343.397 90.6038 343.429 90.6038C344.191 90.563 344.956 90.5183 345.723 90.4735L345.724 90.4734C346.539 90.4258 347.356 90.3781 348.173 90.3348C349.355 90.2675 350.532 90.2003 351.71 90.133C352.887 90.0658 354.065 89.9985 355.246 89.9313C357.474 89.7968 359.701 89.6792 361.928 89.5615L361.931 89.5614C363.113 89.4941 364.299 89.4311 365.485 89.368L365.486 89.368L365.488 89.3679L365.489 89.3678C366.674 89.3048 367.858 89.2419 369.039 89.1747C369.564 89.1501 370.093 89.1216 370.625 89.093L370.627 89.0929C371.188 89.0627 371.751 89.0324 372.314 89.0065C372.584 88.9897 372.685 88.8888 372.719 88.603C372.799 88.0289 372.912 87.4548 373.031 86.8471ZM397.889 125.406C395.732 119.465 393.575 113.547 391.429 107.657L391.388 107.544C390.322 104.619 389.258 101.701 388.199 98.7897C388.514 98.5944 388.826 98.399 389.14 98.2025L389.141 98.2022L389.141 98.2018C389.584 97.9249 390.031 97.6456 390.494 97.3605C397.787 103.582 405.131 109.853 412.525 116.175C408.439 120.513 403.561 123.539 397.889 125.406ZM407.251 80.6182C411.851 79.1077 416.463 77.5932 421.083 76.0786C418.956 70.6311 415.647 66.0914 411.359 62.1907C405.796 68.07 400.244 73.9256 394.724 79.7478L394.649 79.8272L391.54 83.1067L391.684 83.31C392.154 83.9739 392.6 84.604 393.059 85.2757C397.774 83.7304 402.506 82.1764 407.251 80.6182ZM354.541 63.2801C357.208 60.0519 365.058 55.1255 369.177 54.0831C370.843 58.6692 372.513 63.2508 374.181 67.8257L374.188 67.8464C375.746 72.1203 377.302 76.3883 378.85 80.6485L378.639 80.7809C377.941 81.2192 377.277 81.636 376.571 82.0944C369.262 75.8566 361.918 69.5852 354.541 63.2801ZM388.973 35.9601C387.859 35.7415 386.897 36.5486 386.914 37.776C386.914 37.8006 386.923 37.8702 386.934 37.9586C386.938 37.9909 386.943 38.0258 386.947 38.0618C387.023 38.852 387.103 39.6465 387.184 40.4409C387.264 41.2354 387.344 42.0298 387.42 42.82C387.521 43.8877 387.623 44.9511 387.724 46.0146C387.825 47.0781 387.926 48.1415 388.028 49.2092L388.076 49.7157L388.076 49.7178L388.077 49.7196C388.246 51.4857 388.417 53.2646 388.602 55.0435C388.669 55.8001 388.737 56.5567 388.855 57.2965C388.973 57.9522 389.53 58.4398 390.138 58.5239C390.864 58.6248 391.303 58.3894 391.691 57.7168C391.803 57.5189 391.917 57.3195 392.031 57.1189L392.032 57.118L392.033 57.116C392.296 56.6531 392.563 56.1846 392.822 55.716C394.281 53.145 395.737 50.574 397.192 48.0031L397.194 47.9991C398.65 45.4265 400.106 42.8538 401.567 40.2812C401.854 39.7936 401.837 39.3228 401.55 38.852C401.28 38.3981 400.807 38.2467 400.317 38.1459C396.538 37.4064 392.758 36.6838 388.978 35.9611L388.973 35.9601ZM382.586 51.4643H383.954C384.19 51.4643 384.258 51.5483 384.275 51.7837C384.328 52.2538 384.38 52.724 384.433 53.1939C384.596 54.6565 384.758 56.1169 384.95 57.5676C385.288 60.1569 387.668 62.2081 390.284 62.2249C392.665 62.2417 394.404 61.1657 395.602 59.1312C396.112 58.2519 396.626 57.3775 397.146 56.4947L397.152 56.4853C397.594 55.7339 398.04 54.9765 398.489 54.2049C398.703 54.2902 398.914 54.3725 399.127 54.4556L399.13 54.4566C399.42 54.5697 399.714 54.6844 400.025 54.8102C399.915 55.0205 399.81 55.2308 399.704 55.4412C399.599 55.6512 399.493 55.8612 399.384 56.0712C397.716 59.2909 396.056 62.5107 394.394 65.7355L394.385 65.7533C393.576 67.322 392.767 68.8919 391.956 70.4636C391.415 71.5122 390.873 72.5609 390.33 73.6096C389.247 75.7051 388.163 77.8005 387.094 79.896C386.959 80.1818 386.807 80.2491 386.503 80.165C385.878 80.0137 385.237 79.896 384.612 79.7951C384.342 79.7615 384.224 79.6438 384.207 79.3748C384.156 78.3656 384.096 77.3564 384.037 76.3493L384.036 76.3308V76.3305C383.977 75.3473 383.919 74.3662 383.87 73.3891C383.8 72.2596 383.735 71.13 383.671 69.9982L383.67 69.9828C383.608 68.9127 383.547 67.8406 383.481 66.7646C383.424 65.7359 383.362 64.7071 383.301 63.6765C383.236 62.5846 383.171 61.4907 383.11 60.3923L382.705 53.7341L382.704 53.7294C382.671 52.9912 382.637 52.2528 382.586 51.4643ZM379.751 84.4202C377.826 85.6644 376.864 87.4634 376.746 90.0359C376.774 90.1567 376.801 90.302 376.83 90.4635C376.908 90.8862 377.006 91.4202 377.202 91.919C378.333 94.9623 381.642 96.6436 385.018 95.9711C389.677 95.0463 391.804 89.7501 389.036 86.0175C386.926 83.1928 382.756 82.453 379.751 84.4202Z" fill="url(#paint0_radial_1736_276029)"/>
<defs>
<radialGradient id="paint0_radial_1736_276029" cx="0" cy="0" r="1" gradientUnits="userSpaceOnUse" gradientTransform="translate(363.76 86.5438) rotate(-0.606859) scale(335.797 204.327)">
<stop stop-color="#49D913"/>
<stop offset="1" stop-color="#2A8607"/>
</radialGradient>
</defs>
</svg>
