<svg width="24" height="23" viewBox="0 0 24 23" fill="none" xmlns="http://www.w3.org/2000/svg">
<path d="M11.6668 4.36989C11.714 4.36989 11.7616 4.36303 11.8078 4.34791C12.5581 4.11113 13.3527 3.99616 14.2371 3.99616C15.0409 3.99616 15.7669 4.08915 16.4562 4.28059C16.6851 4.34518 16.9412 4.17753 17.0342 3.9641C17.4134 3.09709 17.7711 2.27866 17.7711 1.73454C17.7711 0.992574 17.3103 0.244185 16.2803 0.244185C15.5905 0.244185 15.334 0.569816 15.1943 0.849192C15.187 0.840926 15.1797 0.832265 15.1728 0.824438C14.9809 0.607321 14.6598 0.244141 13.8963 0.244141C13.0371 0.244141 12.4793 0.993453 12.2095 1.60624C11.2623 1.65298 10.7031 2.0757 10.7031 2.75629C10.7031 3.14558 10.9188 3.57656 11.2665 4.14543C11.3535 4.28793 11.507 4.36989 11.6668 4.36989Z" />
<path d="M9.10113 12.9505C9.96401 13.0453 10.6474 13.3485 11.3325 13.6792C11.8647 13.9357 12.4148 14.2009 13.1114 14.3424C14.1442 14.5517 16.0665 14.9415 16.9871 16.0672C17.0778 16.1781 17.2115 16.2395 17.3503 16.2395C17.3892 16.2395 17.4281 16.2349 17.467 16.2248C18.8356 15.8735 19.8468 15.6684 20.4482 15.7288L20.5847 15.7394C20.5952 15.7403 20.6053 15.7398 20.6154 15.7398C20.8334 15.7609 21.0935 15.5332 21.0935 15.2708C21.0935 15.1783 21.0665 15.0917 21.0202 15.0189C20.6446 13.7923 19.9563 12.6162 19.7282 12.2443C19.7094 7.85065 18.749 4.93408 14.2386 4.93408C9.72764 4.93408 8.76767 7.85113 8.7489 12.2457C8.66874 12.3813 8.66188 12.548 8.73105 12.69C8.80157 12.8346 8.94126 12.9326 9.10113 12.9505ZM14.2386 11.031C13.4627 11.031 12.8316 10.3999 12.8316 9.62399C12.8316 9.01336 13.2248 8.49765 13.7695 8.30339V8.217C13.7695 7.95776 13.9793 7.74798 14.2386 7.74798C14.4978 7.74798 14.7076 7.95776 14.7076 8.217H15.1766C15.4358 8.217 15.6456 8.42677 15.6456 8.68601C15.6456 8.94525 15.4358 9.15502 15.1766 9.15502H14.2386C13.9798 9.15502 13.7696 9.36524 13.7696 9.62404C13.7696 9.88279 13.9798 10.093 14.2386 10.093C15.0145 10.093 15.6456 10.7242 15.6456 11.5C15.6456 12.1107 15.2523 12.6264 14.7076 12.8206V12.907C14.7076 13.1663 14.4978 13.376 14.2386 13.376C13.9794 13.376 13.7696 13.1663 13.7696 12.907H13.3006C13.0413 12.907 12.8316 12.6973 12.8316 12.438C12.8316 12.1788 13.0413 11.969 13.3006 11.969H14.2386C14.4973 11.969 14.7076 11.7588 14.7076 11.5C14.7076 11.2412 14.4974 11.031 14.2386 11.031Z" />
<path d="M5.01709 13.211L1.19732 12.4471C1.06084 12.4196 0.917019 12.4553 0.80802 12.5441C0.699902 12.6334 0.636719 12.7663 0.636719 12.9069V20.4109C0.636719 20.6701 0.846493 20.8799 1.10573 20.8799H4.04428C4.74044 20.8799 5.33951 20.3605 5.43756 19.6721L6.13464 14.7897C6.23999 14.0505 5.74991 13.3571 5.01709 13.211Z" />
<path d="M20.3347 16.6588C19.7491 16.6588 18.7615 16.8676 17.8736 17.0904C17.6561 17.145 17.5154 17.3446 17.5204 17.5686C17.5206 17.578 17.5207 17.5874 17.5207 17.5968C17.5207 18.3063 17.2083 18.9292 16.6422 19.3519C16.0935 19.7614 15.3891 19.9524 14.4255 19.9524C13.1634 19.9524 11.4458 19.6255 9.17398 18.9537C8.93949 18.8844 8.77377 18.6513 8.81963 18.4111C8.87248 18.1341 9.15203 17.9682 9.41396 18.0465C11.5813 18.6887 13.2667 19.0143 14.4255 19.0143C15.412 19.0143 15.8434 18.778 16.0816 18.5998C16.4095 18.3552 16.5827 18.0085 16.5827 17.5967C16.5827 17.5181 16.5683 17.4472 16.5584 17.3739C16.3809 16.0791 14.6759 15.6167 12.9241 15.2609C12.1107 15.096 11.5052 14.8043 10.9199 14.5217C10.1981 14.1736 9.51658 13.8447 8.60973 13.8447C8.25019 13.8447 7.87048 13.8709 7.4807 13.9223C7.23456 13.9548 7.05693 14.1755 7.07549 14.423C7.08912 14.6049 7.08542 14.768 7.06256 14.9224L6.36548 19.8061C6.35906 19.8501 6.34622 19.8913 6.33523 19.933C6.33431 19.9371 6.3114 20.0232 6.31048 20.0268C6.25644 20.2471 6.36728 20.4748 6.57429 20.5673C8.80569 21.5657 11.7846 22.7557 13.2996 22.7557C15.1188 22.7557 18.8644 20.9145 21.3422 19.6962C21.9818 19.3819 22.5118 19.121 22.8583 18.9687C23.0261 18.895 23.1465 18.7351 23.1485 18.5518C23.1606 17.4381 22.0003 16.6588 20.3347 16.6588Z" />
</svg>
