<svg width="23" height="22" viewBox="0 0 23 22" fill="none" xmlns="http://www.w3.org/2000/svg">
<path d="M22.8921 14.3156C22.8921 11.6907 21.326 9.34803 18.9805 8.2085C18.9076 13.2414 14.6639 17.3219 9.42969 17.3919C10.6148 19.6473 13.0512 21.1532 15.7811 21.1532C17.061 21.1532 18.3057 20.8254 19.3994 20.2026L22.8611 21.1233L21.9036 17.7947C22.5513 16.7432 22.8921 15.5463 22.8921 14.3156Z" />
<path d="M17.6946 8.07698C17.6946 3.62325 13.9265 0 9.29459 0C4.66271 0 0.894531 3.62325 0.894531 8.07698C0.894531 9.52847 1.29634 10.9417 2.05934 12.1824L0.925414 16.1241L5.02491 15.0339C6.31526 15.7676 7.78504 16.154 9.29459 16.154C13.9265 16.154 17.6946 12.5307 17.6946 8.07698ZM8.00558 6.19717H6.71657C6.71657 4.83024 7.87298 3.7183 9.29459 3.7183C10.7162 3.7183 11.8726 4.83024 11.8726 6.19717C11.8726 6.89096 11.5671 7.5578 11.0343 8.02646L9.93909 8.99025V9.95679H8.65008V8.44445L10.164 7.11206C10.4346 6.87402 10.5836 6.54915 10.5836 6.19717C10.5836 5.51371 10.0054 4.95774 9.29459 4.95774C8.58379 4.95774 8.00558 5.51371 8.00558 6.19717ZM8.65008 11.1962H9.93909V12.4357H8.65008V11.1962Z" />
</svg>
