<svg width="22" height="22" viewBox="0 0 22 22" fill="none" xmlns="http://www.w3.org/2000/svg">
<g clip-path="url(#clip0)">
<path d="M9.0316 1.19416C8.73121 0.469063 8.02996 0.000488281 7.24509 0.000488281C6.9908 0.000488281 6.7421 0.0501172 6.50577 0.148C5.52105 0.555902 5.05179 1.68899 5.45965 2.67375C5.76004 3.39897 6.46125 3.8675 7.24612 3.8675C7.28007 3.8675 7.31384 3.86647 7.34757 3.86471L7.67022 4.64356C8.04852 4.44492 8.44645 4.27876 8.8608 4.14946L8.53832 3.37096C9.12944 2.83819 9.3531 1.97022 9.0316 1.19416Z" />
<path d="M3.86541 7.34702C3.88071 7.0624 3.83242 6.77575 3.72014 6.50471C3.52248 6.02767 3.15097 5.65612 2.67389 5.4585C2.43761 5.36066 2.18895 5.31104 1.93466 5.31104C1.14975 5.31104 0.44854 5.77961 0.148188 6.50479C-0.0494248 6.98183 -0.0493818 7.5073 0.148231 7.98434C0.345888 8.46138 0.717396 8.83293 1.19448 9.0305C1.43076 9.12834 1.67942 9.17797 1.93371 9.17797C2.49437 9.17797 3.01231 8.93876 3.37192 8.53782L4.14935 8.85987C4.27869 8.44552 4.44489 8.04763 4.64349 7.66933L3.86541 7.34702Z" />
<path d="M4.64614 14.3308C4.44758 13.9525 4.28138 13.5545 4.15213 13.1402L3.37496 13.4621C3.01526 13.061 2.49728 12.8218 1.93653 12.8218C1.68224 12.8218 1.43354 12.8714 1.19721 12.9693C0.212456 13.3773 -0.256806 14.5103 0.151053 15.495C0.451448 16.2201 1.1527 16.6887 1.93752 16.6887C2.19185 16.6887 2.44056 16.6391 2.67689 16.5412C3.45286 16.2197 3.90837 15.448 3.86721 14.6534L4.64614 14.3308Z" />
<path d="M9.02873 19.3266C8.9165 19.0555 8.74802 18.8188 8.53614 18.6285L8.85797 17.8515C8.44363 17.7222 8.04574 17.556 7.66744 17.3574L7.34504 18.1357C7.31123 18.134 7.27733 18.1329 7.24325 18.1329C6.45834 18.1329 5.75713 18.6015 5.45678 19.3267C5.25917 19.8037 5.25921 20.3292 5.45683 20.8062C5.65448 21.2833 6.02599 21.6548 6.50307 21.8524C6.73936 21.9503 6.98802 21.9999 7.24231 21.9999C8.02722 21.9999 8.72842 21.5314 9.02877 20.8062C9.22639 20.3291 9.22639 19.8036 9.02873 19.3266Z" />
<path d="M16.5394 19.3262C16.239 18.6011 15.5378 18.1325 14.7529 18.1325C14.719 18.1325 14.6852 18.1336 14.6515 18.1353L14.329 17.3569C13.9507 17.5556 13.5528 17.7218 13.1384 17.851L13.4607 18.629C12.8696 19.1617 12.6459 20.0297 12.9674 20.8057C13.2678 21.5308 13.9691 21.9994 14.7539 21.9994C15.0082 21.9994 15.2569 21.9498 15.4933 21.8519C16.478 21.444 16.9473 20.3109 16.5394 19.3262Z" />
<path d="M21.8509 6.5052C21.5505 5.7801 20.8492 5.31152 20.0644 5.31152C19.8101 5.31152 19.5614 5.36115 19.325 5.45908C18.5491 5.78053 18.0935 6.5522 18.1347 7.34678L17.3555 7.66956C17.5541 8.04786 17.7203 8.44579 17.8496 8.8601L18.6269 8.53809C18.9866 8.9392 19.5046 9.17845 20.0653 9.17845C20.3196 9.17845 20.5683 9.12882 20.8047 9.03094C21.7895 8.623 22.2587 7.48995 21.8509 6.5052Z" />
<path d="M16.5405 1.19416C16.3428 0.717121 15.9713 0.34557 15.4942 0.147957C15.2579 0.0501172 15.0093 0.000488281 14.755 0.000488281C13.9701 0.000488281 13.2689 0.46902 12.9685 1.1942C12.7709 1.67124 12.7709 2.19675 12.9686 2.67379C13.0808 2.94475 13.2492 3.18151 13.4611 3.37182L13.1391 4.14934C13.5534 4.27863 13.9513 4.44483 14.3296 4.64343L14.6523 3.86462C14.6861 3.86639 14.72 3.86742 14.754 3.86742C15.539 3.86742 16.2402 3.39889 16.5405 2.67366C16.7381 2.19666 16.7381 1.6712 16.5405 1.19416Z" />
<path d="M21.8505 14.0159C21.6528 13.5389 21.2813 13.1673 20.8042 12.9697C20.568 12.8719 20.3193 12.8223 20.065 12.8223C19.5043 12.8223 18.9864 13.0615 18.6268 13.4624L17.8495 13.1404C17.7202 13.5548 17.554 13.9527 17.3555 14.331L18.1333 14.6533C18.118 14.9378 18.1663 15.2245 18.2786 15.4955C18.4763 15.9726 18.8478 16.3441 19.3249 16.5417C19.5612 16.6396 19.8098 16.6892 20.0641 16.6892C20.849 16.6892 21.5502 16.2206 21.8506 15.4954C22.0482 15.0184 22.0481 14.493 21.8505 14.0159Z" />
<path d="M11.0018 8.33643C9.82908 8.33643 8.875 9.29055 8.875 10.4633C8.875 11.636 9.82912 12.5901 11.0018 12.5901C12.1745 12.5901 13.1286 11.636 13.1286 10.4633C13.1286 9.29055 12.1745 8.33643 11.0018 8.33643Z" />
<path d="M10.9997 5.11377C7.74873 5.11377 5.11328 7.74922 5.11328 11.0002C5.11328 12.7062 5.83932 14.2424 6.99896 15.3175C7.15726 14.2964 7.79685 13.4326 8.67732 12.9649C8.00538 12.3408 7.58386 11.4504 7.58386 10.4631C7.58386 8.57963 9.11616 7.04728 10.9997 7.04728C12.8832 7.04728 14.4155 8.57963 14.4155 10.4631C14.4155 11.4504 13.994 12.3407 13.3221 12.9649C14.2026 13.4327 14.8423 14.2965 15.0005 15.3175C16.1601 14.2424 16.8861 12.7062 16.8861 11.0002C16.8861 7.74922 14.2507 5.11377 10.9997 5.11377Z"/>
<path d="M11.8162 13.8794H10.1835C9.11836 13.8794 8.25099 14.7459 8.25 15.8111V16.2062C9.07079 16.6407 10.0065 16.8871 10.9999 16.8871C11.9933 16.8871 12.929 16.6407 13.7497 16.2062V15.8104C13.7488 14.7459 12.8814 13.8794 11.8162 13.8794Z" />
</g>
<defs>
<clipPath id="clip0">
<rect width="22" height="22" />
</clipPath>
</defs>
</svg>
