<svg width="22" height="23" viewBox="0 0 22 23" fill="none" xmlns="http://www.w3.org/2000/svg">
<path d="M10.8945 22.5003L13.2166 21.9644L11.4303 20.1782L10.8945 22.5003Z" />
<path d="M10.4323 20.9704L10.8165 19.3055C10.8174 19.3014 10.8188 19.2976 10.8199 19.2936C10.8217 19.2867 10.8235 19.2799 10.8257 19.2731C10.8279 19.2663 10.8301 19.2606 10.8324 19.2545C10.8347 19.2484 10.8367 19.243 10.8392 19.2373C10.8421 19.2305 10.8453 19.2239 10.8486 19.2175C10.851 19.2126 10.8535 19.2079 10.8561 19.2032C10.8599 19.1963 10.8639 19.1896 10.8681 19.183C10.8707 19.1788 10.8734 19.1747 10.8762 19.1706C10.8808 19.164 10.8855 19.1576 10.8905 19.1513C10.8935 19.1474 10.8965 19.1436 10.8997 19.1398C10.9046 19.1337 10.9102 19.1279 10.9156 19.1222C10.9179 19.1198 10.9198 19.1172 10.9221 19.115L16.0997 13.9374C14.6543 10.9643 11.9814 9.19482 8.91456 9.19482C6.6657 9.19482 4.58805 10.1574 3.06435 11.9053C1.52984 13.6656 0.665157 16.1192 0.617188 18.8359C1.5244 19.2934 5.24954 21.0513 8.91456 21.0513C9.42153 21.0504 9.92811 21.0235 10.4323 20.9704Z" />
<path d="M11.7578 19.394L17.905 13.2469L20.1403 15.4822L13.9931 21.6294L11.7578 19.394Z" />
<path d="M8.91699 8.40429C11.0997 8.40429 12.8691 6.63485 12.8691 4.45214C12.8691 2.26943 11.0997 0.5 8.91699 0.5C6.73428 0.5 4.96484 2.26943 4.96484 4.45214C4.96484 6.63485 6.73428 8.40429 8.91699 8.40429Z" />
<path d="M21.1713 13.8048C21.1713 13.4921 21.0786 13.1865 20.9048 12.9266C20.7311 12.6667 20.4842 12.4641 20.1954 12.3444C19.9065 12.2248 19.5887 12.1935 19.282 12.2545C18.9754 12.3155 18.6937 12.4661 18.4727 12.6871L20.7083 14.9228C20.8556 14.7763 20.9723 14.6021 21.0518 14.4102C21.1313 14.2183 21.1719 14.0125 21.1713 13.8048Z" />
</svg>
