<svg width="20" height="21" viewBox="0 0 20 21" fill="none" xmlns="http://www.w3.org/2000/svg">
<path d="M5.10125 8.35547H0.994405C0.61741 8.35547 0.312604 8.67353 0.308594 9.0711V19.7846C0.308594 20.1822 0.61741 20.5002 0.994405 20.5002H5.10125C5.48226 20.5002 5.78707 20.178 5.78707 19.7846V9.0711C5.78707 8.67353 5.47825 8.35547 5.10125 8.35547Z" />
<path d="M11.9528 0.5H7.84597C7.46897 0.5 7.16016 0.818058 7.16016 1.21144V19.7843C7.16016 20.1819 7.46897 20.5 7.84597 20.5H11.9528C12.3338 20.5 12.6386 20.1777 12.6386 19.7843V1.21563C12.6386 0.818058 12.3298 0.5 11.9528 0.5Z" />
<path d="M18.7927 6.2124H14.6858C14.3048 6.2124 14 6.53046 14 6.92803V19.7843C14 20.1818 14.3088 20.4999 14.6858 20.4999H18.7927C19.1737 20.4999 19.4785 20.1776 19.4785 19.7843V6.92803C19.4785 6.53046 19.1697 6.2124 18.7927 6.2124Z" />
</svg>
