<svg width="20" height="23" viewBox="0 0 20 23" fill="none" xmlns="http://www.w3.org/2000/svg">
<path d="M18.832 3.91081C18.7954 3.91081 18.7587 3.92914 18.722 3.93831C18.6762 3.92914 18.6395 3.91081 18.6029 3.91081H17.6862V1.16081C17.6862 0.656641 17.2737 0.244141 16.7695 0.244141H3.01953C1.66286 0.244141 0.535365 1.23414 0.315365 2.53581C0.287865 2.60914 0.269531 2.68247 0.269531 2.76497V19.7233C0.269531 21.1166 1.39703 22.2441 2.79036 22.2441H18.832C19.2079 22.2441 19.5195 21.9325 19.5195 21.5566V4.59831C19.5195 4.22247 19.2079 3.91081 18.832 3.91081ZM9.89453 19.0358C6.61286 19.0358 3.9362 16.3591 3.9362 13.0775C3.9362 9.79581 6.61286 7.11914 9.89453 7.11914C13.1762 7.11914 15.8529 9.79581 15.8529 13.0775C15.8529 16.3591 13.1762 19.0358 9.89453 19.0358ZM15.8529 3.91081H3.01953C2.51536 3.91081 2.10286 3.49831 2.10286 2.99414C2.10286 2.48997 2.51536 2.07747 3.01953 2.07747H15.8529V3.91081Z" />
<path d="M11.2682 15.369C11.0336 15.369 10.7989 15.2791 10.6201 15.1004L9.24515 13.7254C9.07281 13.554 8.97656 13.3211 8.97656 13.0773V10.3273C8.97656 9.82039 9.38723 9.41064 9.89323 9.41064C10.3992 9.41064 10.8099 9.82039 10.8099 10.3273V12.6978L11.9163 13.8042C12.2747 14.1626 12.2747 14.742 11.9163 15.1004C11.7376 15.2791 11.5029 15.369 11.2682 15.369Z" />
</svg>
