<svg width="13" height="13" viewBox="0 0 13 13" fill="none" xmlns="http://www.w3.org/2000/svg">
<path fill-rule="evenodd" clip-rule="evenodd" d="M12.25 8.45156C11.1733 8.86928 9.99841 8.96493 8.86835 8.72684C7.7383 8.48875 6.70185 7.92721 5.88524 7.1106C5.06863 6.29398 4.50708 5.25754 4.269 4.12748C4.03091 2.99742 4.12655 1.82252 4.54428 0.74585C3.25101 1.24985 2.17431 2.1896 1.50009 3.40285C0.825858 4.6161 0.596419 6.02669 0.851384 7.39107C1.10635 8.75546 1.82971 9.988 2.89658 10.8759C3.96346 11.7638 5.30687 12.2513 6.69487 12.2542C7.89629 12.2545 9.06973 11.8915 10.0611 11.2129C11.0525 10.5343 11.8155 9.57168 12.25 8.45156Z" fill="#268A00"/>
</svg>
