<svg width="40" height="40" viewBox="0 0 40 40" fill="none" xmlns="http://www.w3.org/2000/svg">
<path fill-rule="evenodd" clip-rule="evenodd" d="M39.7947 26.6311C36.133 28.0508 32.1372 28.3758 28.2939 27.5667C24.4506 26.7576 20.9257 24.8492 18.1484 22.0739C15.3711 19.2986 13.4613 15.7763 12.6516 11.9358C11.8419 8.09532 12.1671 4.10242 13.5878 0.443359C9.18946 2.1562 5.52764 5.34994 3.23461 9.47315C0.941584 13.5964 0.16127 18.3902 1.0284 23.0271C1.89553 27.664 4.35567 31.8527 7.98406 34.8702C11.6125 37.8877 16.1814 39.5444 20.9019 39.5545C24.9879 39.5555 28.9788 38.3219 32.3505 36.0155C35.7222 33.7092 38.3172 30.4379 39.7947 26.6311Z" fill="#268A00"/>
</svg>
