<svg width="23" height="23" viewBox="0 0 23 23" fill="none" xmlns="http://www.w3.org/2000/svg">
<path fill-rule="evenodd" clip-rule="evenodd" d="M23 15.4002C20.8467 16.235 18.4968 16.4262 16.2367 15.9504C13.9766 15.4745 11.9037 14.3523 10.2705 12.7202C8.63726 11.0882 7.51418 9.01681 7.038 6.75834C6.56183 4.49988 6.75311 2.15177 7.58857 0C5.00203 1.00727 2.84863 2.8854 1.50017 5.31013C0.151716 7.73487 -0.307162 10.554 0.202769 13.2808C0.712699 16.0076 2.15943 18.4709 4.29317 20.2453C6.42692 22.0198 9.11374 22.9941 11.8897 23C14.2926 23.0006 16.6395 22.2752 18.6223 20.9189C20.6051 19.5626 22.1311 17.6388 23 15.4002Z" fill="#268A00"/>
</svg>
