<svg width="19" height="19" viewBox="0 0 19 19" fill="none" xmlns="http://www.w3.org/2000/svg">
<path d="M6.25196 7.51074C3.14587 7.51074 0.627014 10.0296 0.627014 13.1357C0.627014 16.2418 3.14587 18.7606 6.25196 18.7606C9.35806 18.7606 11.8769 16.2418 11.8769 13.1357C11.8769 10.0296 9.35806 7.51074 6.25196 7.51074ZM4.58698 13.1357C4.27648 13.1357 4.01886 12.8837 4.01886 12.5732C4.01886 12.2627 4.26523 12.0107 4.57573 12.0107H4.58698C4.89748 12.0107 5.14947 12.2627 5.14947 12.5732C5.14947 12.8837 4.89748 13.1357 4.58698 13.1357ZM5.71197 10.8857C5.40147 10.8857 5.14385 10.6337 5.14385 10.3232C5.14385 10.0127 5.39022 9.76072 5.70072 9.76072H5.71197C6.02246 9.76072 6.27446 10.0127 6.27446 10.3232C6.27446 10.6337 6.02246 10.8857 5.71197 10.8857ZM6.83696 13.1357C6.52646 13.1357 6.26884 12.8837 6.26884 12.5732C6.26884 12.2627 6.51521 12.0107 6.82571 12.0107H6.83696C7.14745 12.0107 7.39945 12.2627 7.39945 12.5732C7.39945 12.8837 7.14745 13.1357 6.83696 13.1357Z" />
<path d="M17.278 10.0532C16.5793 8.95859 16.1833 7.68961 16.1102 6.38574H13.426C13.3517 7.67836 12.9569 8.95297 12.256 10.0521C12.2549 10.0532 12.2549 10.0555 12.2538 10.0566C12.7285 10.9802 13.0019 12.0253 13.0019 13.1357C13.0019 14.6072 12.5249 15.965 11.7261 17.0743C11.7284 17.0776 11.7295 17.0821 11.7329 17.0855L12.715 18.5233C12.8196 18.6763 12.994 18.7685 13.1796 18.7685H16.3543C16.54 18.7685 16.7143 18.6763 16.819 18.5233L17.8 17.0855C19.3097 14.876 18.5211 12.0039 17.278 10.0532Z" />
<path d="M16.063 1.34018C15.3947 0.579689 14.137 0.578564 13.4676 1.34131C13.129 1.72718 12.9726 2.24242 13.0401 2.75429L13.2156 4.10428C13.3101 4.4834 13.3653 4.87152 13.4001 5.26077H16.1361C16.171 4.84902 16.2295 4.4384 16.3296 4.03228L16.4916 2.75429C16.558 2.2413 16.4027 1.72605 16.063 1.34018Z"/>
</svg>
