<svg width="14" height="14" viewBox="0 0 14 14" fill="none" xmlns="http://www.w3.org/2000/svg">
<path fill-rule="evenodd" clip-rule="evenodd" d="M7.12701 0.768555C6.57473 0.768555 6.12701 1.21627 6.12701 1.76855V6.26855H1.62701C1.07473 6.26855 0.627014 6.71627 0.627014 7.26855C0.627014 7.82084 1.07473 8.26855 1.62701 8.26855H6.12701V12.7686C6.12701 13.3208 6.57473 13.7686 7.12701 13.7686C7.6793 13.7686 8.12701 13.3208 8.12701 12.7686V8.26855H12.627C13.1793 8.26855 13.627 7.82084 13.627 7.26855C13.627 6.71627 13.1793 6.26855 12.627 6.26855H8.12701V1.76855C8.12701 1.21627 7.6793 0.768555 7.12701 0.768555Z"/>
</svg>
