<svg width="19" height="17" viewBox="0 0 19 17" fill="none" xmlns="http://www.w3.org/2000/svg">
<path d="M3.275 0.535156L5.069 5.54141H0.5L3.275 0.535156Z" />
<path d="M8.79499 0.580795L5.97349 4.6638L4.30249 0.00854492H8.40349L8.79499 0.580795Z"/>
<path d="M12.2367 5.54121H6.76324L9.49999 1.59546L12.2367 5.54121Z"/>
<path d="M14.6975 0.00854492L13.034 4.6638L10.205 0.580795L10.5965 0.00854492H14.6975Z"/>
<path d="M18.5 5.54141H13.9385L15.7325 0.535156L18.5 5.54141Z"/>
<path d="M8.98626 16.5085L8.84826 16.3405L0.668762 6.68652H5.47551L8.88651 16.2258L8.98626 16.5085Z"/>
<path d="M12.3058 6.68652L9.50003 14.524L6.69427 6.68652H12.3058Z"/>
<path d="M18.3312 6.68652L10.1517 16.3405L10.0137 16.501L10.1052 16.234L13.5245 6.68652H18.3312Z"/>
</svg>
