<svg width="19" height="19" viewBox="0 0 19 19" fill="none" xmlns="http://www.w3.org/2000/svg">
<path d="M15.4553 6.38679L16.9137 4.5112L14.7642 2.36164L12.8886 3.82006C12.3906 3.53526 11.8632 3.31641 11.3148 3.16552L11.0202 0.775391H7.97977L7.6852 3.16556C7.13673 3.31645 6.60938 3.53533 6.11139 3.8201L4.23581 2.36168L2.08625 4.51123L3.54467 6.38682C3.25987 6.88481 3.04102 7.41215 2.89013 7.96063L0.5 8.25516V11.2956L2.89017 11.5902C3.04106 12.1387 3.25994 12.666 3.54471 13.164L2.08629 15.0396L4.23584 17.1891L6.11143 15.7307C6.60942 16.0155 7.13676 16.2344 7.68523 16.3853L7.97977 18.7754H11.0202L11.3148 16.3852C11.8633 16.2343 12.3906 16.0154 12.8886 15.7307L14.7642 17.1891L16.9137 15.0395L15.4553 13.164C15.7401 12.666 15.959 12.1386 16.1099 11.5902L18.5 11.2956V8.25516L16.1098 7.96059C15.9589 7.41212 15.7401 6.88477 15.4553 6.38679ZM9.5 14.5215C6.88286 14.5215 4.75391 12.3925 4.75391 9.77539C4.75391 7.15825 6.88286 5.0293 9.5 5.0293C12.1171 5.0293 14.2461 7.15825 14.2461 9.77539C14.2461 12.3925 12.1171 14.5215 9.5 14.5215Z"/>
</svg>
