<svg width="30" height="30" viewBox="0 0 30 30" fill="none" xmlns="http://www.w3.org/2000/svg">
<path d="M5.62467 7.64062C5.62031 7.74854 5.63804 7.85622 5.67678 7.95704C5.71551 8.05787 5.77443 8.14972 5.84992 8.22696C5.92541 8.30421 6.01588 8.36522 6.11578 8.40626C6.21569 8.4473 6.32293 8.4675 6.43092 8.46562H9.18717C9.65029 8.46562 10.0159 8.09063 10.0778 7.63125C10.3759 5.4375 11.8815 3.84 14.5647 3.84C16.8559 3.84 18.9559 4.98563 18.9559 7.74375C18.9559 9.86625 17.7034 10.8412 15.7309 12.3263C13.4809 13.9612 11.6997 15.87 11.8272 18.9675L11.8365 19.6912C11.8422 20.1488 12.2153 20.5163 12.6728 20.5163H15.3822C15.8453 20.5163 16.2184 20.1413 16.2184 19.68V19.3275C16.2184 16.9312 17.1315 16.23 19.5934 14.3644C21.6297 12.8156 23.7503 11.0962 23.7503 7.48875C23.7503 2.43937 19.4865 0 14.8178 0C10.584 0 5.94342 1.97437 5.62654 7.64062H5.62467ZM10.8297 26.9025C10.8297 28.6837 12.2509 30 14.2047 30C16.239 30 17.6397 28.6837 17.6397 26.9025C17.6397 25.0556 16.239 23.7619 14.2028 23.7619C12.2528 23.7619 10.8297 25.0556 10.8297 26.9025Z" />
</svg>
