<svg xmlns="http://www.w3.org/2000/svg" width="161.886" height="112.201" viewBox="0 0 161.886 112.201"><defs><style>.a{fill-rule:evenodd;}</style></defs><path class="a" d="M93.731,40.54c.177-.218.542-.76,1.176-1.741,4.968-7.691-1.842-8.118-1.947-5.25-.054,1.507,1.485,1.667,1.713.473a1.183,1.183,0,0,0,.01-.214c0-.144,0-.256.1-.1a.99.99,0,0,1,.047,1,.392.392,0,0,0-.05.205l.056.044c.492.119.555-.414.585-.675.015-.124.022-.186.066-.086.367.824-.533,3.119-1.213,4.738a4.633,4.633,0,0,0-3.632-5.273,5.844,5.844,0,0,0-5.348,1.106c-.106-.073-.2-.142-.292-.207h0c-.178-.127-.334-.239-.5-.339a5.555,5.555,0,0,0-7.751,2.016,4.284,4.284,0,0,0-.439,2.718c-.681-1.62-1.59-3.931-1.222-4.759.043-.1.05-.038.065.086.031.26.093.793.586.675l.056-.044a.39.39,0,0,0-.05-.205.989.989,0,0,1,.047-1c.1-.154.1-.042.1.1a1.121,1.121,0,0,0,.01.214c.227,1.194,1.767,1.034,1.712-.473-.1-2.868-6.916-2.442-1.947,5.25a17.172,17.172,0,0,0,1.26,1.833q.159.285.35.568c.428.632.835,1.28,1.262,1.96h0c.2.323.41.653.626.992-2.147.236-3.067.955-3.055,2.263a1.764,1.764,0,0,0,1.719,1.892c.1-1.509.416-1.915,1.337-1.778a2.268,2.268,0,0,1,1.907,2.4,3.33,3.33,0,0,1-2.382,2.924,3.441,3.441,0,0,1-3.911-.74,4.656,4.656,0,0,1,.834-7.082,1.444,1.444,0,0,0,.595-1.1,11.582,11.582,0,0,0-8.546-8.649,6.527,6.527,0,0,1-1.555,5.051q.128.022.257.053c2.757.661,4.309,2.84,4.761,6.334A17.971,17.971,0,0,0,72.285,50.3a5.385,5.385,0,0,0,6.443,2.96,5.022,5.022,0,0,0,3.819-5.429,10.315,10.315,0,0,0-.571-2.157h0c-.109-.32-.22-.64-.315-.962-.145-.494-.312-.986-.479-1.478a15.91,15.91,0,0,1-.891-3.444,9.218,9.218,0,0,1,.79-3.818c.473-.977,1.264-1.147,1.83-.868a1.486,1.486,0,0,1,.415,2.013,1.655,1.655,0,0,1-1.369,1,2.582,2.582,0,0,1-.272.036,3.817,3.817,0,0,0-.584.094c.188.16.351.316.5.459a2.628,2.628,0,0,0,.837.631A2.714,2.714,0,0,0,83.5,39.4h0c.22-.012.463-.026.74-.026l-.976.6-.786.487a8.368,8.368,0,0,0,5.553.108,8.062,8.062,0,0,1-.723-.553h0a7.818,7.818,0,0,0-.693-.531l.054,0c1.147.051,2.168.1,2.552-1.356-.025-.006-.043-.01-.067-.013a1.685,1.685,0,0,1-1.317-2.947,1.227,1.227,0,0,1,1.346.275,2.837,2.837,0,0,1,.607.892,6.669,6.669,0,0,1,.53,3.511,41.435,41.435,0,0,1-1.4,4.873h0c-.2.609-.4,1.217-.6,1.828a4.887,4.887,0,0,0,1.1,5.22,5.246,5.246,0,0,0,5.361,1.476c2.7-.671,3.827-2.741,4.379-5.242.143-.646.244-1.3.345-1.959h0a24.615,24.615,0,0,1,.469-2.474,5.626,5.626,0,0,1,4.594-4.251,6.532,6.532,0,0,1-1.55-5.018c-4.347.95-7.2,3.809-8.555,8.288a1.077,1.077,0,0,0,.54,1.5,4.576,4.576,0,0,1,1.5,6.164,3.644,3.644,0,0,1-4.266,1.726,3.6,3.6,0,0,1-2.715-3.34,2.331,2.331,0,0,1,2.084-2.129c1.056-.038,1.092.646,1.127,1.344.008.158.016.316.036.467a1.756,1.756,0,0,0,1.718-1.819,1.9,1.9,0,0,0-.472-1.358,8.7,8.7,0,0,0-1.627-.889c-.261-.12-.533-.246-.813-.386.186-.281.379-.569.577-.862.442-.657.9-1.343,1.339-2.047Q93.621,40.753,93.731,40.54Zm-23.714,27.2a17.916,17.916,0,0,0-1.607-1.542c-6.57-5.024-8.7,1.417-5.958,1.813,1.478.214,1.8-1.316.646-1.669a1.112,1.112,0,0,0-.21-.033c-.144-.014-.255-.025-.089-.111a.972.972,0,0,1,.99.058c.088.046.155.082.2.072l.045-.05c.169-.483-.348-.6-.6-.659-.121-.028-.181-.041-.079-.074a5.084,5.084,0,0,1,3.016.353,12.885,12.885,0,0,1,2.4,1.195,1.939,1.939,0,0,0-.927.147c-3.722,1.547-2.522,7.076,2.489,7.076,4.752,0,5.812-2.811,6.713-5.2a8.066,8.066,0,0,1,1.24-2.466,5.235,5.235,0,0,1,.622-.555c.481-.387.813-.653-.215-.459A7.43,7.43,0,0,0,73.045,69.5c-.6.957-1.035,1.655-2.128,1.491-.169-.025-.093-.067.056-.149.309-.17.933-.514.347-1.24l-.1-.072c-.07,0-.138.074-.228.176a1.1,1.1,0,0,1-1.331.385c-.292-.094-.145-.146.046-.212h0a1.213,1.213,0,0,0,.263-.114A1.316,1.316,0,0,0,70.017,67.737Zm31.659-.648a12.894,12.894,0,0,1,2.4-1.195,5.084,5.084,0,0,1,3.016-.353c.1.033.042.047-.079.074-.254.058-.772.176-.6.659l.045.05c.045.01.111-.025.2-.072a.972.972,0,0,1,.99-.058c.167.086.056.1-.089.111a1.119,1.119,0,0,0-.21.033c-1.156.353-.832,1.883.646,1.669,2.743-.4.612-6.838-5.958-1.813a17.684,17.684,0,0,0-1.619,1.557,1.311,1.311,0,0,0,.063,2.008,1.2,1.2,0,0,0,.262.114h0c.191.066.339.118.046.212a1.1,1.1,0,0,1-1.331-.385c-.089-.1-.158-.18-.228-.176l-.1.072c-.586.726.038,1.07.347,1.24.15.082.225.124.056.149-1.094.165-1.53-.534-2.128-1.491a7.431,7.431,0,0,0-5.644-3.862c-1.028-.194-.7.072-.214.459h0a5.3,5.3,0,0,1,.622.555,8.077,8.077,0,0,1,1.24,2.466c.9,2.387,1.961,5.2,6.713,5.2,5.011,0,6.211-5.528,2.489-7.076A1.943,1.943,0,0,0,101.676,67.088ZM64.266,35.035a1.375,1.375,0,0,0,.469,1.512,1.406,1.406,0,0,0,.973.342c1.323-.036,1.792-1.449,1.247-2.763a10.789,10.789,0,0,0-3.9-.017A11.891,11.891,0,0,0,54.733,39.7a7.508,7.508,0,0,1-1.358,1.648c1.526-4.831,5.093-7.557,9.835-9.034q.512-.159,1.027-.3a5.7,5.7,0,0,0-1.391-.112c-2.608.093-5.136,1.671-7.6,3.208-2.087,1.3-4.127,2.575-6.128,2.891l-.212.237a.683.683,0,0,0-.107.14h0c-.019.03-.038.06-.059.087a2.149,2.149,0,0,0-.237.409l-.044.09a4.316,4.316,0,0,0-.189.549l-.012.054h0a2.5,2.5,0,0,0-.074.52,1.571,1.571,0,0,0,.007.391h0c.006.06.012.119.015.18a1.338,1.338,0,0,1,.034.136,1.1,1.1,0,0,0,.142.381l.072.146.018.025.041.052a.874.874,0,0,1,.062.083.528.528,0,0,0,.111.129l.208.191.246.154a2.45,2.45,0,0,0,.549.23l.3.078.308.038a1.775,1.775,0,0,0,.4.015c.071,0,.143-.006.218,0l.337-.053.155-.023.157-.044a3.73,3.73,0,0,0,.629-.2,4.307,4.307,0,0,0,.52-.236l.086-.044a3.184,3.184,0,0,0,.384-.231h0c.066-.044.132-.088.2-.129-.059.056-.115.114-.172.173h0a3.327,3.327,0,0,1-.325.306,3.93,3.93,0,0,1-.567.411,4.106,4.106,0,0,1-.624.331l-.161.077-.176.056-.326.1c-.07.011-.142.025-.215.039a2.479,2.479,0,0,1-.525.064l-.372.008-.373-.047a3.153,3.153,0,0,1-.734-.212l-.354-.171-.328-.234a1.1,1.1,0,0,1-.2-.185c-.031-.033-.062-.067-.095-.1l-.071-.077-.035-.038-.019-.02-.038-.058-.089-.147a2.974,2.974,0,0,1-.325-.753c-.01-.055-.02-.111-.031-.166a2.789,2.789,0,0,1-.071-.63,3.892,3.892,0,0,1,.051-.792,4.245,4.245,0,0,1,.205-.762l-.149-.065c-.057.044-.115.086-.173.128h0c-.082.06-.165.12-.244.184l-.373.363a6.071,6.071,0,0,0-.621.844,2.011,2.011,0,0,0-.186.34c-.02.043-.04.086-.061.128a2.816,2.816,0,0,0-.2.493,4.916,4.916,0,0,0-.25,1.04,6.912,6.912,0,0,0-.06,1.072l.046.536.108.525a5.31,5.31,0,0,0,.38.994l.054.122v0s0,0,0,0v0s.007.011,0,0l.015.023.042.062.165.252.33.5c.08.083.156.168.232.251h0a7.159,7.159,0,0,0,.5.516l.434.346.219.176.244.138.492.279a1.787,1.787,0,0,0,.313.136c.07.025.14.051.209.082s.126.049.189.075a3.158,3.158,0,0,0,.346.128l.56.131a3.79,3.79,0,0,0,.783.125c.123.011.246.022.37.038a6.806,6.806,0,0,0,.76,0h0c.141,0,.283-.009.427-.009-.138.029-.276.065-.415.1h0a5.038,5.038,0,0,1-.762.156c-.128.005-.256.017-.385.029a3.507,3.507,0,0,1-.835.012l-.617-.051a3.308,3.308,0,0,1-.4-.081h0c-.068-.016-.136-.033-.2-.047a4.942,4.942,0,0,1-1.109-.377l-.076-.033-.293-.126-.27-.166-.542-.34a9.214,9.214,0,0,1-.855-.762l-.131-.127-.371-.471-.185-.235-.047-.059-.022-.029-.012-.016-.006-.008-.031-.048-.083-.145a5.858,5.858,0,0,1-.542-1.215l-.165-.646-.092-.658a6.427,6.427,0,0,1,.021-1.327,6.2,6.2,0,0,1,.289-1.3A3.948,3.948,0,0,1,44.4,39.9c.021-.045.042-.091.062-.136a3.156,3.156,0,0,1,.24-.462,5.873,5.873,0,0,1,.8-1.08l.492-.462q.074-.059.15-.115a6.054,6.054,0,0,1-1.328-.821q-.139-.112-.265-.23-.376.171-.749.325c-9.515,3.934-13.743-.84-13.591-4.332.106-2.459,3-4.031,4.861-2.36a2.372,2.372,0,0,1-.092,3.75.8.8,0,0,1-.566.236.809.809,0,1,1,.8-.809.821.821,0,0,1-.017.169,2.056,2.056,0,0,0-.42-2.89h0a2.169,2.169,0,0,0-1.494-.526c-3.875.1-2.971,7.918,4.393,7.657a15.753,15.753,0,0,0,6.335-1.832c-1.783-2.482-.035-6.071,2.45-6.13,2.769-.067,3.387,2.523,2,3.588l.884-.55c5.524-3.446,10.834-6.758,15.994-2.642a15.027,15.027,0,0,1-.239-3.386c.013-2.143.026-4.158-1.859-5.815A3.349,3.349,0,0,0,58.3,25.373a2.619,2.619,0,0,0,3.367,1.275,2.543,2.543,0,0,0,1.149-3.305,1.855,1.855,0,0,0-2.183-1.053,1.6,1.6,0,0,0-.873,2.3.892.892,0,0,0,.272.321.838.838,0,0,1,.081-1.173.818.818,0,0,1,1.162.085A.837.837,0,0,1,61.2,25a.814.814,0,0,1-.346.181A1.013,1.013,0,0,1,59.6,24.7a1.759,1.759,0,0,1,.774-2.469,2.106,2.106,0,0,1,2.577.93,2.693,2.693,0,0,1-1.4,3.852,2.847,2.847,0,0,1-3.621-1.544,3.605,3.605,0,0,1,6.027-3.915c1.615,1.581,1.591,3.659,1.567,5.806a17.171,17.171,0,0,0,.161,3.18,6.484,6.484,0,0,1,.843.922,61.1,61.1,0,0,1,7.652-1.027c3.455-.279,6.912-.385,10.034-.358l.075-.14a4.642,4.642,0,0,0,.483-3.911,4.875,4.875,0,0,0-1.4-1.9,6.227,6.227,0,0,1-1.148-1.345c-.9-1.61,1.189-3.448,1.189-2.573,0,.694.737.681.512.241-.693-1.332.052-2.052.709-2.687a3.774,3.774,0,0,0,.608-.683l.11-.077.109.077a3.773,3.773,0,0,0,.607.684c.656.635,1.4,1.355.71,2.686-.23.44.5.454.5-.241,0-.874,2.1.963,1.192,2.573a6.127,6.127,0,0,1-1.15,1.35,4.836,4.836,0,0,0-1.4,1.893,4.668,4.668,0,0,0,.48,3.9h0l.077.145a98.028,98.028,0,0,1,16.064,1.089q.813.134,1.617.3a6.457,6.457,0,0,1,.831-.913,16.992,16.992,0,0,0,.166-3.212c-.024-2.148-.048-4.225,1.567-5.806a3.605,3.605,0,0,1,6.028,3.915,2.847,2.847,0,0,1-3.621,1.544,2.693,2.693,0,0,1-1.4-3.852,2.105,2.105,0,0,1,2.576-.93,1.759,1.759,0,0,1,.774,2.469,1.013,1.013,0,0,1-1.247.482.816.816,0,0,1-.346-.181.837.837,0,0,1-.079-1.173.818.818,0,0,1,1.162-.085.838.838,0,0,1,.081,1.173.885.885,0,0,0,.272-.321,1.6,1.6,0,0,0-.873-2.3,1.856,1.856,0,0,0-2.183,1.053,2.544,2.544,0,0,0,1.149,3.305,2.619,2.619,0,0,0,3.366-1.275,3.349,3.349,0,0,0-4.938-4.331c-1.884,1.657-1.872,3.672-1.859,5.815a14.905,14.905,0,0,1-.247,3.417c5.166-4.138,10.482-.822,16.012,2.627q.441.275.884.55c-1.387-1.066-.769-3.655,2-3.588,2.485.059,4.233,3.649,2.45,6.13a15.752,15.752,0,0,0,6.334,1.832c7.364.261,8.268-7.554,4.393-7.657a2.171,2.171,0,0,0-1.494.526h0a2.056,2.056,0,0,0-.431,2.874.821.821,0,0,1-.017-.17.8.8,0,1,1,.8.809.793.793,0,0,1-.524-.2,2.37,2.37,0,0,1-.122-3.771c1.859-1.671,4.755-.1,4.86,2.36.153,3.492-4.076,8.266-13.591,4.332-.248-.1-.5-.211-.749-.325-.084.078-.172.155-.265.23a6,6,0,0,1-1.378.843c.041.033.081.065.123.1s.087.07.132.105h0a2.236,2.236,0,0,1,.373.34c.155.165.307.333.454.5l.369.568a2.8,2.8,0,0,1,.279.537l.037.085c.025.064.056.13.085.2a2.234,2.234,0,0,1,.162.438l.156.579.019.073.016.066,0,.021.005.042.02.165.039.329a4.522,4.522,0,0,1,.019,1.021h0c-.005.1-.012.2-.015.306a2.709,2.709,0,0,1-.069.436h0c-.015.073-.032.145-.044.218-.008.041-.016.081-.024.122h0a2.526,2.526,0,0,1-.14.518l-.226.622a4.013,4.013,0,0,1-.22.423q-.046.079-.09.159a3.868,3.868,0,0,1-.516.747c-.084.1-.169.208-.247.314l-.491.463-.247.226-.249.168-.5.327c-.157.087-.278.145-.4.2l-.116.057-.076.038a6.672,6.672,0,0,1-1.177.416,3.994,3.994,0,0,1-.607.128l-.092.015h0a3.768,3.768,0,0,1-.521.062,6.88,6.88,0,0,1-1.223-.02,7.382,7.382,0,0,1-1.18-.249l.6.024c.11,0,.219-.006.328-.012.087,0,.174-.01.261-.011a7.085,7.085,0,0,0,1.149-.18,3.353,3.353,0,0,0,.452-.119h0l.1-.032a3.7,3.7,0,0,0,.538-.2,7.867,7.867,0,0,0,1.019-.508l.45-.29.462-.383.231-.189.174-.2.35-.391c.065-.109.136-.213.207-.316a2.807,2.807,0,0,0,.353-.618c.031-.075.066-.147.1-.219.043-.09.086-.18.122-.272l.158-.517a1.844,1.844,0,0,0,.092-.424c0-.013,0-.025.005-.038l.009-.066c.007-.065.019-.13.029-.2a1.794,1.794,0,0,0,.038-.339c0-.093,0-.185,0-.278a3.815,3.815,0,0,0-.053-.8c-.01-.06-.019-.132-.027-.2a2.592,2.592,0,0,0-.045-.289l-.167-.578a1.155,1.155,0,0,0-.125-.318,1.57,1.57,0,0,1-.077-.161L125,40.3a1.536,1.536,0,0,0-.186-.334l-.289-.433c-.12-.125-.236-.254-.35-.384a1.4,1.4,0,0,0-.271-.258c-.039-.031-.076-.061-.113-.093s-.075-.061-.112-.092h0a1.416,1.416,0,0,0-.308-.218l-.237-.141.02.044a1.773,1.773,0,0,1,.084.206,3.547,3.547,0,0,1,.2.785,2.825,2.825,0,0,1,.045.61c0,.069,0,.137,0,.2-.006.049-.012.1-.017.146h0a2.739,2.739,0,0,1-.136.676l-.012.041h0a1.467,1.467,0,0,1-.143.357c-.026.044-.046.084-.066.123a1.765,1.765,0,0,1-.174.282l-.233.266a2.272,2.272,0,0,1-.278.233h0l-.059.044a1.447,1.447,0,0,1-.363.222c-.042.018-.082.039-.123.059a1.043,1.043,0,0,1-.248.1,3.172,3.172,0,0,1-.769.162,2.192,2.192,0,0,1-.549.008h0c-.072-.005-.145-.01-.216-.012s-.143-.028-.215-.041a2.869,2.869,0,0,1-.516-.125l-.076-.026a5.572,5.572,0,0,1-.6-.234,3.34,3.34,0,0,1-.642-.373,2.907,2.907,0,0,1-.445-.5l-.037-.05-.43-.563.537.459.072.061.039.033a2.8,2.8,0,0,0,.422.323,2.912,2.912,0,0,0,.619.223,5.917,5.917,0,0,0,.6.134l.059.011a2.317,2.317,0,0,0,.437.04c.071,0,.142,0,.212.009.076-.011.153-.017.23-.022h0a1.7,1.7,0,0,0,.4-.06,2.444,2.444,0,0,0,.58-.191.623.623,0,0,0,.162-.091,1.038,1.038,0,0,1,.094-.06.782.782,0,0,0,.217-.167.7.7,0,0,1,.075-.07.622.622,0,0,0,.113-.114l.209-.284c0-.014.06-.149.09-.215a.721.721,0,0,0,.07-.23l.007-.036a1.571,1.571,0,0,0,.051-.413h0c0-.053,0-.105.008-.157s-.015-.132-.021-.2a1.614,1.614,0,0,0-.066-.39,3.071,3.071,0,0,0-.182-.571,1.873,1.873,0,0,0-.154-.314h0c-.033-.057-.066-.115-.1-.18l-.211-.281-.052-.071-.024-.032,0,0-.118-.124-.026-.028c-1.973-.339-3.984-1.593-6.041-2.877-2.464-1.537-4.993-3.115-7.6-3.208a5.677,5.677,0,0,0-1.425.12q1.288.366,2.549.846a13.158,13.158,0,0,1,8.168,8.126,25.356,25.356,0,0,1-1.754-2.05,11.411,11.411,0,0,0-11.435-4.808l-.23.036c-.515,1.3-.042,2.683,1.266,2.718a1.407,1.407,0,0,0,.973-.342,1.366,1.366,0,0,0,.457-1.542c0,.011,0,.022,0,.033a.8.8,0,1,1-.8-.809.8.8,0,0,1,.6.27,1.549,1.549,0,0,1-.062,2.344,1.784,1.784,0,0,1-2.283.075,5.94,5.94,0,0,0,1.618,2.364,4.036,4.036,0,0,1,2.488,1.077,3.273,3.273,0,0,0,1.64-.364c3.622-1.841.321-6.009-2.007-4.238a1.887,1.887,0,0,0-.893,2.2h0l.025.148c-.432-.262-.678-1.791.627-2.707a2.6,2.6,0,0,1,2.037-.576c3.726.6,3.534,5.788-.919,6.125a2.967,2.967,0,0,1,.547,1.659,2.8,2.8,0,0,1-.892,2.015,2.572,2.572,0,0,1-2.07.08,2.416,2.416,0,0,1-.945-.871c-.126-.163-.252-.325-.385-.467a2.591,2.591,0,0,0,.654,3.314,4.433,4.433,0,0,0,6.76-1.135c.173-.305.332-.617.507-.959.082-.16.167-.327.259-.5.114.182.217.351.315.509v0h0c.2.326.374.609.56.884a7.171,7.171,0,0,0,4.524,3.043c.11,2.777,0,5.559-.119,8.342h0l-.011.277a52.763,52.763,0,0,1-1.129,9.817,20.183,20.183,0,0,1-2.209,5.832,10.509,10.509,0,0,1-6.909,5.116,20.357,20.357,0,0,1-9.45-.124,12.126,12.126,0,0,1-5.877-3.691c-.484-.509-.937-1.049-1.388-1.588a19.6,19.6,0,0,0-2.465-2.6,5.053,5.053,0,0,0-6.691-.156,12.883,12.883,0,0,0-2.137,2.174h0c-.159.19-.318.379-.479.566-1.743,2.025-3.543,4.014-6.138,4.906a18.576,18.576,0,0,1-11.679.2,10.381,10.381,0,0,1-6.222-5.455,26.258,26.258,0,0,1-2.544-9.317A107.7,107.7,0,0,1,52.3,48.483a7.157,7.157,0,0,0,4.468-2.932c.217-.31.424-.627.642-.962v0c.1-.155.205-.314.314-.478,1.715,3.371,3.868,4.407,6.481,3.221a2.95,2.95,0,0,0,1.651-4.148l-.17.278h0c-.1.157-.165.27-.237.381a2.135,2.135,0,0,1-2.755.98,2.166,2.166,0,0,1-1.078-2.655,3.569,3.569,0,0,1,.54-1.222c-4.406-.371-4.584-5.524-.871-6.121a2.6,2.6,0,0,1,2.037.576c1.3.916,1.059,2.444.627,2.707.008-.049.017-.1.026-.149a1.888,1.888,0,0,0-.893-2.2c-2.327-1.771-5.629,2.4-2.007,4.238a3.276,3.276,0,0,0,1.582.366,4.007,4.007,0,0,1,2.552-1.084,5.944,5.944,0,0,0,1.613-2.359,1.784,1.784,0,0,1-2.283-.075,1.548,1.548,0,0,1-.034-2.369.8.8,0,0,1,.186-.136l.01-.006.02-.012,0,.005a.792.792,0,0,1,.346-.079.81.81,0,1,1-.8.81C64.266,35.049,64.266,35.042,64.266,35.035ZM45.52,32.121a.8.8,0,1,1,.8.814.792.792,0,0,1-.484-.164,1.935,1.935,0,0,0,.459.467c1.515,1.153,3.665-1.562,1.306-2.76-2.466-1.255-5.352,2.714-3.266,5.336,1.275-.648,2.538-1.4,3.79-2.172a2.342,2.342,0,0,1-.66.205,1.709,1.709,0,0,1-1.329-.377A1.387,1.387,0,0,1,45.52,32.121Zm20.267-.5q-.067-.151-.125-.3-.12-.12-.252-.238c-4.319-3.858-9.935-.6-15.49,2.616h0c-1.681.974-3.356,1.945-4.988,2.715a4.3,4.3,0,0,0,1.7.878,3.141,3.141,0,0,1,.29-.158c.067-.033.133-.067.2-.1a3.331,3.331,0,0,1,.615-.26A4.86,4.86,0,0,1,48.78,36.5l.24-.045h0a.616.616,0,0,1,.722.642,26.286,26.286,0,0,0,5.126-2.517,35.036,35.036,0,0,1,3.983-2.094c2.672-1.1,4.7-1.155,6.143-.672Q65.392,31.712,65.787,31.621ZM105,31.348c-.036.092-.075.184-.116.276q.4.092.788.193c1.44-.489,3.478-.444,6.162.666a35.042,35.042,0,0,1,3.984,2.094,26.911,26.911,0,0,0,5.036,2.489.617.617,0,0,1,.76-.6c.132.033.265.06.4.087a3.913,3.913,0,0,1,.865.244c.071.029.143.056.215.083h0c.134.051.268.1.4.162l.479.272a4.289,4.289,0,0,0,1.787-.9c-1.632-.769-3.307-1.74-4.988-2.715-5.555-3.219-11.171-6.474-15.49-2.616Q105.13,31.213,105,31.348Zm19.887,1.37a.8.8,0,0,1-.528.2.809.809,0,1,1,.8-.863,1.377,1.377,0,0,1-.6,1.414,1.709,1.709,0,0,1-1.329.377,2.346,2.346,0,0,1-.66-.205c1.252.772,2.515,1.524,3.79,2.172,2.085-2.622-.8-6.59-3.266-5.336-2.36,1.2-.209,3.913,1.306,2.76A1.841,1.841,0,0,0,124.883,32.718ZM80.255,63.443c-.76-2.85-1.943-5.464-4.355-7.311a8.775,8.775,0,0,0-5.716-1.87,18.606,18.606,0,0,0-8.968,2.407c-.965.5-1.086,1.075-.505,2.047a11.3,11.3,0,0,0,9.274,5.837,37.552,37.552,0,0,0,5.111-.03c1.41-.072,2.819-.145,4.233-.084C79.955,64.464,80.446,64.156,80.255,63.443Zm29.2-6.773a18.606,18.606,0,0,0-8.968-2.407,8.777,8.777,0,0,0-5.715,1.87c-2.414,1.847-3.595,4.461-4.355,7.311-.19.712.3,1.021.925.994,1.413-.061,2.822.012,4.233.084h0a37.558,37.558,0,0,0,5.111.03,11.3,11.3,0,0,0,9.275-5.837C110.539,57.744,110.419,57.172,109.454,56.669ZM84.03,27.708c0,3.843-2.246,1.793-1.668,1.574.883-.313-.022-3.912-2.8-2.446a4.265,4.265,0,0,0-1.213,1.077,3.335,3.335,0,0,1-2.564,1.46c-.112.006-.039-.09.1-.272a2.817,2.817,0,0,0,.666-1.5c.026-.354.024-.672.023-.963h0c-.005-1.079-.008-1.764,1.388-2.385C79.809,23.436,84.03,24.507,84.03,27.708Zm-3.955-4.784c-.12,0-.242.012-.366.02a2.2,2.2,0,0,1-2.573-1.387c-.559-1.118.7-2.723,1.769-1.779.543.484-.035,1.306-.545,1.018l-.153-.055a.381.381,0,0,0,.322.363c.048.014.083.024.092.046l-.008.039c-.16.293-.37.143-.474.068-.05-.035-.075-.054-.06,0,.106.36.408.4.812.442a2.618,2.618,0,0,1,1.313.432,2.89,2.89,0,0,1,1.074,1.17A2.769,2.769,0,0,0,80.074,22.924Zm6.583,4.784c0-3.2,4.227-4.272,6.07-3.456,1.407.624,1.4,1.312,1.391,2.4h0c0,.287-.005.6.018.95a2.852,2.852,0,0,0,.67,1.5c.139.183.212.28.1.274a3.33,3.33,0,0,1-2.555-1.456,4.257,4.257,0,0,0-1.22-1.081c-2.777-1.466-3.682,2.133-2.808,2.446C88.905,29.5,86.657,31.551,86.657,27.708Zm3.95-4.784a2.757,2.757,0,0,0-1.192.379,2.819,2.819,0,0,1,1.072-1.17A2.629,2.629,0,0,1,91.8,21.7c.4-.047.7-.082.809-.442.015-.054-.008-.036-.057,0-.1.074-.313.226-.477-.067l-.012-.039c.01-.022.046-.032.094-.046a.389.389,0,0,0,.331-.363l-.156.055c-.51.288-1.093-.534-.545-1.018,1.062-.943,2.323.661,1.769,1.779a2.214,2.214,0,0,1-2.582,1.387C90.851,22.936,90.728,22.928,90.607,22.924ZM85.253,50.1Q85,46.717,81.587,40.967q3.069,5.766,1.884,10.138t-6.862,4.112A13.608,13.608,0,0,1,80.3,59.441a21.28,21.28,0,0,1,1.276,4.845,4.505,4.505,0,0,0,1.1-3.358,9.756,9.756,0,0,0-1.087-4.011,7.694,7.694,0,0,0,3.666-5.812,7.7,7.7,0,0,0,3.667,5.812,9.756,9.756,0,0,0-1.087,4.011,4.505,4.505,0,0,0,1.1,3.358,21.28,21.28,0,0,1,1.276-4.845A13.609,13.609,0,0,1,93.9,55.217q-5.675.26-6.862-4.112T88.92,40.967Q85.5,46.717,85.253,50.1Zm28.112-2.381a6.971,6.971,0,0,1-2.389,3.085,4.082,4.082,0,0,1-4.131,0,8.541,8.541,0,0,1-3.869-5q.846,5.288,3.515,6.868a5.685,5.685,0,0,0,5.785,0q2.6-1.244,2.6,1.58t-2.6,10.375q3.87-7.627,4.074-10.808T113.365,47.72Zm-55.653,0q-3.191,2.92-2.986,6.1T58.8,64.628q-2.6-7.552-2.6-10.375t2.6-1.58a5.686,5.686,0,0,0,5.786,0q2.668-1.58,3.515-6.868a8.54,8.54,0,0,1-3.869,5,4.082,4.082,0,0,1-4.131,0A6.963,6.963,0,0,1,57.712,47.72Zm48.622,22.7a.81.81,0,1,0-.8-.809A.806.806,0,0,0,106.334,70.424Zm-42.291,0a.81.81,0,1,0-.8-.809A.805.805,0,0,0,64.043,70.424Zm21.191-9.808a9.147,9.147,0,0,1-2.4,4.239,8.429,8.429,0,0,1,2.4,2.236,8.622,8.622,0,0,1,2.407-2.236A9.268,9.268,0,0,1,85.234,60.615Zm29.159,2.271c0-.031,0-.019,0,.031-.054.723-.7,9.41-7.813,12q-7.607,2.767-13.59-2.954,5.286,6.995,13.59,4.772c8.039-2.152,7.84-12.665,7.819-13.768C114.394,62.927,114.393,62.9,114.393,62.886Zm-58.539,0c0,.015,0,.041,0,.078-.021,1.1-.22,11.617,7.819,13.768q8.3,2.223,13.59-4.772-5.982,5.721-13.59,2.954c-7.114-2.588-7.76-11.274-7.813-12C55.855,62.867,55.854,62.855,55.854,62.886Zm49.273,38.554v-1.348c0-2.215-.059-6.644-.15-7.333-4.789,0-6.944.748-7.752,1.257a15.955,15.955,0,0,0-.5,2.283l-.035.2c-.02.112-.039.222-.059.33l-.688.18c.015-.173.032-.382.053-.617l0-.037c.149-1.714.419-4.826.393-6.889l.688.119,0,.051.012.165c.033.453.088,1.2.164,1.73.479.089,5.627.3,9.668.3,4.34,0,9.518-.21,10-.3.1-.288.23-.942.342-1.483v0l.027-.135c.018-.083.034-.162.049-.236l.749-.119c-.18.688-.868,6.825-.958,7.723l-.688-.18c.06-1.2.09-2.424.06-3.084-.749-.6-4.909-1.257-7.812-1.257-.09.808-.15,5.178-.15,7.333v1.348c0,2.634.059,7.693.15,10.087.454.072,2.285.258,3.292.361h.008l.56.057.119.629c-.718-.06-4.221-.12-5.866-.12-1.348,0-4.939.06-5.807.12l.15-.629c.688-.059,3.113-.329,3.831-.419C105.068,109.192,105.127,104.044,105.127,101.44Zm-11.112-.569c0,7.333-5.567,12.063-12.931,12.063-3.023,0-6.465-.509-9.249-3.353a9.448,9.448,0,0,1-2.873-7.243c0-5.927,4.879-11.314,13.14-11.314a12.821,12.821,0,0,1,8.291,2.424A9.281,9.281,0,0,1,94.015,100.871Zm-21.611.21c0,5.358,4.31,10.626,10.147,10.626,4.28,0,7.812-3.861,7.812-8.651,0-6.345-4.4-10.895-9.369-10.895C76.894,92.16,72.4,94.914,72.4,101.08ZM34.424,92.43c-.12.6-.15,4.07-.15,7.752v1.856c0,3.891.03,8.89.15,9.489.748.18,2.544.359,3.143.419h0l.15.629c-.658-.06-3.771-.12-5.627-.12-1.018,0-3.771.06-4.669.12l.12-.629c.509-.029,2.544-.3,3.173-.419.12-1.257.15-6.795.15-9.728v-1.766c0-.988-.03-6.585-.15-7.6-.6-.12-2.574-.359-3.143-.419l-.15-.628c.569.059,3.322.119,5.687.119,1.527,0,4.1-.06,4.61-.119l-.15.628c-.275.028-.734.093-1.255.167l-.013,0h-.008C35.686,92.268,35,92.366,34.424,92.43Zm-26.132,19.1c.12-.868.15-6.735.15-9.877V99.823c0-1.078-.03-6.825-.15-7.393-.478-.113-2.305-.278-3.07-.348h0l-.129-.012L5,91.442l6.465-.03c2.844,0,6.405.03,8.441.839a3.59,3.59,0,0,1,2.574,3.412c0,1.886-1.916,4.37-4.22,5.657.329.749,5.148,8.591,8.261,11.883l-1.317.21c-2.1-.958-10.057-10.147-10.536-10.775-1.137.089-2.365.18-2.873.18v.778c0,1.946.06,6.556.15,7.932a30.683,30.683,0,0,0,3.143.419l.12.629c-.748-.06-3.771-.12-5.148-.12-1.227,0-4.37.06-5.058.12l.12-.629A27.256,27.256,0,0,0,8.293,111.527Zm3.652-19.276c-.09,1.226-.15,6.585-.15,8.709v.928a10.362,10.362,0,0,0,3.652-.569A5.039,5.039,0,0,0,18.858,96.5C18.858,94.585,17.122,92.251,11.944,92.251Zm32.1,9.967V99.853c0-1.347-.06-6.825-.21-7.423-.778-.15-2.454-.359-3.173-.419l-.06-.628c.449.059,3.682.119,4.939.119.422,0,1.252-.019,2.243-.042,1.47-.035,3.295-.077,4.672-.077,3.5,0,6.465.419,8.441,1.377A7.919,7.919,0,0,1,65.806,100c0,6.316-4.969,12.511-16.463,12.511-1.676,0-8.022.03-8.74.06l.12-.629a20.7,20.7,0,0,0,3.113-.419C43.986,111.018,44.046,105.689,44.046,102.217Zm3.412-.9v1.168c0,1.616.09,7.243.21,8.321a8.71,8.71,0,0,0,3.263.539c5.717,0,11.194-3.353,11.194-9.728A8.134,8.134,0,0,0,58.862,94.7c-2.185-1.616-5.777-2.215-8.561-2.215a18.867,18.867,0,0,0-2.634.18C47.577,93.119,47.458,100,47.458,101.319Zm80.29,10.207c.09-2.335.15-7.483.15-10.087v-1.348c0-2.215-.059-6.644-.15-7.333-4.789,0-6.944.748-7.752,1.257a16.017,16.017,0,0,0-.5,2.279v0c-.032.18-.063.358-.095.53l-.688.18c.015-.171.032-.375.052-.607l0-.047c.149-1.714.419-4.826.393-6.889l.688.119.008.1.008.112v.008h0c.033.454.088,1.193.163,1.721.479.089,5.627.3,9.668.3,4.34,0,9.518-.21,10-.3.1-.288.23-.942.341-1.483v0c.028-.133.053-.259.077-.372l.749-.119c-.18.688-.868,6.825-.958,7.723l-.688-.18c.06-1.2.09-2.424.06-3.084-.749-.6-4.909-1.257-7.812-1.257-.09.808-.15,5.178-.15,7.333v1.348c0,2.634.059,7.693.15,10.087.454.072,2.285.258,3.292.361h.008l.057.005.376.039.127.013.119.629c-.718-.06-4.221-.12-5.866-.12-1.348,0-4.939.06-5.807.12l.15-.629C124.605,111.886,127.029,111.616,127.748,111.527Zm26.208,1.407c-3.023,0-6.465-.509-9.249-3.353a9.447,9.447,0,0,1-2.874-7.243c0-5.927,4.879-11.314,13.14-11.314a12.823,12.823,0,0,1,8.292,2.424,9.283,9.283,0,0,1,3.622,7.423C166.886,108.2,161.318,112.933,153.956,112.933Zm1.466-1.227c4.28,0,7.812-3.861,7.812-8.651,0-6.345-4.4-10.895-9.369-10.895-4.1,0-8.591,2.754-8.591,8.92C145.275,106.438,149.586,111.706,155.422,111.706Zm-105.6,13.438H47.565q-.014,0,.021-.166a3.019,3.019,0,0,1,.139-.4,3.209,3.209,0,0,1,.256-.477,1.342,1.342,0,0,1,.429-.409,1.112,1.112,0,0,1,.6-.167.958.958,0,0,1,.533.153,1.061,1.061,0,0,1,.36.374,2.122,2.122,0,0,1,.187.429,1.07,1.07,0,0,1,.055.347Q50.12,125.144,49.822,125.144Zm-1.7,2.478a2.687,2.687,0,0,1-.623-1.967q.18,0,1.689-.035t1.8-.062a.267.267,0,0,0,.256-.167,1.2,1.2,0,0,0,.076-.485,1.7,1.7,0,0,0-.055-.409,2.164,2.164,0,0,0-.2-.491,1.861,1.861,0,0,0-.367-.478,1.764,1.764,0,0,0-.6-.36,2.383,2.383,0,0,0-.851-.145,1.964,1.964,0,0,0-.941.263,3.258,3.258,0,0,0-.879.685,3.507,3.507,0,0,0-.651,1.052,3.375,3.375,0,0,0-.256,1.294,2.894,2.894,0,0,0,.775,2.064,2.641,2.641,0,0,0,1.994.816,2.246,2.246,0,0,0,1.329-.442,3.5,3.5,0,0,0,.415-.374,2.362,2.362,0,0,0,.277-.361.5.5,0,0,0,.083-.249.189.189,0,0,0-.028-.1.167.167,0,0,0-.048-.069c-.019-.019-.03-.028-.035-.028a2.5,2.5,0,0,1-.623.491,1.705,1.705,0,0,1-.9.243A2.164,2.164,0,0,1,48.119,127.623Zm9.021-4.48a2.18,2.18,0,0,0-.762-.117,2,2,0,0,0-1.018.353,3.966,3.966,0,0,0-.852.658c-.018.019-.032.028-.041.028s-.028-.019-.028-.055a6.85,6.85,0,0,1,.083-.789.27.27,0,0,0-.055-.139c-.032-.055-.065-.082-.1-.082a5.912,5.912,0,0,1-1.98.581.393.393,0,0,0-.035.194.312.312,0,0,0,.035.166q.118,0,.263.014a1.708,1.708,0,0,1,.374.069c.148.042.235.1.263.166a2.594,2.594,0,0,1,.069.776v2.52a4.494,4.494,0,0,1-.069,1.024q-.028.1-.353.16a2.819,2.819,0,0,1-.519.062.379.379,0,0,0-.049.2.312.312,0,0,0,.049.2c.129-.005.291-.014.485-.028s.365-.023.512-.028.309-.014.471-.014q.062,0,1.482.069a.29.29,0,0,0,.041-.2.349.349,0,0,0-.041-.2,2.927,2.927,0,0,1-.526-.062q-.319-.062-.346-.16a4.5,4.5,0,0,1-.069-1.024V124.59c0-.046.072-.129.215-.249a3.219,3.219,0,0,1,.54-.346,1.278,1.278,0,0,1,.561-.167,1.128,1.128,0,0,1,1.073.485A3.857,3.857,0,0,1,57.1,126.1v1.385a4.5,4.5,0,0,1-.069,1.024q-.028.1-.353.16a2.818,2.818,0,0,1-.519.062.379.379,0,0,0-.048.2.312.312,0,0,0,.048.2c.129-.005.291-.014.485-.028s.365-.023.512-.028.309-.014.471-.014q.062,0,1.481.069a.291.291,0,0,0,.042-.2.348.348,0,0,0-.042-.2,2.929,2.929,0,0,1-.526-.062q-.318-.062-.346-.16a4.5,4.5,0,0,1-.069-1.024v-1.523c0-.425-.014-.784-.042-1.08a3.945,3.945,0,0,0-.159-.816,1.453,1.453,0,0,0-.311-.589A1.341,1.341,0,0,0,57.14,123.143Zm6.141-.035H61.495V121.3c0-.019-.014-.03-.041-.035a.172.172,0,0,0-.1,0,.188.188,0,0,0-.083.048l-.166.18-.36.395q-.208.221-.318.353v.872h-.512q-.055.055-.208.236a.686.686,0,0,0-.152.207q0,.125.069.125h.8v4.015a2.035,2.035,0,0,0,.118.734,1.058,1.058,0,0,0,.339.464,1.416,1.416,0,0,0,.457.229,1.936,1.936,0,0,0,.526.069,1.458,1.458,0,0,0,.63-.152,2.376,2.376,0,0,0,.485-.3,3.932,3.932,0,0,0,.311-.305.292.292,0,0,0,.056-.207q0-.076-.042-.1a1.526,1.526,0,0,1-.9.318q-.914,0-.914-1.135v-3.628h1.662a.583.583,0,0,0,.194-.416Q63.35,123.108,63.281,123.108Zm4.168,2.036H65.191q-.014,0,.021-.166a3.007,3.007,0,0,1,.138-.4,3.181,3.181,0,0,1,.256-.477,1.342,1.342,0,0,1,.429-.409,1.112,1.112,0,0,1,.6-.167.958.958,0,0,1,.533.153,1.062,1.062,0,0,1,.36.374,2.127,2.127,0,0,1,.187.429,1.065,1.065,0,0,1,.055.347Q67.746,125.144,67.448,125.144Zm-1.7,2.478a2.686,2.686,0,0,1-.623-1.967q.18,0,1.689-.035t1.8-.062a.267.267,0,0,0,.256-.167,1.207,1.207,0,0,0,.076-.485,1.7,1.7,0,0,0-.055-.409,2.166,2.166,0,0,0-.2-.491,1.854,1.854,0,0,0-.367-.478,1.764,1.764,0,0,0-.6-.36,2.383,2.383,0,0,0-.852-.145,1.965,1.965,0,0,0-.942.263,3.26,3.26,0,0,0-.879.685,3.5,3.5,0,0,0-.651,1.052,3.374,3.374,0,0,0-.256,1.294,2.894,2.894,0,0,0,.775,2.064,2.642,2.642,0,0,0,1.994.816,2.246,2.246,0,0,0,1.329-.442,3.5,3.5,0,0,0,.415-.374,2.361,2.361,0,0,0,.277-.361.5.5,0,0,0,.083-.249.189.189,0,0,0-.028-.1.165.165,0,0,0-.048-.069q-.028-.028-.035-.028a2.5,2.5,0,0,1-.623.491,1.706,1.706,0,0,1-.9.243A2.164,2.164,0,0,1,65.745,127.623Zm8.5-4.466a1.123,1.123,0,0,0-.505-.117,1.358,1.358,0,0,0-.914.484,3.486,3.486,0,0,0-.72,1,.045.045,0,0,1-.021.021.052.052,0,0,1-.021-.007.055.055,0,0,1-.014-.042c0-.069.014-.284.042-.644s.046-.574.055-.63a.27.27,0,0,0-.055-.139c-.032-.055-.065-.082-.1-.082a5.911,5.911,0,0,1-1.98.581.39.39,0,0,0-.035.194.312.312,0,0,0,.035.166q.118,0,.263.014a1.712,1.712,0,0,1,.374.069c.148.042.235.1.263.166a2.314,2.314,0,0,1,.069.72v2.576a5.411,5.411,0,0,1-.069,1.024q-.028.1-.353.16a2.821,2.821,0,0,1-.519.062.378.378,0,0,0-.048.2.313.313,0,0,0,.048.2q1.419-.069,1.551-.069.3,0,1.717.069a.291.291,0,0,0,.042-.2.347.347,0,0,0-.042-.2,5.742,5.742,0,0,1-.706-.062q-.457-.062-.485-.16a4.5,4.5,0,0,1-.069-1.024v-2.132a1.426,1.426,0,0,1,.353-.769.97.97,0,0,1,.755-.477.91.91,0,0,1,.512.166l.064.047.074.057c.083.055.15.1.2.124a.445.445,0,0,0,.173.035.428.428,0,0,0,.3-.187.817.817,0,0,0,.159-.533,1.176,1.176,0,0,0-.055-.373A.761.761,0,0,0,74.247,123.157Zm4.6-.049H77.057V121.3c0-.019-.014-.03-.041-.035a.172.172,0,0,0-.1,0,.188.188,0,0,0-.083.048l-.166.18-.36.395q-.208.221-.318.353v.872h-.512q-.056.055-.208.236a.686.686,0,0,0-.152.207q0,.125.069.125h.8v4.015a2.035,2.035,0,0,0,.118.734,1.058,1.058,0,0,0,.339.464,1.414,1.414,0,0,0,.457.229,1.934,1.934,0,0,0,.526.069,1.458,1.458,0,0,0,.63-.152,2.388,2.388,0,0,0,.485-.3,4.053,4.053,0,0,0,.311-.305.3.3,0,0,0,.056-.207q0-.076-.042-.1a1.529,1.529,0,0,1-.9.318q-.914,0-.914-1.135v-3.628h1.662a.582.582,0,0,0,.194-.416Q78.913,123.108,78.844,123.108Zm3.662,5.123a1.7,1.7,0,0,1-.769.221.863.863,0,0,1-.658-.291.967.967,0,0,1-.27-.678.991.991,0,0,1,.222-.651,1.472,1.472,0,0,1,.623-.429q.214-.083,1.287-.4v1.883C82.942,127.964,82.8,128.079,82.506,128.232Zm1.031-4.625a1.326,1.326,0,0,0-1.052-.553,3.014,3.014,0,0,0-1.385.367,5.13,5.13,0,0,0-1.136.768.622.622,0,0,0-.069.167.761.761,0,0,0-.028.166.666.666,0,0,0,.131.4.4.4,0,0,0,.339.18q.533,0,.651-.665a1.433,1.433,0,0,1,.242-.644.628.628,0,0,1,.519-.214,1.048,1.048,0,0,1,.838.422,1.368,1.368,0,0,1,.353.907v.374a.566.566,0,0,1-.035.243.223.223,0,0,1-.131.1q-.18.083-.589.229t-1,.353q-.6.207-.831.291a1.076,1.076,0,0,0-.477.409,1.182,1.182,0,0,0-.215.7,1.546,1.546,0,0,0,.464,1.135,1.6,1.6,0,0,0,1.156.456,1.974,1.974,0,0,0,.907-.36,4.908,4.908,0,0,0,.8-.567,1.377,1.377,0,0,0,.311.623.7.7,0,0,0,.533.277,1.216,1.216,0,0,0,.533-.187,2.868,2.868,0,0,0,.506-.339.509.509,0,0,0,.069-.263q0-.111-.056-.111a.1.1,0,0,0-.035.021l-.025.022-.024.019-.069.042-.083.041a1,1,0,0,1-.1.028.952.952,0,0,1-.118.007q-.429,0-.429-.651V124.95A2.039,2.039,0,0,0,83.537,123.607ZM86.3,120.88a.684.684,0,1,0,.2-.492A.669.669,0,0,0,86.3,120.88Zm1.329,6.6v-3.351a7.993,7.993,0,0,1,.1-.913.27.27,0,0,0-.056-.139c-.032-.055-.065-.082-.1-.082a5.905,5.905,0,0,1-1.98.581.391.391,0,0,0-.035.194.31.31,0,0,0,.035.166c.079,0,.166,0,.263.014a1.712,1.712,0,0,1,.374.069c.147.042.235.1.263.166a2.309,2.309,0,0,1,.069.72v2.576a5.4,5.4,0,0,1-.069,1.024c-.018.065-.136.118-.353.16a2.816,2.816,0,0,1-.519.062.378.378,0,0,0-.049.2.312.312,0,0,0,.049.2c.129-.005.291-.014.484-.028s.365-.023.513-.028.309-.014.471-.014q.061,0,1.481.069a.29.29,0,0,0,.042-.2.347.347,0,0,0-.042-.2,2.925,2.925,0,0,1-.526-.062c-.213-.042-.328-.095-.346-.16A4.487,4.487,0,0,1,87.629,127.484Zm6.452-4.341a2.179,2.179,0,0,0-.762-.117,2.005,2.005,0,0,0-1.018.353,3.977,3.977,0,0,0-.852.658q-.028.028-.042.028c-.018,0-.028-.019-.028-.055a6.812,6.812,0,0,1,.083-.789.27.27,0,0,0-.056-.139c-.032-.055-.064-.082-.1-.082a5.915,5.915,0,0,1-1.98.581.391.391,0,0,0-.035.194.31.31,0,0,0,.035.166c.079,0,.167,0,.263.014a1.7,1.7,0,0,1,.374.069c.148.042.236.1.264.166a2.59,2.59,0,0,1,.069.776v2.52a4.488,4.488,0,0,1-.069,1.024q-.028.1-.353.16a2.823,2.823,0,0,1-.52.062.378.378,0,0,0-.049.2.312.312,0,0,0,.049.2c.13-.005.291-.014.485-.028s.365-.023.512-.028.309-.014.471-.014q.062,0,1.482.069a.29.29,0,0,0,.042-.2.347.347,0,0,0-.042-.2,2.933,2.933,0,0,1-.527-.062q-.318-.062-.346-.16a4.488,4.488,0,0,1-.069-1.024V124.59c0-.046.072-.129.215-.249a3.2,3.2,0,0,1,.54-.346,1.279,1.279,0,0,1,.561-.167,1.129,1.129,0,0,1,1.073.485,3.861,3.861,0,0,1,.284,1.786v1.385a4.487,4.487,0,0,1-.069,1.024q-.028.1-.353.16a2.816,2.816,0,0,1-.519.062.378.378,0,0,0-.049.2.312.312,0,0,0,.049.2c.129-.005.291-.014.484-.028s.365-.023.513-.028.309-.014.471-.014q.061,0,1.481.069a.29.29,0,0,0,.042-.2.347.347,0,0,0-.042-.2,2.925,2.925,0,0,1-.526-.062c-.213-.042-.328-.095-.346-.16a4.487,4.487,0,0,1-.069-1.024v-1.523c0-.425-.014-.784-.042-1.08a3.981,3.981,0,0,0-.159-.816,1.459,1.459,0,0,0-.311-.589A1.346,1.346,0,0,0,94.081,123.143Zm7.588.153a1.843,1.843,0,0,0-1.8-.069,5.7,5.7,0,0,0-1.052.741q-.028.028-.042.028t-.028-.055q0-.139.082-.72a.267.267,0,0,0-.055-.139c-.032-.055-.065-.082-.1-.082a5.916,5.916,0,0,1-1.98.581.391.391,0,0,0-.035.194.31.31,0,0,0,.035.166c.078,0,.166,0,.263.014a1.712,1.712,0,0,1,.374.069c.147.042.235.1.263.166a2.59,2.59,0,0,1,.069.776v2.52a4.488,4.488,0,0,1-.069,1.024q-.028.1-.353.16a2.816,2.816,0,0,1-.52.062.386.386,0,0,0-.048.2.317.317,0,0,0,.048.2c.13-.005.291-.014.485-.028s.365-.023.513-.028.309-.014.47-.014q.062,0,1.482.069a.29.29,0,0,0,.042-.2.347.347,0,0,0-.042-.2,2.925,2.925,0,0,1-.526-.062c-.213-.042-.328-.095-.346-.16a4.488,4.488,0,0,1-.069-1.024V124.59c0-.111.143-.265.429-.464a1.522,1.522,0,0,1,.858-.3,1.076,1.076,0,0,1,1.025.485,3.872,3.872,0,0,1,.278,1.758v1.412a4.487,4.487,0,0,1-.069,1.024q-.028.1-.353.16a2.823,2.823,0,0,1-.52.062.378.378,0,0,0-.049.2.312.312,0,0,0,.049.2c.13-.005.291-.014.485-.028s.365-.023.512-.028.31-.014.471-.014q.062,0,1.482.069a.29.29,0,0,0,.042-.2.347.347,0,0,0-.042-.2,2.933,2.933,0,0,1-.527-.062q-.318-.062-.346-.16a4.553,4.553,0,0,1-.069-1.024v-1.7a6.7,6.7,0,0,0-.056-.983q0-.014-.007-.09t-.007-.09c0-.042.062-.123.187-.242a2.415,2.415,0,0,1,.527-.367,1.375,1.375,0,0,1,.644-.18,1.4,1.4,0,0,1,.567.1.942.942,0,0,1,.374.263,1.117,1.117,0,0,1,.222.457,3.139,3.139,0,0,1,.11.6q.028.312.028.755v1.482a4.488,4.488,0,0,1-.069,1.024q-.027.1-.353.16a2.809,2.809,0,0,1-.519.062.378.378,0,0,0-.049.2.312.312,0,0,0,.049.2c.13-.005.291-.014.485-.028s.365-.023.512-.028.309-.014.471-.014q.062,0,1.482.069a.29.29,0,0,0,.042-.2.347.347,0,0,0-.042-.2,2.933,2.933,0,0,1-.527-.062q-.318-.062-.346-.16a4.488,4.488,0,0,1-.069-1.024v-1.523c0-.425-.014-.784-.042-1.08a3.88,3.88,0,0,0-.159-.816,1.459,1.459,0,0,0-.311-.589,1.34,1.34,0,0,0-.513-.332,2.176,2.176,0,0,0-.762-.117,3.557,3.557,0,0,0-2.035,1.149A1.462,1.462,0,0,0,101.669,123.3Zm9.352,1.849h-2.256q-.014,0,.021-.166a2.88,2.88,0,0,1,.138-.4,3.192,3.192,0,0,1,.257-.477,1.338,1.338,0,0,1,.429-.409,1.114,1.114,0,0,1,.6-.167.957.957,0,0,1,.533.153,1.061,1.061,0,0,1,.36.374,2.12,2.12,0,0,1,.187.429,1.087,1.087,0,0,1,.056.347Q111.32,125.144,111.021,125.144Zm-1.7,2.478a2.686,2.686,0,0,1-.623-1.967q.18,0,1.689-.035t1.8-.062a.266.266,0,0,0,.256-.167,1.2,1.2,0,0,0,.076-.485,1.7,1.7,0,0,0-.056-.409,2.191,2.191,0,0,0-.2-.491,1.854,1.854,0,0,0-.367-.478,1.768,1.768,0,0,0-.6-.36,2.388,2.388,0,0,0-.852-.145,1.964,1.964,0,0,0-.941.263,3.245,3.245,0,0,0-.88.685,3.5,3.5,0,0,0-.651,1.052,3.367,3.367,0,0,0-.256,1.294,2.9,2.9,0,0,0,.775,2.064,2.643,2.643,0,0,0,1.994.816,2.245,2.245,0,0,0,1.329-.442,3.5,3.5,0,0,0,.416-.374,2.349,2.349,0,0,0,.277-.361.493.493,0,0,0,.083-.249.189.189,0,0,0-.028-.1.167.167,0,0,0-.049-.069q-.028-.028-.035-.028a2.5,2.5,0,0,1-.623.491,1.7,1.7,0,0,1-.9.243A2.164,2.164,0,0,1,109.318,127.623Zm9.021-4.48a2.182,2.182,0,0,0-.762-.117,2.005,2.005,0,0,0-1.018.353,3.977,3.977,0,0,0-.852.658q-.028.028-.042.028t-.028-.055a6.812,6.812,0,0,1,.083-.789.27.27,0,0,0-.056-.139c-.032-.055-.065-.082-.1-.082a5.915,5.915,0,0,1-1.98.581.391.391,0,0,0-.035.194.31.31,0,0,0,.035.166c.079,0,.167,0,.263.014a1.7,1.7,0,0,1,.374.069c.148.042.236.1.264.166a2.6,2.6,0,0,1,.069.776v2.52a4.5,4.5,0,0,1-.069,1.024q-.028.1-.353.16a2.823,2.823,0,0,1-.52.062.378.378,0,0,0-.049.2.312.312,0,0,0,.049.2c.13-.005.291-.014.485-.028s.365-.023.512-.028.309-.014.471-.014q.062,0,1.482.069a.29.29,0,0,0,.042-.2.347.347,0,0,0-.042-.2,2.932,2.932,0,0,1-.527-.062q-.318-.062-.346-.16a4.488,4.488,0,0,1-.069-1.024V124.59c0-.046.072-.129.215-.249a3.2,3.2,0,0,1,.54-.346,1.279,1.279,0,0,1,.561-.167,1.128,1.128,0,0,1,1.073.485,3.861,3.861,0,0,1,.284,1.786v1.385a4.488,4.488,0,0,1-.069,1.024c-.019.065-.136.118-.353.16a2.816,2.816,0,0,1-.519.062.378.378,0,0,0-.049.2.312.312,0,0,0,.049.2c.129-.005.291-.014.484-.028s.365-.023.513-.028.309-.014.47-.014q.062,0,1.482.069a.29.29,0,0,0,.042-.2.347.347,0,0,0-.042-.2,2.925,2.925,0,0,1-.526-.062c-.213-.042-.328-.095-.346-.16a4.488,4.488,0,0,1-.069-1.024v-1.523c0-.425-.014-.784-.042-1.08a3.98,3.98,0,0,0-.159-.816,1.45,1.45,0,0,0-.312-.589A1.337,1.337,0,0,0,118.339,123.143Zm6.141-.035h-1.786V121.3c0-.019-.014-.03-.042-.035a.173.173,0,0,0-.1,0,.188.188,0,0,0-.083.048c-.009.009-.065.069-.166.18s-.222.242-.36.395-.245.265-.318.353v.872h-.513c-.037.037-.106.116-.207.236a.686.686,0,0,0-.153.207q0,.125.069.125h.8v4.015a2.033,2.033,0,0,0,.117.734,1.063,1.063,0,0,0,.339.464,1.423,1.423,0,0,0,.457.229,1.933,1.933,0,0,0,.527.069,1.46,1.46,0,0,0,.63-.152,2.36,2.36,0,0,0,.484-.3,3.934,3.934,0,0,0,.312-.305.3.3,0,0,0,.055-.207c0-.051-.014-.083-.041-.1a1.529,1.529,0,0,1-.9.318q-.913,0-.913-1.135v-3.628h1.661a.581.581,0,0,0,.193-.416C124.549,123.159,124.526,123.108,124.48,123.108Z" transform="translate(-5 -17)"/></svg>