<svg width="362" height="332" viewBox="0 0 362 332" fill="none" xmlns="http://www.w3.org/2000/svg">
<g opacity="0.1">
<path d="M361.777 319.46C361.777 325.259 280.965 329.959 181.277 329.959C81.5899 329.959 0.777344 325.258 0.777344 319.46C0.777344 313.663 81.5899 308.962 181.277 308.962C280.965 308.962 361.777 313.663 361.777 319.46Z" fill="black" fill-opacity="0.1"/>
<path d="M177.236 59.6528H140.182H103.128C-71.8559 225.88 48.5606 319.466 140.182 319.466C231.804 319.466 352.221 225.88 177.236 59.6528Z" fill="#B7C5C1"/>
<path d="M140.182 319.46C84.3314 319.46 17.7772 284.688 13.9637 219.878C11.5297 178.374 34.8131 124.544 103.134 59.6494H177.231C352.219 225.882 231.799 319.46 140.182 319.46Z" fill="#B7C5C1"/>
<path d="M43.7473 223.025C34.0135 223.025 23.9634 221.972 13.9637 219.877C11.5297 178.373 34.8131 124.543 103.134 59.6484H155.679C205.61 165.176 115.775 223.025 43.7473 223.025Z" fill="#A4AFAC"/>
<path d="M140.18 319.46C100.553 319.46 55.5376 301.953 31.3594 268.621C55.8767 286.819 87.8767 296.263 116.983 296.263C204.241 296.263 317.638 211.367 176.999 59.6494H177.229C352.216 225.882 231.796 319.46 140.18 319.46Z" fill="#A4AFAC"/>
<path d="M97.0746 59.653L79.3047 1.42256C92.2777 -3.32186 101.344 15.0563 113.351 14.1845C125.357 13.3115 122.45 5.14633 130.613 3.05909C145.01 -0.622013 148.528 18.0297 161.396 15.1045C168.361 13.5204 173.691 -1.68533 201.062 4.04144L183.758 59.654H97.0746V59.653Z" fill="#B7C5C1"/>
<path d="M161.189 72.834C177.605 101.993 186.13 138.298 183.516 177.511C183.32 180.275 186.014 181.494 189.589 180.071C193.163 178.651 196.123 175.103 196.152 172.31C196.77 132.77 186.46 96.6742 168.614 68.1027C167.345 66.0833 164.68 65.6107 162.689 66.8906C160.697 68.1727 160.041 70.7654 161.189 72.834Z" fill="#9C9C9C"/>
<path d="M184.63 101.238C175.466 86.8639 164.93 77.4604 164.93 77.4604C169.93 80.9676 176.123 86.0555 180.9 92.2067C180.9 92.2199 180.913 92.233 180.926 92.2461C181.123 92.5601 181.332 92.9003 181.528 93.2274C182.615 95.8583 183.649 98.5286 184.63 101.238Z" fill="#4B4B4B"/>
<path d="M156.513 72.1568C171.859 81.499 188.448 91.13 199.852 135.23C200.546 137.913 203.543 138.143 206.432 135.602C209.322 133.065 211.125 128.649 210.008 126.088C192.008 84.8082 176.558 76.5336 161.918 65.2059C160.032 63.7466 157.376 64.1798 155.929 66.0526C154.483 67.9309 154.736 70.5935 156.513 72.1568Z" fill="#9C9C9C"/>
<path d="M163.297 76.6968H176.713L177.589 77.4592H163.692L163.297 76.6968Z" fill="#4B4B4B"/>
<path d="M188.501 61.1727C187.69 60.2045 186.498 59.6543 185.243 59.6543H140.178H95.1129C93.856 59.6543 92.6658 60.2035 91.8541 61.1727C89.524 63.9469 91.5007 68.175 95.1129 68.175H140.178H185.243C188.855 68.175 190.832 63.948 188.501 61.1727Z" fill="#9C9C9C"/>
<path d="M189.643 76.697H90.7176C87.0792 76.697 85.1287 72.4175 87.4982 69.6684L87.5113 69.6553C88.3099 68.7123 89.4881 68.1763 90.7308 68.1763H189.629C190.873 68.1763 192.05 68.7123 192.849 69.6553L192.862 69.6684C195.232 72.4164 193.281 76.697 189.643 76.697Z" fill="#9C9C9C"/>
<path d="M185.243 68.1748C185.243 68.1748 162.749 69.8004 140.178 69.8113C116.51 69.8223 95.1133 68.1748 95.1133 68.1748H185.243Z" fill="#4B4B4B"/>
<path d="M166.902 187.105C160.906 182.927 154.272 179.518 147.013 176.878V152.472C150.185 153.201 153.04 154.608 155.586 156.703C158.143 158.787 160.556 160.933 162.815 163.11L175.629 150.562C173.185 148.294 170.937 146.302 168.883 144.567C166.83 142.841 164.725 141.353 162.548 140.142C160.371 138.91 158.051 137.934 155.586 137.194C153.142 136.486 150.277 135.932 147.013 135.572V125.766H133.911V135.695C130.287 136.167 126.724 137.091 123.222 138.497C119.71 139.914 116.609 141.752 113.879 144.011C111.147 146.3 108.95 149.042 107.277 152.277C105.582 155.5 104.741 159.155 104.741 163.242C104.741 171.508 107.646 177.874 113.468 182.319C118.109 185.872 124.916 189.425 133.912 192.957V219.951C130.092 218.945 126.899 217.364 124.311 215.187C121.713 212.989 119.424 210.228 117.432 206.87L103.242 219.006C107.329 224.448 111.806 228.585 116.682 231.399C121.528 234.223 127.278 235.988 133.912 236.718V253.351H147.014V236.861C155.65 236.04 162.457 233.668 167.456 229.756C173.515 224.971 176.739 218.143 177.087 209.241V209.232C177.118 208.677 177.128 208.122 177.128 207.548C177.129 198.738 173.72 191.92 166.902 187.105ZM147.014 198.142C149.632 199.416 151.737 200.555 153.277 201.551C157.004 203.635 158.853 206.315 158.853 209.58C158.853 211.398 158.513 212.938 157.836 214.15C157.159 215.382 156.275 216.43 155.187 217.292C154.098 218.165 152.825 218.842 151.367 219.345C149.918 219.838 148.45 220.218 147.013 220.506V198.142H147.014ZM130.38 170.328C129.096 169.691 127.936 168.972 126.899 168.151C125.852 167.329 124.979 166.385 124.239 165.286C123.511 164.197 123.151 162.966 123.151 161.61C123.151 160.163 123.49 158.879 124.167 157.79C124.844 156.702 125.687 155.767 126.682 155.007C127.688 154.216 128.828 153.631 130.091 153.221C131.374 152.809 132.647 152.471 133.911 152.204V171.97C132.823 171.508 131.653 170.974 130.38 170.328Z" fill="#61696B"/>
<path opacity="0.15" d="M142.603 321.889C128.644 321.889 114.018 319.71 99.8643 315.436H99.8523C96.3287 314.37 92.8303 313.171 89.3789 311.852C89.3548 311.84 89.3307 311.828 89.3067 311.828C88.4709 311.501 87.6483 311.174 86.8245 310.847C86.7884 310.835 86.7523 310.811 86.7152 310.799C84.1608 309.757 81.6305 308.656 79.1484 307.469C79.1243 307.469 79.1123 307.457 79.0882 307.445C78.3137 307.069 77.5261 306.694 76.7515 306.307C76.6673 306.271 76.582 306.223 76.5098 306.186C75.7593 305.81 75.0089 305.435 74.2705 305.048C74.2344 305.012 74.1731 305 74.125 304.964V301.658L74.8754 300.471L74.125 299.284V280.251L74.8754 279.053L74.125 277.866V258.833L74.8754 257.646L74.125 256.459V237.415L74.8754 236.228L74.125 235.041V215.997L76.4135 212.389H147.653L149.942 215.997V233.806H176.203V210.126H194.993V178.525H171.431V137.227H242.924C316.283 256.231 219.352 321.889 142.603 321.889Z" fill="#231F20"/>
<path d="M325.192 137.228H171.43V173.674H325.192V137.228Z" fill="#7E7E7E"/>
<path d="M269.713 137.228H226.91V173.674H269.713V137.228Z" fill="white"/>
<path d="M269.716 137.228H264.828V173.674H269.716V137.228Z" fill="#3C3C3C"/>
<path d="M231.798 137.228H226.91V173.674H231.798V137.228Z" fill="#3C3C3C"/>
<path d="M348.758 173.675H194.996V210.122H348.758V173.675Z" fill="#7E7E7E"/>
<path d="M293.279 173.675H250.477V210.122H293.279V173.675Z" fill="white"/>
<path d="M293.282 173.675H288.395V210.122H293.282V173.675Z" fill="#3C3C3C"/>
<path d="M255.364 173.675H250.477V210.122H255.364V173.675Z" fill="#3C3C3C"/>
<path opacity="0.25" d="M195 177.569L348.762 177.569V173.675L195 173.675V177.569Z" fill="#231F20"/>
<path d="M329.969 210.124H176.207V246.57H329.969V210.124Z" fill="#7E7E7E"/>
<path d="M274.49 210.124H231.688V246.57H274.49V210.124Z" fill="white"/>
<path d="M274.493 210.124H269.605V246.57H274.493V210.124Z" fill="#3C3C3C"/>
<path d="M236.575 210.124H231.688V246.57H236.575V210.124Z" fill="#3C3C3C"/>
<path opacity="0.25" d="M176.207 214.017L329.969 214.017V210.123L176.207 210.123V214.017Z" fill="#231F20"/>
<path d="M348.762 246.571H195V283.018H348.762V246.571Z" fill="#7E7E7E"/>
<path d="M293.283 246.571H250.48V283.018H293.283V246.571Z" fill="white"/>
<path d="M293.286 246.571H288.398V283.018H293.286V246.571Z" fill="#3C3C3C"/>
<path d="M255.368 246.571H250.48V283.018H255.368V246.571Z" fill="#3C3C3C"/>
<path opacity="0.25" d="M195 250.465L348.762 250.465V246.57L195 246.57V250.465Z" fill="#231F20"/>
<path d="M344.153 283.019H190.391V319.466H344.153V283.019Z" fill="#7E7E7E"/>
<path d="M288.674 283.019H245.871V319.466H288.674V283.019Z" fill="white"/>
<path d="M288.673 283.019H283.785V319.466H288.673V283.019Z" fill="#3C3C3C"/>
<path d="M250.759 283.019H245.871V319.466H250.759V283.019Z" fill="#3C3C3C"/>
<path opacity="0.25" d="M190.39 286.912H344.152V283.018H190.39V286.912Z" fill="#231F20"/>
<path opacity="0.15" d="M198.29 236.1C198.135 236.1 197.979 236.101 197.823 236.102V235.358L194.828 230.744H176.207V319.465H194.841L194.927 319.332C196.057 319.421 197.181 319.465 198.291 319.465C221.889 319.465 241.086 300.766 241.086 277.782C241.086 254.799 221.888 236.1 198.29 236.1Z" fill="#231F20"/>
<path d="M194.321 235.696H123.352V253.329H194.321V235.696Z" fill="#61696B"/>
<path d="M193.123 233.806H124.549L123.352 235.696H194.321L193.123 233.806Z" fill="#3E3E3E"/>
<path d="M124.549 255.221H193.123L194.321 253.33H123.352L124.549 255.221Z" fill="#1F1F1F"/>
<path d="M150.333 235.696H144.867V253.329H150.333V235.696Z" fill="#333333"/>
<path d="M153.641 235.696H151.664V253.329H153.641V235.696Z" fill="#333333"/>
<path opacity="0.05" d="M178.988 255.221V233.806H193.122L194.32 235.696V253.33L193.122 255.221H178.988Z" fill="#231F20"/>
<path opacity="0.1" d="M138.683 233.806V255.221H124.549L123.352 253.33V235.696L124.549 233.806H138.683Z" fill="white"/>
<path d="M194.321 257.111H123.352V274.745H194.321V257.111Z" fill="#61696B"/>
<path d="M193.123 255.221H124.549L123.352 257.112H194.321L193.123 255.221Z" fill="#3E3E3E"/>
<path d="M124.549 276.635H193.123L194.321 274.745H123.352L124.549 276.635Z" fill="#1F1F1F"/>
<path d="M150.333 257.111H144.867V274.745H150.333V257.111Z" fill="#333333"/>
<path d="M153.641 257.111H151.664V274.745H153.641V257.111Z" fill="#333333"/>
<path opacity="0.05" d="M178.988 276.635V255.221H193.122L194.32 257.112V274.745L193.122 276.635H178.988Z" fill="#231F20"/>
<path opacity="0.1" d="M138.683 255.221V276.635H124.549L123.352 274.745V257.112L124.549 255.221H138.683Z" fill="white"/>
<path d="M194.321 278.526H123.352V296.16H194.321V278.526Z" fill="#61696B"/>
<path d="M193.123 276.636H124.549L123.352 278.527H194.321L193.123 276.636Z" fill="#3E3E3E"/>
<path d="M124.549 298.051H193.123L194.321 296.16H123.352L124.549 298.051Z" fill="#1F1F1F"/>
<path d="M150.333 278.526H144.867V296.16H150.333V278.526Z" fill="#333333"/>
<path d="M153.641 278.526H151.664V296.16H153.641V278.526Z" fill="#333333"/>
<path opacity="0.05" d="M178.988 298.051V276.636H193.122L194.32 278.527V296.16L193.122 298.051H178.988Z" fill="#231F20"/>
<path opacity="0.1" d="M138.683 276.636V298.051H124.549L123.352 296.16V278.527L124.549 276.636H138.683Z" fill="white"/>
<path d="M194.321 299.941H123.352V317.575H194.321V299.941Z" fill="#61696B"/>
<path d="M193.123 298.051H124.549L123.352 299.942H194.321L193.123 298.051Z" fill="#3E3E3E"/>
<path d="M124.549 319.466H193.123L194.321 317.575H123.352L124.549 319.466Z" fill="#1F1F1F"/>
<path d="M150.333 299.941H144.867V317.575H150.333V299.941Z" fill="#333333"/>
<path d="M153.641 299.941H151.664V317.575H153.641V299.941Z" fill="#333333"/>
<path opacity="0.05" d="M178.988 319.466V298.051H193.122L194.32 299.942V317.575L193.122 319.466H178.988Z" fill="#231F20"/>
<path opacity="0.1" d="M138.683 298.051V319.466H124.549L123.352 317.575V299.942L124.549 298.051H138.683Z" fill="white"/>
<path d="M145.106 214.282H74.1367V231.915H145.106V214.282Z" fill="#61696B"/>
<path d="M143.908 212.39H75.3346L74.1367 214.282H145.106L143.908 212.39Z" fill="#3E3E3E"/>
<path d="M75.3346 233.806H143.908L145.106 231.915H74.1367L75.3346 233.806Z" fill="#1F1F1F"/>
<path d="M101.118 214.282H95.6523V231.915H101.118V214.282Z" fill="#333333"/>
<path d="M104.426 214.282H102.449V231.915H104.426V214.282Z" fill="#333333"/>
<path opacity="0.05" d="M129.773 233.806V212.39H143.907L145.105 214.282V231.915L143.907 233.806H129.773Z" fill="#231F20"/>
<path opacity="0.1" d="M89.4683 212.39V233.806H75.3346L74.1367 231.915V214.282L75.3346 212.39H89.4683Z" fill="white"/>
<path d="M145.106 235.696H74.1367V253.329H145.106V235.696Z" fill="#61696B"/>
<path d="M143.908 233.806H75.3346L74.1367 235.696H145.106L143.908 233.806Z" fill="#3E3E3E"/>
<path d="M75.3346 255.221H143.908L145.106 253.33H74.1367L75.3346 255.221Z" fill="#1F1F1F"/>
<path d="M101.118 235.696H95.6523V253.329H101.118V235.696Z" fill="#333333"/>
<path d="M104.426 235.696H102.449V253.329H104.426V235.696Z" fill="#333333"/>
<path opacity="0.05" d="M129.773 255.221V233.806H143.907L145.105 235.696V253.33L143.907 255.221H129.773Z" fill="#231F20"/>
<path opacity="0.1" d="M89.4683 233.806V255.221H75.3346L74.1367 253.33V235.696L75.3346 233.806H89.4683Z" fill="white"/>
<path d="M145.106 257.111H74.1367V274.745H145.106V257.111Z" fill="#61696B"/>
<path d="M143.908 255.221H75.3346L74.1367 257.112H145.106L143.908 255.221Z" fill="#3E3E3E"/>
<path d="M75.3346 276.635H143.908L145.106 274.745H74.1367L75.3346 276.635Z" fill="#1F1F1F"/>
<path d="M101.118 257.111H95.6523V274.745H101.118V257.111Z" fill="#333333"/>
<path d="M104.426 257.111H102.449V274.745H104.426V257.111Z" fill="#333333"/>
<path opacity="0.05" d="M129.773 276.635V255.221H143.907L145.105 257.112V274.745L143.907 276.635H129.773Z" fill="#231F20"/>
<path opacity="0.1" d="M89.4683 255.221V276.635H75.3346L74.1367 274.745V257.112L75.3346 255.221H89.4683Z" fill="white"/>
<path d="M145.106 278.526H74.1367V296.16H145.106V278.526Z" fill="#61696B"/>
<path d="M143.908 276.636H75.3346L74.1367 278.527H145.106L143.908 276.636Z" fill="#3E3E3E"/>
<path d="M75.3346 298.051H143.908L145.106 296.16H74.1367L75.3346 298.051Z" fill="#1F1F1F"/>
<path d="M101.118 278.526H95.6523V296.16H101.118V278.526Z" fill="#333333"/>
<path d="M104.426 278.526H102.449V296.16H104.426V278.526Z" fill="#333333"/>
<path opacity="0.05" d="M129.773 298.051V276.636H143.907L145.105 278.527V296.16L143.907 298.051H129.773Z" fill="#231F20"/>
<path opacity="0.1" d="M89.4683 276.636V298.051H75.3346L74.1367 296.16V278.527L75.3346 276.636H89.4683Z" fill="white"/>
<path d="M145.106 299.941H74.1367V317.575H145.106V299.941Z" fill="#61696B"/>
<path d="M143.908 298.051H75.3346L74.1367 299.942H145.106L143.908 298.051Z" fill="#3E3E3E"/>
<path d="M75.3346 319.466H143.908L145.106 317.575H74.1367L75.3346 319.466Z" fill="#1F1F1F"/>
<path d="M101.118 299.941H95.6523V317.575H101.118V299.941Z" fill="#333333"/>
<path d="M104.426 299.941H102.449V317.575H104.426V299.941Z" fill="#333333"/>
<path opacity="0.05" d="M129.773 319.466V298.051H143.907L145.105 299.942V317.575L143.907 319.466H129.773Z" fill="#231F20"/>
<path opacity="0.1" d="M89.4683 298.051V319.466H75.3346L74.1367 317.575V299.942L75.3346 298.051H89.4683Z" fill="white"/>
<path opacity="0.25" d="M145.104 319.466V235.696L143.906 233.806H148.398V319.397L145.104 319.466Z" fill="#231F20"/>
<path opacity="0.1" d="M175.972 319.466H191.988V239.487C171.292 242.863 155.445 260.862 155.445 282.498C155.445 298.073 163.653 311.758 175.972 319.466Z" fill="#231F20"/>
<path d="M213.994 316.551C234.474 308.284 244.374 284.981 236.108 264.501C227.841 244.021 204.538 234.121 184.058 242.387C163.579 250.654 153.678 273.957 161.944 294.437C170.211 314.916 193.514 324.817 213.994 316.551Z" fill="#61696B"/>
<path d="M199.027 313.616C217.883 313.616 233.168 298.331 233.168 279.476C233.168 260.62 217.883 245.335 199.027 245.335C180.172 245.335 164.887 260.62 164.887 279.476C164.887 298.331 180.172 313.616 199.027 313.616Z" fill="black"/>
<path d="M199.025 312.325C217.166 312.325 231.873 297.618 231.873 279.476C231.873 261.334 217.166 246.627 199.025 246.627C180.883 246.627 166.176 261.334 166.176 279.476C166.176 297.618 180.883 312.325 199.025 312.325Z" fill="#9C9C9C"/>
<path d="M231.876 279.478C231.876 297.614 217.172 312.324 199.029 312.324C186.61 312.324 175.804 305.429 170.215 295.266C174.897 297.835 180.279 299.298 186.003 299.298C204.146 299.298 218.849 284.588 218.849 266.451C218.849 260.727 217.387 255.338 214.809 250.656C224.981 256.238 231.876 267.052 231.876 279.478Z" fill="#848484"/>
<path d="M208.47 278.61C206.35 277.134 204.006 275.928 201.44 274.996V266.369C202.562 266.627 203.57 267.124 204.471 267.865C205.374 268.601 206.227 269.36 207.026 270.129L211.555 265.694C210.691 264.892 209.896 264.188 209.17 263.574C208.444 262.965 207.7 262.439 206.931 262.01C206.162 261.575 205.341 261.23 204.471 260.968C203.606 260.718 202.594 260.522 201.44 260.395V256.93H196.81V260.439C195.529 260.606 194.27 260.932 193.031 261.43C191.79 261.931 190.693 262.581 189.729 263.378C188.764 264.188 187.987 265.157 187.395 266.3C186.796 267.44 186.499 268.732 186.499 270.176C186.499 273.098 187.527 275.348 189.584 276.919C191.225 278.175 193.631 279.431 196.81 280.679V290.22C195.46 289.865 194.331 289.306 193.416 288.537C192.498 287.76 191.689 286.784 190.984 285.597L185.969 289.887C187.413 291.81 188.996 293.273 190.72 294.267C192.433 295.265 194.465 295.889 196.81 296.147V302.027H201.44V296.199C204.492 295.909 206.899 295.07 208.666 293.687C210.807 291.996 211.947 289.583 212.07 286.435V286.432C212.081 286.236 212.084 286.04 212.084 285.837C212.084 282.723 210.88 280.313 208.47 278.61ZM201.44 282.511C202.366 282.961 203.11 283.365 203.654 283.717C204.972 284.453 205.626 285.401 205.626 286.555C205.626 287.197 205.505 287.742 205.267 288.169C205.027 288.605 204.716 288.974 204.331 289.28C203.945 289.588 203.496 289.828 202.981 290.005C202.469 290.179 201.95 290.313 201.441 290.415V282.511H201.44ZM195.56 272.68C195.106 272.455 194.696 272.201 194.33 271.911C193.96 271.621 193.651 271.287 193.39 270.898C193.132 270.513 193.005 270.078 193.005 269.599C193.005 269.087 193.124 268.634 193.364 268.249C193.603 267.864 193.901 267.533 194.253 267.265C194.609 266.986 195.011 266.778 195.458 266.634C195.912 266.489 196.361 266.369 196.808 266.275V273.261C196.425 273.097 196.011 272.909 195.56 272.68Z" fill="#454545"/>
</g>
</svg>
