<svg width="44" height="44" viewBox="0 0 44 44" fill="none" xmlns="http://www.w3.org/2000/svg">
<path d="M35.3469 14.4072L38.6148 10.2045L33.7982 5.38787L29.5955 8.65582C28.4796 8.01765 27.298 7.52727 26.069 7.18916L25.409 1.8335H18.5962L17.9361 7.18924C16.7071 7.52735 15.5255 8.01781 14.4096 8.6559L10.2069 5.38795L5.39031 10.2046L8.65826 14.4073C8.02009 15.5231 7.52971 16.7048 7.19161 17.9337L1.83594 18.5937V25.4066L7.19168 26.0667C7.52979 27.2956 8.02025 28.4773 8.65834 29.5931L5.39039 33.7959L10.207 38.6125L14.4097 35.3445C15.5256 35.9827 16.7072 36.4731 17.9362 36.8112L18.5962 42.1668H25.409L26.0691 36.8111C27.2981 36.473 28.4797 35.9825 29.5956 35.3444L33.7983 38.6124L38.6149 33.7958L35.347 29.5931C35.9851 28.4772 36.4755 27.2956 36.8136 26.0666L42.1693 25.4066V18.5937L36.8135 17.9337C36.4754 16.7047 35.985 15.523 35.3469 14.4072ZM22.0026 32.6349C16.1383 32.6349 11.3678 27.8645 11.3678 22.0002C11.3678 16.1358 16.1383 11.3654 22.0026 11.3654C27.8669 11.3654 32.6374 16.1358 32.6374 22.0002C32.6374 27.8645 27.8669 32.6349 22.0026 32.6349Z" />
</svg>
