<svg width="19" height="19" viewBox="0 0 19 19" xmlns="http://www.w3.org/2000/svg">
<path d="M11.6367 14.3174H9.63672V6.31738H7.63672V4.31738H11.6367V14.3174ZM16.6367 0.317383H2.63672C2.10629 0.317383 1.59758 0.528096 1.22251 0.903169C0.847432 1.27824 0.636719 1.78695 0.636719 2.31738V16.3174C0.636719 16.8478 0.847432 17.3565 1.22251 17.7316C1.59758 18.1067 2.10629 18.3174 2.63672 18.3174H16.6367C17.1672 18.3174 17.6759 18.1067 18.0509 17.7316C18.426 17.3565 18.6367 16.8478 18.6367 16.3174V2.31738C18.6367 1.78695 18.426 1.27824 18.0509 0.903169C17.6759 0.528096 17.1672 0.317383 16.6367 0.317383Z"/>
</svg>
