<svg width="19" height="19" viewBox="0 0 19 19" fill="none" xmlns="http://www.w3.org/2000/svg">
<path d="M16.625 18.2483H2.375C1.3415 18.2483 0.5 17.4068 0.5 16.3733C0.5 15.3398 1.3415 14.4983 2.375 14.4983H16.625C17.6585 14.4983 18.5 15.3398 18.5 16.3733C18.5 17.4068 17.6585 18.2483 16.625 18.2483Z"/>
<path d="M16.625 13.3732C16.829 13.3732 17.0278 13.3942 17.2205 13.4332L18.4925 4.53817C18.5225 4.32817 18.4325 4.11067 18.245 3.99067C18.065 3.87067 17.8325 3.87067 17.645 3.98317L13.3775 6.60067L9.9875 0.533174C9.7925 0.180674 9.2075 0.180674 9.0125 0.533174L5.6225 6.60067L1.355 3.98317C1.1675 3.87067 0.935001 3.87067 0.755001 3.99067C0.567501 4.11067 0.477501 4.32817 0.507501 4.53817L1.7795 13.4332C1.97225 13.3942 2.171 13.3732 2.375 13.3732H16.625ZM12.605 10.0432L13.5425 8.73067C13.7525 8.43817 14.2475 8.43817 14.4575 8.73067L15.395 10.0432C15.5375 10.2382 15.5375 10.5082 15.395 10.7032L14.4575 12.0157C14.3525 12.1582 14.18 12.2482 14 12.2482C13.82 12.2482 13.6475 12.1582 13.5425 12.0157L12.605 10.7032C12.4625 10.5082 12.4625 10.2382 12.605 10.0432ZM8.105 10.0432L9.0425 8.73067C9.2525 8.43817 9.7475 8.43817 9.9575 8.73067L10.895 10.0432C11.0375 10.2382 11.0375 10.5082 10.895 10.7032L9.9575 12.0157C9.8525 12.1582 9.68 12.2482 9.5 12.2482C9.32 12.2482 9.1475 12.1582 9.0425 12.0157L8.105 10.7032C7.9625 10.5082 7.9625 10.2382 8.105 10.0432ZM3.605 10.0432L4.5425 8.73067C4.7525 8.43817 5.2475 8.43817 5.4575 8.73067L6.395 10.0432C6.5375 10.2382 6.5375 10.5082 6.395 10.7032L5.4575 12.0157C5.3525 12.1582 5.18 12.2482 5 12.2482C4.82 12.2482 4.6475 12.1582 4.5425 12.0157L3.605 10.7032C3.4625 10.5082 3.4625 10.2382 3.605 10.0432Z"/>
</svg>
