<svg width="29" height="25" viewBox="0 0 29 25" fill="none" xmlns="http://www.w3.org/2000/svg">
<path d="M25.8229 4.23845H21.3895L20.3333 1.27849C20.2604 1.07595 20.1266 0.900877 19.9504 0.777184C19.7742 0.653491 19.5641 0.587212 19.3489 0.587403H9.3476C8.90752 0.587403 8.51308 0.864491 8.36638 1.27849L7.30693 4.23845H2.87351C1.43266 4.23845 0.265625 5.40548 0.265625 6.84634V21.7113C0.265625 23.1522 1.43266 24.3192 2.87351 24.3192H25.8229C27.2638 24.3192 28.4308 23.1522 28.4308 21.7113V6.84634C28.4308 5.40548 27.2638 4.23845 25.8229 4.23845ZM14.3482 19.1034C11.4665 19.1034 9.13245 16.7694 9.13245 13.8876C9.13245 11.0059 11.4665 8.67186 14.3482 8.67186C17.2299 8.67186 19.564 11.0059 19.564 13.8876C19.564 16.7694 17.2299 19.1034 14.3482 19.1034ZM11.2188 13.8876C11.2188 14.7176 11.5485 15.5136 12.1354 16.1005C12.7222 16.6874 13.5182 17.0171 14.3482 17.0171C15.1782 17.0171 15.9742 16.6874 16.5611 16.1005C17.148 15.5136 17.4777 14.7176 17.4777 13.8876C17.4777 13.0577 17.148 12.2617 16.5611 11.6748C15.9742 11.0879 15.1782 10.7582 14.3482 10.7582C13.5182 10.7582 12.7222 11.0879 12.1354 11.6748C11.5485 12.2617 11.2188 13.0577 11.2188 13.8876Z" fill="#D3D9D8"/>
</svg>
