<svg width="29" height="25" viewBox="0 0 29 25" fill="none" xmlns="http://www.w3.org/2000/svg">
<path d="M25.8229 4.23894H21.3895L20.3333 1.27898C20.2604 1.07644 20.1266 0.901365 19.9504 0.777672C19.7742 0.653979 19.5641 0.587701 19.3489 0.587891H9.3476C8.90752 0.587891 8.51308 0.864979 8.36638 1.27898L7.30693 4.23894H2.87351C1.43266 4.23894 0.265625 5.40597 0.265625 6.84683V21.7118C0.265625 23.1527 1.43266 24.3197 2.87351 24.3197H25.8229C27.2638 24.3197 28.4308 23.1527 28.4308 21.7118V6.84683C28.4308 5.40597 27.2638 4.23894 25.8229 4.23894ZM14.3482 19.1039C11.4665 19.1039 9.13245 16.7698 9.13245 13.8881C9.13245 11.0064 11.4665 8.67235 14.3482 8.67235C17.2299 8.67235 19.564 11.0064 19.564 13.8881C19.564 16.7698 17.2299 19.1039 14.3482 19.1039ZM11.2188 13.8881C11.2188 14.7181 11.5485 15.5141 12.1354 16.101C12.7222 16.6879 13.5182 17.0176 14.3482 17.0176C15.1782 17.0176 15.9742 16.6879 16.5611 16.101C17.148 15.5141 17.4777 14.7181 17.4777 13.8881C17.4777 13.0581 17.148 12.2621 16.5611 11.6753C15.9742 11.0884 15.1782 10.7587 14.3482 10.7587C13.5182 10.7587 12.7222 11.0884 12.1354 11.6753C11.5485 12.2621 11.2188 13.0581 11.2188 13.8881Z" fill="#61696B"/>
</svg>
