<svg width="38" height="39" viewBox="0 0 38 39" fill="none" xmlns="http://www.w3.org/2000/svg">
<path d="M28.1078 22.3929C30.0743 22.3929 31.6685 23.9871 31.6685 25.9537V27.4079C31.6685 28.3157 31.3847 29.2008 30.8569 29.9395C28.4092 33.3646 24.4124 35.0614 18.997 35.0614C13.5805 35.0614 9.58577 33.3638 7.14402 29.937C6.61841 29.1993 6.33594 28.3161 6.33594 27.4103V25.9537C6.33594 23.9871 7.93013 22.3929 9.89666 22.3929H28.1078ZM18.997 3.40039C23.3693 3.40039 26.9137 6.9448 26.9137 11.3171C26.9137 15.6893 23.3693 19.2337 18.997 19.2337C14.6247 19.2337 11.0803 15.6893 11.0803 11.3171C11.0803 6.9448 14.6247 3.40039 18.997 3.40039Z" fill="#61696B"/>
</svg>
