<svg width="21" height="15" viewBox="0 0 21 15" fill="none" xmlns="http://www.w3.org/2000/svg">
<path d="M1.82837 14.8745H18.0515C18.7229 14.8745 19.2685 14.3288 19.2685 13.6574V10.911H13.445C13.0089 10.911 12.5829 10.8258 12.1833 10.6554C11.7979 10.4931 11.4511 10.2578 11.1549 9.9617C10.8588 9.66555 10.6235 9.31867 10.4612 8.93328C10.2929 8.53368 10.2056 8.10772 10.2056 7.67162V7.32882C10.2056 6.89271 10.2908 6.46675 10.4612 6.06715C10.6235 5.68176 10.8588 5.3349 11.1549 5.03875C11.4511 4.74261 11.7979 4.50732 12.1833 4.34504C12.5829 4.17669 13.0089 4.08947 13.445 4.08947H19.2685V1.34302C19.2685 0.671616 18.7229 0.125977 18.0515 0.125977H1.82837C1.15697 0.125977 0.611328 0.671616 0.611328 1.34302V13.6574C0.611328 14.3288 1.15697 14.8745 1.82837 14.8745Z" fill="white"/>
<path d="M20.6113 6.21942C20.6113 5.71435 20.2036 5.30664 19.6985 5.30664H19.2685H13.445C12.3273 5.30664 11.4227 6.21131 11.4227 7.32895V7.67175C11.4227 8.7894 12.3273 9.69404 13.445 9.69404H19.2685H19.6985C20.2036 9.69404 20.6113 9.28634 20.6113 8.78127V6.21942ZM13.7756 8.57439C13.1813 8.57439 12.7006 8.09368 12.7006 7.49934C12.7006 6.90502 13.1813 6.42429 13.7756 6.42429C14.3699 6.42429 14.8507 6.90502 14.8507 7.49934C14.8507 8.09368 14.3699 8.57439 13.7756 8.57439Z" fill="white"/>
</svg>
