<svg width="24" height="25" viewBox="0 0 24 25" fill="none" xmlns="http://www.w3.org/2000/svg">
<path d="M21.9858 11.7406L21.9864 17.0217C21.9864 18.4842 20.8447 19.6801 19.4039 19.7667L19.2364 19.7717H4.75853C3.296 19.7717 2.10013 18.63 2.01355 17.1892L2.00853 17.0217L2.00781 11.7406H21.9858ZM18.2504 15.2459H15.7504L15.6486 15.2527C15.2825 15.3024 15.0004 15.6162 15.0004 15.9959C15.0004 16.3756 15.2825 16.6894 15.6486 16.739L15.7504 16.7459H18.2504L18.3522 16.739C18.7182 16.6894 19.0004 16.3756 19.0004 15.9959C19.0004 15.6162 18.7182 15.3024 18.3522 15.2527L18.2504 15.2459ZM19.2364 5.7666C20.6989 5.7666 21.8948 6.90831 21.9813 8.34908L21.9864 8.5166L21.9858 10.2406H2.00781L2.00853 8.5166C2.00853 7.05407 3.15024 5.8582 4.59101 5.77162L4.75853 5.7666H19.2364Z" fill="white"/>
</svg>
