<svg width="21" height="20" viewBox="0 0 21 20" fill="none" xmlns="http://www.w3.org/2000/svg">
<path d="M10.9474 1.18386C10.6014 0.529859 9.52544 0.529859 9.17944 1.18386L0.179435 18.1839C0.0984187 18.3362 0.0582543 18.507 0.0628552 18.6795C0.0674561 18.852 0.116665 19.0204 0.205689 19.1682C0.294712 19.316 0.420512 19.4383 0.570833 19.5231C0.721153 19.6078 0.890866 19.6522 1.06344 19.6519H19.0634C19.2359 19.6522 19.4055 19.6079 19.5557 19.5232C19.7059 19.4385 19.8316 19.3163 19.9206 19.1685C20.0095 19.0208 20.0586 18.8525 20.0632 18.6801C20.0677 18.5077 20.0275 18.3371 19.9464 18.1849L10.9474 1.18386ZM11.0634 16.6519H9.06344V14.6519H11.0634V16.6519ZM9.06344 12.6519V7.65186H11.0634L11.0644 12.6519H9.06344Z" fill="#DD6F0C"/>
</svg>
