<svg width="20" height="24" viewBox="0 0 20 24" fill="none" xmlns="http://www.w3.org/2000/svg">
<path d="M2.42124 3.39886L2.41797 5.87565V18.1306C2.41797 20.2246 4.11556 21.9222 6.20963 21.9222L16.262 21.9225C15.9015 22.9419 14.9293 23.6722 13.7864 23.6722H6.20963C3.14906 23.6722 0.667969 21.1911 0.667969 18.1306V5.87565C0.667969 4.73149 1.39999 3.7583 2.42124 3.39886ZM16.7096 0.333984C18.1594 0.333984 19.3346 1.50924 19.3346 2.95898V18.1257C19.3346 19.5754 18.1594 20.7507 16.7096 20.7507H6.20963C4.75989 20.7507 3.58464 19.5754 3.58464 18.1257V2.95898C3.58464 1.50924 4.75989 0.333984 6.20963 0.333984H16.7096Z" />
</svg>
