<svg width="12.25" height="28" viewBox="0 0 12.25 28" fill="none" xmlns="http://www.w3.org/2000/svg">
<path fill-rule="evenodd" clip-rule="evenodd" d="M2.70727 20.9713C2.70727 18.7787 2.69916 16.5874 2.71423 14.396C2.71655 14.0271 2.61916 13.9107 2.27365 13.9256C1.63365 13.9528 0.992499 13.9231 0.352503 13.938C0.0927944 13.9454 -0.00227753 13.8686 4.12949e-05 13.5752C0.0127948 12.2072 0.0116354 10.8391 0.00120071 9.47109C-0.00111812 9.20862 0.0730843 9.12196 0.322358 9.12691C0.977427 9.14301 1.63365 9.1071 2.28756 9.14177C2.66669 9.16158 2.74437 9.01796 2.73742 8.64284C2.71423 7.60164 2.71423 6.55921 2.73626 5.51802C2.76176 4.24654 3.08176 3.05926 3.79132 2.02549C4.68755 0.718121 5.9629 0.120145 7.43536 0.049577C8.94723 -0.0222295 10.4626 0.0173879 11.9768 5.52509e-05C12.1878 -0.00242084 12.2504 0.078052 12.2504 0.297186C12.2434 1.68008 12.2423 3.06421 12.2516 4.44711C12.2539 4.69348 12.1785 4.769 11.9524 4.76405C11.2243 4.75167 10.4962 4.75786 9.76926 4.76033C8.79999 4.76405 8.22028 5.29641 8.15999 6.32027C8.1113 7.14109 8.14724 7.96687 8.12869 8.7914C8.12173 9.08482 8.28521 9.06501 8.46724 9.06501C9.57332 9.06377 10.6806 9.07615 11.7866 9.05634C12.1113 9.05015 12.2179 9.13063 12.1808 9.49461C12.0417 10.8688 11.9223 12.2455 11.8121 13.6235C11.7866 13.9342 11.6545 13.9937 11.3924 13.9887C10.5194 13.9739 9.64636 13.9788 8.77216 13.985C8.14492 13.9887 8.20637 13.8872 8.20637 14.5706C8.20289 18.8604 8.19825 23.1515 8.21564 27.4413C8.21796 27.8944 8.10898 28.0071 7.68927 27.9984C6.19015 27.9687 4.68987 27.9675 3.19075 27.9997C2.76872 28.0083 2.69916 27.856 2.70263 27.4537C2.71539 25.292 2.70727 23.1317 2.70727 20.9713Z" />
</svg>
