<svg width="28" height="28" viewBox="0 0 28 28" fill="none" xmlns="http://www.w3.org/2000/svg">
<path d="M27.9854 14.0364C27.9854 16.0776 28 18.1187 27.9854 20.1599C27.9563 24.5483 24.5601 27.9745 20.1874 27.9891C16.0625 28.0036 11.9375 28.0036 7.79802 27.9891C3.4253 27.9745 0.0145757 24.5483 0 20.1599C0 16.0484 0 11.9516 0.0145757 7.84015C0.0291515 3.4517 3.4253 0.0255142 7.8126 0.0109347C11.9375 -0.00364488 16.0625 -0.00364488 20.202 0.0109347C24.5747 0.0255142 27.9708 3.4517 28 7.84015C28 9.91044 27.9854 11.9662 27.9854 14.0364ZM14.0073 21.7636C18.3217 21.7636 21.7616 18.2937 21.747 13.9781C21.7324 9.69175 18.3071 6.26556 14.0073 6.25098C9.70744 6.22182 6.23842 9.67717 6.23842 13.9927C6.23842 18.3228 9.69287 21.7636 14.0073 21.7636ZM24.8808 4.70554C24.8954 3.88909 24.2103 3.16011 23.3941 3.11638C22.5487 3.07264 21.7907 3.78703 21.7762 4.64723C21.7616 5.46368 22.4466 6.19266 23.2629 6.2364C24.1083 6.26556 24.8662 5.55116 24.8808 4.70554Z"/>
<path d="M13.9885 18.673C11.4085 18.673 9.32422 16.5735 9.32422 13.9784C9.33879 11.3978 11.4523 9.31294 14.0322 9.3421C16.5829 9.35668 18.6527 11.4415 18.6527 13.993C18.6673 16.5735 16.5684 18.673 13.9885 18.673Z"/>
</svg>
