<svg width="28" height="22.75" viewBox="0 0 28 22.75" fill="none" xmlns="http://www.w3.org/2000/svg">
<path d="M1.71661 9.90769L18.3953 3.1551C20.0417 2.45171 25.6251 0.200844 25.6251 0.200844C25.6251 0.200844 28.202 -0.783908 27.9873 1.60763C27.9157 2.59239 27.343 6.03902 26.7704 9.76701L24.9808 20.8103C24.9808 20.8103 24.8377 22.4281 23.6208 22.7095C22.4039 22.9908 20.3996 21.7247 20.0417 21.4434C19.7553 21.2324 14.673 18.0671 12.8119 16.5196C12.3108 16.0976 11.7381 15.2535 12.8834 14.2687C15.4604 11.9475 18.5384 9.06362 20.3996 7.23479C21.2586 6.39072 22.1175 4.42121 18.5384 6.81276L8.44534 13.495C8.44534 13.495 7.30002 14.1984 5.15256 13.5653C3.00509 12.9323 0.499711 12.0882 0.499711 12.0882C0.499711 12.0882 -1.21826 11.0331 1.71661 9.90769V9.90769Z" />
</svg>
