<svg width="28" height="22.75" viewBox="0 0 28 23" fill="none" xmlns="http://www.w3.org/2000/svg">
<path d="M28 2.69267C26.9697 3.14891 25.8624 3.4582 24.7005 3.59675C25.8862 2.8858 26.7975 1.76059 27.2259 0.419854C26.1158 1.07763 24.8867 1.55626 23.5778 1.81377C22.5307 0.696958 21.0385 0 19.3867 0C16.2146 0 13.643 2.57091 13.643 5.74221C13.643 6.19285 13.6934 6.6309 13.7914 7.05076C9.0179 6.81144 4.78472 4.52603 1.9514 1.05104C1.45725 1.89914 1.17308 2.8858 1.17308 3.93823C1.17308 5.93114 2.18658 7.68753 3.72783 8.71758C2.78572 8.68819 1.90101 8.42928 1.12549 7.99963C1.12549 8.02342 1.12549 8.04721 1.12549 8.0724C1.12549 10.8546 3.10489 13.175 5.73243 13.7026C5.25087 13.8342 4.74273 13.9042 4.21918 13.9042C3.84962 13.9042 3.48985 13.8678 3.13849 13.8006C3.86921 16.0818 5.9914 17.743 8.50415 17.7892C6.53875 19.3301 4.06099 20.2482 1.37046 20.2482C0.907109 20.2482 0.449355 20.2216 0 20.1684C2.54215 21.7974 5.56164 22.7491 8.80512 22.7491C19.3699 22.7491 25.1485 13.9993 25.1485 6.40978C25.1485 6.16066 25.1429 5.91295 25.1317 5.66664C26.2558 4.85632 27.2301 3.84447 28 2.69267Z" />
</svg>
