<?xml version="1.0" standalone="no"?>
<!DOCTYPE svg PUBLIC "-//W3C//DTD SVG 20010904//EN"
 "http://www.w3.org/TR/2001/REC-SVG-20010904/DTD/svg10.dtd">
<svg version="1.0" xmlns="http://www.w3.org/2000/svg"
 width="512.000000pt" height="512.000000pt" viewBox="0 0 512.000000 512.000000"
 preserveAspectRatio="xMidYMid meet">
<metadata>
Created by potrace 1.14, written by Peter Selinger 2001-2017
</metadata>
<g transform="translate(0.000000,512.000000) scale(0.100000,-0.100000)"
fill="#000000" stroke="none">
<path d="M393 5105 c-192 -42 -353 -212 -383 -405 -6 -42 -10 -790 -10 -2150
0 -2293 -3 -2159 62 -2283 69 -131 213 -234 358 -257 42 -6 790 -10 2150 -10
2293 0 2159 -3 2283 62 131 69 234 213 257 358 6 42 10 790 10 2150 0 2293 3
2159 -62 2283 -69 131 -213 234 -358 257 -42 6 -789 10 -2155 9 -1719 0 -2101
-3 -2152 -14z m2669 -346 c165 -31 270 -56 281 -66 9 -9 17 -27 17 -40 0 -32
-439 -811 -467 -830 -29 -19 -74 -5 -90 28 -6 13 -28 193 -48 399 -54 563 -52
504 -22 534 14 14 35 26 46 26 11 0 138 -23 283 -51z m-526 -177 c11 -6 41
-209 33 -216 -2 -2 -69 -9 -148 -16 -224 -18 -364 -47 -562 -116 -325 -113
-627 -315 -846 -565 -308 -354 -463 -769 -463 -1242 0 -294 49 -505 180 -772
197 -403 506 -712 905 -905 202 -98 418 -163 649 -195 128 -18 386 -20 513 -5
317 38 624 145 878 305 266 167 528 444 678 715 49 89 122 272 151 383 54 199
61 257 61 507 -1 206 -3 248 -23 339 -98 447 -363 860 -732 1141 -106 80 -265
176 -386 231 -52 24 -93 48 -92 54 7 26 104 185 113 185 19 0 231 -107 325
-164 549 -333 927 -894 1017 -1506 23 -160 23 -458 -1 -605 -49 -306 -149
-565 -314 -811 -369 -550 -886 -876 -1569 -991 -133 -22 -488 -25 -633 -4
-259 36 -513 109 -720 207 -449 214 -838 600 -1045 1039 -182 384 -239 865
-154 1288 129 641 627 1245 1254 1521 279 123 540 182 900 204 11 1 25 -2 31
-6z m76 -602 c9 -80 21 -158 27 -173 61 -159 297 -201 409 -73 15 18 59 85 97
149 69 119 83 131 119 104 17 -12 13 -23 -57 -163 -118 -236 -487 -948 -495
-956 -8 -7 -102 10 -114 21 -6 5 -78 1136 -78 1220 0 20 4 22 37 19 l38 -3 17
-145z m-466 -555 l212 -580 -51 -32 c-41 -27 -53 -30 -66 -20 -36 28 -918 781
-936 799 -20 20 -20 20 38 73 121 111 335 247 494 315 37 17 75 29 83 27 9 -1
87 -200 226 -582z m1727 146 c91 -97 172 -204 234 -308 44 -75 108 -212 101
-218 -5 -5 -1202 -398 -1216 -399 -7 -1 -28 19 -47 44 l-34 46 366 384 c200
212 395 417 431 457 37 40 72 72 78 73 7 0 46 -36 87 -79z m-2343 -711 l572
-265 -7 -55 c-4 -30 -11 -58 -17 -61 -5 -3 -82 -9 -171 -13 -89 -3 -360 -17
-602 -31 -242 -14 -458 -25 -479 -25 l-39 0 6 138 c6 148 22 234 69 382 50
157 69 201 83 198 8 -2 271 -122 585 -268z m1160 -161 c63 -27 132 -102 154
-166 71 -207 -124 -410 -348 -363 -151 31 -256 181 -226 323 39 188 237 285
420 206z m1646 -253 c20 -109 -71 -545 -140 -672 -11 -20 -25 -14 -442 180
-237 111 -499 232 -583 271 -84 38 -154 72 -156 75 -1 3 2 29 8 58 9 40 16 54
32 57 11 2 169 11 350 21 182 9 422 22 535 29 113 6 246 13 297 14 l92 1 7
-34z m-2166 -251 c17 -25 30 -50 28 -55 -7 -20 -854 -908 -866 -909 -38 -3
-220 222 -314 387 -52 91 -113 221 -106 227 4 3 1210 393 1220 394 4 1 21 -19
38 -44z m1180 -496 c264 -225 480 -414 480 -419 0 -10 -113 -115 -184 -169
-79 -61 -203 -133 -310 -180 -159 -70 -115 -135 -357 528 -115 316 -209 579
-209 583 0 6 87 67 98 68 1 0 218 -185 482 -411z m-823 281 c3 -18 16 -230 48
-779 17 -282 22 -428 16 -434 -15 -15 -370 8 -446 28 -77 20 -275 84 -298 97
-16 8 -15 15 21 81 22 40 149 286 282 547 134 261 247 480 251 486 13 16 123
-7 126 -26z"/>
</g>
</svg>
