<svg width="38" height="38" viewBox="0 0 38 38" fill="none" xmlns="http://www.w3.org/2000/svg">
<path d="M28.1066 3.16797C29.9921 3.16797 31.5355 4.63281 31.6609 6.48656L31.6691 6.73047V31.2691C31.6691 33.1546 30.2042 34.698 28.3505 34.8234L28.1066 34.8316H9.89844C8.0129 34.8316 6.4695 33.3667 6.34416 31.513L6.33594 31.2691V6.73047C6.33594 4.84493 7.80078 3.30153 9.65453 3.17619L9.89844 3.16797H28.1066ZM19.3954 20.5788H12.2733L12.1122 20.5897C11.5326 20.6683 11.0858 21.1651 11.0858 21.7663C11.0858 22.3675 11.5326 22.8644 12.1122 22.943L12.2733 22.9538H19.3954L19.5565 22.943C20.1361 22.8644 20.5829 22.3675 20.5829 21.7663C20.5829 21.1651 20.1361 20.6683 19.5565 20.5897L19.3954 20.5788ZM25.7317 15.831H12.2733L12.1122 15.8418C11.5326 15.9204 11.0858 16.4173 11.0858 17.0185C11.0858 17.6196 11.5326 18.1165 12.1122 18.1951L12.2733 18.206H25.7317L25.8928 18.1951C26.4724 18.1165 26.9192 17.6196 26.9192 17.0185C26.9192 16.4173 26.4724 15.9204 25.8928 15.8418L25.7317 15.831ZM25.7317 11.0831H12.2733L12.1122 11.0939C11.5326 11.1726 11.0858 11.6694 11.0858 12.2706C11.0858 12.8718 11.5326 13.3686 12.1122 13.4473L12.2733 13.4581H25.7317L25.8928 13.4473C26.4724 13.3686 26.9192 12.8718 26.9192 12.2706C26.9192 11.6694 26.4724 11.1726 25.8928 11.0939L25.7317 11.0831Z" />
</svg>
