<svg width="38" height="38" viewBox="0 0 38 38" fill="none" xmlns="http://www.w3.org/2000/svg">
<path d="M25.5946 10.959H12.4008C12.4008 10.959 3.16406 18.9975 3.16406 28.3785C3.16406 33.7363 7.13615 36.417 9.76099 36.417H28.2338C30.8697 36.417 34.8307 33.7361 34.8307 28.3785C34.8307 18.9975 25.594 10.959 25.594 10.959H25.5946ZM20.3156 29.5815V31.7269H17.6798L17.6795 29.5887C15.7368 29.2218 14.5164 28.0045 14.4298 26.2368H16.7156C16.8274 27.1646 17.7483 27.7624 19.0807 27.7624C20.3083 27.7624 21.1786 27.1574 21.1786 26.2957C21.1786 25.5623 20.6154 25.144 19.2288 24.8289L17.7591 24.5099C15.7008 24.0735 14.6898 22.9843 14.6898 21.235C14.6898 19.4858 15.8381 18.2241 17.6652 17.8097V15.6495H20.3011V17.8131C22.0848 18.2165 23.2729 19.4523 23.3306 21.1135L21.1244 21.1137C21.0126 20.2079 20.1819 19.603 19.0409 19.603C17.9 19.603 17.0766 20.1604 17.0766 21.0332C17.0766 21.741 17.6146 22.1334 18.9397 22.434L20.3011 22.7274C22.5722 23.2114 23.5507 24.1942 23.5507 25.9877C23.551 27.9055 22.3377 29.1891 20.3156 29.5815L20.3156 29.5815Z" />
<path d="M25.596 2.91648H21.9491C21.1958 2.06797 20.1238 1.5835 18.9989 1.5835C17.8741 1.5835 16.8021 2.06799 16.0487 2.91648H12.4018C11.9656 2.91827 11.5585 3.13877 11.3137 3.50535C11.0689 3.87193 11.018 4.33775 11.1777 4.75012L12.4018 8.27436H25.5956L26.8197 4.75012C26.9794 4.33776 26.9285 3.87194 26.6837 3.50535C26.4389 3.13875 26.0319 2.91827 25.5956 2.91648H25.596Z" />
</svg>
