<svg width="38" height="38" viewBox="0 0 38 38" fill="none" xmlns="http://www.w3.org/2000/svg">
<path d="M18.9974 3.1665C27.7421 3.1665 34.8307 10.2567 34.8307 18.9998C34.8307 27.743 27.7421 34.8332 18.9974 34.8332C10.2526 34.8332 3.16406 27.743 3.16406 18.9998C3.16406 10.2567 10.2526 3.1665 18.9974 3.1665ZM18.9974 24.5415C18.1229 24.5415 17.4141 25.2504 17.4141 26.1248C17.4141 26.9993 18.1229 27.7082 18.9974 27.7082C19.8718 27.7082 20.5807 26.9993 20.5807 26.1248C20.5807 25.2504 19.8718 24.5415 18.9974 24.5415ZM18.9974 10.6873C16.5927 10.6873 14.6432 12.6368 14.6432 15.0415C14.6432 15.6973 15.1749 16.229 15.8307 16.229C16.4319 16.229 16.9288 15.7823 17.0074 15.2026L17.0182 15.0415C17.0182 13.9484 17.9043 13.0623 18.9974 13.0623C20.0905 13.0623 20.9766 13.9484 20.9766 15.0415C20.9766 15.8946 20.7628 16.3165 19.9555 17.1508L19.741 17.3685C18.3507 18.7588 17.8099 19.6602 17.8099 21.3748C17.8099 22.0307 18.3416 22.5623 18.9974 22.5623C19.6532 22.5623 20.1849 22.0307 20.1849 21.3748C20.1849 20.5217 20.3986 20.0998 21.206 19.2655L21.4204 19.0479C22.8107 17.6575 23.3516 16.7562 23.3516 15.0415C23.3516 12.6368 21.4021 10.6873 18.9974 10.6873Z" />
</svg>
