<svg width="38" height="38" viewBox="0 0 38 38" fill="none" xmlns="http://www.w3.org/2000/svg">
<path d="M24.1432 21.3748H17.8099C17.1544 21.3748 16.6224 20.8428 16.6224 20.1873V10.6873C16.6224 10.0318 17.1544 9.49984 17.8099 9.49984C18.4654 9.49984 18.9974 10.0318 18.9974 10.6873V18.9998H24.1432C24.7987 18.9998 25.3307 19.5318 25.3307 20.1873C25.3307 20.8428 24.7987 21.3748 24.1432 21.3748ZM18.9974 3.1665C10.2542 3.1665 3.16406 10.2567 3.16406 18.9998C3.16406 27.743 10.2542 34.8332 18.9974 34.8332C27.7406 34.8332 34.8307 27.743 34.8307 18.9998C34.8307 10.2567 27.7406 3.1665 18.9974 3.1665Z" />
</svg>
