<svg width="38" height="38" viewBox="0 0 38 38" fill="none" xmlns="http://www.w3.org/2000/svg">
<path d="M14.25 8.28076C14.25 6.31324 15.845 4.71826 17.8125 4.71826H20.1875C22.155 4.71826 23.75 6.31325 23.75 8.28076V33.2499H23.3542C23.2154 33.2499 23.0821 33.2261 22.9583 33.1824C22.8345 33.2261 22.7013 33.2499 22.5625 33.2499H15.4375C15.2987 33.2499 15.1655 33.2261 15.0417 33.1824C14.9179 33.2261 14.7846 33.2499 14.6458 33.2499H14.25V8.28076Z" />
<path d="M11.875 15.8333H8.3125C6.34499 15.8333 4.75 17.4282 4.75 19.3958V32.0624C4.75 32.7183 5.28166 33.2499 5.9375 33.2499H11.875V15.8333Z" />
<path d="M26.125 33.2499H32.0625C32.7183 33.2499 33.25 32.7183 33.25 32.0624V14.6458C33.25 12.6782 31.655 11.0833 29.6875 11.0833H26.125V33.2499Z" />
</svg>
