<svg width="38" height="38" viewBox="0 0 38 38" fill="none" xmlns="http://www.w3.org/2000/svg">
<path d="M28.1078 22.1664C30.0743 22.1664 31.6685 23.7606 31.6685 25.7271V27.1813C31.6685 28.0892 31.3847 28.9743 30.8569 29.7129C28.4092 33.138 24.4124 34.8349 18.997 34.8349C13.5805 34.8349 9.58577 33.1373 7.14402 29.7104C6.61841 28.9727 6.33594 28.0895 6.33594 27.1837V25.7271C6.33594 23.7606 7.93013 22.1664 9.89666 22.1664H28.1078ZM18.997 3.17383C23.3693 3.17383 26.9137 6.71824 26.9137 11.0905C26.9137 15.4627 23.3693 19.0072 18.997 19.0072C14.6247 19.0072 11.0803 15.4627 11.0803 11.0905C11.0803 6.71824 14.6247 3.17383 18.997 3.17383Z" />
</svg>
