<svg width="44" height="44" viewBox="0 0 44 44" fill="none" xmlns="http://www.w3.org/2000/svg">
<path d="M16.3245 30.2512H27.6755C26.539 36.2487 24.2631 40.3312 22 40.3312C19.8055 40.3312 17.5989 36.4924 16.4309 30.7911L16.3245 30.2512H27.6755H16.3245ZM5.62064 30.2515L13.5143 30.2511C14.1831 34.0685 15.3166 37.3163 16.8 39.5891C12.1014 38.2015 8.18974 34.9843 5.88895 30.7628L5.62064 30.2515ZM30.4857 30.2511L38.3794 30.2515C36.1219 34.724 32.0865 38.146 27.2019 39.5884C28.5852 37.4661 29.6645 34.4961 30.3458 31.0067L30.4857 30.2511L38.3794 30.2515L30.4857 30.2511ZM31.041 18.3345L39.9694 18.3334C40.2099 19.5183 40.3362 20.7447 40.3362 22.0006C40.3362 23.917 40.0422 25.7648 39.4968 27.5013H30.8753C31.0683 25.7457 31.1695 23.9012 31.1695 22.0006C31.1695 21.1677 31.1501 20.3455 31.112 19.5369L31.041 18.3345L39.9694 18.3334L31.041 18.3345ZM4.0306 18.3334L12.959 18.3345C12.8742 19.5261 12.8305 20.7512 12.8305 22.0006C12.8305 23.5211 12.8952 25.0057 13.02 26.4375L13.1247 27.5013H4.50318C3.95782 25.7648 3.66382 23.917 3.66382 22.0006C3.66382 20.7447 3.79008 19.5183 4.0306 18.3334ZM15.7217 18.3335H28.2783C28.3704 19.5171 28.4195 20.7433 28.4195 22.0006C28.4195 23.5363 28.3462 25.0256 28.2108 26.4478L28.0977 27.5014H15.9022C15.695 25.7674 15.5805 23.9202 15.5805 22.0006C15.5805 21.0576 15.6081 20.1322 15.6608 19.229L15.7217 18.3335H28.2783H15.7217ZM27.3978 4.72429L27.2 4.41221C32.7336 6.04567 37.1776 10.2195 39.1819 15.5833L30.7652 15.5838C30.1867 11.1528 29.0117 7.34739 27.3978 4.72429L27.2 4.41221L27.3978 4.72429ZM16.5766 4.47971L16.7998 4.41228C15.1851 6.88638 13.985 10.5157 13.3476 14.7775L13.2348 15.5838L4.81813 15.5833C6.79532 10.2918 11.1469 6.1585 16.5766 4.47971L16.7998 4.41228L16.5766 4.47971ZM22 3.66992C24.4178 3.66992 26.8502 8.3298 27.8923 15.0062L27.9782 15.5834H16.0218C17.0107 8.59988 19.5131 3.66992 22 3.66992Z"/>
</svg>
