<svg width="28" height="28" viewBox="0 0 28 28" fill="none" xmlns="http://www.w3.org/2000/svg">
<path d="M26.0329 5.6267C24.958 3.40369 21.8615 1.58487 18.2596 2.64383C16.5384 3.14481 15.0368 4.21916 13.9999 5.69137C12.963 4.21916 11.4614 3.14481 9.74021 2.64383C6.13031 1.60104 3.04183 3.40369 1.96688 5.6267C0.458746 8.73892 1.08446 12.2391 3.82799 16.0304C5.97789 18.9971 9.05032 22.0042 13.5106 25.4964C13.6515 25.6072 13.8252 25.6673 14.0039 25.6673C14.1827 25.6673 14.3563 25.6072 14.4973 25.4964C18.9495 22.0123 22.0299 19.0294 24.1798 16.0304C26.9153 12.2391 27.5411 8.73892 26.0329 5.6267Z" fill="#EB5757"/>
</svg>
