<svg width="34" height="34" viewBox="0 0 34 34" fill="none" xmlns="http://www.w3.org/2000/svg">
<path d="M18.1273 8.17251L16.9988 9.30346L15.8668 8.17149C12.9806 5.28527 8.30113 5.28527 5.41491 8.17149C2.52869 11.0577 2.52869 15.7372 5.41491 18.6234L16.271 29.4795C16.6738 29.8823 17.3267 29.8823 17.7295 29.4795L28.594 18.6214C31.4738 15.7256 31.4787 11.0593 28.592 8.17251C25.7005 5.28104 21.0188 5.28104 18.1273 8.17251ZM27.1315 17.167L17.0002 27.2919L6.87332 17.165C4.79255 15.0842 4.79255 11.7107 6.87332 9.62989C8.95408 7.54913 12.3277 7.54913 14.4084 9.62989L16.2749 11.4964C16.6845 11.9059 17.3509 11.898 17.7506 11.4787L19.5857 9.63092C21.6717 7.5449 25.0475 7.5449 27.1335 9.63092C29.2148 11.7122 29.2113 15.0758 27.1315 17.167Z" />
</svg>
