<svg width="24" height="24" viewBox="0 0 24 24" fill="none" xmlns="http://www.w3.org/2000/svg">
<path d="M12 1.99902C17.5237 1.99902 22.0015 6.47687 22.0015 12.0006C22.0015 17.5243 17.5237 22.0021 12 22.0021C6.47626 22.0021 1.99841 17.5243 1.99841 12.0006C1.99841 6.47687 6.47626 1.99902 12 1.99902ZM8.4617 14.7839C8.20535 14.4585 7.73379 14.4026 7.40843 14.6589C7.08307 14.9153 7.02713 15.3869 7.28348 15.7122C8.41408 17.1472 10.1373 18.0021 11.9999 18.0021C13.8601 18.0021 15.5813 17.1495 16.712 15.7178C16.9688 15.3927 16.9134 14.9211 16.5883 14.6644C16.2633 14.4076 15.7916 14.463 15.5349 14.7881C14.6856 15.8633 13.3962 16.5021 11.9999 16.5021C10.6019 16.5021 9.31084 15.8616 8.4617 14.7839ZM9.00041 8.75121C8.31045 8.75121 7.75112 9.31054 7.75112 10.0005C7.75112 10.6905 8.31045 11.2498 9.00041 11.2498C9.69037 11.2498 10.2497 10.6905 10.2497 10.0005C10.2497 9.31054 9.69037 8.75121 9.00041 8.75121ZM15.0004 8.75121C14.3104 8.75121 13.7511 9.31054 13.7511 10.0005C13.7511 10.6905 14.3104 11.2498 15.0004 11.2498C15.6904 11.2498 16.2497 10.6905 16.2497 10.0005C16.2497 9.31054 15.6904 8.75121 15.0004 8.75121Z" />
</svg>
