<svg width="54" height="27" viewBox="0 0 54 27" fill="none" xmlns="http://www.w3.org/2000/svg">
<path d="M37.2021 0.880945C27.8709 0.026853 18.4375 1.44954 9.794 5.15915C6.42121 6.60307 2.20244 8.4462 0.849216 12.4018C-0.468521 16.2522 1.64747 20.4519 4.6999 22.624C8.21656 25.1279 12.7391 25.7987 16.8379 26.2444C21.3588 26.7334 25.9276 26.6405 30.412 25.9706C34.8871 25.3018 39.307 24.0629 43.4835 22.265C46.9196 20.7937 51.2376 18.9898 52.9201 15.179C54.7712 11.0153 52.3499 6.21317 48.792 4.09826C44.1757 1.34482 38.7945 2.55111 33.9956 3.79256C32.6972 4.13179 32.933 6.38037 34.2501 6.03902C38.0913 5.04765 42.3308 3.88981 46.2399 5.33797C49.3278 6.48476 52.2741 9.81168 51.2352 13.5294C50.2438 17.08 45.9638 18.7177 43.0642 19.9866C39.3879 21.5964 35.5389 22.7707 31.6087 23.4789C27.7523 24.1686 23.8109 24.4432 19.8901 24.2301C16.1798 24.0336 12.2165 23.6129 8.68614 22.2432C5.55281 21.0308 2.02609 18.1033 2.61576 14.1028C3.15963 10.4513 7.19539 8.7502 9.99429 7.51288C18.4344 3.76564 27.7162 2.25901 36.8848 3.10118C38.2375 3.24119 38.563 1.00991 37.2021 0.880945Z" fill="#EF7979"/>
</svg>
