<svg width="20" height="20" viewBox="0 0 20 20" fill="none" xmlns="http://www.w3.org/2000/svg">
<path d="M20 5.85999C20 6.75332 19.8413 7.61665 19.5238 8.44998C19.2063 9.28331 18.7661 10.0133 18.2031 10.64L10.1527 19.52L9.03863 18.3L17.0889 9.41998C17.9754 8.45998 18.4187 7.27332 18.4187 5.85999C18.4187 4.67332 18.0683 3.68999 17.3675 2.90999C16.6667 2.13 15.7832 1.74 14.717 1.74C13.4951 1.74 12.4169 2.23999 11.4825 3.23999L2.62354 13.02C1.91674 13.8066 1.56334 14.6933 1.56334 15.68C1.56334 16.44 1.78497 17.0633 2.22821 17.55C2.67146 18.0366 3.2345 18.28 3.91734 18.28C4.81581 18.28 5.61845 17.8866 6.32525 17.1L13.0997 9.65998C13.7347 8.92665 14.0521 8.27998 14.0521 7.71998C14.0521 7.43998 13.9563 7.21998 13.7646 7.05998C13.5729 6.89998 13.3453 6.81998 13.0818 6.81998C12.5067 6.81998 11.9916 7.08665 11.5364 7.61998L5.42677 14.34L4.33064 13.12L10.4223 6.39998C11.2129 5.51999 12.0994 5.07999 13.0818 5.07999C13.7766 5.07999 14.3756 5.32665 14.8787 5.81999C15.3819 6.31332 15.6334 6.93998 15.6334 7.69998C15.6334 8.73998 15.1602 9.79998 14.2138 10.88L7.43935 18.32C6.43306 19.44 5.25906 20 3.91734 20C2.80323 20 1.87182 19.59 1.12309 18.77C0.374364 17.95 0 16.92 0 15.68C0 14.2133 0.503145 12.92 1.50943 11.8L10.3684 2.02C11.6143 0.673332 13.0638 0 14.717 0C16.2144 0 17.4693 0.559999 18.4816 1.68C19.4939 2.79999 20 4.19332 20 5.85999Z" fill="#268A00"/>
</svg>
