<svg width="24" height="23" viewBox="0 0 24 23" xmlns="http://www.w3.org/2000/svg">
<path d="M1.8229 0.12466L23.2767 10.3554C23.4933 10.4588 23.6761 10.6211 23.8041 10.8236C23.9321 11.0261 24 11.2606 24 11.5C24 11.7394 23.9321 11.9739 23.8041 12.1764C23.6761 12.3789 23.4933 12.5412 23.2767 12.6446L1.8229 22.8753C1.60288 22.9805 1.35718 23.0204 1.11507 22.9902C0.872958 22.9601 0.644637 22.8612 0.457303 22.7053C0.269968 22.5495 0.131515 22.3432 0.0584337 22.1111C-0.0146473 21.879 -0.0192764 21.6309 0.0450981 21.3963L2.1915 13.5511C2.21777 13.455 2.27185 13.3687 2.347 13.303C2.42214 13.2372 2.51502 13.195 2.61406 13.1816L13.0101 11.7736C13.0534 11.7675 13.0944 11.7504 13.1292 11.7239C13.164 11.6974 13.1913 11.6624 13.2086 11.6223L13.2269 11.5584C13.235 11.5017 13.2235 11.444 13.1945 11.3946C13.1655 11.3452 13.1206 11.307 13.0671 11.2863L13.0111 11.2711L2.62526 9.86407C2.5264 9.85045 2.43374 9.80817 2.3588 9.74247C2.28385 9.67677 2.22992 9.59056 2.20372 9.49456L0.0450981 1.60374C-0.0192764 1.3691 -0.0146473 1.12096 0.0584337 0.888869C0.131515 0.656779 0.269968 0.450521 0.457303 0.294665C0.644637 0.138808 0.872958 0.0399198 1.11507 0.00977901C1.35718 -0.0203617 1.60288 0.019515 1.8229 0.12466Z"/>
</svg>
