<svg width="32" height="32" viewBox="0 0 32 32" fill="none" xmlns="http://www.w3.org/2000/svg">
<path d="M27.9716 13.4803C27.7954 12.674 27.5688 11.9181 27.2415 11.1874C26.9394 10.4819 26.5869 9.82681 26.1589 9.19689C25.7057 8.51658 25.2022 7.91185 24.6231 7.33233C24.0189 6.72761 23.3643 6.19847 22.6593 5.74493C21.9795 5.31658 21.2746 4.93863 20.5192 4.63627C19.8395 4.35911 19.1093 4.13234 18.354 3.98115C18.1778 3.95596 18.0015 3.90556 17.8253 3.88037C17.775 3.88037 17.7246 3.85517 17.6742 3.85517C17.5484 3.82997 17.4225 3.82997 17.2966 3.80478C17.2462 3.80478 17.1707 3.77958 17.1203 3.77958C16.9693 3.75438 16.793 3.75438 16.642 3.75438H16.5916C16.3902 3.75438 16.1888 3.72919 15.9874 3.72919C15.786 3.72919 15.5594 3.72919 15.358 3.75438H15.3076C15.1314 3.75438 14.9551 3.77958 14.7789 3.80478C14.7285 3.80478 14.653 3.82997 14.6026 3.82997C14.4768 3.85517 14.3257 3.85517 14.1998 3.88037C14.1495 3.88037 14.0739 3.90556 14.0236 3.90556C13.8473 3.93076 13.6459 3.98115 13.4697 4.00635C12.664 4.18273 11.9087 4.4095 11.1786 4.73706C10.4736 5.03942 9.81901 5.39218 9.18958 5.82052C8.5098 6.27406 7.90555 6.778 7.32648 7.35753C6.72223 7.96225 6.19352 8.61736 5.74033 9.32287C5.31232 10.0032 4.93466 10.7087 4.63254 11.4646C4.35559 12.1449 4.129 12.8756 3.97794 13.6315C3.82687 14.4126 3.75134 15.1937 3.75134 16.0252C3.75134 16.8819 3.85205 17.7386 4.00311 18.5449C4.17935 19.3512 4.40595 20.1071 4.73325 20.8378C5.03537 21.5433 5.38785 22.1984 5.81586 22.8284C6.26905 23.5087 6.77259 24.1134 7.35166 24.6929C7.95591 25.2976 8.61051 25.8268 9.31547 26.2803C9.99525 26.7087 10.7002 27.0866 11.4555 27.389C12.1353 27.6661 12.8654 27.8929 13.6207 28.0441C13.797 28.0693 13.9732 28.1197 14.1495 28.1449C14.1998 28.1449 14.2502 28.1701 14.3005 28.1701C14.4264 28.1953 14.5523 28.1953 14.6782 28.2205C14.7285 28.2205 14.8041 28.2457 14.8544 28.2457C15.0055 28.2709 15.1817 28.2709 15.3328 28.2709C15.5594 28.2709 15.7608 28.2961 15.9874 28.2961C16.8434 28.2961 17.6994 28.1953 18.5051 28.0441C19.3108 27.8677 20.0661 27.6409 20.7962 27.3134C21.5012 27.011 22.1558 26.6583 22.7852 26.2299C23.465 25.7764 24.0692 25.2724 24.6483 24.6929C25.2525 24.0882 25.7812 23.4331 26.2344 22.7276C26.6624 22.0473 27.0401 21.3417 27.3422 20.5858C27.6192 19.9055 27.8458 19.1748 27.9968 18.4189C28.1479 17.6378 28.2234 16.8567 28.2234 16.0252C28.2234 15.1433 28.1479 14.2866 27.9716 13.4803ZM18.0267 3.93076C18.0015 3.93076 17.9512 3.90556 17.926 3.90556C17.9512 3.93076 17.9764 3.93076 18.0267 3.93076ZM17.6239 3.88037C17.5232 3.88037 17.4476 3.85517 17.3469 3.85517C17.4476 3.85517 17.5232 3.85517 17.6239 3.88037ZM17.1203 3.80478C16.9693 3.77958 16.8182 3.77958 16.6672 3.77958C16.8182 3.77958 16.9693 3.80478 17.1203 3.80478ZM15.3076 3.77958C15.1314 3.77958 14.9803 3.80478 14.8041 3.82997C14.9803 3.80478 15.1314 3.80478 15.3076 3.77958ZM14.5523 3.85517C14.4516 3.85517 14.3509 3.88037 14.2502 3.90556C14.3761 3.88037 14.4768 3.85517 14.5523 3.85517ZM13.9732 3.93076C13.948 3.93076 13.8977 3.95596 13.8725 3.95596C13.8977 3.95596 13.948 3.93076 13.9732 3.93076ZM13.9732 28.0693C13.9984 28.0693 14.0487 28.0945 14.0739 28.0945C14.0487 28.0945 13.9984 28.0945 13.9732 28.0693ZM14.3509 28.1449C14.4516 28.1449 14.5271 28.1701 14.6278 28.1701C14.5523 28.1701 14.4516 28.1449 14.3509 28.1449ZM14.8544 28.1953C15.0055 28.2205 15.1565 28.2205 15.3076 28.2205C15.1817 28.2205 15.0307 28.2205 14.8544 28.1953Z" fill="#0099C3"/>
<path d="M4.10386 21.0897C3.77655 20.3086 3.52478 19.5023 3.34855 18.6708C3.27301 18.3181 3.22266 17.9653 3.17231 17.6125L0.125885 17.9905C0.176239 18.444 0.25177 18.8724 0.352478 19.3007C0.579072 20.3338 0.881196 21.3417 1.30921 22.2991C1.38474 22.4755 1.46027 22.6519 1.56098 22.8283L4.33045 21.518C4.22974 21.3669 4.17939 21.2409 4.10386 21.0897Z" fill="#EBDFE2"/>
<path d="M29.3816 24.7937L26.8136 23.1055C26.3352 23.8362 25.7561 24.5417 25.1519 25.1716C24.8246 25.4992 24.4469 25.8268 24.0945 26.1291L26.0079 28.5228C26.4611 28.1449 26.9143 27.7669 27.3171 27.3386C28.0724 26.5575 28.7774 25.7008 29.3816 24.7937Z" fill="#EBDFE2"/>
<path d="M11.1786 28.0189C10.5995 27.7922 10.0204 27.515 9.49173 27.1874L7.95593 29.8331C8.63571 30.2363 9.34067 30.5638 10.0708 30.8662C10.9016 31.1937 11.7577 31.4709 12.664 31.6473L13.3186 28.6489C12.5633 28.4977 11.8584 28.2709 11.1786 28.0189Z" fill="#EBDFE2"/>
<path d="M27.871 10.9103C28.1983 11.6914 28.4501 12.4977 28.6263 13.3292C28.7018 13.682 28.7522 14.0347 28.8026 14.3875L31.849 14.0095C31.7986 13.556 31.7231 13.1276 31.6224 12.6993C31.3958 11.6662 31.0937 10.6584 30.6657 9.70088C30.5901 9.52451 30.5146 9.34813 30.4139 9.17175L27.6444 10.482C27.7451 10.6332 27.8206 10.7843 27.871 10.9103Z" fill="#EBDFE2"/>
<path d="M20.7962 4.00633C21.3753 4.2331 21.9544 4.51026 22.4831 4.83782L24.0189 2.19216C23.3391 1.78901 22.6341 1.46145 21.904 1.15909C21.0732 0.831533 20.2171 0.554368 19.3108 0.377991L18.6562 3.37641C19.4366 3.52759 20.1416 3.72916 20.7962 4.00633Z" fill="#EBDFE2"/>
<path d="M31.8741 14.0096L28.8277 14.3875C28.7773 14.0348 28.727 13.682 28.6515 13.3293C28.4752 12.4978 28.2234 11.6663 27.8961 10.9104C27.8458 10.7592 27.7703 10.6332 27.6947 10.482L30.4642 9.17178C30.1369 8.46627 29.7341 7.76076 29.3061 7.10565C28.727 6.22376 28.0472 5.41746 27.3171 4.68676C26.5366 3.90566 25.6806 3.20015 24.749 2.59542C24.5224 2.44424 24.2958 2.31826 24.0692 2.16708L22.5334 4.81274C21.9795 4.48518 21.4257 4.20802 20.8214 3.98125C20.1416 3.70408 19.4618 3.50251 18.7317 3.35133L19.3863 0.352908C19.3108 0.327711 19.2353 0.327711 19.1597 0.302514C18.1023 0.10094 17.07 0.000152588 15.9874 0.000152588C14.8544 0.000152588 13.7718 0.126137 12.6892 0.352908C11.657 0.579679 10.6499 0.88204 9.69316 1.31039C8.78678 1.68834 7.93076 2.16708 7.09992 2.72141C6.72227 2.97337 6.34461 3.25054 5.99213 3.5277L7.90559 5.9214C7.52793 6.22376 7.17545 6.52612 6.84815 6.87888C6.21873 7.5088 5.63965 8.21431 5.16129 8.97021L5.18647 8.94501L2.61841 7.25683L2.59323 7.28202C2.01416 8.13872 1.5358 9.071 1.13297 10.0537C0.780488 10.9608 0.503541 11.893 0.302124 12.8757C0.100708 13.8836 0 14.9418 0 16.0001C0 16.6804 0.0503541 17.3355 0.125885 17.9907L3.17231 17.6127C3.22266 17.9655 3.27301 18.3182 3.34854 18.671C3.52478 19.5025 3.77655 20.334 4.10386 21.0899C4.15421 21.241 4.22974 21.367 4.30527 21.5182L1.5358 22.8284C1.8631 23.534 2.26593 24.2395 2.69394 24.8946C3.27301 25.7765 3.95279 26.5828 4.68293 27.3135C5.46342 28.0946 6.31943 28.8001 7.25098 29.4048C7.47758 29.556 7.70417 29.682 7.93076 29.8332L9.46656 27.1875C10.0205 27.515 10.5744 27.7922 11.1786 28.019C11.9087 28.3213 12.664 28.5481 13.4697 28.6993C13.3942 28.6741 13.3438 28.6741 13.2683 28.6489L12.6137 31.6473C12.6892 31.6725 12.7648 31.6725 12.8403 31.6977C13.8474 31.8993 14.9048 32.0001 15.9622 32.0001C17.0952 32.0001 18.203 31.8741 19.2604 31.6473C20.2927 31.4205 21.2998 31.1182 22.2565 30.6898C23.1629 30.3119 24.0189 29.8332 24.8497 29.2788C25.2274 29.0269 25.605 28.7497 25.9575 28.4725L24.0441 26.0788C24.4217 25.7765 24.7742 25.4741 25.1015 25.1214C25.7309 24.4914 26.2848 23.8111 26.7632 23.0552L29.3312 24.7434L29.3564 24.7182C29.9355 23.8363 30.4139 22.904 30.8167 21.9214C31.1692 21.0143 31.4713 20.082 31.6475 19.0993C31.8489 18.0914 31.9496 17.0332 31.9496 15.9749C32 15.3198 31.9496 14.6647 31.8741 14.0096ZM27.5185 10.1293C27.4933 10.0789 27.4681 10.0285 27.443 10.0033C27.4681 10.0537 27.4933 10.1041 27.5185 10.1293ZM27.015 9.27257C26.9142 9.12139 26.8387 8.97021 26.738 8.81903C26.8387 8.97021 26.9394 9.12139 27.015 9.27257ZM27.2919 9.70092C27.2415 9.62533 27.2164 9.54974 27.166 9.47415C27.1912 9.57493 27.2415 9.62533 27.2919 9.70092ZM8.81196 5.24109C8.6609 5.34187 8.50984 5.44266 8.35877 5.56864C8.50984 5.46786 8.6609 5.36707 8.81196 5.24109ZM3.12195 17.1844V17.2348V17.1844ZM3.0716 16.3781C3.0716 16.4033 3.0716 16.4285 3.0716 16.4789C3.0716 16.4537 3.0716 16.4285 3.0716 16.3781ZM3.09677 16.7812C3.09677 16.8064 3.09677 16.8316 3.09677 16.882C3.09677 16.8316 3.09677 16.8064 3.09677 16.7812ZM4.48151 21.871C4.50669 21.9214 4.53187 21.9718 4.55704 21.997C4.53187 21.9718 4.50669 21.9214 4.48151 21.871ZM4.95987 22.7277C5.06058 22.8788 5.13611 23.03 5.23682 23.1812C5.16129 23.03 5.06058 22.8788 4.95987 22.7277ZM4.7081 22.2993C4.75846 22.3749 4.78364 22.4505 4.83399 22.5261C4.78364 22.4505 4.75846 22.3749 4.7081 22.2993ZM23.1629 26.7591C23.3139 26.6584 23.465 26.5576 23.6161 26.4316C23.4902 26.5576 23.3139 26.6584 23.1629 26.7591ZM25.4036 22.1481C24.9756 22.8032 24.4972 23.408 23.9434 23.9623C23.4146 24.4914 22.8607 24.945 22.2313 25.3733C21.6522 25.7513 21.048 26.0788 20.4186 26.356C19.7388 26.6332 19.0338 26.8599 18.3037 27.0111C17.5484 27.1623 16.7931 27.2631 15.9874 27.2631C15.2321 27.2631 14.502 27.1875 13.797 27.0363C13.1172 26.9103 12.4626 26.7088 11.808 26.4568C11.1282 26.1796 10.4736 25.8269 9.84422 25.4237C9.18962 24.9954 8.58537 24.5166 8.03147 23.9623C7.50275 23.4332 7.04957 22.8788 6.62156 22.2489C6.2439 21.6694 5.9166 21.0647 5.63965 20.4347C5.36271 19.7544 5.13611 19.0489 4.98505 18.3182C4.83399 17.5623 4.73328 16.8064 4.73328 16.0001C4.73328 15.2442 4.80881 14.5135 4.95987 13.808C5.08576 13.1277 5.28718 12.4726 5.53895 11.8174C5.81589 11.1371 6.16837 10.482 6.5712 9.8521C6.99921 9.19698 7.47758 8.59226 8.03147 8.03793C8.56019 7.5088 9.11408 7.05525 9.74351 6.62691C10.3226 6.24896 10.9268 5.9214 11.5563 5.64423C12.236 5.36707 12.941 5.1403 13.6711 4.98912C14.4264 4.83794 15.1817 4.73715 15.9874 4.73715C16.7427 4.73715 17.4729 4.81274 18.1778 4.96392C18.8576 5.0899 19.5122 5.29148 20.1668 5.54345C20.8466 5.82061 21.5012 6.17337 22.1306 6.57652C22.7852 7.00486 23.3895 7.4836 23.9434 8.03793C24.4721 8.56706 24.9253 9.12139 25.3533 9.75131C25.7309 10.3308 26.0582 10.9356 26.3352 11.5655C26.6121 12.2458 26.8387 12.9513 26.9898 13.682C27.1408 14.4379 27.2415 15.1938 27.2415 16.0001C27.2415 16.756 27.166 17.4867 27.015 18.1922C26.8891 18.8725 26.6877 19.5277 26.4359 20.1828C26.1338 20.8631 25.8065 21.5182 25.4036 22.1481ZM28.8529 14.7655V14.8159V14.7655ZM28.8781 15.1434C28.8781 15.1686 28.8781 15.1938 28.8781 15.219C28.8781 15.1938 28.8781 15.1686 28.8781 15.1434ZM28.9032 15.5214C28.9032 15.5466 28.9032 15.5718 28.9032 15.6222C28.9032 15.597 28.9032 15.5718 28.9032 15.5214Z" fill="#268A00"/>
<path d="M6.84821 6.85358C7.17551 6.52603 7.55317 6.19847 7.90565 5.89611L5.99219 3.50241C5.539 3.88036 5.08582 4.25831 4.68299 4.68666C3.9025 5.46776 3.22272 6.32445 2.61847 7.23153L5.18653 8.91972C5.66489 8.16382 6.24396 7.4835 6.84821 6.85358Z" fill="#EBDFE2"/>
<path d="M26.1086 13.8834C25.9575 13.2031 25.7561 12.5732 25.5043 11.9433C25.2526 11.3638 24.9504 10.8094 24.5979 10.2803C24.2203 9.72597 23.7923 9.19684 23.3139 8.7181C22.8104 8.21417 22.2565 7.76062 21.6522 7.38267C21.0983 7.00472 20.4941 6.70236 19.8647 6.45039C19.2856 6.22362 18.6813 6.02205 18.0519 5.89606C17.3973 5.77008 16.7175 5.69449 16.0378 5.69449C15.3076 5.69449 14.6027 5.77008 13.8977 5.92126C13.2179 6.07244 12.5885 6.27401 11.9591 6.52598C11.38 6.77795 10.8261 7.08031 10.2974 7.43307C9.7435 7.81102 9.21479 8.23936 8.73642 8.7181C8.23288 9.22204 7.7797 9.77637 7.40204 10.3811C7.02438 10.9354 6.72226 11.5401 6.47049 12.1701C6.2439 12.7496 6.04248 13.3543 5.9166 13.9842C5.79071 14.6393 5.71518 15.3197 5.71518 16C5.71518 16.7307 5.79071 17.4362 5.94177 18.1417C6.09283 18.822 6.29425 19.4519 6.54602 20.0819C6.79779 20.6614 7.09992 21.2157 7.45239 21.7448C7.83005 22.2992 8.25806 22.8283 8.73642 23.307C9.23996 23.811 9.79386 24.2645 10.3981 24.6425C10.952 25.0204 11.5562 25.3228 12.1857 25.5748C12.7647 25.8015 13.369 26.0031 13.9984 26.1291C14.502 26.2299 15.0055 26.2803 15.509 26.3055C15.0055 26.2803 14.502 26.2299 14.0236 26.1291C13.3942 26.0031 12.7899 25.8267 12.236 25.5999C11.6066 25.348 11.0275 25.0456 10.4485 24.6677C9.84421 24.2897 9.31549 23.8362 8.81195 23.3322C8.33359 22.8535 7.90558 22.3496 7.5531 21.77C7.20062 21.2409 6.8985 20.7118 6.64673 20.1322C6.39496 19.5275 6.19354 18.8724 6.04248 18.2173C5.86624 17.5622 5.79071 16.8567 5.79071 16.126C5.79071 15.4456 5.86624 14.7653 5.99213 14.1354C6.11801 13.5055 6.29425 12.9008 6.52084 12.3464C6.77261 11.7165 7.07474 11.137 7.45239 10.5575C7.83005 9.95275 8.28324 9.42361 8.78678 8.91968C9.26514 8.44094 9.76868 8.01259 10.3478 7.65984C10.8765 7.30708 11.4052 7.00472 11.9843 6.75275C12.5885 6.50079 13.2431 6.29921 13.8977 6.14803C14.5775 5.99685 15.2824 5.92126 16.0126 5.92126C16.6924 5.92126 17.3721 5.99685 18.0016 6.12283C18.631 6.24882 19.2352 6.4252 19.7891 6.65197C20.4186 6.90393 20.9976 7.2063 21.5767 7.58425C22.181 7.9622 22.7097 8.41574 23.2132 8.91968C23.6916 9.39842 24.1196 9.90235 24.4721 10.4819C24.8245 11.011 25.1267 11.5401 25.3784 12.1197C25.6302 12.7244 25.8316 13.3795 25.9827 14.0346C26.1337 14.7149 26.2093 15.4204 26.2093 16.1512C26.2093 16.8315 26.1337 17.5118 26.0079 18.1417C25.882 18.7716 25.7057 19.3763 25.4791 19.9307C25.2274 20.5606 24.9253 21.1401 24.5476 21.7196C24.1699 22.3244 23.7168 22.8535 23.2132 23.3574C22.7348 23.8362 22.2313 24.2645 21.6522 24.6173C21.1235 24.97 20.5948 25.2724 20.0157 25.5244C19.4115 25.7763 18.7569 25.9779 18.1023 26.1291C17.4225 26.2803 16.7175 26.3559 15.9874 26.3559C16.7175 26.3559 17.4225 26.2803 18.1275 26.1291C18.8072 25.9779 19.4367 25.7763 20.0661 25.5244C20.6452 25.2724 21.1991 24.97 21.7278 24.6173C22.2817 24.2393 22.8104 23.811 23.2887 23.3322C23.7923 22.8283 24.2455 22.274 24.6231 21.6693C25.0008 21.1149 25.3029 20.5102 25.5547 19.8803C25.7813 19.3008 25.9827 18.696 26.1086 18.0661C26.2345 17.411 26.31 16.7307 26.31 16.0504C26.31 15.2693 26.2345 14.5638 26.1086 13.8834Z" fill="#FF79AE"/>
<path d="M6.42011 9.75117C6.01727 10.3811 5.6648 11.0614 5.38785 11.7417C5.13608 12.3968 4.93466 13.0771 4.7836 13.7575C4.63254 14.4882 4.55701 15.2441 4.55701 16C4.55701 16.7811 4.63254 17.5874 4.80878 18.3685C4.95984 19.0992 5.18643 19.8047 5.48856 20.5102C5.7655 21.1401 6.09281 21.77 6.49564 22.3496C6.89847 22.9543 7.37683 23.559 7.93073 24.0881C8.5098 24.6677 9.11405 25.1464 9.76865 25.5747C10.3981 25.9779 11.0779 26.3306 11.7576 26.6078C12.4122 26.8598 13.092 27.0614 13.7718 27.2125C14.5019 27.3637 15.2572 27.4393 16.0126 27.4393C16.793 27.4393 17.5987 27.3637 18.3792 27.1873C19.1093 27.0362 19.8143 26.8094 20.5192 26.507C21.1487 26.2299 21.7781 25.9023 22.3572 25.4992C22.9614 25.096 23.5405 24.6173 24.0944 24.0629C24.6735 23.4834 25.1518 22.8787 25.5798 22.2236C25.9827 21.5937 26.3351 20.9133 26.6121 20.233C26.8639 19.5779 27.0653 18.8976 27.2163 18.2173C27.3674 17.4866 27.4429 16.7307 27.4429 15.9748C27.4429 15.1937 27.3674 14.3874 27.1912 13.6063C27.0401 12.8756 26.8135 12.1701 26.5114 11.4645C26.2344 10.8346 25.9071 10.2047 25.5043 9.62518C25.1015 9.02046 24.6231 8.44093 24.0692 7.8866C23.4901 7.30708 22.8859 6.82834 22.2313 6.39999C21.6019 5.99684 20.9221 5.64409 20.2423 5.36692C19.5877 5.11496 18.9079 4.91338 18.2281 4.7622C17.498 4.61102 16.7427 4.53543 15.9874 4.53543C15.2069 4.53543 14.4012 4.61102 13.6207 4.7874C12.8906 4.93858 12.1856 5.16535 11.4807 5.46771C10.8513 5.74488 10.2218 6.07244 9.64277 6.47558C9.03852 6.87873 8.45945 7.35747 7.90555 7.9118C7.35166 8.49133 6.84812 9.09605 6.42011 9.75117ZM11.8583 6.3496C12.4878 6.07244 13.1676 5.87086 13.8222 5.71968C14.5271 5.5685 15.2572 5.49291 15.9874 5.49291C16.6672 5.49291 17.3721 5.5685 18.0519 5.69448C18.6813 5.82047 19.3107 5.99684 19.915 6.24881C20.5444 6.50078 21.1738 6.82834 21.7529 7.20629C22.3572 7.60944 22.9111 8.06298 23.4398 8.56692C23.9433 9.07085 24.3713 9.59998 24.749 10.1543C25.1015 10.7086 25.4288 11.263 25.6554 11.8677C25.9323 12.4976 26.1337 13.1779 26.2848 13.833C26.4358 14.5386 26.5114 15.2693 26.5114 16C26.5114 16.6803 26.4358 17.3858 26.31 18.0661C26.1841 18.696 26.0078 19.3259 25.7561 19.9307C25.5043 20.5606 25.177 21.1905 24.7993 21.77C24.3965 22.3496 23.9433 22.9291 23.4146 23.433C22.9111 23.937 22.3823 24.3653 21.8284 24.7433C21.2746 25.096 20.7207 25.4236 20.1164 25.6503C19.487 25.9275 18.8072 26.1291 18.1526 26.2803C17.4476 26.4314 16.7175 26.507 15.9874 26.507C15.3076 26.507 14.6026 26.4314 13.9229 26.3055C13.2934 26.1795 12.664 26.0031 12.0598 25.7511C11.4303 25.4992 10.8009 25.1716 10.2218 24.7936C9.61759 24.3905 9.06369 23.937 8.53498 23.433C8.03144 22.9291 7.60343 22.4 7.22577 21.8456C6.87329 21.2913 6.54599 20.737 6.3194 20.1322C6.04245 19.5023 5.84104 18.822 5.68997 18.1669C5.53891 17.4614 5.46338 16.7307 5.46338 16C5.46338 15.3197 5.53891 14.6141 5.6648 13.9338C5.79068 13.3039 5.96692 12.674 6.21869 12.0693C6.47046 11.4394 6.79776 10.8094 7.17542 10.2299C7.57825 9.62518 8.03144 9.07085 8.53498 8.54172C9.03852 8.03778 9.56723 7.60944 10.1211 7.23149C10.7002 6.90393 11.2793 6.60157 11.8583 6.3496Z" fill="url(#paint0_linear_204_3494)"/>
<path d="M25.4791 11.9433L26.3099 11.5905C26.033 10.9606 25.7057 10.3559 25.328 9.77634L24.5727 10.2803C24.9252 10.7842 25.2273 11.3637 25.4791 11.9433Z" fill="#EBDFE2"/>
<path d="M23.2888 23.307L23.9182 23.9369C24.4721 23.3826 24.9504 22.7779 25.3784 22.1228L24.6231 21.6188C24.2455 22.2488 23.7923 22.8031 23.2888 23.307Z" fill="#EBDFE2"/>
<path d="M6.42014 12.1699L5.5893 11.8424C5.33753 12.4723 5.13611 13.1274 5.01022 13.8329L5.89142 14.0093C5.99213 13.3542 6.16837 12.7495 6.42014 12.1699Z" fill="#EBDFE2"/>
<path d="M5.66483 16H4.75845C4.75845 16.8063 4.83398 17.5622 5.01022 18.3181L5.89142 18.1417C5.74036 17.4362 5.66483 16.7307 5.66483 16Z" fill="#EBDFE2"/>
<path d="M6.4957 20.0817L5.66486 20.4345C5.9418 21.0644 6.2691 21.6691 6.64676 22.2487L7.40207 21.7447C7.04959 21.2156 6.74747 20.6613 6.4957 20.0817Z" fill="#EBDFE2"/>
<path d="M8.68604 23.307L8.05661 23.9622C8.6105 24.5165 9.21475 24.9952 9.86936 25.4236L10.3729 24.6677C9.76865 24.2645 9.18958 23.811 8.68604 23.307Z" fill="#EBDFE2"/>
<path d="M15.9874 5.66929V4.76221C15.1817 4.76221 14.4264 4.8378 13.6711 5.01417L13.8473 5.89606C14.5523 5.74488 15.2572 5.66929 15.9874 5.66929Z" fill="#EBDFE2"/>
<path d="M11.934 6.50065L11.5815 5.66916C10.9521 5.94632 10.3478 6.27388 9.76874 6.65183L10.2723 7.40774C10.7758 7.05498 11.3549 6.75262 11.934 6.50065Z" fill="#EBDFE2"/>
<path d="M8.68607 8.69297L8.05664 8.06305C7.50275 8.61738 7.02438 9.2221 6.59637 9.87722L7.35169 10.3812C7.72934 9.77643 8.18253 9.19691 8.68607 8.69297Z" fill="#EBDFE2"/>
<path d="M26.1086 13.8835C26.2596 14.5638 26.3352 15.2946 26.3352 16.0253H27.2415C27.2415 15.219 27.166 14.4631 26.9898 13.7072L26.1086 13.8835Z" fill="#EBDFE2"/>
<path d="M23.2887 8.6928L23.9182 8.06288C23.3643 7.50855 22.76 7.02982 22.1054 6.60147L21.6019 7.35737C22.2313 7.73533 22.7852 8.18887 23.2887 8.6928Z" fill="#EBDFE2"/>
<path d="M25.5799 19.8551L26.4107 20.1826C26.6625 19.5527 26.8639 18.8976 26.9898 18.1921L26.1086 18.0157C25.9827 18.6456 25.8065 19.2755 25.5799 19.8551Z" fill="#EBDFE2"/>
<path d="M12.1605 25.5999L11.8332 26.4314C12.4626 26.6834 13.1172 26.885 13.8222 27.011L13.9984 26.1291C13.3438 26.0031 12.7396 25.8267 12.1605 25.5999Z" fill="#EBDFE2"/>
<path d="M19.8395 6.42518L20.1668 5.59369C19.5373 5.34172 18.8827 5.14014 18.1778 5.01416L18.0015 5.89605C18.631 5.99683 19.2604 6.17321 19.8395 6.42518Z" fill="#EBDFE2"/>
<path d="M15.9873 26.3306V27.2377C16.793 27.2377 17.5483 27.1621 18.3036 26.9857L18.1274 26.1038C17.4224 26.255 16.7175 26.3306 15.9873 26.3306Z" fill="#EBDFE2"/>
<path d="M20.0661 25.4991L20.4185 26.3306C21.048 26.0534 21.6522 25.7259 22.2313 25.3479L21.7278 24.592C21.199 24.9448 20.6451 25.2471 20.0661 25.4991Z" fill="#EBDFE2"/>
<path d="M24.5728 10.2804L25.3281 9.77643C24.9253 9.17171 24.4469 8.59218 23.9182 8.06305L23.2888 8.69297C23.7671 9.17171 24.1951 9.70084 24.5728 10.2804Z" fill="#0B9118"/>
<path d="M26.1086 13.8834L26.9897 13.707C26.8387 12.9763 26.6121 12.2708 26.3351 11.5905L25.5043 11.9433C25.7561 12.548 25.9575 13.2031 26.1086 13.8834Z" fill="#0B9118"/>
<path d="M5.89139 18.1417L5.01019 18.3181C5.16125 19.0488 5.38785 19.7543 5.6648 20.4346L6.49564 20.0819C6.24387 19.452 6.04245 18.7968 5.89139 18.1417Z" fill="#0B9118"/>
<path d="M5.86624 13.9843L4.98505 13.808C4.83398 14.5135 4.75845 15.2442 4.75845 16.0001H5.66483C5.66483 15.3198 5.74036 14.6394 5.86624 13.9843Z" fill="#0B9118"/>
<path d="M7.40198 21.7449L6.64667 22.2489C7.0495 22.8536 7.52786 23.4331 8.05658 23.9623L8.68601 23.3323C8.20764 22.8284 7.77963 22.2993 7.40198 21.7449Z" fill="#0B9118"/>
<path d="M10.3477 24.6677L9.84421 25.4236C10.4485 25.8268 11.1031 26.1795 11.808 26.4567L12.1353 25.6252C11.5311 25.348 10.9268 25.0205 10.3477 24.6677Z" fill="#0B9118"/>
<path d="M7.35166 10.3558L6.59634 9.8519C6.19351 10.4566 5.84103 11.1117 5.56409 11.8172L6.39493 12.1448C6.67188 11.5401 6.974 10.9354 7.35166 10.3558Z" fill="#0B9118"/>
<path d="M13.8725 5.89611L13.6963 5.01422C12.9661 5.1654 12.2612 5.39217 11.5814 5.66934L11.9339 6.50083C12.5381 6.24886 13.1927 6.04729 13.8725 5.89611Z" fill="#0B9118"/>
<path d="M10.2722 7.40791L9.76862 6.65201C9.16437 7.05516 8.5853 7.5339 8.05658 8.06303L8.68601 8.69295C9.16437 8.21421 9.69309 7.78586 10.2722 7.40791Z" fill="#0B9118"/>
<path d="M26.1086 18.0158L26.9898 18.1922C27.1408 17.4866 27.2164 16.7559 27.2164 16H26.31C26.31 16.7055 26.2596 17.3607 26.1086 18.0158Z" fill="#0B9118"/>
<path d="M21.627 7.35739L22.1306 6.60149C21.5263 6.19834 20.8717 5.84558 20.1668 5.56842L19.8395 6.39991C20.4689 6.67708 21.0731 6.97944 21.627 7.35739Z" fill="#0B9118"/>
<path d="M24.6483 21.6441L25.4036 22.148C25.8064 21.5433 26.1589 20.8882 26.4358 20.1827L25.605 19.8551C25.3281 20.485 25.0008 21.0897 24.6483 21.6441Z" fill="#0B9118"/>
<path d="M18.0015 5.87093L18.1777 4.98904C17.4728 4.83786 16.7426 4.76227 15.9873 4.76227V5.66935C16.6923 5.66935 17.3721 5.74494 18.0015 5.87093Z" fill="#0B9118"/>
<path d="M13.9732 26.1292L13.7969 27.011C14.5019 27.1622 15.232 27.2378 15.9873 27.2378V26.3307C15.3076 26.3307 14.6278 26.2803 13.9732 26.1292Z" fill="#0B9118"/>
<path d="M18.1274 26.1293L18.3036 27.0111C19.0338 26.86 19.7387 26.6332 20.4185 26.356L20.066 25.5245C19.4366 25.7765 18.782 25.9781 18.1274 26.1293Z" fill="#0B9118"/>
<path d="M21.7277 24.5921L22.2312 25.348C22.8355 24.9449 23.4146 24.4662 23.9433 23.937L23.3138 23.3071C22.8103 23.7858 22.2816 24.2142 21.7277 24.5921Z" fill="#0B9118"/>
<path d="M3.2226 18.041C3.2226 18.0662 3.2226 18.1165 3.24777 18.1417C3.24777 18.1165 3.24777 18.0662 3.2226 18.041Z" fill="#0099C3"/>
<path d="M25.1266 25.1464C25.7561 24.5165 26.31 23.8362 26.7883 23.0803C26.31 23.8362 25.7561 24.5165 25.1266 25.1464Z" fill="#0099C3"/>
<path d="M12.2108 28.3716C12.5633 28.4724 12.9158 28.5732 13.2683 28.6487C12.9158 28.5732 12.5633 28.4724 12.2108 28.3716Z" fill="#0099C3"/>
<path d="M11.7073 28.1951C11.8583 28.2455 11.9842 28.2959 12.1353 28.3211C11.9842 28.2959 11.8583 28.2455 11.7073 28.1951Z" fill="#0099C3"/>
<path d="M5.96695 7.83618C5.69 8.18894 5.43823 8.54169 5.18646 8.89445C5.43823 8.54169 5.69 8.18894 5.96695 7.83618Z" fill="#FAF8F9"/>
<path d="M6.39493 7.33231C6.26904 7.48349 6.11798 7.63467 5.9921 7.78585C6.14316 7.65986 6.26904 7.48349 6.39493 7.33231Z" fill="#FAF8F9"/>
<path d="M1.73721 22.7275C1.66168 22.5511 1.58615 22.3747 1.51062 22.1984C1.10779 21.2661 0.805665 20.2582 0.579071 19.2503C0.478363 18.822 0.428009 18.3936 0.377655 17.9653L0.151062 17.9905C0.201416 18.444 0.276947 18.8724 0.377655 19.3007C0.604249 20.3338 0.906373 21.3417 1.33438 22.2991C1.40991 22.4755 1.48544 22.6519 1.58615 22.8283L1.73721 22.7275Z" fill="url(#paint1_linear_204_3494)"/>
<path d="M27.1408 27.1621C26.738 27.5652 26.2848 27.9684 25.8316 28.3211L25.9827 28.4975C26.4359 28.1195 26.889 27.7416 27.2919 27.3133C28.0724 26.5322 28.7521 25.6755 29.3564 24.7684L29.155 24.6424C28.5759 25.5495 27.8961 26.4062 27.1408 27.1621Z" fill="url(#paint2_linear_204_3494)"/>
<path d="M10.1211 30.6644C9.39099 30.3873 8.71121 30.0345 8.05661 29.6566L7.93073 29.8581C8.6105 30.2613 9.31546 30.5888 10.0456 30.8912C10.8764 31.2188 11.7325 31.4959 12.6388 31.6723L12.6892 31.4455C11.808 31.244 10.952 30.992 10.1211 30.6644Z" fill="url(#paint3_linear_204_3494)"/>
<path d="M30.4894 9.80167C30.8922 10.734 31.1943 11.7418 31.4209 12.7497C31.5216 13.178 31.572 13.6064 31.6223 14.0347L31.8489 14.0095C31.7986 13.556 31.723 13.1276 31.6223 12.6993C31.3957 11.6662 31.0936 10.6584 30.6656 9.70089C30.5901 9.52451 30.5145 9.34813 30.4138 9.17175L30.2124 9.27254C30.3383 9.44892 30.4138 9.6253 30.4894 9.80167Z" fill="url(#paint4_linear_204_3494)"/>
<path d="M21.8536 1.36053C22.5838 1.6377 23.2636 1.99045 23.9182 2.3684L24.044 2.16683C23.3643 1.76368 22.6593 1.43612 21.9292 1.13376C21.0983 0.806203 20.2423 0.529039 19.3359 0.352661L19.2856 0.579432C20.192 0.781007 21.048 1.03297 21.8536 1.36053Z" fill="url(#paint5_linear_204_3494)"/>
<path d="M0.352478 17.9653C0.276947 17.3102 0.226593 16.6551 0.226593 15.9999C0.226593 14.9417 0.327301 13.9086 0.528718 12.9259C0.730134 11.9685 1.00708 11.0362 1.35956 10.1543C1.73722 9.19681 2.21558 8.26452 2.79465 7.40783L2.81983 7.38264L2.61841 7.25665L2.59323 7.28185C2.01416 8.13854 1.5358 9.07082 1.13297 10.0535C0.780488 10.9606 0.503541 11.8929 0.302124 12.8755C0.100708 13.8834 0 14.9417 0 15.9999C0 16.6803 0.0503541 17.3354 0.125885 17.9905L0.352478 17.9653Z" fill="url(#paint6_linear_204_3494)"/>
<path d="M8.05665 29.6314C7.83005 29.5054 7.60346 29.3542 7.37687 29.203C6.47049 28.5983 5.61448 27.918 4.83399 27.1369C4.10385 26.4062 3.44925 25.5999 2.87018 24.7432C2.44217 24.0881 2.06451 23.4077 1.71204 22.7022L1.51062 22.803C1.83792 23.5085 2.24075 24.214 2.66876 24.8692C3.24784 25.751 3.92761 26.5573 4.65775 27.2881C5.43824 28.0692 6.29426 28.7747 7.22581 29.3794C7.4524 29.5306 7.67899 29.6566 7.90559 29.8077L8.05665 29.6314Z" fill="url(#paint7_linear_204_3494)"/>
<path d="M25.8317 28.3212C25.4792 28.5983 25.1267 28.8755 24.749 29.1275C23.9434 29.6566 23.0874 30.1353 22.2062 30.5133C21.2746 30.9164 20.2675 31.2188 19.2604 31.4456C18.203 31.6723 17.1204 31.7731 16.0126 31.7731C14.9552 31.7731 13.9229 31.6723 12.941 31.4708C12.8655 31.4456 12.7899 31.4456 12.7144 31.4204L12.6641 31.6471C12.7396 31.6723 12.8151 31.6723 12.8907 31.6975C13.8977 31.8991 14.9552 31.9999 16.0126 31.9999C17.1456 31.9999 18.2534 31.8739 19.3108 31.6471C20.3431 31.4204 21.3501 31.118 22.3069 30.6897C23.2132 30.3117 24.0693 29.833 24.9001 29.2786C25.2778 29.0267 25.6554 28.7495 26.0079 28.4723L25.8317 28.3212Z" fill="url(#paint8_linear_204_3494)"/>
<path d="M31.8741 14.0094L31.6475 14.0346C31.7231 14.6897 31.7734 15.3449 31.7734 16C31.7734 17.0582 31.6727 18.0913 31.4713 19.074C31.2699 20.0315 30.9929 20.9637 30.6404 21.8456C30.2628 22.8031 29.7844 23.7354 29.2054 24.5921L29.1802 24.6173L29.3816 24.7433L29.4068 24.7181C29.9858 23.8362 30.4642 22.9039 30.867 21.9212C31.2195 21.0141 31.5216 20.0819 31.6979 19.0992C31.8993 18.0913 32 17.033 32 15.9748C32 15.3197 31.9496 14.6645 31.8741 14.0094Z" fill="url(#paint9_linear_204_3494)"/>
<path d="M23.9182 2.36849C24.1448 2.49447 24.3714 2.64565 24.598 2.79683C25.5044 3.40155 26.3604 4.08187 27.1409 4.86297C27.871 5.59367 28.5256 6.39997 29.1047 7.25666C29.5327 7.91178 29.9103 8.59209 30.2628 9.2976L30.4642 9.19682C30.1369 8.49131 29.7341 7.7858 29.3061 7.13068C28.727 6.24879 28.0472 5.44249 27.3171 4.71179C26.5366 3.93069 25.6806 3.22518 24.7491 2.62045C24.5225 2.46927 24.2959 2.34329 24.0693 2.19211L23.9182 2.36849Z" fill="url(#paint10_linear_204_3494)"/>
<path d="M6.14316 3.70393C6.49564 3.42676 6.84812 3.1496 7.22577 2.89763C8.03144 2.3685 8.88745 1.88976 9.76865 1.51181C10.7002 1.10866 11.7073 0.806297 12.7144 0.579526C13.7718 0.352755 14.8544 0.251968 15.9622 0.251968C17.0196 0.251968 18.0519 0.352755 19.0338 0.554329C19.1093 0.579526 19.1849 0.579526 19.2604 0.604723L19.3107 0.377952C19.2352 0.352755 19.1597 0.352755 19.0842 0.327558C18.1022 0.100787 17.07 0 15.9874 0C14.8544 0 13.7718 0.125984 12.6892 0.352755C11.6569 0.579526 10.6498 0.881887 9.69312 1.31023C8.78675 1.68818 7.93073 2.16692 7.09989 2.72125C6.72223 2.97322 6.34457 3.25039 5.9921 3.52755L6.14316 3.70393Z" fill="url(#paint11_linear_204_3494)"/>
<path d="M4.85916 4.8629C5.26199 4.45975 5.71518 4.0566 6.16837 3.70384L6.01731 3.52747C5.56412 3.90542 5.11093 4.28337 4.7081 4.71171C3.92761 5.49282 3.24783 6.34951 2.64359 7.25659L2.845 7.38257C3.3989 6.45029 4.07868 5.6188 4.85916 4.8629Z" fill="url(#paint12_linear_204_3494)"/>
<path d="M18.7317 29.5055C18.7317 29.1528 19.0338 28.8504 19.3863 28.8504C19.7387 28.8504 20.0409 29.1528 20.0409 29.5055C20.0409 29.8583 19.7387 30.1606 19.3863 30.1606C19.0338 30.1606 18.7317 29.8583 18.7317 29.5055Z" fill="#FAF8F9"/>
<path d="M12.1353 2.51962C12.1353 2.16686 12.4374 1.8645 12.7899 1.8645C13.1424 1.8645 13.4445 2.16686 13.4445 2.51962C13.4445 2.87237 13.1424 3.17474 12.7899 3.17474C12.4123 3.17474 12.1353 2.87237 12.1353 2.51962Z" fill="#FAF8F9"/>
<path d="M1.71198 13.5559C1.71198 13.2031 2.0141 12.9008 2.36658 12.9008C2.71906 12.9008 3.02118 13.2031 3.02118 13.5559C3.02118 13.9086 2.71906 14.211 2.36658 14.211C1.98892 14.211 1.71198 13.9086 1.71198 13.5559Z" fill="#FAF8F9"/>
<path d="M5.33759 25.6251C5.33759 25.2724 5.63971 24.97 5.99219 24.97C6.34467 24.97 6.64679 25.2724 6.64679 25.6251C6.64679 25.9779 6.34467 26.2802 5.99219 26.2802C5.61453 26.2802 5.33759 25.9779 5.33759 25.6251Z" fill="#FAF8F9"/>
<path d="M28.8026 19.1999C28.8026 18.8472 29.1047 18.5448 29.4572 18.5448C29.8096 18.5448 30.1118 18.8472 30.1118 19.1999C30.1118 19.5527 29.8096 19.8551 29.4572 19.8551C29.0795 19.8551 28.8026 19.5527 28.8026 19.1999Z" fill="#FAF8F9"/>
<path d="M25.5799 6.75268C25.5799 6.39993 25.882 6.09756 26.2345 6.09756C26.5869 6.09756 26.8891 6.39993 26.8891 6.75268C26.8891 7.10544 26.5869 7.4078 26.2345 7.4078C25.882 7.4078 25.5799 7.10544 25.5799 6.75268Z" fill="#FAF8F9"/>
<path d="M24.6483 21.6441C25.026 21.0645 25.3281 20.4598 25.5799 19.8299C25.8064 19.2252 26.0079 18.6204 26.1086 18.0157C26.2345 17.3606 26.31 16.6803 26.31 16C26.31 15.2945 26.2345 14.5638 26.0834 13.8834C25.9575 13.2283 25.7309 12.5732 25.4791 11.9433C25.2274 11.3638 24.9252 10.8094 24.5728 10.2803C24.4972 10.1543 24.3965 10.0283 24.321 9.90235C24.2958 9.87715 24.2706 9.82676 24.2455 9.80156C24.1699 9.72597 24.1196 9.62519 24.0441 9.5496C24.0189 9.4992 23.9937 9.47401 23.9433 9.42361C23.8678 9.32283 23.7671 9.22204 23.6664 9.12125L23.6412 9.07086C23.5405 8.94487 23.4146 8.81889 23.2887 8.69291C23.1629 8.56692 23.037 8.44094 22.9111 8.31495L22.8859 8.28976C22.7852 8.18897 22.6593 8.08818 22.5586 8.01259C22.5083 7.9874 22.4831 7.937 22.4327 7.91181C22.332 7.83622 22.2565 7.76062 22.1558 7.71023C22.1054 7.68503 22.0802 7.65984 22.0299 7.63464C21.904 7.53385 21.7781 7.45826 21.6522 7.35748C21.0732 6.97952 20.4689 6.67716 19.8395 6.4252C19.2352 6.19842 18.631 5.99685 18.0267 5.89606C17.3721 5.77008 16.6924 5.69449 16.0126 5.69449C15.3076 5.69449 14.5775 5.77008 13.8977 5.92126C13.2431 6.04724 12.5885 6.27401 11.9591 6.52598C11.38 6.77795 10.8261 7.08031 10.2974 7.43307C9.7435 7.81102 9.21479 8.23936 8.73642 8.7181C8.23288 9.22204 7.7797 9.80156 7.37686 10.3811C6.99921 10.9606 6.69708 11.5653 6.44531 12.1953C6.21872 12.8 6.0173 13.4047 5.9166 14.0094C5.79071 14.6645 5.71518 15.3449 5.71518 16.0252C5.71518 16.7307 5.79071 17.4614 5.94177 18.1417C6.06766 18.7968 6.29425 19.4519 6.54602 20.0819C6.79779 20.6614 7.09992 21.2157 7.45239 21.7448C7.52793 21.8708 7.62863 21.9968 7.70416 22.1228C7.72934 22.148 7.75452 22.1984 7.7797 22.2236C7.85523 22.2992 7.90558 22.4 7.98111 22.4755C8.00629 22.5259 8.03147 22.5511 8.08182 22.6015C8.15735 22.7023 8.25806 22.8031 8.35877 22.9039C8.48465 23.0299 8.61054 23.1811 8.73642 23.307C9.23996 23.811 9.81903 24.2645 10.3981 24.6677C10.9772 25.0456 11.5814 25.348 12.2109 25.5999C12.8151 25.8267 13.4193 26.0283 14.0236 26.1291C14.6782 26.2551 15.358 26.3307 16.0378 26.3307C16.7427 26.3307 17.4728 26.2551 18.1526 26.1039C18.8072 25.9779 19.4618 25.7511 20.0913 25.4992C20.6703 25.2472 21.2242 24.9448 21.7529 24.5921C22.3068 24.2141 22.8356 23.7858 23.3139 23.307C23.8175 22.8031 24.2706 22.2488 24.6483 21.6441ZM24.3965 10.0031C24.3714 9.97794 24.3714 9.95275 24.3462 9.92755C24.3714 9.95275 24.3714 9.97794 24.3965 10.0031ZM24.1951 9.75117C24.1448 9.70078 24.0944 9.62519 24.0441 9.57479C24.0944 9.62519 24.1448 9.67558 24.1951 9.75117ZM23.9433 9.39842C23.8678 9.29763 23.7671 9.19684 23.6916 9.09605C23.7671 9.19684 23.8426 9.29763 23.9433 9.39842ZM22.8607 8.28976C22.76 8.18897 22.6593 8.11338 22.5334 8.01259C22.6593 8.11338 22.76 8.21417 22.8607 8.28976ZM22.3824 7.88661C22.3068 7.83622 22.2565 7.78582 22.181 7.73543C22.2565 7.78582 22.332 7.83622 22.3824 7.88661ZM21.9795 7.58425C21.9544 7.55905 21.9292 7.55905 21.904 7.53385C21.9292 7.55905 21.9544 7.58425 21.9795 7.58425ZM7.57828 21.9968C7.60346 22.022 7.60346 22.0472 7.62863 22.0724C7.62863 22.0472 7.60346 22.022 7.57828 21.9968ZM7.7797 22.274C7.83005 22.3244 7.8804 22.4 7.93076 22.4503C7.8804 22.4 7.83005 22.3244 7.7797 22.274ZM8.05664 22.6015C8.13217 22.7023 8.23288 22.8031 8.30841 22.9039C8.23288 22.8031 8.13217 22.7023 8.05664 22.6015Z" fill="url(#paint13_linear_204_3494)"/>
<path d="M25.882 13.9338C25.7561 13.2787 25.5295 12.6488 25.2777 12.0441C25.026 11.4646 24.7238 10.9354 24.3965 10.4063C24.0189 9.85196 23.616 9.34803 23.1377 8.86929C22.6341 8.36535 22.1054 7.93701 21.5012 7.55906C20.9473 7.2063 20.3682 6.87874 19.7388 6.65197C19.1597 6.4252 18.5806 6.24882 17.9512 6.12284C17.8002 6.09764 17.6743 6.07245 17.5232 6.04725C17.4729 6.04725 17.4225 6.02205 17.3973 6.02205C17.2966 5.99685 17.1959 5.99686 17.07 5.97166C17.0197 5.97166 16.9693 5.97166 16.919 5.94646C16.7931 5.92126 16.642 5.92126 16.5161 5.92126H16.4658C16.2895 5.92126 16.1385 5.92126 15.9622 5.92126C15.786 5.92126 15.6098 5.92126 15.4335 5.94646H15.3832C15.2321 5.94646 15.1062 5.97166 14.9551 5.97166C14.9048 5.97166 14.8544 5.97166 14.8041 5.99685C14.7034 6.02205 14.5775 6.02205 14.4768 6.04725C14.4264 6.04725 14.3761 6.07245 14.3257 6.07245C14.1747 6.09764 14.0236 6.12284 13.8725 6.14804C13.2179 6.27402 12.5885 6.47559 11.9843 6.75276C11.4052 7.00473 10.8765 7.30709 10.3478 7.63465C9.79386 8.0126 9.29032 8.41575 8.81195 8.89448C8.30841 9.39842 7.8804 9.92755 7.50275 10.5323C7.15027 11.0866 6.82297 11.6661 6.59638 12.2961C6.36978 12.8756 6.19354 13.4551 6.06766 14.085C5.94177 14.7149 5.86624 15.3953 5.86624 16.0504C5.86624 16.7559 5.94177 17.4614 6.09284 18.1417C6.21872 18.7968 6.44531 19.4267 6.69708 20.0315C6.94885 20.611 7.25098 21.1401 7.57828 21.6693C7.95594 22.2236 8.35877 22.7275 8.83713 23.2063C9.34067 23.7102 9.86939 24.1385 10.4736 24.5165C11.0275 24.8692 11.6066 25.1968 12.236 25.4236C12.8151 25.6503 13.3942 25.8267 14.0236 25.9527C14.1747 25.9779 14.3005 26.0031 14.4516 26.0283C14.502 26.0283 14.5523 26.0535 14.5775 26.0535C14.6782 26.0787 14.7789 26.0787 14.9048 26.1039C14.9551 26.1039 15.0055 26.1039 15.0559 26.1291C15.1817 26.1543 15.3328 26.1543 15.4587 26.1543C15.6349 26.1543 15.8112 26.1795 16.0126 26.1795C16.7175 26.1795 17.4225 26.1039 18.1023 25.9527C18.7569 25.8267 19.3863 25.6251 19.9906 25.348C20.5696 25.096 21.0983 24.7937 21.6271 24.4661C22.181 24.0881 22.6845 23.685 23.1629 23.2063C23.6664 22.7023 24.0944 22.1732 24.4721 21.5685C24.8245 21.0141 25.1518 20.4346 25.3784 19.8047C25.605 19.2252 25.7813 18.6456 25.9072 18.0157C26.033 17.3858 26.1086 16.7055 26.1086 16.0504C26.1086 15.2945 26.033 14.589 25.882 13.9338ZM17.6743 6.04725C17.6491 6.04725 17.6239 6.04725 17.5736 6.02205C17.5987 6.02205 17.6239 6.02205 17.6743 6.04725ZM17.347 5.99685C17.2714 5.99685 17.1959 5.97166 17.1204 5.97166C17.1959 5.97166 17.2714 5.97166 17.347 5.99685ZM16.919 5.94646C16.7931 5.94646 16.6672 5.92126 16.5413 5.92126C16.6672 5.92126 16.7931 5.92126 16.919 5.94646ZM14.8041 5.97166C14.7286 5.97166 14.653 5.99685 14.5523 5.99685C14.653 5.99685 14.7286 5.97166 14.8041 5.97166ZM14.3257 6.04725C14.3005 6.04725 14.2754 6.04725 14.225 6.07245C14.2754 6.04725 14.3005 6.04725 14.3257 6.04725ZM14.3257 25.9779C14.3509 25.9779 14.3761 25.9779 14.4264 26.0031C14.3761 25.9779 14.3509 25.9779 14.3257 25.9779ZM14.653 26.0283C14.7286 26.0283 14.8041 26.0535 14.8796 26.0535C14.8041 26.0535 14.7286 26.0283 14.653 26.0283ZM15.0559 26.0787C15.1817 26.0787 15.3076 26.1039 15.4335 26.1039C15.3076 26.1039 15.1817 26.0787 15.0559 26.0787Z" fill="#268A00"/>
<path d="M10.0973 21.7918H18.8398C21.8575 21.7918 22.7392 20.3336 22.7392 18.5926V18.4141C22.7392 16.4649 21.4353 15.8102 20.6157 15.5721C21.2242 15.4084 22.2052 14.7835 22.2052 13.3997V13.236C22.2052 11.9712 21.485 10.7213 18.7902 10.7213H10.0973V21.7918ZM17.7222 13.236C18.4549 13.236 18.666 13.5633 18.666 13.9949V14.0246C18.666 14.4412 18.4549 14.7984 17.7222 14.7984H13.6241V13.236H17.7222ZM17.9457 17.2832C18.8523 17.2832 19.0385 17.7147 19.0385 18.1909V18.2355C19.0385 18.667 18.8647 19.1878 17.9457 19.1878H13.6241V17.2832H17.9457Z" fill="#0D7016"/>
<path d="M9.87656 21.35H18.6191C21.6368 21.35 22.5185 19.8918 22.5185 18.1509V17.9723C22.5185 16.0231 21.2146 15.3684 20.395 15.1303C21.0035 14.9667 21.9845 14.3417 21.9845 12.9579V12.7943C21.9845 11.5295 21.2643 10.2796 18.5695 10.2796H9.87656V21.35ZM17.5015 12.7943C18.2342 12.7943 18.4453 13.1216 18.4453 13.5531V13.5829C18.4453 13.9995 18.2342 14.3566 17.5015 14.3566H13.4034V12.7943H17.5015ZM17.725 16.8415C18.6316 16.8415 18.8178 17.273 18.8178 17.7492V17.7938C18.8178 18.2253 18.644 18.7461 17.725 18.7461H13.4034V16.8415H17.725Z" fill="#EBDFE2"/>
<defs>
<linearGradient id="paint0_linear_204_3494" x1="24.1011" y1="24.1192" x2="7.92262" y2="7.95337" gradientUnits="userSpaceOnUse">
<stop stop-color="#64E771"/>
<stop offset="1" stop-color="#046A0E"/>
</linearGradient>
<linearGradient id="paint1_linear_204_3494" x1="0.173369" y1="20.6075" x2="1.11557" y2="20.3286" gradientUnits="userSpaceOnUse">
<stop stop-color="#9FA3A5"/>
<stop offset="0.2936" stop-color="#C6C8C9"/>
<stop offset="0.5842" stop-color="#E5E6E7"/>
<stop offset="0.8296" stop-color="#F8F8F9"/>
<stop offset="1" stop-color="white"/>
</linearGradient>
<linearGradient id="paint2_linear_204_3494" x1="28.5278" y1="27.4933" x2="27.1699" y2="26.1365" gradientUnits="userSpaceOnUse">
<stop stop-color="#9FA3A5"/>
<stop offset="0.2936" stop-color="#C6C8C9"/>
<stop offset="0.5842" stop-color="#E5E6E7"/>
<stop offset="0.8296" stop-color="#F8F8F9"/>
<stop offset="1" stop-color="white"/>
</linearGradient>
<linearGradient id="paint3_linear_204_3494" x1="10.0743" y1="31.2954" x2="10.4349" y2="30.3623" gradientUnits="userSpaceOnUse">
<stop stop-color="#9FA3A5"/>
<stop offset="0.2936" stop-color="#C6C8C9"/>
<stop offset="0.5842" stop-color="#E5E6E7"/>
<stop offset="0.8296" stop-color="#F8F8F9"/>
<stop offset="1" stop-color="white"/>
</linearGradient>
<linearGradient id="paint4_linear_204_3494" x1="32.167" y1="11.3671" x2="30.4649" y2="11.7596" gradientUnits="userSpaceOnUse">
<stop stop-color="#9FA3A5"/>
<stop offset="0.2936" stop-color="#C6C8C9"/>
<stop offset="0.5842" stop-color="#E5E6E7"/>
<stop offset="0.8296" stop-color="#F8F8F9"/>
<stop offset="1" stop-color="white"/>
</linearGradient>
<linearGradient id="paint5_linear_204_3494" x1="22.213" y1="0.0282647" x2="21.5497" y2="1.63294" gradientUnits="userSpaceOnUse">
<stop stop-color="#9FA3A5"/>
<stop offset="0.2936" stop-color="#C6C8C9"/>
<stop offset="0.5842" stop-color="#E5E6E7"/>
<stop offset="0.8296" stop-color="#F8F8F9"/>
<stop offset="1" stop-color="white"/>
</linearGradient>
<linearGradient id="paint6_linear_204_3494" x1="0.0912735" y1="12.1707" x2="-1.51886" y2="11.6134" gradientUnits="userSpaceOnUse">
<stop stop-color="#A5F9A3"/>
<stop offset="1" stop-color="#A5F9A3"/>
</linearGradient>
<linearGradient id="paint7_linear_204_3494" x1="4.81629" y1="26.2556" x2="3.59423" y2="27.4175" gradientUnits="userSpaceOnUse">
<stop stop-color="#4EDB4B"/>
<stop offset="1" stop-color="#24B421"/>
</linearGradient>
<linearGradient id="paint8_linear_204_3494" x1="19.1079" y1="29.292" x2="19.9003" y2="32.4125" gradientUnits="userSpaceOnUse">
<stop stop-color="#21AD1E"/>
<stop offset="1" stop-color="#038600"/>
</linearGradient>
<linearGradient id="paint9_linear_204_3494" x1="30.5901" y1="14.0094" x2="30.5901" y2="24.7433" gradientUnits="userSpaceOnUse">
<stop stop-color="#2BC628"/>
<stop offset="1" stop-color="#139D10"/>
</linearGradient>
<linearGradient id="paint10_linear_204_3494" x1="26.428" y1="6.15447" x2="28.2914" y2="5.08396" gradientUnits="userSpaceOnUse">
<stop stop-color="#2BC628"/>
<stop offset="0.0001" stop-color="#2BC628"/>
<stop offset="0.979167" stop-color="#2BC628"/>
</linearGradient>
<linearGradient id="paint11_linear_204_3494" x1="11.8519" y1="0.395372" x2="11.8592" y2="-0.981759" gradientUnits="userSpaceOnUse">
<stop stop-color="#71DE6F"/>
<stop offset="1" stop-color="#2AC427"/>
</linearGradient>
<linearGradient id="paint12_linear_204_3494" x1="3.06169" y1="4.21272" x2="4.62881" y2="5.66321" gradientUnits="userSpaceOnUse">
<stop stop-color="#9FA3A5"/>
<stop offset="0.2936" stop-color="#C6C8C9"/>
<stop offset="0.5842" stop-color="#E5E6E7"/>
<stop offset="0.8296" stop-color="#F8F8F9"/>
<stop offset="1" stop-color="white"/>
</linearGradient>
<linearGradient id="paint13_linear_204_3494" x1="8.66353" y1="8.6712" x2="23.2771" y2="23.2733" gradientUnits="userSpaceOnUse">
<stop stop-color="#63E570"/>
<stop offset="1" stop-color="#0A7114"/>
</linearGradient>
</defs>
</svg>
