<svg width="32" height="33" viewBox="0 0 32 33" fill="none" xmlns="http://www.w3.org/2000/svg">
<path d="M16 32.1C24.8672 32.1 32 24.9672 32 16.1C32 7.23281 24.8672 0.100006 16 0.100006C7.1328 0.100006 0 7.23281 0 16.1C0 24.9672 7.1328 32.1 16 32.1Z" fill="#2775CA"/>
<path d="M20.4 18.6328C20.4 16.3 19 15.5 16.2 15.1656C14.2 14.8984 13.8 14.3656 13.8 13.4328C13.8 12.5 14.4672 11.9 15.8 11.9C17 11.9 17.6672 12.3 18 13.3C18.0672 13.5 18.2672 13.6328 18.4672 13.6328H19.5344C19.8016 13.6328 20.0016 13.4328 20.0016 13.1656V13.0984C19.7344 11.6312 18.5344 10.4984 17.0016 10.3656V8.76559C17.0016 8.49839 16.8016 8.29839 16.4688 8.23279H15.4688C15.2016 8.23279 15.0016 8.43279 14.936 8.76559V10.2984C12.936 10.5656 11.6688 11.8984 11.6688 13.5656C11.6688 15.7656 13.0016 16.6328 15.8016 16.9656C17.6688 17.2984 18.2688 17.6984 18.2688 18.7656C18.2688 19.8328 17.336 20.5656 16.0688 20.5656C14.336 20.5656 13.736 19.8328 13.536 18.8328C13.4688 18.5656 13.2688 18.4328 13.0688 18.4328H11.936C11.6688 18.4328 11.4688 18.6328 11.4688 18.9V18.9672C11.736 20.6344 12.8016 21.8344 15.0016 22.1672V23.7672C15.0016 24.0344 15.2016 24.2344 15.5344 24.3H16.5344C16.8016 24.3 17.0016 24.1 17.0672 23.7672V22.1672C19.0656 21.8328 20.4 20.4328 20.4 18.6328Z" fill="white"/>
<path d="M12.6 25.6328C7.4 23.7656 4.7328 17.9656 6.6672 12.8328C7.6672 10.0328 9.8672 7.90002 12.6 6.90001C12.8672 6.76721 13 6.56721 13 6.23281V5.30001C13 5.03281 12.8672 4.83281 12.6 4.76721C12.5328 4.76721 12.4 4.76721 12.3328 4.83441C6 6.83441 2.5328 13.5672 4.5328 19.9016C5.7328 23.6344 8.6 26.5016 12.3328 27.7016C12.6 27.8344 12.8656 27.7016 12.9328 27.4344C13 27.3672 13 27.3016 13 27.1672V26.2344C13 26.0328 12.8 25.7672 12.6 25.6328ZM19.6656 4.83281C19.3984 4.70001 19.1328 4.83281 19.0656 5.10001C18.9984 5.16721 18.9984 5.23281 18.9984 5.36721V6.30001C18.9984 6.56721 19.1984 6.83281 19.3984 6.96721C24.5984 8.83442 27.2656 14.6344 25.3312 19.7672C24.3312 22.5672 22.1312 24.7 19.3984 25.7C19.1312 25.8328 18.9984 26.0328 18.9984 26.3672V27.3C18.9984 27.5672 19.1312 27.7672 19.3984 27.8328C19.4656 27.8328 19.5984 27.8328 19.6656 27.7656C25.9984 25.7656 29.4656 19.0328 27.4656 12.6984C26.2656 8.90002 23.3328 6.03281 19.6656 4.83281Z" fill="white"/>
</svg>
